<?xml version="1.0" encoding="utf-8"?>
<!-- Generator: Adobe Illustrator 26.0.1, SVG Export Plug-In . SVG Version: 6.00 Build 0)  -->
<svg version="1.1" id="Layer_1" xmlns="http://www.w3.org/2000/svg" xmlns:xlink="http://www.w3.org/1999/xlink" x="0px" y="0px"
	 viewBox="0 0 308 541" style="enable-background:new 0 0 308 541;" xml:space="preserve">
<style type="text/css">
	.st0{fill-rule:evenodd;clip-rule:evenodd;fill:#DC3073;}
	.st1{fill:#DC3073;}
	.st2{opacity:0.3;fill:#DC3073;}
</style>
<path class="st0" d="M22.5,496.2c0.1-0.2,0.3-0.4,0.5-0.4c0.3,0,0.5,0.2,0.5,0.4c0,0,1,3.3,2.1,6.9c1.7,5.7,6.2,10.2,11.9,11.9
	c3.6,1.1,6.9,2.1,6.9,2.1c0.2,0.1,0.4,0.3,0.4,0.5c0,0.3-0.2,0.5-0.4,0.5c0,0-3.3,1-6.9,2.1c-5.7,1.7-10.2,6.2-11.9,11.9
	c-1.1,3.6-2.1,6.9-2.1,6.9c-0.1,0.2-0.3,0.4-0.5,0.4c-0.3,0-0.5-0.2-0.5-0.4c0,0-1-3.3-2.1-6.9c-1.7-5.7-6.2-10.2-11.9-11.9
	c-3.6-1.1-6.9-2.1-6.9-2.1c-0.2-0.1-0.4-0.3-0.4-0.5c0-0.3,0.2-0.5,0.4-0.5c0,0,3.3-1,6.9-2.1c5.7-1.7,10.2-6.2,11.9-11.9
	C21.5,499.5,22.5,496.2,22.5,496.2z"/>
<g>
	<g>
		<path class="st1" d="M241.8,24.8L217.1,39l10.2,6.3l0,0.1l-10.2,6.3L241.8,66c7.4,4.3,16.3,4.3,23.8,0
			c7.3-4.2,11.7-11.7,11.9-20.1l0,0l0-0.2c0-0.1,0-0.2,0-0.2l0,0v0h0c0,0,0-0.1,0-0.1l0-0.5l0,0c-0.2-8.4-4.6-15.8-11.9-20
			C258.1,20.5,249.3,20.5,241.8,24.8z M236.5,45.4l12.9-7.4c3.9-2.2,7.3-0.7,8.6,0c1.3,0.7,4.3,3,4.3,7.4c0,4.5-3,6.7-4.3,7.4
			c-1.3,0.7-4.7,2.2-8.6,0L236.5,45.4z M263.3,28.8c5.9,3.4,9.4,9.4,9.5,16.2l0,0.7c-0.1,7-4,13.3-10.2,16.6
			c-5.9,3.1-12.9,2.8-18.6-0.5l-17.7-10.2l5.7-3.5l15.2,8.8c6,3.5,11.3,1.2,13.3,0c2-1.1,6.6-4.6,6.6-11.5c0-6.9-4.6-10.3-6.6-11.5
			c-2-1.2-7.3-3.5-13.3,0l-15.2,8.7l-5.7-3.5l17.9-10.3C250.1,25.4,257.3,25.4,263.3,28.8z"/>
		<path class="st2" d="M227.8,43.3l1.6,1l0,0.1l4.6,2.7l3,1.7c0.7-0.6,1.2-1.4,1.6-2.2l-2.1-1.2l2-1.1l-4.5-2.6l-0.2-0.1l-2,1.1
			l-3-1.8C228.4,41.5,228,42.3,227.8,43.3z"/>
		<path class="st1" d="M241.8,24.8L217.1,39l10.2,6.3l0,0.1l4.6,2.7l15.2,8.8c6,3.5,11.3,1.2,13.3,0c2-1.1,6.6-4.6,6.6-11.5
			c0-4.7-2.1-7.8-4.1-9.6c2.4,2.7,3.6,6.7,2.3,10.8c-1,3.5-3.8,6.2-7.3,7.2c-3.7,1.1-7.3,0.2-9.9-1.8l-11.4-6.6l-4.6-2.7l-5.7-3.5
			l17.9-10.3c2.6-1.5,5.5-2.4,8.3-2.5l0,0c0.1,0,0.2,0,0.3,0c0.2,0,0.3,0,0.5,0c0,0,0,0,0,0c0.3,0,0.6,0,0.8,0c0,0,0,0,0,0
			c0.1,0,0.3,0,0.4,0c3.8,0.1,7.6,1.2,11,3.2c6.8,3.9,11,10.6,11.8,18.2c0.1-0.6,0.1-1.2,0.1-1.9l0,0l0-0.2c0-0.1,0-0.2,0-0.2l0,0
			l0,0h0c0,0,0-0.1,0-0.1l0-0.5l0,0c-0.2-8.4-4.6-15.8-11.9-20C258.1,20.5,249.3,20.5,241.8,24.8z"/>
		<polygon class="st2" points="226.2,39.2 221.5,36.5 227.8,38.3 		"/>
		<polygon class="st2" points="221.6,48.9 226.2,51.6 227.8,50.6 		"/>
	</g>
	<circle class="st1" cx="213.6" cy="45.4" r="3.7"/>
</g>
</svg>
