<?xml version="1.0" encoding="utf-8"?>
<!-- Generator: Adobe Illustrator 26.0.1, SVG Export Plug-In . SVG Version: 6.00 Build 0)  -->
<svg version="1.1" id="Layer_1" xmlns="http://www.w3.org/2000/svg" xmlns:xlink="http://www.w3.org/1999/xlink" x="0px" y="0px"
	 viewBox="0 0 191.8 36.6" style="enable-background:new 0 0 191.8 36.6;" xml:space="preserve">
<style type="text/css">
	.st0{fill:#FFFFFF;}
</style>
<g>
	<g>
		<path class="st0" d="M30,5.2L30,5.2C30,5.2,30,5.2,30,5.2c0.1,0,0.1,0,0.2,0C30.1,5.2,30.1,5.2,30,5.2z"/>
		<path class="st0" d="M46.4,18.4V18h0c-0.1-5.8-3-10.9-7.8-13.8c-4.9-3-10.7-3-15.6,0l-13.3,8L6.8,14l6.7,4.3v0.1l-3.7,2.4l-3,1.9
			L23,32.6c4.9,3,10.7,3,15.6,0c4.7-2.8,7.6-7.8,7.8-13.5c0-0.1,0-0.3,0-0.4l0,0v-0.1C46.4,18.5,46.4,18.4,46.4,18.4L46.4,18.4
			L46.4,18.4L46.4,18.4z M43.3,18.6c-0.1,4.8-2.6,9.1-6.7,11.4c-3.8,2.1-8.5,1.9-12.2-0.3l-11.6-7l1-0.6h0l2.7-1.7l9.9,6
			c3.9,2.4,7.4,0.8,8.7,0c1.3-0.8,4.3-3.1,4.3-7.9c0-0.2,0-0.3,0-0.5c0-0.1,0-0.1,0-0.2c0-0.1,0-0.1,0-0.2c0,0,0-0.1,0-0.1
			c0-0.1,0-0.1,0-0.2c0-0.3-0.1-0.5-0.1-0.7c0,0,0-0.1,0-0.1c-0.1-0.3-0.1-0.5-0.2-0.8c0-0.1-0.1-0.2-0.1-0.3c0-0.1,0-0.1-0.1-0.2
			c0-0.1,0-0.1-0.1-0.2c0-0.1-0.1-0.2-0.1-0.3c0-0.1,0-0.1-0.1-0.2c-0.3-0.6-0.6-1.1-0.9-1.5c0,0-0.1-0.1-0.1-0.1
			c-0.1-0.1-0.2-0.3-0.3-0.4c0,0-0.1-0.1-0.1-0.1c-0.1-0.1-0.2-0.3-0.4-0.4c0,0-0.1-0.1-0.1-0.1c-0.6-0.6-1.2-1-1.6-1.3
			c-1.3-0.8-4.8-2.4-8.7,0l-8.6,5.2l-1.3,0.8l-1.9-1.2l-1.8-1.2l1-0.6L24.5,7c0.3-0.2,0.7-0.4,1-0.6c0.1,0,0.2-0.1,0.2-0.1
			c0,0,0.1,0,0.1-0.1c0.1,0,0.2-0.1,0.2-0.1c0.1,0,0.2-0.1,0.3-0.1c0.1,0,0.2-0.1,0.2-0.1c0.1,0,0.1-0.1,0.2-0.1
			c0.1,0,0.2-0.1,0.3-0.1c0.2,0,0.3-0.1,0.5-0.1c0.1,0,0.2-0.1,0.3-0.1c0.1,0,0.2,0,0.3-0.1c0.1,0,0.2,0,0.3-0.1c0,0,0.1,0,0.1,0
			c0.1,0,0.2,0,0.3,0c0.1,0,0.1,0,0.2,0c0.1,0,0.1,0,0.2,0c0.1,0,0.2,0,0.3,0c0.1,0,0.3,0,0.4,0c0,0,0,0,0,0v0c0.1,0,0.1,0,0.2,0h0
			c0.1,0,0.2,0,0.3,0h0c0.2,0,0.4,0,0.5,0h0c0,0,0,0,0,0c0,0,0.1,0,0.1,0c0,0,0.1,0,0.1,0c0.1,0,0.1,0,0.2,0C33.5,5.3,35.3,5.9,37,7
			c3.9,2.3,6.2,6.5,6.3,11.2V18.6z M19.5,18.4l1.3-0.8l7.1-4.3c2.5-1.5,4.8-0.5,5.6,0c0.8,0.5,2.8,2,2.8,5.1c0,3.1-2,4.6-2.8,5.1
			c-0.8,0.5-3.1,1.5-5.6,0l-1-0.6l0,0l-6.1-3.7L19.5,18.4z"/>
	</g>
	<ellipse class="st0" cx="4.5" cy="18.4" rx="2.4" ry="2.5"/>
</g>
<g>
	<path class="st0" d="M50.9,22.7V1.7h6.9c1.5,0,2.9,0.3,4.1,0.8C63,3.1,64,3.9,64.8,4.8c0.8,0.9,1.4,2,1.8,3.3
		c0.4,1.3,0.6,2.6,0.6,4.1c0,1.6-0.2,3-0.7,4.3c-0.4,1.3-1.1,2.4-1.9,3.3c-0.8,0.9-1.8,1.6-2.9,2.1c-1.1,0.5-2.4,0.8-3.8,0.8H50.9z
		 M63.4,12.2c0-1-0.1-1.9-0.4-2.8c-0.2-0.8-0.6-1.6-1.1-2.2c-0.5-0.6-1.1-1.1-1.8-1.4c-0.7-0.3-1.5-0.5-2.4-0.5h-3.2v13.8h3.2
		c0.9,0,1.7-0.2,2.4-0.5c0.7-0.4,1.3-0.8,1.8-1.5c0.5-0.6,0.8-1.4,1.1-2.2C63.3,14.1,63.4,13.2,63.4,12.2z"/>
	<path class="st0" d="M76.1,22.7c-1.1,0-2.1-0.2-3-0.6c-0.9-0.4-1.7-1-2.3-1.7c-0.6-0.7-1.1-1.5-1.5-2.5C68.9,17,68.8,16,68.8,15
		c0-1.1,0.2-2.1,0.5-3c0.3-0.9,0.8-1.8,1.5-2.5c0.6-0.7,1.4-1.3,2.3-1.7C74,7.4,75,7.2,76.1,7.2c1.1,0,2.2,0.2,3,0.6
		c0.9,0.4,1.7,1,2.3,1.7c0.6,0.7,1.1,1.5,1.4,2.5c0.3,0.9,0.5,1.9,0.5,2.9c0,0.2,0,0.5,0,0.7c0,0.2,0,0.4-0.1,0.6H72.5
		c0.1,0.6,0.2,1.1,0.4,1.6c0.2,0.5,0.5,0.8,0.8,1.2c0.3,0.3,0.7,0.6,1.1,0.7c0.4,0.2,0.9,0.3,1.3,0.3c0.7,0,1.4-0.2,2-0.6
		c0.6-0.4,1.1-0.9,1.3-1.5l3.1,0.9c-0.5,1.1-1.3,2.1-2.5,2.8C79,22.3,77.7,22.7,76.1,22.7z M79.7,13.7c-0.1-1.1-0.5-2-1.2-2.7
		c-0.7-0.7-1.5-1-2.5-1c-0.5,0-0.9,0.1-1.3,0.3c-0.4,0.2-0.8,0.4-1.1,0.8c-0.3,0.3-0.6,0.7-0.8,1.2c-0.2,0.5-0.3,1-0.4,1.5H79.7z"/>
	<path class="st0" d="M85.6,1.7h3.6v15.9c0,0.5,0.1,1,0.4,1.3c0.2,0.3,0.6,0.5,1.1,0.5c0.2,0,0.4,0,0.7-0.1c0.3-0.1,0.5-0.2,0.7-0.3
		l0.5,2.9c-0.5,0.2-1,0.4-1.7,0.6s-1.2,0.2-1.7,0.2c-1.1,0-2-0.3-2.6-0.9c-0.6-0.6-0.9-1.5-0.9-2.7V1.7z"/>
	<path class="st0" d="M94,3.8L94,3.8c0-1,0.8-1.9,1.8-1.9h0c1,0,1.8,0.8,1.8,1.9v0c0,1-0.8,1.9-1.8,1.9h0C94.8,5.6,94,4.8,94,3.8z
		 M94,22.7V7.7h3.6v14.9H94z"/>
	<path class="st0" d="M114.3,20.2c-1.5,1.6-3.3,2.5-5.3,2.5c-1.2,0-2.4-0.3-3.5-0.8c-1.1-0.5-2-1.3-2.8-2.2
		c-0.8-0.9-1.4-2.1-1.9-3.4c-0.5-1.3-0.7-2.7-0.7-4.2c0-1.4,0.2-2.7,0.7-4c0.5-1.2,1.1-2.3,1.9-3.3c0.8-0.9,1.8-1.7,2.9-2.2
		c1.1-0.6,2.3-0.8,3.6-0.8c1.8,0,3.3,0.4,4.6,1.2c1.3,0.8,2.2,1.9,2.9,3.3l-2.7,2.2c-0.5-1-1.1-1.8-2-2.4c-0.9-0.5-1.8-0.8-2.8-0.8
		c-0.8,0-1.5,0.2-2.2,0.6c-0.7,0.4-1.2,0.9-1.7,1.5c-0.5,0.6-0.8,1.4-1.1,2.2c-0.3,0.8-0.4,1.7-0.4,2.6c0,1,0.1,1.9,0.4,2.7
		c0.3,0.8,0.7,1.6,1.2,2.2c0.5,0.6,1.1,1.1,1.8,1.5c0.7,0.4,1.4,0.5,2.2,0.5c1.8,0,3.5-0.9,5-2.8v-1.5h-3.8v-2.9h6.8v10.6h-3V20.2z"
		/>
	<path class="st0" d="M126.6,22.6c-1.1,0-2.2-0.2-3.1-0.6c-0.9-0.4-1.7-1-2.3-1.7c-0.6-0.7-1.1-1.5-1.5-2.5
		c-0.3-0.9-0.5-1.9-0.5-2.9c0-1,0.2-2,0.5-3c0.3-0.9,0.8-1.8,1.5-2.5c0.6-0.7,1.4-1.3,2.3-1.7c0.9-0.4,1.9-0.6,3.1-0.6
		c1.1,0,2.2,0.2,3,0.6c0.9,0.4,1.7,1,2.3,1.7c0.6,0.7,1.1,1.5,1.5,2.5c0.3,0.9,0.5,1.9,0.5,3c0,1-0.2,2-0.5,2.9
		c-0.3,0.9-0.8,1.8-1.4,2.5c-0.6,0.7-1.4,1.3-2.3,1.7C128.7,22.4,127.7,22.6,126.6,22.6z M122.9,14.9c0,0.7,0.1,1.3,0.3,1.8
		c0.2,0.5,0.4,1,0.8,1.4c0.3,0.4,0.7,0.7,1.2,0.9c0.4,0.2,0.9,0.3,1.4,0.3c0.5,0,1-0.1,1.4-0.3c0.4-0.2,0.8-0.5,1.2-0.9
		c0.3-0.4,0.6-0.9,0.8-1.4c0.2-0.6,0.3-1.2,0.3-1.8c0-0.6-0.1-1.2-0.3-1.8c-0.2-0.6-0.4-1-0.8-1.4c-0.3-0.4-0.7-0.7-1.2-0.9
		c-0.4-0.2-0.9-0.3-1.4-0.3c-0.5,0-1,0.1-1.4,0.3c-0.4,0.2-0.8,0.5-1.2,0.9c-0.3,0.4-0.6,0.9-0.8,1.4
		C123,13.7,122.9,14.3,122.9,14.9z"/>
</g>
<rect x="50.9" y="26.1" class="st0" width="83" height="0.7"/>
<g>
	<path class="st0" d="M52.7,33.7c-0.3,0-0.5-0.1-0.7-0.2s-0.4-0.3-0.6-0.4c-0.2-0.2-0.3-0.4-0.4-0.6s-0.1-0.5-0.1-0.7
		c0-0.3,0-0.5,0.1-0.7c0.1-0.2,0.2-0.4,0.4-0.6c0.2-0.2,0.4-0.3,0.6-0.4c0.2-0.1,0.5-0.2,0.7-0.2c0.3,0,0.5,0.1,0.7,0.2
		s0.4,0.3,0.6,0.4c0.2,0.2,0.3,0.4,0.4,0.6s0.1,0.5,0.1,0.7c0,0.3,0,0.5-0.1,0.7c-0.1,0.2-0.2,0.4-0.4,0.6s-0.4,0.3-0.6,0.4
		S53,33.7,52.7,33.7z M51.4,31.7c0,0.2,0,0.4,0.1,0.6s0.2,0.3,0.3,0.5c0.1,0.1,0.3,0.3,0.4,0.3s0.3,0.1,0.5,0.1c0.2,0,0.4,0,0.6-0.1
		c0.2-0.1,0.3-0.2,0.4-0.3c0.1-0.1,0.2-0.3,0.3-0.5c0.1-0.2,0.1-0.4,0.1-0.5c0-0.2,0-0.4-0.1-0.6s-0.2-0.3-0.3-0.5
		c-0.1-0.1-0.3-0.3-0.4-0.3c-0.2-0.1-0.3-0.1-0.5-0.1c-0.2,0-0.4,0-0.6,0.1s-0.3,0.2-0.4,0.3c-0.1,0.1-0.2,0.3-0.3,0.5
		C51.4,31.3,51.4,31.5,51.4,31.7z"/>
	<path class="st0" d="M56.6,33.7c-0.2,0-0.4-0.1-0.6-0.2c-0.2-0.1-0.3-0.3-0.4-0.4v1.7h-0.5v-4h0.4v0.5c0.1-0.2,0.3-0.3,0.4-0.4
		s0.4-0.2,0.6-0.2c0.2,0,0.4,0,0.5,0.1c0.2,0.1,0.3,0.2,0.4,0.3c0.1,0.1,0.2,0.3,0.3,0.5c0.1,0.2,0.1,0.4,0.1,0.6
		c0,0.2,0,0.4-0.1,0.6c-0.1,0.2-0.1,0.3-0.3,0.5c-0.1,0.1-0.2,0.2-0.4,0.3C57,33.7,56.8,33.7,56.6,33.7z M56.5,33.3
		c0.1,0,0.3,0,0.4-0.1c0.1-0.1,0.2-0.1,0.3-0.2c0.1-0.1,0.1-0.2,0.2-0.3c0-0.1,0.1-0.3,0.1-0.4c0-0.1,0-0.3-0.1-0.4
		c-0.1-0.1-0.1-0.2-0.2-0.3c-0.1-0.1-0.2-0.2-0.3-0.2c-0.1-0.1-0.2-0.1-0.4-0.1c-0.1,0-0.2,0-0.3,0.1s-0.2,0.1-0.3,0.1
		c-0.1,0.1-0.2,0.1-0.2,0.2c-0.1,0.1-0.1,0.2-0.1,0.2v0.8c0,0.1,0.1,0.2,0.2,0.3c0.1,0.1,0.1,0.2,0.2,0.2s0.2,0.1,0.3,0.1
		S56.4,33.3,56.5,33.3z"/>
	<path class="st0" d="M59.7,33.7c-0.2,0-0.4,0-0.6-0.1c-0.2-0.1-0.3-0.2-0.5-0.3s-0.2-0.3-0.3-0.5s-0.1-0.4-0.1-0.6
		c0-0.2,0-0.4,0.1-0.6s0.2-0.3,0.3-0.5s0.3-0.2,0.5-0.3c0.2-0.1,0.4-0.1,0.6-0.1s0.4,0,0.6,0.1c0.2,0.1,0.3,0.2,0.4,0.3
		c0.1,0.1,0.2,0.3,0.3,0.5c0.1,0.2,0.1,0.4,0.1,0.5c0,0,0,0.1,0,0.1c0,0,0,0.1,0,0.1h-2.3c0,0.1,0,0.3,0.1,0.4
		c0.1,0.1,0.1,0.2,0.2,0.3s0.2,0.1,0.3,0.2s0.2,0.1,0.3,0.1c0.1,0,0.2,0,0.3,0c0.1,0,0.2-0.1,0.2-0.1c0.1,0,0.1-0.1,0.2-0.1
		s0.1-0.1,0.1-0.2l0.4,0.1c0,0.1-0.1,0.2-0.2,0.3s-0.2,0.2-0.3,0.2c-0.1,0.1-0.2,0.1-0.4,0.1S59.8,33.7,59.7,33.7z M60.7,32
		c0-0.1,0-0.3-0.1-0.4c-0.1-0.1-0.1-0.2-0.2-0.3c-0.1-0.1-0.2-0.1-0.3-0.2c-0.1,0-0.2-0.1-0.4-0.1s-0.2,0-0.4,0.1
		c-0.1,0-0.2,0.1-0.3,0.2c-0.1,0.1-0.2,0.2-0.2,0.3c-0.1,0.1-0.1,0.2-0.1,0.4H60.7z"/>
	<path class="st0" d="M63.1,31.2c-0.2,0-0.4,0.1-0.6,0.2c-0.2,0.1-0.3,0.3-0.4,0.5v1.7h-0.5v-2.8h0.4v0.7c0.1-0.2,0.2-0.4,0.4-0.5
		c0.2-0.1,0.3-0.2,0.5-0.2c0,0,0.1,0,0.1,0s0,0,0.1,0V31.2z"/>
	<path class="st0" d="M64.3,33.7c-0.1,0-0.3,0-0.4-0.1c-0.1,0-0.2-0.1-0.3-0.2c-0.1-0.1-0.2-0.2-0.2-0.3c0-0.1-0.1-0.2-0.1-0.4
		c0-0.1,0-0.2,0.1-0.4c0.1-0.1,0.1-0.2,0.2-0.3c0.1-0.1,0.2-0.1,0.4-0.2c0.1,0,0.3-0.1,0.5-0.1c0.1,0,0.3,0,0.4,0
		c0.1,0,0.3,0.1,0.4,0.1v-0.2c0-0.2-0.1-0.4-0.2-0.5c-0.1-0.1-0.3-0.2-0.6-0.2c-0.3,0-0.6,0.1-0.9,0.3l-0.2-0.3
		c0.4-0.2,0.7-0.4,1.1-0.4c0.4,0,0.7,0.1,0.9,0.3c0.2,0.2,0.3,0.5,0.3,0.8v1.2c0,0.1,0.1,0.2,0.2,0.2v0.4c-0.1,0-0.1,0-0.1,0
		c0,0-0.1,0-0.1,0c-0.1,0-0.2,0-0.2-0.1c-0.1-0.1-0.1-0.1-0.1-0.2l0-0.2c-0.1,0.2-0.3,0.3-0.5,0.4C64.8,33.7,64.5,33.7,64.3,33.7z
		 M64.5,33.3c0.2,0,0.3,0,0.5-0.1c0.1-0.1,0.3-0.1,0.3-0.3c0.1-0.1,0.1-0.1,0.1-0.2v-0.4c-0.2-0.1-0.5-0.1-0.7-0.1
		c-0.2,0-0.4,0.1-0.6,0.2c-0.1,0.1-0.2,0.2-0.2,0.4c0,0.1,0,0.2,0,0.2c0,0.1,0.1,0.1,0.1,0.2c0.1,0.1,0.1,0.1,0.2,0.1
		C64.3,33.3,64.4,33.3,64.5,33.3z"/>
	<path class="st0" d="M68,33.5c0,0-0.1,0-0.1,0.1c0,0-0.1,0-0.2,0.1c-0.1,0-0.1,0-0.2,0s-0.1,0-0.2,0c-0.2,0-0.3,0-0.4-0.1
		c-0.1-0.1-0.2-0.2-0.2-0.4v-1.9h-0.4v-0.4h0.4v-0.9h0.5v0.9h0.6v0.4h-0.6v1.8c0,0.1,0,0.2,0.1,0.2c0.1,0,0.1,0.1,0.2,0.1
		c0.1,0,0.2,0,0.3,0c0.1,0,0.1-0.1,0.2-0.1L68,33.5z"/>
	<path class="st0" d="M69.7,33.7c-0.2,0-0.4,0-0.6-0.1c-0.2-0.1-0.3-0.2-0.5-0.3s-0.2-0.3-0.3-0.5s-0.1-0.4-0.1-0.6
		c0-0.2,0-0.4,0.1-0.6s0.2-0.3,0.3-0.5s0.3-0.2,0.5-0.3c0.2-0.1,0.4-0.1,0.6-0.1s0.4,0,0.6,0.1c0.2,0.1,0.3,0.2,0.4,0.3
		c0.1,0.1,0.2,0.3,0.3,0.5c0.1,0.2,0.1,0.4,0.1,0.5c0,0,0,0.1,0,0.1c0,0,0,0.1,0,0.1h-2.3c0,0.1,0,0.3,0.1,0.4
		c0.1,0.1,0.1,0.2,0.2,0.3s0.2,0.1,0.3,0.2s0.2,0.1,0.3,0.1c0.1,0,0.2,0,0.3,0c0.1,0,0.2-0.1,0.2-0.1c0.1,0,0.1-0.1,0.2-0.1
		s0.1-0.1,0.1-0.2l0.4,0.1c0,0.1-0.1,0.2-0.2,0.3s-0.2,0.2-0.3,0.2c-0.1,0.1-0.2,0.1-0.4,0.1S69.8,33.7,69.7,33.7z M70.7,32
		c0-0.1,0-0.3-0.1-0.4c-0.1-0.1-0.1-0.2-0.2-0.3c-0.1-0.1-0.2-0.1-0.3-0.2c-0.1,0-0.2-0.1-0.4-0.1s-0.2,0-0.4,0.1
		c-0.1,0-0.2,0.1-0.3,0.2c-0.1,0.1-0.2,0.2-0.2,0.3c-0.1,0.1-0.1,0.2-0.1,0.4H70.7z"/>
	<path class="st0" d="M72.8,33.7c-0.2,0-0.4,0-0.5-0.1c-0.2-0.1-0.3-0.2-0.4-0.3c-0.1-0.1-0.2-0.3-0.3-0.5c-0.1-0.2-0.1-0.4-0.1-0.6
		c0-0.2,0-0.4,0.1-0.6c0.1-0.2,0.2-0.3,0.3-0.5c0.1-0.1,0.2-0.2,0.4-0.3c0.2-0.1,0.3-0.1,0.5-0.1c0.2,0,0.4,0.1,0.6,0.2
		s0.3,0.3,0.4,0.4v-1.7h0.5v3.4c0,0.1,0.1,0.2,0.2,0.2v0.4c-0.1,0-0.1,0-0.1,0c0,0-0.1,0-0.1,0c-0.1,0-0.2,0-0.2-0.1
		c-0.1-0.1-0.1-0.1-0.1-0.2v-0.2c-0.1,0.2-0.3,0.3-0.4,0.4C73.2,33.7,73,33.7,72.8,33.7z M72.9,33.3c0.1,0,0.2,0,0.3,0
		c0.1,0,0.2-0.1,0.3-0.1c0.1-0.1,0.2-0.1,0.2-0.2c0.1-0.1,0.1-0.2,0.1-0.2v-0.8c0-0.1-0.1-0.2-0.1-0.3s-0.1-0.2-0.2-0.2
		s-0.2-0.1-0.3-0.1s-0.2-0.1-0.3-0.1c-0.1,0-0.3,0-0.4,0.1c-0.1,0.1-0.2,0.1-0.3,0.2s-0.1,0.2-0.2,0.3c0,0.1-0.1,0.3-0.1,0.4
		c0,0.1,0,0.3,0.1,0.4c0.1,0.1,0.1,0.2,0.2,0.3s0.2,0.2,0.3,0.2C72.6,33.3,72.8,33.3,72.9,33.3z"/>
	<path class="st0" d="M77.8,33.7c-0.2,0-0.4-0.1-0.6-0.2s-0.3-0.2-0.4-0.4v0.5h-0.4v-4h0.5v1.7c0.1-0.2,0.3-0.3,0.4-0.4
		s0.4-0.2,0.6-0.2c0.2,0,0.4,0,0.5,0.1c0.2,0.1,0.3,0.2,0.4,0.3s0.2,0.3,0.3,0.5s0.1,0.4,0.1,0.6c0,0.2,0,0.4-0.1,0.6
		c-0.1,0.2-0.2,0.3-0.3,0.5c-0.1,0.1-0.3,0.2-0.4,0.3C78.2,33.7,78,33.7,77.8,33.7z M77.7,33.3c0.1,0,0.3,0,0.4-0.1
		c0.1-0.1,0.2-0.1,0.3-0.2c0.1-0.1,0.2-0.2,0.2-0.3c0-0.1,0.1-0.3,0.1-0.4c0-0.1,0-0.3-0.1-0.4c0-0.1-0.1-0.2-0.2-0.3
		s-0.2-0.2-0.3-0.2c-0.1-0.1-0.2-0.1-0.4-0.1c-0.1,0-0.2,0-0.3,0.1s-0.2,0.1-0.3,0.1c-0.1,0.1-0.1,0.1-0.2,0.2
		c-0.1,0.1-0.1,0.2-0.2,0.3v0.8c0,0.1,0.1,0.2,0.1,0.2c0.1,0.1,0.1,0.1,0.2,0.2c0.1,0.1,0.2,0.1,0.3,0.1
		C77.6,33.3,77.6,33.3,77.7,33.3z"/>
	<path class="st0" d="M79.8,34.4c0,0,0.1,0,0.1,0c0,0,0.1,0,0.1,0c0,0,0.1,0,0.1,0c0,0,0.1-0.1,0.1-0.1c0-0.1,0.1-0.1,0.1-0.2
		c0-0.1,0.1-0.2,0.2-0.4l-1.2-2.8h0.5l1,2.4l0.9-2.4h0.5l-1.4,3.6c-0.1,0.1-0.1,0.2-0.3,0.3c-0.1,0.1-0.3,0.1-0.5,0.1
		c0,0-0.1,0-0.1,0s-0.1,0-0.1,0V34.4z"/>
	<path class="st0" d="M83.9,33.6v-3.9h1.6c0.2,0,0.3,0,0.5,0.1s0.3,0.2,0.4,0.3c0.1,0.1,0.2,0.3,0.3,0.4c0.1,0.2,0.1,0.3,0.1,0.5
		c0,0.2,0,0.3-0.1,0.5c-0.1,0.2-0.1,0.3-0.2,0.4s-0.2,0.2-0.4,0.3c-0.1,0.1-0.3,0.1-0.5,0.1h-0.9v1.3H83.9z M84.7,31.7h0.9
		c0.1,0,0.3-0.1,0.3-0.2s0.1-0.3,0.1-0.5c0-0.1,0-0.2,0-0.3c0-0.1-0.1-0.1-0.1-0.2c0-0.1-0.1-0.1-0.2-0.1c-0.1,0-0.1,0-0.2,0h-0.8
		V31.7z"/>
	<path class="st0" d="M87.3,33.6v-3.9H88v3.9H87.3z"/>
	<path class="st0" d="M89.2,29.8l1,1.4l1-1.4h0.8l-1.4,2l1.3,1.9h-0.8l-0.9-1.4l-0.9,1.4h-0.8l1.3-1.9l-1.4-2H89.2z"/>
	<path class="st0" d="M95,33v0.7h-2.7v-3.9h2.6v0.7h-1.9v0.9h1.6V32h-1.6v1H95z"/>
	<path class="st0" d="M95.6,33.6v-3.9h0.7V33h2v0.7H95.6z"/>
	<path class="st0" d="M101.9,33.6v-2.5l-1,1.9h-0.4l-1-1.9v2.5h-0.7v-3.9h0.8l1.1,2.2l1.1-2.2h0.8v3.9H101.9z"/>
	<path class="st0" d="M103.4,33.6v-3.9h0.7v3.9H103.4z"/>
	<path class="st0" d="M105,33.6v-3.9h1.7c0.2,0,0.3,0,0.5,0.1s0.3,0.2,0.4,0.3s0.2,0.3,0.3,0.4c0.1,0.2,0.1,0.3,0.1,0.5
		c0,0.2-0.1,0.5-0.2,0.7c-0.1,0.2-0.3,0.4-0.5,0.4l0.9,1.4h-0.8l-0.8-1.3h-0.7v1.3H105z M105.7,31.7h0.9c0.1,0,0.1,0,0.2,0
		c0.1,0,0.1-0.1,0.2-0.1c0-0.1,0.1-0.1,0.1-0.2c0-0.1,0-0.2,0-0.2c0-0.1,0-0.2,0-0.2c0-0.1-0.1-0.1-0.1-0.2c0-0.1-0.1-0.1-0.2-0.1
		c-0.1,0-0.1,0-0.2,0h-0.9V31.7z"/>
	<path class="st0" d="M109.6,29.8h0.7l1.5,3.9h-0.8l-0.4-1h-1.3l-0.4,1h-0.8L109.6,29.8z M110.4,32.2l-0.5-1.5l-0.6,1.5H110.4z"/>
	<path class="st0" d="M111.7,31.7c0-0.2,0-0.5,0.1-0.7c0.1-0.2,0.2-0.4,0.4-0.6s0.4-0.3,0.6-0.4s0.5-0.2,0.8-0.2
		c0.4,0,0.7,0.1,0.9,0.2c0.3,0.2,0.4,0.4,0.6,0.6l-0.6,0.4c0-0.1-0.1-0.2-0.2-0.3c-0.1-0.1-0.1-0.1-0.2-0.2c-0.1,0-0.2-0.1-0.3-0.1
		c-0.1,0-0.2,0-0.3,0c-0.2,0-0.4,0-0.5,0.1s-0.3,0.2-0.3,0.3s-0.2,0.3-0.2,0.4c0,0.2-0.1,0.3-0.1,0.5c0,0.2,0,0.3,0.1,0.5
		c0.1,0.2,0.1,0.3,0.2,0.4c0.1,0.1,0.2,0.2,0.4,0.3s0.3,0.1,0.5,0.1c0.1,0,0.2,0,0.3,0c0.1,0,0.2-0.1,0.3-0.1c0.1,0,0.2-0.1,0.2-0.2
		s0.1-0.2,0.2-0.3l0.6,0.4c-0.1,0.1-0.1,0.3-0.3,0.4c-0.1,0.1-0.2,0.2-0.4,0.3c-0.1,0.1-0.3,0.1-0.5,0.2c-0.2,0-0.3,0.1-0.5,0.1
		c-0.3,0-0.5-0.1-0.8-0.2c-0.2-0.1-0.4-0.3-0.6-0.5s-0.3-0.4-0.4-0.6C111.8,32.2,111.7,31.9,111.7,31.7z"/>
	<path class="st0" d="M115.7,33.6v-3.9h0.7V33h2v0.7H115.7z"/>
	<path class="st0" d="M121.5,33v0.7h-2.7v-3.9h2.6v0.7h-1.9v0.9h1.6V32h-1.6v1H121.5z"/>
	<path class="st0" d="M122.1,34.3l0.1-0.6H122v-0.8h0.6v0.8l-0.2,0.6H122.1z"/>
	<path class="st0" d="M123.3,33.6v-3.9h0.7V33h2v0.7H123.3z"/>
	<path class="st0" d="M126.5,33.6v-3.9h1.4c0.3,0,0.6,0.1,0.8,0.2c0.2,0.1,0.4,0.2,0.6,0.4c0.2,0.2,0.3,0.4,0.4,0.6s0.1,0.5,0.1,0.7
		c0,0.3,0,0.6-0.1,0.8c-0.1,0.2-0.2,0.4-0.4,0.6c-0.2,0.2-0.4,0.3-0.6,0.4c-0.2,0.1-0.5,0.1-0.8,0.1H126.5z M129,31.7
		c0-0.2,0-0.4-0.1-0.5c0-0.2-0.1-0.3-0.2-0.4c-0.1-0.1-0.2-0.2-0.4-0.3c-0.1-0.1-0.3-0.1-0.5-0.1h-0.6V33h0.6c0.2,0,0.3,0,0.5-0.1
		s0.3-0.2,0.4-0.3c0.1-0.1,0.2-0.2,0.2-0.4C129,32.1,129,31.9,129,31.7z"/>
	<path class="st0" d="M131.3,29.8h0.7l1.5,3.9h-0.8l-0.4-1H131l-0.4,1h-0.8L131.3,29.8z M132.2,32.2l-0.5-1.5l-0.6,1.5H132.2z"/>
</g>
</svg>
