<svg xmlns="http://www.w3.org/2000/svg" viewBox="0 0 500 500"><defs><style>.cls-1{fill:#fff;}.cls-2{fill:#e8d9c1;}.cls-3{fill:#cec0a7;}.cls-4{fill:#f4ebdc;}.cls-5{fill:#473045;}.cls-6{fill:#1a1a1a;}.cls-7{fill:#f3ac71;}.cls-8{fill:#b55232;}.cls-9{fill:#ed7c31;}.cls-10{fill:#f09b36;}.cls-11{fill:#6e9e75;}.cls-12{fill:#abc178;}.cls-13{fill:#f24c4c;}.cls-14{fill:#332f2f;}.cls-15{fill:#e55353;}.cls-16{fill:#824737;}.cls-17{fill:#e2e3e4;}.cls-18{fill:#ef8b46;}.cls-19{fill:#d6562b;}.cls-20{fill:#60281b;}.cls-21{fill:#f8db94;}.cls-22{fill:#5e3259;}.cls-23{fill:#4d4d4d;}.cls-24{fill:#895881;}.cls-25{fill:#683c63;}.cls-26{fill:#a17a94;}.cls-27{fill:#845978;}.cls-28{fill:#f4bb3a;}.cls-29{fill:#8c6239;}.cls-30{fill:#443b3b;}.cls-31{fill:#ffe8bc;}.cls-32{fill:#fff5e6;}.cls-33{fill:#665858;}.cls-34{fill:#aebc99;}.cls-35{fill:none;stroke:#657250;stroke-miterlimit:10;stroke-width:2px;}.cls-36{fill:#657250;}.cls-37{fill:#8c6339;}</style></defs><g id="BACKGROUND_1" data-name="BACKGROUND 1"><rect class="cls-1" width="500" height="500"/></g><g id="OBJECT"><path class="cls-2" d="M121.41,437.87s-2.83-131-12.25-172.11l26.58-24.67,17.87,10.82,4.68,32.42h34.24L181.82,174.58l23.53-44.87,43.26,24.91L255.39,277,265,162.55l30.31-10.4,15,16.16-4.42,116,12.94-38.12,39.38,24.43-4.77,47.82L371.05,235l15.86-5.12,5.75,12.43-24,195.56Z"/><path class="cls-3" d="M73.66,435.4H450.88s-96.62,15.82-219.45,15.82c-65.42,0-101.72-3.65-101.72-3.65l32.81-1.83S115.4,442.28,73.66,435.4Z"/><path class="cls-4" d="M370,159.23a16.35,16.35,0,0,0-21.24,22.22,14.64,14.64,0,0,0-24.56,15.16,202.57,202.57,0,0,0-40.83,5.94,255.5,255.5,0,0,0,149.76,7.86l-24.83-6.06c6.34-2.61,9.44-11.11,6.26-17.18s-11.93-8.39-17.69-4.66c2.39-2,2.18-6.08.07-8.38s-5.54-3-8.63-2.59c-2.92.41-5.57,2.29-8.34,2.56C378.6,167.8,376.4,162.06,370,159.23Z"/><path class="cls-4" d="M135.66,158.61a22.15,22.15,0,0,0-29.92,28.59c-4.08-5.32-12.75-6.25-17.86-1.93s-5.63,13-1.06,17.94l-35.38,7.95c22.87,6.89,47.11,7.25,71,7.55l81.27,1-35.14-11c5.94-1.11,10.16-7.32,9.87-13.35s-4.46-11.48-9.85-14.22c-5.59-2.85-14.83-.53-19.25-5.07-2.35-2.42-2.79-6.52-4.6-9.35A22,22,0,0,0,135.66,158.61Z"/><path class="cls-4" d="M203.48,147c-1-.07,10.52-.25,9.49-.32l133.86,2L303,136.54c9-2.49,14.18-13.63,11.11-22.49s-13-14.38-22.36-13.34-17.45,7.9-21.11,16.53c1.71-7.75-4.65-16.26-12.57-16.81s-15.39,7-14.77,14.91c-2.39-4-8.54-4.58-12.36-1.87s-5.44,7.73-5.27,12.41,1.89,9.15,3.58,13.52C223.69,141.14,209.05,145.3,203.48,147Z"/><path class="cls-5" d="M317.56,258.21c-6.78-8.42-31.32,20.26-35.24,26.79S276,298.79,274,306.14c-5.73,21.66-7.19,44.29-13.13,65.89-.89,3.22-1.89,6.4-3,9.56a4.26,4.26,0,0,0-1.3,0c-.1,0-.28.29-.53.39s-.78.63-.6,1c-1,1.75-1.42,3.74-2.94,5.17a16.63,16.63,0,0,1-2.19,1.67c-.7.41-1.42.81-2.15,1.16a12.64,12.64,0,0,1-1.45.54,43.15,43.15,0,0,1-11.7,1.41h-.17a10.43,10.43,0,0,0-1.37,0,4.55,4.55,0,0,0-.74.11,2,2,0,0,0-.29.13,2.12,2.12,0,0,0-.36.21l0,0-.25.26,0,0a1.53,1.53,0,0,0-.5,1,1.94,1.94,0,0,0,0,.24,1.55,1.55,0,0,0,.19.75,1.63,1.63,0,0,0,.32.47,9.85,9.85,0,0,0,.82.77l0,0a9.51,9.51,0,0,0,1.77,1.2l.25.14a8.82,8.82,0,0,0,1.38.55c1,.3,2,.55,3,.79,2,.48,4,.85,6,1.16,1.75.27,3.51.51,5.3.72s3.49.38,5.25.54l1.39.14,6,.52h.08c.14,0,.3,0,.41-.07h0l0,0a1.54,1.54,0,0,0,.52-1.24q0-.32,0-.63v-.12a1.48,1.48,0,0,1,0-.21,2.28,2.28,0,0,1,.22-.81c.08-.19.18-.37.26-.56s.1-.22.15-.35a8.89,8.89,0,0,0,.52-2.18l-.09,0a19.21,19.21,0,0,0,.14-2.64c0-.2,0-.41,0-.61a2,2,0,0,1,.34-.06c.56-.05,1.1,0,1.36-.46s-.07-.64-.4-.92a2.44,2.44,0,0,0-1.24-.5,1.52,1.52,0,0,0-1,.32,106.74,106.74,0,0,1,13.29-33.49c2.71-4.44,5.76-8.69,7.92-13.42,2.05-4.5,3.24-9.32,4.76-14a214.28,214.28,0,0,1,9-22l12.58-27.82C314,276,322.09,263.83,317.56,258.21Z"/><polygon class="cls-6" points="222.78 383.81 222.79 383.12 178.38 382.77 222.32 376.32 222.22 375.64 178.27 382.09 220.71 368.99 220.51 368.33 178.07 381.43 218 361.99 217.7 361.37 177.77 380.81 214.25 355.48 213.86 354.92 177.38 380.25 209.55 349.63 209.08 349.13 176.9 379.75 204.01 344.57 203.47 344.15 176.36 379.33 197.76 340.41 197.16 340.08 175.75 378.99 190.95 337.26 190.3 337.02 175.11 378.76 183.73 335.19 183.06 335.06 174.43 378.63 176.28 334.25 175.59 334.22 173.83 376.51 171.16 334.27 170.47 334.31 173.19 377.2 165.51 334.92 164.84 335.04 172.76 378.74 158.24 336.77 157.59 337 172.12 378.97 151.34 339.71 150.73 340.04 171.51 379.29 144.96 343.68 144.41 344.09 170.95 379.7 139.27 348.57 138.79 349.07 170.47 380.19 134.4 354.28 134 354.84 170.07 380.75 130.46 360.67 130.14 361.29 169.76 381.36 127.54 367.59 127.32 368.24 169.55 382.02 125.71 374.87 125.6 375.55 169.43 382.7 125.02 382.34 125.02 383.03 169.43 383.39 125.49 389.84 125.59 390.52 169.53 384.07 127.09 397.17 127.3 397.83 169.73 384.73 129.8 404.17 130.1 404.79 170.03 385.35 133.55 410.67 133.94 411.24 170.43 385.91 138.25 416.52 138.73 417.02 170.9 386.41 143.79 421.59 144.34 422.01 171.45 386.83 150.04 425.74 150.65 426.08 172.05 387.16 156.86 428.89 157.5 429.13 172.7 387.4 164.07 430.96 164.75 431.1 173.37 387.53 171.52 431.9 172.21 431.93 173.97 389.65 176.64 431.88 177.33 431.84 174.62 388.95 182.29 431.24 182.97 431.11 175.04 387.41 189.56 429.38 190.21 429.16 175.69 387.19 196.47 426.44 197.08 426.12 176.3 386.87 202.84 422.48 203.39 422.06 176.85 386.46 208.53 417.58 209.01 417.09 177.33 385.97 213.41 411.87 213.81 411.31 177.73 385.41 217.35 405.48 217.66 404.87 178.04 384.79 220.27 398.57 220.48 397.91 178.26 384.14 222.09 391.29 222.2 390.61 178.37 383.46 222.78 383.81"/><path class="cls-6" d="M176.19,328.32a55.49,55.49,0,1,0,53.13,57.76A55.48,55.48,0,0,0,176.19,328.32ZM171.8,433.48a49.76,49.76,0,1,1,51.79-47.64A49.75,49.75,0,0,1,171.8,433.48Z"/><path class="cls-7" d="M176,332.17a51.64,51.64,0,1,0,49.44,53.75A51.64,51.64,0,0,0,176,332.17ZM171.94,430a46.31,46.31,0,1,1,48.19-44.33A46.31,46.31,0,0,1,171.94,430Z"/><circle class="cls-7" cx="173.87" cy="383.77" r="15.08" transform="translate(-212.36 215.44) rotate(-42.08)"/><circle class="cls-8" cx="173.87" cy="383.77" r="12.28"/><path class="cls-6" d="M180.29,384a6.43,6.43,0,1,1-6.15-6.68A6.43,6.43,0,0,1,180.29,384Z"/><polygon class="cls-6" points="398.09 383.39 398.1 382.69 353.33 382.34 397.63 375.84 397.52 375.15 353.23 381.65 396.01 368.44 395.8 367.78 353.02 380.99 393.28 361.39 392.97 360.76 352.72 380.36 389.5 354.83 389.1 354.26 352.33 379.79 384.76 348.93 384.28 348.43 351.85 379.29 379.17 343.83 378.62 343.4 351.3 378.87 372.87 339.64 372.26 339.3 350.69 378.53 366 336.46 365.35 336.23 350.04 378.3 358.73 334.38 358.05 334.24 349.36 378.16 351.22 333.43 350.53 333.4 348.75 376.03 346.06 333.45 345.37 333.49 348.1 376.72 340.37 334.1 339.69 334.23 347.68 378.28 333.03 335.97 332.38 336.2 347.02 378.5 326.07 338.94 325.46 339.26 346.41 378.83 319.65 342.93 319.09 343.35 345.85 379.24 313.91 347.87 313.43 348.36 345.36 379.74 309 353.62 308.6 354.19 344.96 380.3 305.02 360.06 304.71 360.68 344.64 380.92 302.08 367.03 301.87 367.69 344.43 381.58 300.24 374.37 300.13 375.06 344.32 382.27 299.55 381.91 299.54 382.6 344.31 382.96 300.02 389.46 300.12 390.15 344.42 383.65 301.63 396.85 301.84 397.52 344.62 384.31 304.37 403.91 304.67 404.54 344.92 384.94 308.15 410.47 308.54 411.04 345.32 385.5 312.88 416.37 313.36 416.87 345.8 386.01 318.47 421.47 319.02 421.89 346.35 386.43 324.77 425.66 325.38 425.99 346.95 386.76 331.64 428.83 332.29 429.07 347.61 387 338.91 430.92 339.6 431.06 348.29 387.14 346.42 431.87 347.12 431.9 348.89 389.27 351.58 431.85 352.28 431.81 349.54 388.57 357.28 431.2 357.96 431.07 349.97 387.02 364.61 429.33 365.26 429.1 350.62 386.79 371.57 426.36 372.18 426.04 351.24 386.47 377.99 422.36 378.55 421.95 351.79 386.06 383.73 417.43 384.22 416.93 352.28 385.56 388.64 411.68 389.05 411.11 352.68 385 392.62 405.24 392.93 404.62 353 384.38 395.56 398.26 395.78 397.6 353.21 383.72 397.4 390.92 397.51 390.24 353.32 383.03 398.09 383.39"/><path class="cls-6" d="M351.12,327.45a55.94,55.94,0,1,0,53.57,58.22A55.94,55.94,0,0,0,351.12,327.45Zm-4.42,106a50.16,50.16,0,1,1,52.21-48A50.16,50.16,0,0,1,346.7,433.46Z"/><path class="cls-7" d="M351,331.33a52.06,52.06,0,1,0,49.84,54.18A52.05,52.05,0,0,0,351,331.33ZM346.85,430a46.68,46.68,0,1,1,48.58-44.69A46.68,46.68,0,0,1,346.85,430Z"/><circle class="cls-7" cx="348.79" cy="383.34" r="15.2" transform="translate(-52.92 710.81) rotate(-86.89)"/><circle class="cls-8" cx="348.79" cy="383.34" r="12.38"/><circle class="cls-6" cx="348.79" cy="383.34" r="6.48" transform="translate(-150.74 245.22) rotate(-32.25)"/><polygon class="cls-9" points="157.78 206.71 172.68 211.06 178.48 296.98 158.01 292.04 157.78 206.71"/><polygon class="cls-10" points="150.8 219.51 154.05 296.24 163.78 298.37 157.78 206.71 150.8 219.51"/><polygon class="cls-11" points="148.4 245.32 158.72 248.33 162.74 307.83 148.56 304.41 148.4 245.32"/><polygon class="cls-12" points="143.57 254.18 145.81 307.32 152.56 308.79 148.4 245.32 143.57 254.18"/><polygon class="cls-10" points="142.19 265.09 140.1 315.29 179.35 319.23 187.84 272.28 142.19 265.09"/><rect class="cls-6" x="138.64" y="266.33" width="55.27" height="4.76" transform="translate(48.52 -24.52) rotate(9.87)"/><path class="cls-8" d="M158,235.56a5.07,5.07,0,0,0-2.85-.68.12.12,0,0,0,0,.23,6.45,6.45,0,0,1,2.73.66A.12.12,0,0,0,158,235.56Z"/><path class="cls-6" d="M320.23,273.32a5.12,5.12,0,0,0-4-1.26c-3.3.15-6.3,1.81-9.41,2.9a27.5,27.5,0,0,1-17.34.22,6.19,6.19,0,0,0-3-.48c-1.7.36-2.73,3.19-1.26,4.35a4.79,4.79,0,0,0,2.29.79l24,4.06c3,.51,6.65.76,8.44-1.69a7.85,7.85,0,0,0,1.14-3.25C321.41,277,321.59,274.75,320.23,273.32Z"/><path class="cls-13" d="M257.7,407.75l-.38,0-18.55-2.57a2.67,2.67,0,0,1,.73-5.29l18.55,2.57a2.67,2.67,0,0,1-.35,5.31Z"/><rect class="cls-14" x="187.14" y="269.87" width="7.93" height="56.82" transform="translate(52.17 -27.59) rotate(9.56)"/><rect class="cls-14" x="236.89" y="263.28" width="5.34" height="101.87" transform="translate(-103.25 510.69) rotate(-82.5)"/><polygon class="cls-14" points="270.82 391.87 186.9 315.99 190.48 312.03 268.23 382.32 300.11 280.92 305.2 282.52 270.82 391.87"/><path class="cls-15" d="M199.83,309.81l-31.61-18.94a12.27,12.27,0,0,1-6.1-11,12,12,0,0,1,13.17-11.3l20,2.51a2.68,2.68,0,0,1,2.38,2.94h0a2.67,2.67,0,0,1-2.94,2.37l-20-2.51a6.62,6.62,0,0,0-7.09,4.94,6.56,6.56,0,0,0,3,7.26l31.92,19.13Z"/><path class="cls-6" d="M173.88,386.43a2.58,2.58,0,0,1-.94-.16,2.68,2.68,0,0,1-1.57-3.44,149.46,149.46,0,0,0,7.57-28.51l5.23-32.2a2.67,2.67,0,1,1,5.27.85l-5.23,32.21a155.2,155.2,0,0,1-7.84,29.52A2.66,2.66,0,0,1,173.88,386.43Z"/><path class="cls-6" d="M247.53,406.28a2.67,2.67,0,0,1-1.59-4.82l48-35.27a2.67,2.67,0,1,1,3.16,4.3l-48,35.27A2.69,2.69,0,0,1,247.53,406.28Z"/><polygon class="cls-6" points="273.99 370.21 349.06 376.87 348.52 389.81 272.71 401.72 273.99 370.21"/><path class="cls-14" d="M348.8,386a2.68,2.68,0,0,1-1.95-.84L288.11,322.7A2.67,2.67,0,1,1,292,319l58.74,62.47a2.68,2.68,0,0,1-.12,3.78A2.64,2.64,0,0,1,348.8,386Z"/><path class="cls-13" d="M289.39,375.78a2.68,2.68,0,0,1-1.44-4.93l15.82-10a2.67,2.67,0,0,1,2.86,4.51l-15.82,10A2.73,2.73,0,0,1,289.39,375.78Z"/><path class="cls-6" d="M289.11,386.61A15.77,15.77,0,1,1,274,370.21,15.77,15.77,0,0,1,289.11,386.61Z"/><path class="cls-6" d="M300,368.06a2.06,2.06,0,1,1-2.06-2A2,2,0,0,1,300,368.06Z"/><path class="cls-6" d="M291.44,349.45c-6.48-17.19-16.66-28-31-39.24,3.39-1.12,6.81-2.47,10.14-3.7.94-.35,1.75-.55,2.69-.83A148.91,148.91,0,0,1,301,351.29c.44,1.11,1.11,2.18,1,3.33-.27,2.79-1.65,4.85-4.4,5.49s-4.76-.63-7.13-1.81a1,1,0,0,1-.52-.73c-.07-.37.21-.78.34-1.17C291,354.05,292.41,352.05,291.44,349.45Z"/><path class="cls-7" d="M289.37,354.83c.17-2.19-1-4-1.37-6.1a1.4,1.4,0,0,1,0-.88c.14-.3.4-.67.8-.65a3.19,3.19,0,0,1,2.94,1.57,7.17,7.17,0,0,1,.75,5.2c2.22.32,4.15.72,6.41.11a2.89,2.89,0,0,0,2-2.56c-.48-.51-.45-1.57.24-1.81s1.05.34,1.46.78a15.26,15.26,0,0,1,2.81,4c.26.55.23,1.1.69,1.65s1.24,1.12,1.08,2a.71.71,0,0,1-.32.38c-3.36,2.56-6.72,5.17-10.15,7.61a83.72,83.72,0,0,1-12.41,7.67,9.46,9.46,0,0,1-5,.85,1.67,1.67,0,0,1-1.38-.79,2,2,0,0,1,0-2.07,9.54,9.54,0,0,1,1.61-1.63,43.17,43.17,0,0,0,7.71-8.91A15.2,15.2,0,0,0,289.37,354.83Z"/><path class="cls-16" d="M285.67,364.12a4.7,4.7,0,0,0,1.53-1.05,22.62,22.62,0,0,0,2.94-4,2,2,0,0,0,.36-1.44,2.49,2.49,0,0,0-1.21-1.54,25.31,25.31,0,0,1-1.88,5.14c-.56,1.05-1.3,1.92-1.92,2.9C285.45,364.2,285.62,364.15,285.67,364.12Z"/><path class="cls-16" d="M290.42,353a1.65,1.65,0,0,0-.86-2.39c-.38-.17-.64.15-1,.27a21.93,21.93,0,0,1,.87,2.86C289.72,353.34,290.24,353.36,290.42,353Z"/><path class="cls-16" d="M306.15,356.11a6,6,0,0,1-.69-1.71,9.17,9.17,0,0,0-1.08-2,14.7,14.7,0,0,1-5.14,6.22,1.86,1.86,0,0,1-1.3.38c-.46,0-.53-.39-1-.41a1.3,1.3,0,0,0-1.24.67,9.26,9.26,0,0,0-.41,1.55,13.2,13.2,0,0,1-6.73,8.08,2,2,0,0,1-2.36-.3c-.31-.26-.23-.71-.42-1.06A3.61,3.61,0,0,0,284,366a53.22,53.22,0,0,1-4.34,4.16,8,8,0,0,0-1.6,1.63,2,2,0,0,0,0,2.06,1.67,1.67,0,0,0,1.38.79,9.46,9.46,0,0,0,5-.85,84.24,84.24,0,0,0,12.41-7.67c3.43-2.44,6.79-5.05,10.15-7.61.13-.1.29-.2.32-.38C307.39,357.22,306.61,356.7,306.15,356.11Z"/><path class="cls-17" d="M288.14,362.43a12.45,12.45,0,0,1-1.94,1.83c2.16,1.26,4.29,2.55,6.42,3.85l2.5-1.78C292.79,365,290.47,363.73,288.14,362.43Z"/><path class="cls-17" d="M291,360a12.38,12.38,0,0,1-1.93,1.83c2.25,1.32,4.49,2.67,6.72,4l.71-.52,1.75-1.28Q294.58,362,291,360Z"/><path d="M306.91,358.49c.13-.1.31-.19.33-.38.07-.94-.56-1.41-1.15-2a2.18,2.18,0,0,1-.28-.52c-.65.75-1.3,1.53-1.9,2.31a1.74,1.74,0,0,1-.74.64c-.3.1-.5-.07-.77-.06a3.61,3.61,0,0,0-3,1.83c-.69,1.07-1,2.34-1.61,3.3a9,9,0,0,1-2.19,2.27,75.67,75.67,0,0,1-11.41,7.05,5.78,5.78,0,0,1-3.16.64,7.19,7.19,0,0,1-1.68-.67,6.86,6.86,0,0,0-1.6-.42,1.78,1.78,0,0,0,1.65,2.2,9.84,9.84,0,0,0,4.95-.87,83.72,83.72,0,0,0,12.41-7.67C300.19,363.66,303.56,361.05,306.91,358.49Z"/><path d="M287.84,347.89c-.11.24-.17,1.06.28,1.16s.63,0,1-.28a1.82,1.82,0,0,1,1.51-.2,1.09,1.09,0,0,1,.57.66,6.75,6.75,0,0,1,.25,3.36,13.59,13.59,0,0,0-.23,3.3c0,.26.06.48.34.6a.59.59,0,0,0,.74-.41,3,3,0,0,0,.11-1.08c1.41.33,2.76.7,4.18,1.07a4.7,4.7,0,0,0,1.89.31,6.63,6.63,0,0,0,2-.57,4.59,4.59,0,0,0,2.4-1.78,1.83,1.83,0,0,0,.23-1.32c-.11-.56-.56-1.4-1.33-1.23a2.53,2.53,0,0,1,.62-1.71c.39-.42.83-.73.7-1.26s-.47-.43-.91-.41a2.5,2.5,0,0,0-1.25.47,1.68,1.68,0,0,0-.58,1.24c0,.4.21.69.21,1a2.52,2.52,0,0,1-1.11,2.51,4.85,4.85,0,0,1-2.74.6,24.09,24.09,0,0,1-3.65-.31,11.75,11.75,0,0,0,.06-4,4.66,4.66,0,0,0-2.1-3.23c-1.25-.68-2.19-.17-3.11.84C287.9,347.32,288,347.65,287.84,347.89Z"/><path class="cls-7" d="M200.89,176.61c-.29,5-2,7.67-6.68,9.63a5.43,5.43,0,0,0,2.25,2.3,19.72,19.72,0,0,0,3.47,8,6.86,6.86,0,0,0,4.53,2.69c1.45.23,2.69-.64,4.11-.86a28.91,28.91,0,0,1,14.82,1.06c4.89,1.78,8.79,4.8,13,7.67.85-3.37,1.87-6.76,2.65-10.14-4.33-.84-9-1.35-10.84-5.89-2-5,2.42-9.52.92-14.67s-5.77-7.89-11.3-8.14C210.64,167.94,205.39,171,200.89,176.61Z"/><path class="cls-18" d="M194.37,186.59a6.63,6.63,0,0,0,2,2c.24.17.05.56.19.8a9.83,9.83,0,0,0,1.62-2.67l-1.8.07A7.62,7.62,0,0,1,194.37,186.59Z"/><path class="cls-18" d="M228.24,191.07c-2-5,2.42-9.52.92-14.67s-5.77-7.89-11.3-8.14c-7.22-.32-12.47,2.78-17,8.35a13,13,0,0,1-.23,4.09,42,42,0,0,0,4,2.25,8.72,8.72,0,0,0,3.81.38c.71,0,1.32-.35,1.9.17a1.83,1.83,0,0,1,.33,2,54.11,54.11,0,0,1-3.24,8.34,33.35,33.35,0,0,1-2.73,4.58c-.22.3-.63.51-.69.8s.28.1.46.1c1.41,0,2.66-.68,4.07-.91a28.44,28.44,0,0,1,14.81,1c4.89,1.78,8.79,4.81,13,7.66.85-3.36,1.87-6.75,2.65-10.13C234.75,196.12,230.07,195.61,228.24,191.07Z"/><path class="cls-19" d="M212.87,185.08c.27-.27.4-.29.41-.66s-.54-.77-.59-1.09,0-.14,0-.46a8.39,8.39,0,0,1,.34-1.25c.14-.36.12-.63.47-.9a1.25,1.25,0,0,1,1.38-.07,4.35,4.35,0,0,1,1.08,1.1c0,.06.16.14,0,.19s-.12.07-.32-.1a2.33,2.33,0,0,0-.87-.63.86.86,0,0,0-1,.29,6.82,6.82,0,0,1,1.86,1.1.88.88,0,0,1,.08.83c-.08.25.07.21-.23.38s-1-.13-1.38.06-.18.52-.15.81.07.6-.16.78-.38,0-.63.13a2.77,2.77,0,0,0-.73.54c-.2.19-.75.43-.69,0S212.61,185.36,212.87,185.08Z"/><path class="cls-8" d="M214.59,177.22l-14.55-.1a39.64,39.64,0,0,1,0,4.36,1,1,0,0,1,1.08.71c.2.51.05,1,.29,1.52a2.45,2.45,0,0,0,1.23,1.31,7.78,7.78,0,0,0,1.9.52,3.59,3.59,0,0,0,2.5-.27,2.77,2.77,0,0,0,1-1.58,8.64,8.64,0,0,0,.42-2.34,1.27,1.27,0,0,1,.2-.69.57.57,0,0,1,.4-.17c1.65-.29,3.28-.48,4.94-.66a.61.61,0,0,0,.37-.12.49.49,0,0,0,.14-.33A8.68,8.68,0,0,0,214.59,177.22Z"/><path class="cls-20" d="M214,179.83a.61.61,0,0,0,.37-.12.49.49,0,0,0,.14-.33,8.68,8.68,0,0,0,0-2.16L200,177.13c.14.83,0,1.86.15,2.63,0,.22.46.08.63.28a7.37,7.37,0,0,1,1.05,1.93c.3.68.87,1.25,1.63,1s.47-1.2.64-1.73.57-.19.85,0,.53.46.88.39.49-.57.88-.5.44.34.46.75,0,1-.48,1.26-1.05,0-1.48.31-.3.79-.08,1.15.77.52,1.06.62a2.86,2.86,0,0,0,.67.16c.18,0,.18,0,.24-.1a3.75,3.75,0,0,0,1-1.57,10.14,10.14,0,0,0,.4-2.34,1.17,1.17,0,0,1,.2-.69.57.57,0,0,1,.4-.17C210.75,180.2,212.38,180,214,179.83Z"/><path class="cls-19" d="M215,181.89a2.16,2.16,0,0,0-.45-1.24,6.53,6.53,0,0,0,3.22,1.74,10.74,10.74,0,0,0,5.52,8.83.84.84,0,0,0,.9,0,.36.36,0,0,0-.06-.67,11.17,11.17,0,0,0,5.72,2.13,1,1,0,0,0-.28-.93,12,12,0,0,0,5.9-3.8,3,3,0,0,0,.77-2.15,1.52,1.52,0,0,0-1.46-1.4,4,4,0,0,0,2.46-3,.58.58,0,0,0-.14-.54c-.14-.18-.38-.18-.59-.29-1.54-.87-2.38-2.39-3.73-3.5a5.08,5.08,0,0,0-2.73-1,69.77,69.77,0,0,0-16,.16c-1.42.17-3.14.68-2.57,2.36S213.69,180.92,215,181.89Z"/><path class="cls-8" d="M232.8,177.07a5,5,0,0,0-2.73-1,68.67,68.67,0,0,0-16.08.18c-1.44.19-2.89.65-2.61,2.41a1.1,1.1,0,0,0,.57.82,8.64,8.64,0,0,0,2.61-.09,4.57,4.57,0,0,1,1.67-.06c1.18.37,2,1.14,3.19,1.37,0-.24,0-.49,0-.74a19.81,19.81,0,0,0,9.26,4.13,31.07,31.07,0,0,1-3.13-3.65,13,13,0,0,0,9.3,2.77c-1.32-1.5-3.05-2.48-4.14-4.18a11.31,11.31,0,0,0,5.52,1.41C234.86,179.52,234.08,178.08,232.8,177.07Z"/><path class="cls-16" d="M221,176.8a42.31,42.31,0,0,1-11.12,13.33,62,62,0,0,1-3.83,7.75,3,3,0,0,1,.82.39.84.84,0,0,1,.27.78.61.61,0,0,1-.32.43,4.15,4.15,0,0,1-3.22.75,4,4,0,0,1-2.43-2,6.3,6.3,0,0,1,3.58-.85,73.11,73.11,0,0,0,5.44-17,12.74,12.74,0,0,0,0-3.8l1.49-.56a46.09,46.09,0,0,1-.94,10.8,35.12,35.12,0,0,0,6.83-9.73,1.28,1.28,0,0,1,.26-.44.75.75,0,0,1,.46-.19A8,8,0,0,1,221,176.8Z"/><path class="cls-10" d="M212,158.3c6.83-2.67,11.81-3.15,18.29-.48s8.27,8.19,8.81,14.7a4.61,4.61,0,0,1-1.77,3.85c-1.84,1.57-4.11,1.87-6.48,1.93-10.85.27-21.67.07-32.5-.44a4.16,4.16,0,0,1-3-.89,3.33,3.33,0,0,1-.75-4.19A36.16,36.16,0,0,1,212,158.3Z"/><path class="cls-21" d="M217.55,177.28A5.52,5.52,0,0,0,214,176a59,59,0,0,0-9.59.7,4.1,4.1,0,0,0-1.54.56c-.42.26-.45.53-.75.84,5.41.21,10.8.37,16.21.44C218,178.14,217.93,177.61,217.55,177.28Z"/><path class="cls-21" d="M196.15,176.55c1.21-4.57,3-8.54,6.69-11.67,5.09-4.38,10.71-6.77,16.95-9.09-2.79.82-4.8.85-7.6,2.24-7,3.52-13.3,7.87-17.55,14.77-1,1.55-.13,2.9.67,4.2.2.31.66.57.9.46S196.08,176.84,196.15,176.55Z"/><path class="cls-21" d="M236.39,162.17a16.43,16.43,0,0,1,1.28,6.18A4.36,4.36,0,0,1,237,171c-1.73,2.3-4,3.14-6.76,3.43s-5.4.24-8.07,1.1c-.45.15-.84.41-.78,1s.79.8,1.19,1.07.47.6.63,1c2.49-.1,5.13,0,7.59-.22s4.63-.34,6.56-1.95a5.31,5.31,0,0,0,1.79-3.83C239.48,168.65,238.26,165.52,236.39,162.17Z"/><path class="cls-16" d="M197.88,171.11a63.39,63.39,0,0,1,8.91-8.27,29.84,29.84,0,0,1,10.93-4.62c-1.83,1.57-2.57,3.57-3.85,5.56a27,27,0,0,1-13.18,10.83,3,3,0,0,1-2.29.1C196.7,173.94,196.75,172.34,197.88,171.11Z"/><path class="cls-16" d="M217.3,162.45a13.44,13.44,0,0,1,7.66-4.2,1.28,1.28,0,0,1,1.47.63,1.17,1.17,0,0,1-.13,1.34c-3.3,5.26-6.87,8.33-13.08,9.51A22.12,22.12,0,0,1,217.3,162.45Z"/><path class="cls-16" d="M218.83,170.7c-2.51.81-4.94,1.13-6.92,3.06,5.43.3,10.33.21,15.47-1.91,2.7-1.12,4.59-2.86,5.1-5.92.27-1.57-.82-3.79-2.64-3.92s-1.89,1.37-2.91,2.67A16.68,16.68,0,0,1,218.83,170.7Z"/><path class="cls-1" d="M243.76,197.13c-2.11-1-3.9-.71-6.19-.52-3.49.28-7.08.48-10.41-.81s-5.81-3.55-8.22-6.08c-2-2.08-3.2-4.69-5.2-6.74-.14-.14-.33,0-.2.18,1.86,2.17,3.11,4.77,5,6.89a24.2,24.2,0,0,0,6.67,5.48,16.34,16.34,0,0,0,7.73,1.84c3.51,0,7-1,10.45.2C243.83,197.71,244.1,197.28,243.76,197.13Z"/><path class="cls-1" d="M213.65,184c.28.1.45-.24.7-.3a2.1,2.1,0,0,0,.68-.16.69.69,0,0,0,.24-.82,1.15,1.15,0,0,0-.59-.58,1.36,1.36,0,0,0-.79-.21C212.5,182.26,212.24,183.45,213.65,184Z"/><path class="cls-22" d="M263,313a2.44,2.44,0,0,0,.87.54,1.8,1.8,0,0,0,.89,0,53.16,53.16,0,0,0,13.05-4.36c-2.37-2.38-2.84-4.7-5-7.6-.59-.78-5.76-1.33-6.89-1.05-2.89.71-6.5-1.28-8.42,1.3C254.19,306.18,259.74,310.39,263,313Z"/><path class="cls-7" d="M183.73,290.66a3.88,3.88,0,0,0-1.48.36c-.38.2-.43.46-.57.72a33.21,33.21,0,0,1-2.17,3.42,14.74,14.74,0,0,0-2.06,3,2.57,2.57,0,0,0,.35,3,2.28,2.28,0,0,0,3.09.13c.15,1,.07,1.81,1,2.57a2.59,2.59,0,0,0,2.92.19c.15,1.4.43,2.5,2,2.84s2.78-.55,3.7-1.81c.25-.33.16-.72.41-1.08a8.76,8.76,0,0,1,4.36-3.07c1.81-.68,3.91-1,5.73-1.65a7.66,7.66,0,0,0,4.39-3.66c.73-1.71.59-3.53-1.05-4.33C197.84,288.11,190.59,290.16,183.73,290.66Z"/><path class="cls-16" d="M204.36,291.2c-2.72-2.18-5.67-2-9-2a11.38,11.38,0,0,1,.37,1.74,4.16,4.16,0,0,1-.26,2.43c-.5.85-.9,1.78-2.15,2s-2-.54-2.76-1.66a34,34,0,0,0-2.81-3.38c-1.34.13-2.74.35-4.06.37a3.36,3.36,0,0,0-1.48.34c-.37.2-.42.46-.56.72a33.21,33.21,0,0,1-2.17,3.42,14.74,14.74,0,0,0-2.06,3,2.57,2.57,0,0,0,.35,3,2.28,2.28,0,0,0,3.09.13c.15,1,.07,1.81,1,2.57a2.59,2.59,0,0,0,2.92.19c.15,1.4.43,2.51,2,2.84s2.78-.55,3.7-1.81c.25-.33.16-.72.41-1.08a8.77,8.77,0,0,1,4.36-3.07c1.82-.69,3.91-.93,5.74-1.66a7.59,7.59,0,0,0,4.39-3.67A3.38,3.38,0,0,0,204.36,291.2Z"/><path class="cls-6" d="M239.85,188.85c2.15-3,4.58-4.28,7.64-5.8a18.31,18.31,0,0,1,14.78-1.19c8-3.34,15.18-5.67,23.94-4.13s16.24,5.69,23.58,10.63a21.89,21.89,0,0,1,9.67,21.92c-.82,5.25-3.4,9.05-6.38,13.3a5.15,5.15,0,0,1-3.24,2.22,8.89,8.89,0,0,1-4.78-.72c-7.94-2.88-15.88-6.26-23.73-9.34-10.35-4.07-19.92-7.54-30.6-11.57-3.41-1.28-9.43-2.09-11.95-5.66C236.67,195.53,238.06,191.38,239.85,188.85Z"/><path class="cls-23" d="M280,184.27c-.34,1.53-1.23,3-.23,4.47,2,3,4.8,2.76,8.07,3.63,13.34,3.54,22.51,10,31.13,20.8a23.23,23.23,0,0,0,.63-2.8c.23-5.39-.16-10.23-3-14.94a24,24,0,0,0-6.84-7.08,73.18,73.18,0,0,0-23.57-10.9c-1.33-.37-2.65-.27-4-.51C281.59,179.42,280.6,181.76,280,184.27Z"/><path class="cls-23" d="M267.61,185.75c1.3,2.29,3.55,3.76,6,2.42s2.48-4,3.09-6.5c.39-1.56.6-3.21,1.09-4.75a46.85,46.85,0,0,0-11,2.5C266.76,181.56,266.53,183.83,267.61,185.75Z"/><path class="cls-23" d="M251.26,186.21a19.21,19.21,0,0,0,2.25-5.53c-2.09.78-4.13,1.13-6.08,2.32-2.92,1.79-5.48,2.71-7.62,5.87-1.77,2.62-2.82,6.51-1.2,9.76.84,1.69,3.09,2.33,4.7,3.13C245.24,196.13,248.12,191.24,251.26,186.21Z"/><path class="cls-24" d="M255.94,308c-3.94-.43-7.68-5.72-10.05-9.78s-6.1-9.32-8-14.11c-1-2.54-2.43-5.75-1.71-8.57a9,9,0,0,1,5.61-6.19c15.32-4.79,31.15-7.75,46.45-11.84,2.76-.74,4.15-1.77,4.81-4.34.38-1.51-1-2.66-.75-4a5.67,5.67,0,0,1,1.82-3.1c5.52-5.82,10.68-11.8,15.85-17.94,1.09-1.29,2.2-2.6,4.05-2.61a6.33,6.33,0,0,1,4.64,2.47,71.86,71.86,0,0,1,14,22.56,17.08,17.08,0,0,1,.94,9.9,16.34,16.34,0,0,1-4.54,8.22c-8.13,8.71-16.2,13.31-28.32,13.82-3.17.13-6.76-1.52-9.75-1.48s-4.51.62-5.69,3.1c-.41.86.59,1.33-.14,2-1.78,1.47-4.13.72-6,2-.92.63-.09,1.12-.35,2.37C276,303.66,270.87,309.63,255.94,308Z"/><path class="cls-25" d="M250.7,278.43a92.62,92.62,0,0,0,28,11.21,2,2,0,0,1,.33-1.82c.06-.08.18-.12.26-.19-11.43-3.3-20.53-8.95-29.56-16.57,5.75,1.12,12.32,4.84,17.57,6.17s9,.43,13.72-.2c10.4-1.42,19.62-3.7,29-8.25a37.62,37.62,0,0,1-13.66-4.54c5.17-1,10.23-1.78,15-4.31s7.88-5.34,8.2-10.94a58.18,58.18,0,0,1-15.63,6.33c3.18-9.51,5.87-19.11,8.19-28.87,0-.21.07-.42.11-.63a14.21,14.21,0,0,0-2.3,2.22c-5.08,6.18-10.32,12.11-15.81,18a5.67,5.67,0,0,0-1.82,3.1c-.23,1.38,1.13,2.53.75,4-.66,2.57-2,3.6-4.81,4.34-15.3,4.09-31.13,7-46.45,11.84a9,9,0,0,0-5.6,6.19c-.71,2.83.66,6,1.71,8.57,2,4.82,5.57,10,8.05,14.14s5.94,9.12,10.08,9.83c12.43,2.14,16.9-2.84,22.48-12.72C267.12,292.13,259,286.73,250.7,278.43Z"/><path class="cls-6" d="M291.94,253.17c14.59-3.59,21.39-12.54,25.69-26.6a1.59,1.59,0,0,0-.16-1.27,2.65,2.65,0,0,0-1.08-1c-2.52-1.46-5.09-2.94-7.67-4.32a3.1,3.1,0,0,0-2.36-.44c-.41.11-.59.43-.81.73-4.25,5.61-8.65,10.76-13.14,16.25-1.72,2.11-3.44,3.68-4.52,6.65S286.32,254.56,291.94,253.17Z"/><path class="cls-26" d="M239.25,194.23c-2.95,3.28-3.58,7.61-3.45,11.64.35,10.44,1.43,18.8-1.24,29.11-1.69,6.51-4.38,11-7.95,18s-10.55,16-16.16,22.52c-2.36,2.74-4.24,6.9-.62,9.14s7.79.55,11.37-.59,8.19-3.41,10.11-6.06c5.91-8.17,9.44-17.89,13.49-26.32s6.12-15.66,8.73-24.3a95.41,95.41,0,0,1,24,12.83A16.68,16.68,0,0,1,282,246c.4.73.37,1.53.9,2.09a3.13,3.13,0,0,0,1.78,1.12c6.6,1.13,12.7.93,17.39-4.29s5.23-11.17,6-17.85a14.84,14.84,0,0,0-2.45-9.81c-1.21-1.88-3.37-3.06-5.35-4a145.77,145.77,0,0,0-18.38-7.25c-6.1-2-11.94-3.82-17.95-5.71A162.39,162.39,0,0,0,239.25,194.23Z"/><path class="cls-27" d="M210.18,278.54c-3.42,3.3-6.83,6.56-10.36,9.75a2.4,2.4,0,0,0-.81.94,1.2,1.2,0,0,0,.37,1.31,19.77,19.77,0,0,0,6.26,3.53,131.53,131.53,0,0,1,12.18-10.15c.09-.07.22-.1.23-.27s-.14-.3-.31-.37A27.14,27.14,0,0,1,210.18,278.54Z"/><path class="cls-24" d="M302.12,244.94c3.89-3.81,4.3-8.64,5.78-13.55-12.34,6.73-22.73,7.71-36.16,3.72,5.19-.15,10.4-.16,15.59-.35,2.13-.08,4.19-.08,6-1.31a3,3,0,0,0,.6-4.87c-.83-.92-2.3-.81-3.18-1.67-1.72-1.69-.8-4.3-2.5-6.06-2.36-2.44-5.56-1.71-8.52-.55-3.64,1.44-7.26,3.1-10.91,4.52,3.27-3.35,6.44-6.68,9.54-10.25,1.32-1.52,2-3.09,1.18-5.07-7.51,6-14.49,11.91-23.57,15.37a27.3,27.3,0,0,0,.15-7.5,12.85,12.85,0,0,0-2.14,4.76c-3.1,12.05-7.72,21-17.92,28.48-2.24,1.64-5.61,1.92-8.29,2.38-.34,0-.54-.21-.84-.23-1.36,2.45-2.88,4.82-4.22,7.3a7.3,7.3,0,0,0,.93-.19c3.3-1.37,5.78-3.44,9.42-4.06-.54,2.44-2.14,3.69-3.72,5.68-2.8,3.52-7.41,6.28-11.42,8.72-1.48.9-3.57,1.86-5.1,3a15.1,15.1,0,0,0-2.44,2.34c-2.26,2.9-4.17,6.86-.57,9.14s7.8.54,11.37-.58,8.2-3.41,10.12-6.06c5.91-8.17,9.43-17.89,13.48-26.32s6.13-15.66,8.74-24.3a95.82,95.82,0,0,1,24,12.83A16.65,16.65,0,0,1,282,246c.4.73.37,1.53.9,2.1a3.22,3.22,0,0,0,1.78,1.11C291.37,250.39,297.13,249.85,302.12,244.94Z"/><path class="cls-28" d="M244.67,220.72a23.84,23.84,0,0,0,.1-8.21c-.27-2-1.77-3.85-1.76-5.95s1-3.51,2.38-5c-1.07-.45-2.17-.9-3.21-1.43-.53-.27-1-.63-1.48-.93a12.6,12.6,0,0,0-1.39,7c.31,2.36,1.55,4.13,1.94,6.34a21.63,21.63,0,0,1,.17,6.27c-.87,8.77-.48,15.76-4,24.53s-10.13,18.16-15.59,27c-1.74,2.82-6.47,6.61-9.11,9.5-1.09,1.19-3,2.95-4.1,4.23a4.42,4.42,0,0,0,1,.86,9.65,9.65,0,0,0,3.45.88c.32-.41,1.18-1.1,1.5-1.49A270.31,270.31,0,0,0,238,250.74C244.07,240.16,242.68,231.51,244.67,220.72Z"/><path class="cls-6" d="M288.74,207.62a36.71,36.71,0,0,0-4.2-1.78A71.65,71.65,0,0,1,268.75,217a43.06,43.06,0,0,1-13.81,4.71c-.43,1.93-1,3.86-1.39,5.79,3.69-.06,7.54-1.6,10.75-3,7.34-3.16,13.5-6.49,19.38-11.72C285.52,211.17,287,209.35,288.74,207.62Z"/><path class="cls-15" d="M355.4,88.82c-7.71,20-29.61,34.46-51,27-21.9-7.69-35-33.9-30.7-56.29,5-25.69,33.79-32.68,55.67-24.77C351.86,42.84,364.19,66,355.4,88.82Z"/><path class="cls-1" d="M349.43,86.81c-6.23,16.33-25.69,29.44-43.26,22.72-18.13-6.91-29.77-28.84-26-47.8,4.32-21.5,28.5-27.73,46.94-21C346.11,47.65,356.81,67.47,349.43,86.81Z"/><path class="cls-15" d="M313,81.21a4.06,4.06,0,0,1-2.49-4.75c2.49-9.44,5.32-18.87,8.46-28.12a3.69,3.69,0,0,1,4.87-2A3.82,3.82,0,0,1,326.32,51c-3.31,9.51-4.89,14.37-7.8,24.17,6.17,1.69,9.21,2.52,15.24,4.11a3.6,3.6,0,0,1,2.56,4.4A3.55,3.55,0,0,1,332,86.32c-7.41-1.93-11.15-2.95-18.75-5Z"/><path class="cls-29" d="M326.83,42.09c-2.09-.77-3.51,2-1.41,2.8S328.94,42.87,326.83,42.09Z"/><path class="cls-29" d="M307.34,39.64a1.63,1.63,0,1,0,.45,3.22A1.63,1.63,0,1,0,307.34,39.64Z"/><path class="cls-29" d="M290.52,46.76c-1.51,1.32.62,4.1,2.14,2.76S292,45.42,290.52,46.76Z"/><path class="cls-29" d="M281.64,62.07c-.44,2,2.63,3.49,3.07,1.44S282.08,60,281.64,62.07Z"/><path class="cls-29" d="M282.55,81.09c.63,2.12,3.7,1.81,3.07-.33S281.92,79,282.55,81.09Z"/><path class="cls-29" d="M291.81,98a1.51,1.51,0,1,0,2.32-1.94A1.51,1.51,0,1,0,291.81,98Z"/><path class="cls-29" d="M306.39,108.13c1.81.64,2.95-2.29,1.11-2.94S304.56,107.49,306.39,108.13Z"/><path class="cls-29" d="M322.94,109.21c1.84-.42,1.55-3.57-.32-3.16S321.09,109.63,322.94,109.21Z"/><path class="cls-29" d="M338,101.28c1.47-1.34-.23-3.92-1.72-2.57S336.54,102.63,338,101.28Z"/><path class="cls-29" d="M348.09,86.52c.71-1.9-2.07-3.23-2.79-1.3S347.36,88.45,348.09,86.52Z"/><path class="cls-29" d="M350.1,68.87c-.31-2-3.52-1.73-3.2.26S350.42,70.86,350.1,68.87Z"/><path class="cls-29" d="M342.59,52.77c-1.37-1.56-4.13.16-2.74,1.74S344,54.35,342.59,52.77Z"/><path class="cls-15" d="M212,54.93c-2.72-18.54-23.68-28.36-40.8-24.28C156,34.28,140.1,50.12,146.09,67.14c3.87,11,13.47,19.43,24.32,23.47,7.54,11.73,14,24.07,20.52,36.38,2.14-13.35,4.73-26.62,7.61-39.82A34.78,34.78,0,0,0,212,54.93Z"/><path class="cls-1" d="M199.21,57.61c1.78,10.53-5.88,21.44-16.55,22.81-10.27,1.32-21.24-5.59-24.25-15.53-3.19-10.52,5.45-20.19,15.71-22.27C185.05,40.39,197.28,46.2,199.21,57.61Z"/><path class="cls-11" d="M457,143.27c-12.64-1.38-28.22-6.33-33.92-18.79-11.16,9-28,7.26-40.76,3-10.47,34.12-11.81,61.77,17,85.92C434.6,204.14,450.19,178.36,457,143.27Z"/><path class="cls-28" d="M402.13,201.32c-7.07-5.31-14.93-14-17.67-22.61-4.24-13.32-.9-26.48,2.4-39.6,10.93,1.26,21.78,2.45,32.53-.89,7.92,7.23,17.89,10.46,27.83,13.69-3.1,13.18-8.89,27-18.56,36.62C422.09,195.05,411.07,199.52,402.13,201.32Z"/><path class="cls-11" d="M396,180.6c-1.31-7.77-2-11.66-3.34-19.43,3.3-1.34,5-2,8.35-3.35.41,5.54.6,8.32,1,13.86q15.78-6.44,31.59-12.75c.35,4.59.5,6.88.81,11.46Q415.17,175.45,396,180.6Z"/><path class="cls-30" d="M76,240.09Q56.31,247,36.64,253.89c-1.9.66-2.72,3-1.83,5.22a622.64,622.64,0,0,1,26.51,79.34c.59,2.31,2.69,3.64,4.67,3,12.58-4.33,25.07-8.92,37.51-13.63,1.78-.67,2.5-3.08,1.67-5.37C96.48,296.07,89.85,269.15,81,242.86A4,4,0,0,0,76,240.09Z"/><path class="cls-31" d="M76.19,242.41Q57.08,249.15,38,255.85a1.75,1.75,0,0,0-.92,2.38c9.23,23.09,17.52,46,24.14,70a1.65,1.65,0,0,0,2.12,1.27c11.91-4.29,23.77-8.73,35.61-13.2a2,2,0,0,0,1-2.44c-7-23.48-13.45-47-21.34-70.21A1.86,1.86,0,0,0,76.19,242.41Z"/><path class="cls-32" d="M81.69,252.87C74.25,277,67.79,301.44,60.5,325.64c.27,1,.41,1.53.69,2.56a1.65,1.65,0,0,0,2.12,1.27c1.74-.62,2.61-.93,4.33-1.56,6.08-20.7,11.81-41.48,18.26-62.07C84.27,260.65,83.43,258.06,81.69,252.87Z"/><path class="cls-32" d="M76.19,242.41,71.59,244c-6.07,20.42-11.46,41-16.9,61.58,1.64,5.22,2.41,7.85,3.9,13.13,7-24.21,13.45-48.53,20.81-72.63-.35-1-.52-1.49-.86-2.49A1.86,1.86,0,0,0,76.19,242.41Z"/><path class="cls-33" d="M86.79,327.11a4.18,4.18,0,0,1-2.31,5.32,3.91,3.91,0,0,1-5-2.62,4.28,4.28,0,0,1,2.39-5.32A3.85,3.85,0,0,1,86.79,327.11Z"/><path class="cls-34" d="M131.88,195.8C102.48,182,73.78,167.73,43,157.27Q49.75,137.42,57,117.79c30.5,11.38,60.85,23.09,91.22,34.84Q140,174.2,131.88,195.8Z"/><path class="cls-35" d="M132.24,180.37c2.42-6.43,3.63-9.65,6.08-16.13a10.3,10.3,0,0,1-5.83-13.06c-20.76-8.32-41.58-16.4-62.58-24.09-1.82,4.95-7.47,7.25-12.78,5.4-2.17,6-3.17,8.93-5.15,14.66,5.33,1.79,8.34,7,6.79,11.52,20.81,7.9,40.86,17.12,61,26.7A9.13,9.13,0,0,1,132.24,180.37Z"/><path class="cls-36" d="M108.39,160.7c-2.48,6.82-10.15,9.66-17.24,6.54S80,156.56,82.33,150s10.25-9.82,17.52-7S110.88,153.88,108.39,160.7Z"/><path class="cls-34" d="M91.08,164.62l.85-2.39a9.16,9.16,0,0,1-3.56-2.69l1.18-1.32a8.45,8.45,0,0,0,3.34,2.57c1.82.76,3.39.31,3.88-1s-.24-2.56-1.89-4.05c-2.26-2-3.53-3.77-2.78-5.85s2.79-2.9,5.31-2.32c.36-1,.53-1.47.89-2.45l1.61.64c-.34.94-.51,1.41-.86,2.36a8,8,0,0,1,3.06,2.2c-.49.54-.73.81-1.23,1.34a7.27,7.27,0,0,0-3-2.14c-2-.8-3.15,0-3.49,1-.45,1.25.29,2.26,2.22,4,2.29,2.1,3.18,3.92,2.41,6.05-.68,1.9-2.72,3-5.49,2.33-.36,1-.53,1.48-.88,2.47Z"/><polygon class="cls-12" points="414.22 314.03 386.91 282.52 404.59 271.47 417.22 293.29 467.28 244.97 481.87 266.18 414.22 314.03"/><path class="cls-37" d="M79.93,204.83c-.08-.46-.23-1.08-.25-1.15l-.42-2.18-.93-4.78c-.27-1.38-2.07-1.32-2.74-.36a29.77,29.77,0,0,1-9.16,8.47,1.5,1.5,0,0,0,1.51,2.59A33,33,0,0,0,72.7,204a74.09,74.09,0,0,0-5.8,24.49c-.13,1.93,2.87,1.92,3,0a70.13,70.13,0,0,1,6.53-25.53c.18,1,.38,1.92.62,2.87.34,1.38,1,2.24,2.5,2a1.44,1.44,0,0,0,1-1.05c0-.08,0-.16.05-.24A1.49,1.49,0,0,0,79.93,204.83Z"/><path class="cls-37" d="M137.22,97.58a56.73,56.73,0,0,0-10.21,3.1c-1.78.73-.41,3.4,1.37,2.67,1.56-.64,3.15-1.19,4.76-1.67a69.92,69.92,0,0,0-15.69,20.51c-.86,1.71,1.63,3.38,2.5,1.66a67.65,67.65,0,0,1,13.75-18.61c0,.14-.09.28-.13.42-.4,1.44-1.3,3.41-.65,4.87a1.55,1.55,0,0,0,1.65.79l.21,0a1.51,1.51,0,0,0,1.18-1.38l0-.17a1.34,1.34,0,0,0-.22-.94c.16-.46.39-1.19.44-1.37.25-.94.52-1.88.83-2.81.55-1.73,1.21-3.42,1.92-5.09A1.51,1.51,0,0,0,137.22,97.58Z"/><path class="cls-37" d="M260,55.68Q256.55,52,253.4,48c-1.21-1.51-3.32.63-2.13,2.12s2.24,2.73,3.38,4.07a47.16,47.16,0,0,0-33,3.43c-1.73.85-.21,3.44,1.51,2.59a43.89,43.89,0,0,1,30.51-3.15,61.44,61.44,0,0,0-6,2.86c-1.69.93-.18,3.52,1.51,2.59a57.35,57.35,0,0,1,10-4.34A1.52,1.52,0,0,0,260,55.68Z"/><path class="cls-37" d="M374.36,121.91a58.18,58.18,0,0,1-1.66-9c-.2-1.9-3.2-1.92-3,0,.1,1,.24,2.06.4,3.09a48,48,0,0,0-13.05-12.67c-1.62-1.06-3.12,1.54-1.51,2.59a44.36,44.36,0,0,1,12.16,11.88,22,22,0,0,0-5.51-1.13c-1.92-.15-1.91,2.85,0,3a18.38,18.38,0,0,1,10,3.92C373.25,124.45,374.66,123.06,374.36,121.91Z"/><path class="cls-37" d="M433.77,236.27c-.39,1.44-.73,2.88-1.06,4.33-1.16-7.45-2.08-15.62-6.69-21.54-1.19-1.52-3.3.62-2.12,2.13,4.35,5.58,5,14.37,6.14,21.53-.81-1.19-1.65-2.36-2.55-3.5-1.2-1.51-3.31.63-2.12,2.13a50.88,50.88,0,0,1,5.87,9.38c.53,1.09,2.57.92,2.74-.35a105.6,105.6,0,0,1,2.68-13.31A1.5,1.5,0,0,0,433.77,236.27Z"/></g></svg>