<svg id="Layer_1" data-name="Layer 1" xmlns="http://www.w3.org/2000/svg" viewBox="0 0 52 58.9">
  <defs>
    <style>
      .cls-1 {
        fill: #f0ca0c;
      }

      .cls-1, .cls-10, .cls-11, .cls-12, .cls-13, .cls-14, .cls-16, .cls-17, .cls-19, .cls-2, .cls-20, .cls-21, .cls-22, .cls-23, .cls-24, .cls-25, .cls-26, .cls-27, .cls-28, .cls-29, .cls-3, .cls-4, .cls-5, .cls-6, .cls-7, .cls-8, .cls-9 {
        fill-rule: evenodd;
      }

      .cls-2 {
        fill: #506422;
      }

      .cls-3 {
        fill: #637d2a;
      }

      .cls-4 {
        fill: #c0c8a1;
      }

      .cls-5 {
        fill: #8e9f6a;
      }

      .cls-6 {
        fill: #ecefe9;
      }

      .cls-7 {
        fill: #69822c;
      }

      .cls-8 {
        fill: #aeb994;
      }

      .cls-9 {
        fill: #576e26;
      }

      .cls-10 {
        fill: #7b913f;
      }

      .cls-11 {
        fill: #d8d6a6;
      }

      .cls-12 {
        fill: #f6f2d1;
      }

      .cls-13 {
        fill: #fbfaed;
      }

      .cls-14 {
        fill: #55352a;
      }

      .cls-15 {
        fill: #c10016;
      }

      .cls-16 {
        fill: #fff;
      }

      .cls-17 {
        fill: #452c22;
      }

      .cls-18 {
        fill: #911b19;
      }

      .cls-19 {
        fill: #6d852c;
      }

      .cls-20 {
        fill: #687e2c;
      }

      .cls-21 {
        fill: #4b2747;
      }

      .cls-22 {
        fill: #61345e;
      }

      .cls-23 {
        fill: #6e3b6e;
      }

      .cls-24 {
        fill: #7d4f7c;
      }

      .cls-25 {
        fill: #b49061;
      }

      .cls-26 {
        fill: #e2c077;
      }

      .cls-27 {
        fill: #764633;
      }

      .cls-28 {
        fill: #e0a519;
      }

      .cls-29 {
        fill: #ebebeb;
      }
    </style>
  </defs>
  <g>
    <path class="cls-1" d="M32.3,10.3C19.6,10.3,7.8,20.6,6,33.3s6.9,22.9,19.6,22.9S50,46,51.9,33.3,44.9,10.3,32.3,10.3Z" transform="translate(-4.2 -0.9)"/>
    <g>
      <g>
        <path class="cls-2" d="M31.2,6.9c3.5,8.1,5.3,14.2,4.7,18.6s-.1,6.2-2.8,4.3-3.9-.1-4.7-6.1a95.1,95.1,0,0,1-1.2-12.1C27.2,8.7,31.2,6.9,31.2,6.9Z" transform="translate(-4.2 -0.9)"/>
        <path class="cls-2" d="M34.4,6.9c-.9-3.9-2.1-4.8-3.1-4.6s-.7.2-1.3-.3-1.8-.1-2.2,1.7a8.4,8.4,0,0,0,1.1,5.2c.4.5,0,1.3,1.2,1.6S34.4,6.9,34.4,6.9Z" transform="translate(-4.2 -0.9)"/>
        <path class="cls-3" d="M33.9,5.6A6,6,0,0,1,36,7.7a3.3,3.3,0,0,1,2.2,2.7c.5,2.3.3,3.4.7,4.2a4,4,0,0,1,.4,2.8,9.9,9.9,0,0,0-.4,1.8,6.6,6.6,0,0,1,.5,4.4c-.8,2.1-1.7,3.1-2.6,2.7s-3.1-2-3.2-4,1-3-.6-4.2-2.4-1.9-1.8-3.4,1.2-2.4.1-4,0-1.9.7-3S31.3,3.9,33.9,5.6Z" transform="translate(-4.2 -0.9)"/>
        <path class="cls-3" d="M30.8,24.7c1.4-1.1,2.9-4.1,1.7-5.6s-2.2-2.5-1.6-5S30,11.9,30,10s.5-2.2-.8-3.6.4-2.4-.7-3.2S26.4,3,26.1,4.9s-2.2.6-2.4,3.5,1.3,2.4,0,5.1,2,3.1,1.5,4.9a6.6,6.6,0,0,0,1.3,5.8C28,26,31,27.7,30.8,24.7Z" transform="translate(-4.2 -0.9)"/>
        <path class="cls-4" d="M34.6,10.4c.4,2.1,1.8,4.2,3.3,8.5s2.5,7.1.8,11-4.5,3.6-8.1,1.3-3.4-5.6-3.8-9.6-1.3-8.4-.9-11a12,12,0,0,1,.7-3.4s.8,5.7,2.2,12,3.6,8.6,4.4,9.1,2.6-2.6,1.6-9.4S33.8,10,34.6,10.4Z" transform="translate(-4.2 -0.9)"/>
        <path class="cls-5" d="M34.2,33.3c-1.3-.1-1-1.8,1.3-1.7S37.1,33.6,34.2,33.3Z" transform="translate(-4.2 -0.9)"/>
        <path class="cls-6" d="M34.5,12.7a1.3,1.3,0,0,0,.1.6v.2c1,4.2,4.7,12.1.6,16.1,2.6-5,1.8-7.8-.1-13a21.7,21.7,0,0,1,.8,5.2c0,3.9-.7,7.7-2.1,7.8s-3.9-2.1-5.1-7.4c-.3-1.4-.6-2.8-.8-4.3.1,3.3.7,7.5,1.9,9.3a15.2,15.2,0,0,0,2.6,3,10.3,10.3,0,0,1-2.7-2.8c-2.1-3-2.9-17.9-3.4-17.3s.4,16.5,2.2,18.4,3.3,3.8,5,3.1a1.8,1.8,0,0,1,1.1-.3h1c1.2.1.8.5,1.5-.6a9.2,9.2,0,0,0,1.6-5.2c-.2-3.2-1.4-6.7-3.7-12.6C34.9,12.3,34.4,11.6,34.5,12.7Z" transform="translate(-4.2 -0.9)"/>
        <path class="cls-7" d="M33.8,18.1c-.9-1.2-2.4-1.5-2-2.8s1.5-2.5.7-4S30.9,9.9,32,9a3.3,3.3,0,0,0,1.3-2.1c.1-.9,1.1-.3,1.8.9s2.1,1,2.4,2.6-.5,2.1-.1,2.9,1.8,2.3,1.7,3a7.6,7.6,0,0,1-.5,1.4,4.3,4.3,0,0,0-.9-2.2,6.3,6.3,0,0,1-1.2-4.2c-.1-2.1-1.6-3-2.5-2.2s-.1,2-.6,3.4-1.3,1.9-.6,2.7,1.5,2,1.3,2.6S33.8,18.1,33.8,18.1Z" transform="translate(-4.2 -0.9)"/>
        <path class="cls-7" d="M30.8,23A3.9,3.9,0,0,0,32,19.8a12.8,12.8,0,0,0-1.5-2.3,2.8,2.8,0,0,1-.7-2.3c.3-1.2.9-2.1.4-3.2s-1.4-1.7-.9-2.6a2.2,2.2,0,0,0-.6-2.7c-.8-.9-.8-.5-.8-1.7-.2,1.2-.5,1.4.3,2.3s.7,1.3.3,1.9.4,1.5.9,2.8,0,2.6-.1,3.6.5,1.8,1.5,3.2S31.4,21.2,30.8,23Z" transform="translate(-4.2 -0.9)"/>
        <path class="cls-8" d="M34.5,33.2c-1-.1-.7-1.3,1-1.2S36.7,33.5,34.5,33.2Z" transform="translate(-4.2 -0.9)"/>
      </g>
      <g>
        <g>
          <path class="cls-3" d="M40.5,18A55.1,55.1,0,0,0,44.2,2c0-2.4-2.3-.4-2.4,1.9s-2.3,1.9-1.6,4.8,0,2.5-.5,4.5S40.5,18,40.5,18Z" transform="translate(-4.2 -0.9)"/>
          <path class="cls-9" d="M40.6,17.9C43,9.3,44.9,4.7,47.1,2.5s.9,1.5.2,3.2.2,1,0,2.6-2.4,2.5-2.7,3.2,1.1.3-.1,2.1A42,42,0,0,1,40.6,17.9Z" transform="translate(-4.2 -0.9)"/>
          <path class="cls-3" d="M40.8,17.8c2.1-3.3,6.4-8.9,9.7-11.1s-.2,1.6-.7,2.2.4,2.2-.5,3-1.3.3-1.8,1.7S40.8,17.8,40.8,17.8Z" transform="translate(-4.2 -0.9)"/>
          <path class="cls-10" d="M42,9.8A23.9,23.9,0,0,0,43.4,1c-.7.2-1.5,1.5-1.6,2.9s-2.3,1.9-1.6,4.8,0,2.5-.5,4.5a5.2,5.2,0,0,0-.2,1.1C40.4,14,41.3,12,42,9.8Z" transform="translate(-4.2 -0.9)"/>
          <path class="cls-10" d="M47.1,2.5c-1.5,1.5-2.8,4-4.3,8l-1.4,4.4.3-.2c.6-.7,1.4-2.2,2.1-3.1S46.5,8.7,46.5,8a6.5,6.5,0,0,1,.4-3.7A14.9,14.9,0,0,0,47.8,2Z" transform="translate(-4.2 -0.9)"/>
          <path class="cls-10" d="M43,15.5a5.9,5.9,0,0,0,2-1.3c1.8-1.1,1.4-1.6,2.1-2.6s1.7-.5,1.9-1.4a9.3,9.3,0,0,1,2.7-3.7c.4-.6.3-.8-1.2.2a26.2,26.2,0,0,0-5.6,5.5c-.8.9-1.6,2-2.3,2.9S42.8,15.5,43,15.5Z" transform="translate(-4.2 -0.9)"/>
        </g>
        <g>
          <path class="cls-11" d="M36.4,17.1c-3.3,2.5-8.4,15.7-7.4,20-.6,1.9-.9,2.2-1.3,1.9s-.8-1.5-1.4-.6a6.5,6.5,0,0,0-1,2.1s.8-1.8,1.4-1.2.8,2,4.3-1h0c1-.3,2.3-1.2,4.1-3,4-3.9,9.1-12.5,8.5-15.2S39.3,15,36.4,17.1Z" transform="translate(-4.2 -0.9)"/>
          <path class="cls-12" d="M39.6,26.5c1.3-2.8,4-7.6,2.7-9l-.4-.3-.3-.2-.4-.3H41l-1.3-.4a4.6,4.6,0,0,0-3.3.9c-3.2,2.4-8,14.5-7.5,19.3.4.1-1,2.1,1.7,1S38.3,29.2,39.6,26.5Z" transform="translate(-4.2 -0.9)"/>
          <path class="cls-13" d="M38.2,18.1c-3.2-.2-8.9,13.6-6.8,13.4S42.2,18.4,38.2,18.1Z" transform="translate(-4.2 -0.9)"/>
        </g>
      </g>
      <g>
        <path class="cls-14" d="M29.1,20.7V47.8H29a3.2,3.2,0,0,1-3,1.5,3.7,3.7,0,0,1-1.5-.3,4,4,0,0,1-1.5.3,4.1,4.1,0,0,1-1.6-.3,3.3,3.3,0,0,1-1.5.3,3.2,3.2,0,0,1-3-1.5h-.1V20.7c0-6.1,3.1-5.6,4.6-8.4V10.8h3.1v1.5C26,15.1,29.1,14.8,29.1,20.7Z" transform="translate(-4.2 -0.9)"/>
        <rect class="cls-15" x="12.6" y="20" width="12.3" height="7.35"/>
        <rect class="cls-15" x="17.2" y="8.2" width="3.1" height="1.66"/>
        <path class="cls-16" d="M18.8,47.4a.4.4,0,0,1-.4.4.5.5,0,0,1-.5-.4V20.7c0-4.3,1.5-5.5,2.9-6.7l.9-.7a.3.3,0,0,1,.5,0,.4.4,0,0,1,0,.6,7.3,7.3,0,0,1-.9.8c-1.2,1-2.5,2.1-2.5,6Z" transform="translate(-4.2 -0.9)"/>
        <path class="cls-17" d="M27.5,20.9h1.6v-.2c0-5.9-3.1-5.6-4.6-8.4V10.8H23v1.5c1.5,2.8,4.5,2.5,4.5,8.4Z" transform="translate(-4.2 -0.9)"/>
        <rect class="cls-18" x="23.3" y="20" width="1.5" height="7.35"/>
        <path class="cls-17" d="M29.1,28.2H27.5V47.8h0c-.2.7-1.1,1.2-2.2,1.4H26a3.2,3.2,0,0,0,3-1.5h.1V28.2Z" transform="translate(-4.2 -0.9)"/>
      </g>
      <g>
        <path class="cls-2" d="M16.7,13.8c1.5,2.9.5,4.5-.7,4.6a2.3,2.3,0,0,1-1.7-.8C13.2,16.3,13.4,7.3,16.7,13.8Z" transform="translate(-4.2 -0.9)"/>
        <path class="cls-3" d="M13.5,13.3c.4,1.8,1.4,1.4,1.4.8S12.9,10.4,13.5,13.3Z" transform="translate(-4.2 -0.9)"/>
        <path class="cls-3" d="M16.4,12.9c-.2,1.9-1.2,1.6-1.3,1S16.6,10,16.4,12.9Z" transform="translate(-4.2 -0.9)"/>
        <path class="cls-3" d="M15.3,12.1c.6,1.7-.4,2-.7,1.4S14.3,9.3,15.3,12.1Z" transform="translate(-4.2 -0.9)"/>
        <path class="cls-2" d="M15.2,15.3c.8,5.6,2,8.9,5.5,15s4.8,5.1,5,3.9-3.7-3-7.2-11.3S16.2,14.1,15.2,15.3Z" transform="translate(-4.2 -0.9)"/>
        <path class="cls-3" d="M25.5,33.6c-.8-1.2-4-3.6-7-10.7s-2.4-8.6-3.1-7.8c.8,5,2,8.3,5.3,14S25,34.4,25.5,33.6Z" transform="translate(-4.2 -0.9)"/>
        <path class="cls-3" d="M14,17.4c.4,1.2,1.8,1.3,1.6.6S12.9,14.5,14,17.4Z" transform="translate(-4.2 -0.9)"/>
        <path class="cls-3" d="M17.6,16.3c0,2.6-1.1,2.1-1.3,1.4S17.6,13.8,17.6,16.3Z" transform="translate(-4.2 -0.9)"/>
        <path class="cls-3" d="M13.8,15.3c.8,1.8,1.8,1.2,1.6.6S12.6,12.3,13.8,15.3Z" transform="translate(-4.2 -0.9)"/>
        <path class="cls-3" d="M16.8,14.3c.2,2-1,2-1.2,1.3S16.5,11.2,16.8,14.3Z" transform="translate(-4.2 -0.9)"/>
        <path class="cls-2" d="M18.4,19.9c0,2-1.1,1.8-1.2,1.1S18.5,16.7,18.4,19.9Z" transform="translate(-4.2 -0.9)"/>
        <path class="cls-2" d="M16.5,23.3c.7,1.8,1.7,1.2,1.6.5S15.2,20.4,16.5,23.3Z" transform="translate(-4.2 -0.9)"/>
        <path class="cls-2" d="M19.1,28.8c.8,1.8,1.8,1.2,1.6.5S17.8,25.9,19.1,28.8Z" transform="translate(-4.2 -0.9)"/>
        <path class="cls-2" d="M20.7,25.4c.6,1.9-.6,2.1-.9,1.5S19.7,22.3,20.7,25.4Z" transform="translate(-4.2 -0.9)"/>
        <path class="cls-3" d="M16.2,16.4c.6,1.6-.2,2-.6,1.7s-.1-.1-.2-.2S15,13.4,16.2,16.4Z" transform="translate(-4.2 -0.9)"/>
        <path class="cls-10" d="M13.5,13.1c.3,1.2.8.9.7.5S13.2,11.2,13.5,13.1Z" transform="translate(-4.2 -0.9)"/>
        <path class="cls-10" d="M14,15.4c.5,1.3,1.1.9.9.4S13,13.2,14,15.4Z" transform="translate(-4.2 -0.9)"/>
        <path class="cls-10" d="M14.1,17.3c.6,1.4,1.1,1,1,.5S13.2,15.2,14.1,17.3Z" transform="translate(-4.2 -0.9)"/>
        <path class="cls-19" d="M15.4,16.6c.1,1.5.7,1.3.7.8S15.3,14.3,15.4,16.6Z" transform="translate(-4.2 -0.9)"/>
        <path class="cls-10" d="M16.1,14.3c-.4,1.5.3,1.5.5,1S16.7,12.1,16.1,14.3Z" transform="translate(-4.2 -0.9)"/>
        <path class="cls-10" d="M16.9,16.5c-.3,1.4.3,1.4.5.9S17.5,14.2,16.9,16.5Z" transform="translate(-4.2 -0.9)"/>
        <path class="cls-10" d="M15.8,12.7c-.6,1.2,0,1.3.3.9S16.6,10.7,15.8,12.7Z" transform="translate(-4.2 -0.9)"/>
        <path class="cls-10" d="M15.1,11.8c.3,1-.2,1.1-.3.8S14.7,10.2,15.1,11.8Z" transform="translate(-4.2 -0.9)"/>
        <path class="cls-3" d="M15.6,13.7c.8,1.8-.4,2.2-.7,1.6S14.3,10.8,15.6,13.7Z" transform="translate(-4.2 -0.9)"/>
        <path class="cls-10" d="M14.7,14c0,1.5.7,1.3.7.7S14.6,11.6,14.7,14Z" transform="translate(-4.2 -0.9)"/>
        <path class="cls-3" d="M17.8,19.7c-.4,1.4.3,1.4.5.9S18.4,17.4,17.8,19.7Z" transform="translate(-4.2 -0.9)"/>
        <path class="cls-3" d="M16.9,23c.8,1,.3,1.2,0,.9S15.7,21.4,16.9,23Z" transform="translate(-4.2 -0.9)"/>
        <path class="cls-3" d="M20.6,25.4c.3,1.2-.3,1.2-.4.8S20,23.4,20.6,25.4Z" transform="translate(-4.2 -0.9)"/>
        <path class="cls-3" d="M19.7,28.5c.8,1,.3,1.2-.1.9S18.3,27,19.7,28.5Z" transform="translate(-4.2 -0.9)"/>
      </g>
      <g>
        <path class="cls-2" d="M28.5,14.1a2.7,2.7,0,0,0-1.7,1.6,4.9,4.9,0,0,0,.2,4.7l.3.3-.2-.3a5.3,5.3,0,0,1-.2-4.1,2.6,2.6,0,0,1,1.7-1.7c.2-.1.2-.2.2-.3S28.6,14.1,28.5,14.1Z" transform="translate(-4.2 -0.9)"/>
        <path class="cls-10" d="M25.9,18.8a3,3,0,0,1,1,.5l.3.4h-.5l.3.8h-.3a1.4,1.4,0,0,1,0,.7l-.2.5-.8-1.2c-.1-.3-.1-.1-.1-.1v.8h-.2l-.3.7v.2s-.5-.5-.4-.6a1.8,1.8,0,0,1-.8.7l-.9.2a5.1,5.1,0,0,1,.4-1.4l.2-.2h-.4l1.1-1-1.2.9-.2.2-.2-.3-.4.4-.3.2h-.1l-.8.2.2-.7h-.1l.2-.3-.8.2c-.2.1-.2-.3-.2-.3L19,20h0l1.1-.6s-.2-.3,0-.4h.7l-.5-.5h.8s.1-.1.4,0l.5.2v-.3s0,.1.3.1l1.5.4-1.5-.6h.1a9.5,9.5,0,0,1-1.1-1.3h1l1,.3c-.1,0,.1-.6.1-.6h.2l.6.5h.2l.4.8v-.2c0-.4.1-1.4.1-1.4a2,2,0,0,1,.5.5l.3.6h.3v.8h.5a1.8,1.8,0,0,1-.1.5Z" transform="translate(-4.2 -0.9)"/>
        <path class="cls-20" d="M26.1,18.9l.8.4.3.4h-.5l.3.8h-.3a1.4,1.4,0,0,1,0,.7l-.2.5-.8-1.2c-.1-.3-.1-.1-.1-.1v.8h-.2l-.3.7v.2s-.5-.5-.4-.6a1.8,1.8,0,0,1-.8.7l-.9.2a5.1,5.1,0,0,1,.4-1.4l.2-.2h-.4l1.1-1-1.2.9-.2.2-.2-.3-.4.4-.3.2h-.1l-.8.2.2-.7h-.1l.2-.3-.8.2c-.2.1-.2-.3-.2-.3L19,20h0l1.9-.3,3.8-.8Z" transform="translate(-4.2 -0.9)"/>
        <path class="cls-20" d="M22.8,20.4A3.4,3.4,0,0,0,20.9,23a2.2,2.2,0,0,0-.4,1.8c.1.7.2.9.2.1s-.1-1.1.2-1.5H21c.2,1.1,1.6.7,1.3-.1a.7.7,0,0,0-1-.3,2.9,2.9,0,0,1,1.6-2.1c.1-.1.2-.2.2-.3Zm-1.5,2.7c.3,0,.6,0,.7.2S21.4,23.9,21.3,23.1Z" transform="translate(-4.2 -0.9)"/>
        <path class="cls-21" d="M28,19.4c-1.4.7-2.7,1.5-2.7,2.5a11.2,11.2,0,0,0,.6,3.6c.2.2,4.6,3,5,3.4s.7,1.2,1.4.2,1.4-2.2.5-4S30.4,19.5,28,19.4Z" transform="translate(-4.2 -0.9)"/>
        <path class="cls-22" d="M33,29.2a1.1,1.1,0,0,0,1-1.1,1,1,0,0,0-1-1,1,1,0,0,0-1.1,1A1.1,1.1,0,0,0,33,29.2Z" transform="translate(-4.2 -0.9)"/>
        <path class="cls-22" d="M29.8,26.3A1.3,1.3,0,0,0,31,25a1.2,1.2,0,0,0-1.2-1.2A1.2,1.2,0,0,0,28.5,25,1.3,1.3,0,0,0,29.8,26.3Z" transform="translate(-4.2 -0.9)"/>
        <path class="cls-22" d="M31.6,23.1a1.3,1.3,0,0,0,1.2-1.3,1.3,1.3,0,0,0-1.2-1.2,1.3,1.3,0,0,0-1.3,1.2A1.3,1.3,0,0,0,31.6,23.1Z" transform="translate(-4.2 -0.9)"/>
        <path class="cls-22" d="M32,25.5a1.3,1.3,0,0,0,1.2-1.3A1.2,1.2,0,0,0,32,23a1.2,1.2,0,0,0-1.3,1.2A1.3,1.3,0,0,0,32,25.5Z" transform="translate(-4.2 -0.9)"/>
        <path class="cls-22" d="M28.2,23.3a1.2,1.2,0,0,0,1.2-1.2,1.2,1.2,0,0,0-1.2-1.3,1.3,1.3,0,0,0-1.3,1.3A1.2,1.2,0,0,0,28.2,23.3Z" transform="translate(-4.2 -0.9)"/>
        <path class="cls-22" d="M30.1,21.5a1.2,1.2,0,1,0,0-2.4,1.2,1.2,0,0,0,0,2.4Z" transform="translate(-4.2 -0.9)"/>
        <path class="cls-22" d="M27.8,20.9a1.2,1.2,0,0,0,1.3-1.2,1.3,1.3,0,0,0-1.3-1.3,1.2,1.2,0,0,0-1.2,1.3A1.2,1.2,0,0,0,27.8,20.9Z" transform="translate(-4.2 -0.9)"/>
        <path class="cls-22" d="M26,22.1a1.2,1.2,0,0,0,1.2-1.2,1.2,1.2,0,1,0-2.4,0A1.2,1.2,0,0,0,26,22.1Z" transform="translate(-4.2 -0.9)"/>
        <path class="cls-22" d="M25.8,24.1A1.2,1.2,0,0,0,27,22.8a1.2,1.2,0,0,0-2.4,0A1.2,1.2,0,0,0,25.8,24.1Z" transform="translate(-4.2 -0.9)"/>
        <path class="cls-22" d="M31.1,30.6a1.3,1.3,0,0,0,1.2-1.3,1.2,1.2,0,0,0-1.2-1.2,1.2,1.2,0,0,0-1.3,1.2A1.3,1.3,0,0,0,31.1,30.6Z" transform="translate(-4.2 -0.9)"/>
        <path class="cls-22" d="M29.4,29.2a1.3,1.3,0,0,0,1.3-1.3,1.2,1.2,0,0,0-1.3-1.2,1.2,1.2,0,0,0-1.2,1.2A1.2,1.2,0,0,0,29.4,29.2Z" transform="translate(-4.2 -0.9)"/>
        <path class="cls-22" d="M28,27.7a1.2,1.2,0,0,0,1.2-1.2A1.2,1.2,0,0,0,28,25.2a1.3,1.3,0,0,0-1.3,1.3A1.2,1.2,0,0,0,28,27.7Z" transform="translate(-4.2 -0.9)"/>
        <path class="cls-22" d="M25.7,26.2A1.2,1.2,0,0,0,26.9,25a1.2,1.2,0,0,0-1.2-1.3A1.3,1.3,0,0,0,24.4,25,1.2,1.2,0,0,0,25.7,26.2Z" transform="translate(-4.2 -0.9)"/>
        <path class="cls-22" d="M33.3,31.2a1.3,1.3,0,0,0,1.3-1.3,1.2,1.2,0,0,0-1.3-1.2,1.2,1.2,0,0,0-1.2,1.2A1.3,1.3,0,0,0,33.3,31.2Z" transform="translate(-4.2 -0.9)"/>
        <path class="cls-22" d="M32.7,27.4a1.2,1.2,0,0,0,1.2-1.3,1.2,1.2,0,0,0-2.4,0A1.2,1.2,0,0,0,32.7,27.4Z" transform="translate(-4.2 -0.9)"/>
        <path class="cls-22" d="M31,28.3A1.3,1.3,0,0,0,32.3,27,1.3,1.3,0,0,0,31,25.8,1.3,1.3,0,0,0,29.8,27,1.3,1.3,0,0,0,31,28.3Z" transform="translate(-4.2 -0.9)"/>
        <path class="cls-22" d="M27.4,25.5a1.2,1.2,0,0,0,1.2-1.2A1.2,1.2,0,0,0,27.4,23a1.3,1.3,0,0,0-1.3,1.3A1.2,1.2,0,0,0,27.4,25.5Z" transform="translate(-4.2 -0.9)"/>
        <path class="cls-22" d="M30,24.2A1.2,1.2,0,0,0,31.2,23,1.3,1.3,0,0,0,30,21.7,1.3,1.3,0,0,0,28.7,23,1.2,1.2,0,0,0,30,24.2Z" transform="translate(-4.2 -0.9)"/>
        <path class="cls-23" d="M29.8,19.3a1,1,0,0,1,1.3.5,1,1,0,0,1-.4,1.3,1,1,0,0,1-1.3-.5A1,1,0,0,1,29.8,19.3Z" transform="translate(-4.2 -0.9)"/>
        <path class="cls-23" d="M27.4,18.7a1,1,0,0,1,1.4.4,1,1,0,0,1-.3,1.3.9.9,0,0,1-1.3-.3A1.1,1.1,0,0,1,27.4,18.7Z" transform="translate(-4.2 -0.9)"/>
        <path class="cls-23" d="M25.4,20a1,1,0,0,1,1.4,0,1,1,0,1,1-1.4,0Z" transform="translate(-4.2 -0.9)"/>
        <path class="cls-23" d="M25.2,21.9a.9.9,0,0,1,1.3,0,1,1,0,0,1,.1,1.4,1.1,1.1,0,0,1-1.4,0A1,1,0,0,1,25.2,21.9Z" transform="translate(-4.2 -0.9)"/>
        <path class="cls-23" d="M27.5,21.2a1.1,1.1,0,0,1,1.4.1.9.9,0,0,1,.1,1.3,1,1,0,0,1-1.4,0A1.1,1.1,0,0,1,27.5,21.2Z" transform="translate(-4.2 -0.9)"/>
        <path class="cls-23" d="M29.3,22.2a1,1,0,0,1,1.4,0,1.1,1.1,0,0,1,.1,1.4,1,1,0,0,1-1.4,0A1.1,1.1,0,0,1,29.3,22.2Z" transform="translate(-4.2 -0.9)"/>
        <path class="cls-23" d="M31,21a1.1,1.1,0,0,1,1.4.1c.4.4.5,1,.1,1.3a1,1,0,0,1-1.4,0A1.1,1.1,0,0,1,31,21Z" transform="translate(-4.2 -0.9)"/>
        <path class="cls-23" d="M31.5,23.3a.9.9,0,0,1,1.3,1.3,1,1,0,0,1-1.3,0A.9.9,0,0,1,31.5,23.3Z" transform="translate(-4.2 -0.9)"/>
        <path class="cls-23" d="M32.4,25.3a.9.9,0,0,1,1.2,0,.9.9,0,0,1,.1,1.3,1,1,0,0,1-1.3,0A.9.9,0,0,1,32.4,25.3Z" transform="translate(-4.2 -0.9)"/>
        <path class="cls-23" d="M30.4,26.2a.9.9,0,0,1,1.3,1.3.9.9,0,0,1-1.2,0A.9.9,0,0,1,30.4,26.2Z" transform="translate(-4.2 -0.9)"/>
        <path class="cls-23" d="M29.3,24.3c.3-.4.8-.3,1.2,0a.8.8,0,0,1,.1,1.2.9.9,0,0,1-1.3,0A.8.8,0,0,1,29.3,24.3Z" transform="translate(-4.2 -0.9)"/>
        <path class="cls-23" d="M29,27.2a.9.9,0,0,1,1.3,1.3,1,1,0,0,1-1.3,0A.9.9,0,0,1,29,27.2Z" transform="translate(-4.2 -0.9)"/>
        <path class="cls-23" d="M27.4,25.8a.9.9,0,0,1,1.2,0A.9.9,0,1,1,27.4,27,.8.8,0,0,1,27.4,25.8Z" transform="translate(-4.2 -0.9)"/>
        <path class="cls-23" d="M30.5,28.6a.9.9,0,0,1,1.2,0,.9.9,0,0,1,.1,1.3.9.9,0,0,1-1.3-1.3Z" transform="translate(-4.2 -0.9)"/>
        <path class="cls-23" d="M32.5,27.3a.9.9,0,0,1,1.2,0,.9.9,0,0,1,.1,1.3.9.9,0,0,1-1.2,0A.9.9,0,0,1,32.5,27.3Z" transform="translate(-4.2 -0.9)"/>
        <path class="cls-23" d="M32.9,29.2a.9.9,0,0,1,1.2,0,.8.8,0,1,1-1.2,0Z" transform="translate(-4.2 -0.9)"/>
        <path class="cls-23" d="M26.7,23.5a1.1,1.1,0,0,1,1.4.1.9.9,0,1,1-1.3,1.3A1,1,0,0,1,26.7,23.5Z" transform="translate(-4.2 -0.9)"/>
        <path class="cls-23" d="M24.8,24.3a.9.9,0,0,1,1.3,0,1,1,0,0,1,.1,1.4c-.3.4-1,.3-1.4,0A1,1,0,0,1,24.8,24.3Z" transform="translate(-4.2 -0.9)"/>
        <path class="cls-24" d="M32.2,21c.4.3.5.9.2.8s-.2-.3-.4-.4-.7-.1-.7-.2S31.9,20.8,32.2,21Z" transform="translate(-4.2 -0.9)"/>
        <path class="cls-24" d="M30.7,19.5c.4.3.5.9.2.8s-.1-.3-.4-.4-.7-.1-.7-.3S30.4,19.3,30.7,19.5Z" transform="translate(-4.2 -0.9)"/>
        <path class="cls-24" d="M28.4,18.9c.4.2.5.9.2.7s-.2-.3-.4-.4-.7-.1-.7-.2S28.1,18.7,28.4,18.9Z" transform="translate(-4.2 -0.9)"/>
        <path class="cls-24" d="M26.5,19.9c.5.3.6,1,.3.8s-.2-.3-.5-.4l-.6-.2C25.6,19.8,26.2,19.8,26.5,19.9Z" transform="translate(-4.2 -0.9)"/>
        <path class="cls-24" d="M28.7,21.3c.4.2.5.9.2.7l-.4-.4c-.2-.1-.7-.1-.7-.2S28.4,21.1,28.7,21.3Z" transform="translate(-4.2 -0.9)"/>
        <path class="cls-24" d="M30.5,22.2c.4.2.5.9.2.7l-.5-.4-.6-.2C29.5,22,30.2,22,30.5,22.2Z" transform="translate(-4.2 -0.9)"/>
        <path class="cls-24" d="M32.5,23.3c.4.3.5,1,.2.8s-.1-.3-.4-.4-.7-.1-.7-.2S32.2,23.2,32.5,23.3Z" transform="translate(-4.2 -0.9)"/>
        <path class="cls-24" d="M33.4,25.3c.4.3.5,1,.2.8l-.4-.4c-.3-.1-.7-.1-.7-.2S33.1,25.2,33.4,25.3Z" transform="translate(-4.2 -0.9)"/>
        <path class="cls-24" d="M33.6,27.4c.4.3.4.9.1.7a1.2,1.2,0,0,0-.4-.4c-.2-.1-.5-.2-.5-.3S33.3,27.2,33.6,27.4Z" transform="translate(-4.2 -0.9)"/>
        <path class="cls-24" d="M34,29.2c.4.3.4.9.1.7a.7.7,0,0,0-.4-.4c-.2-.1-.6-.2-.6-.3S33.7,29,34,29.2Z" transform="translate(-4.2 -0.9)"/>
        <path class="cls-24" d="M31.6,28.7c.3.3.3.9.1.7s-.1-.2-.4-.4-.6-.2-.6-.3S31.3,28.5,31.6,28.7Z" transform="translate(-4.2 -0.9)"/>
        <path class="cls-24" d="M31.5,26.3c.4.3.4.9.1.7l-.4-.4-.5-.3C30.6,26,31.2,26.1,31.5,26.3Z" transform="translate(-4.2 -0.9)"/>
        <path class="cls-24" d="M30.4,24.3c.3.3.3.9.1.7s-.2-.3-.4-.4l-.6-.3C29.5,24,30.1,24.1,30.4,24.3Z" transform="translate(-4.2 -0.9)"/>
        <path class="cls-24" d="M27.9,23.6c.4.4.4,1,.1.8s-.1-.3-.4-.4-.6-.2-.6-.3S27.6,23.4,27.9,23.6Z" transform="translate(-4.2 -0.9)"/>
        <path class="cls-24" d="M28.4,26c.4.3.4.9.1.7l-.4-.4c-.1-.1-.5-.2-.5-.3S28.1,25.8,28.4,26Z" transform="translate(-4.2 -0.9)"/>
        <path class="cls-24" d="M30,27.3c.4.3.4.9.1.7l-.3-.4-.6-.3C29.2,27,29.8,27.1,30,27.3Z" transform="translate(-4.2 -0.9)"/>
        <path class="cls-24" d="M26.3,21.9c.4.3.4,1,.1.8s-.1-.3-.4-.5-.5-.1-.5-.3S26.1,21.7,26.3,21.9Z" transform="translate(-4.2 -0.9)"/>
        <path class="cls-24" d="M25.8,24.4c.4.3.4,1,.1.8a.9.9,0,0,0-.3-.5c-.2-.1-.6-.1-.6-.3S25.6,24.2,25.8,24.4Z" transform="translate(-4.2 -0.9)"/>
      </g>
      <g>
        <g>
          <polygon class="cls-25" points="9.7 22.6 19.6 22.6 27.5 22.6 37.4 22.6 40.4 55.3 27.5 55.3 19.6 55.3 6.7 55.3 9.7 22.6"/>
          <polygon class="cls-26" points="13.5 22.6 23.5 22.6 31.3 22.6 41.3 22.6 44.2 55.3 31.3 55.3 23.5 55.3 10.6 55.3 13.5 22.6"/>
        </g>
        <g>
          <path class="cls-27" d="M25.1,28.3a.8.8,0,0,0,.7-.8.7.7,0,0,0-.7-.7.7.7,0,0,0-.8.7A.8.8,0,0,0,25.1,28.3Z" transform="translate(-4.2 -0.9)"/>
          <path class="cls-27" d="M37.4,28.3a.9.9,0,0,0,.8-.8.8.8,0,0,0-.8-.7.7.7,0,0,0-.7.7A.8.8,0,0,0,37.4,28.3Z" transform="translate(-4.2 -0.9)"/>
        </g>
        <path class="cls-28" d="M37.1,27.7a.3.3,0,0,1,.3-.3c.2,0,.4.1.4.3a6.7,6.7,0,0,1-1.9,4.7,6.4,6.4,0,0,1-4.6,1.9,6.5,6.5,0,0,1-6.6-6.6c0-.2.2-.3.4-.3s.4.1.4.3a5.8,5.8,0,0,0,5.8,5.8,5.7,5.7,0,0,0,4.1-1.7A5.9,5.9,0,0,0,37.1,27.7Z" transform="translate(-4.2 -0.9)"/>
      </g>
    </g>
    <path class="cls-29" d="M6,59.9H54.4A1.9,1.9,0,0,0,56.2,58h0a1.8,1.8,0,0,0-1.8-1.8H6A1.8,1.8,0,0,0,4.2,58h0A1.9,1.9,0,0,0,6,59.9Z" transform="translate(-4.2 -0.9)"/>
  </g>
</svg>
