<svg xmlns="http://www.w3.org/2000/svg" xmlns:xlink="http://www.w3.org/1999/xlink" viewBox="0 0 55.7 60.5">
  <defs>
    <style>
      .cls-1 {
        isolation: isolate;
      }

      .cls-2 {
        fill: url(#linear-gradient);
      }

      .cls-3, .cls-6 {
        fill: #f0f0f0;
      }

      .cls-3 {
        mix-blend-mode: soft-light;
      }

      .cls-4 {
        fill: url(#linear-gradient-2);
      }

      .cls-5 {
        fill: url(#linear-gradient-3);
      }

      .cls-7 {
        fill: url(#linear-gradient-4);
      }

      .cls-12, .cls-31, .cls-8 {
        fill: #fff;
      }

      .cls-9 {
        fill: url(#linear-gradient-5);
      }

      .cls-10 {
        fill: url(#linear-gradient-6);
      }

      .cls-11 {
        fill: url(#linear-gradient-7);
      }

      .cls-12 {
        opacity: 0.78;
      }

      .cls-13 {
        fill: url(#linear-gradient-8);
      }

      .cls-14 {
        fill: url(#linear-gradient-9);
      }

      .cls-15 {
        fill: url(#linear-gradient-10);
      }

      .cls-16 {
        fill: url(#linear-gradient-11);
      }

      .cls-17 {
        fill: url(#linear-gradient-12);
      }

      .cls-18 {
        fill: url(#linear-gradient-13);
      }

      .cls-19 {
        fill: url(#linear-gradient-14);
      }

      .cls-20 {
        fill: url(#linear-gradient-15);
      }

      .cls-21 {
        fill: url(#linear-gradient-16);
      }

      .cls-22 {
        fill: url(#_10);
      }

      .cls-23 {
        fill: url(#linear-gradient-17);
      }

      .cls-24 {
        fill: url(#linear-gradient-18);
      }

      .cls-25 {
        fill: url(#linear-gradient-19);
      }

      .cls-26 {
        fill: url(#linear-gradient-20);
      }

      .cls-27 {
        fill: url(#linear-gradient-21);
      }

      .cls-28 {
        fill: url(#linear-gradient-22);
      }

      .cls-29 {
        fill: url(#linear-gradient-23);
      }

      .cls-30 {
        fill: url(#linear-gradient-24);
      }

      .cls-31 {
        opacity: 0.37;
      }

      .cls-32 {
        fill: url(#linear-gradient-25);
      }

      .cls-33 {
        fill: url(#linear-gradient-26);
      }

      .cls-34 {
        fill: url(#linear-gradient-27);
      }

      .cls-35 {
        fill: url(#linear-gradient-28);
      }

      .cls-36 {
        fill: url(#linear-gradient-29);
      }

      .cls-37 {
        fill: url(#linear-gradient-30);
      }

      .cls-38 {
        fill: url(#linear-gradient-31);
      }

      .cls-39 {
        fill: url(#linear-gradient-32);
      }

      .cls-40 {
        fill: url(#linear-gradient-33);
      }

      .cls-41 {
        fill: url(#linear-gradient-34);
      }

      .cls-42 {
        fill: url(#linear-gradient-35);
      }

      .cls-43 {
        fill: url(#linear-gradient-36);
      }

      .cls-44 {
        fill: url(#linear-gradient-37);
      }

      .cls-45 {
        fill: url(#linear-gradient-38);
      }

      .cls-46 {
        fill: url(#linear-gradient-39);
      }

      .cls-47 {
        fill: url(#linear-gradient-40);
      }

      .cls-48 {
        fill: url(#linear-gradient-41);
      }

      .cls-49 {
        fill: url(#linear-gradient-42);
      }

      .cls-50 {
        fill: url(#linear-gradient-43);
      }
    </style>
    <linearGradient id="linear-gradient" x1="1604.33" y1="-1136.17" x2="1622.66" y2="-1136.17" gradientTransform="matrix(0.92, 0.38, -0.38, 0.92, -1875.79, 466.56)" gradientUnits="userSpaceOnUse">
      <stop offset="0" stop-color="#a737d5"/>
      <stop offset="1" stop-color="#ef497a"/>
    </linearGradient>
    <linearGradient id="linear-gradient-2" x1="47.32" y1="1.03" x2="31.55" y2="35.21" gradientUnits="userSpaceOnUse">
      <stop offset="0" stop-color="#cb236d"/>
      <stop offset="0.9" stop-color="#59246d"/>
      <stop offset="1" stop-color="#4c246d"/>
    </linearGradient>
    <linearGradient id="linear-gradient-3" x1="3501.65" y1="551.85" x2="3495.86" y2="579.91" gradientTransform="translate(-3507.1 153.5) rotate(-11.2)" gradientUnits="userSpaceOnUse">
      <stop offset="0" stop-color="#2b3582"/>
      <stop offset="1" stop-color="#150e42"/>
    </linearGradient>
    <linearGradient id="linear-gradient-4" x1="39.81" y1="15.3" x2="66.54" y2="-20.63" gradientTransform="matrix(1, 0, 0, 1, 0, 0)" xlink:href="#linear-gradient-3"/>
    <linearGradient id="linear-gradient-5" x1="16.66" y1="7.76" x2="47.33" y2="68.52" gradientUnits="userSpaceOnUse">
      <stop offset="0" stop-color="#53d8ff"/>
      <stop offset="1" stop-color="#3840f7"/>
    </linearGradient>
    <linearGradient id="linear-gradient-6" x1="-1601.53" y1="18.88" x2="-1640.14" y2="58.02" gradientTransform="matrix(-1, 0, 0, 1, -1585.12, 0)" xlink:href="#linear-gradient-5"/>
    <linearGradient id="linear-gradient-7" x1="48.67" y1="2.25" x2="-11.8" y2="87.84" xlink:href="#linear-gradient-5"/>
    <linearGradient id="linear-gradient-8" x1="1964.18" y1="1064.73" x2="1923.43" y2="1118.19" gradientTransform="matrix(-0.03, -1, -1, 0.03, 1209.96, 1929.02)" gradientUnits="userSpaceOnUse">
      <stop offset="0" stop-color="#fdf53f"/>
      <stop offset="1" stop-color="#d93c65"/>
    </linearGradient>
    <linearGradient id="linear-gradient-9" x1="1980.39" y1="1077.08" x2="1939.63" y2="1130.55" xlink:href="#linear-gradient-8"/>
    <linearGradient id="linear-gradient-10" x1="33.53" y1="14.19" x2="22.86" y2="34.64" gradientTransform="matrix(1, 0, 0, 1, 0, 0)" xlink:href="#linear-gradient-8"/>
    <linearGradient id="linear-gradient-11" x1="-7137.56" y1="60" x2="-7131.62" y2="60" gradientTransform="matrix(-1, 0, 0, 1, -7119.88, 0)" xlink:href="#linear-gradient-5"/>
    <linearGradient id="linear-gradient-12" x1="-7137.56" y1="58.83" x2="-7131.78" y2="58.83" gradientTransform="matrix(-1, 0, 0, 1, -7119.88, 0)" xlink:href="#linear-gradient-3"/>
    <linearGradient id="linear-gradient-13" x1="-7137.01" y1="57.21" x2="-7135.34" y2="57.21" gradientTransform="matrix(-1, 0, 0, 1, -7119.88, 0)" gradientUnits="userSpaceOnUse">
      <stop offset="0" stop-color="#f9b776"/>
      <stop offset="1" stop-color="#f47960"/>
    </linearGradient>
    <linearGradient id="linear-gradient-14" x1="-7148.17" y1="61.47" x2="-7145.9" y2="61.47" gradientTransform="matrix(-1, 0, 0, 1, -7119.88, 0)" xlink:href="#linear-gradient-5"/>
    <linearGradient id="linear-gradient-15" x1="-7148.16" y1="59.21" x2="-7144.81" y2="59.21" gradientTransform="matrix(-1, 0, 0, 1, -7119.88, 0)" xlink:href="#linear-gradient-3"/>
    <linearGradient id="linear-gradient-16" x1="-7146.42" y1="56.33" x2="-7144.42" y2="56.33" xlink:href="#linear-gradient-13"/>
    <linearGradient id="_10" data-name="  10" x1="33" y1="25.46" x2="26.28" y2="34.66" gradientUnits="userSpaceOnUse">
      <stop offset="0" stop-color="#2b3582"/>
      <stop offset="0.55" stop-color="#1f205f"/>
      <stop offset="1" stop-color="#150e42"/>
    </linearGradient>
    <linearGradient id="linear-gradient-17" x1="45.87" y1="-5.27" x2="20.52" y2="17.29" gradientTransform="matrix(1, 0, 0, 1, 0, 0)" xlink:href="#linear-gradient-8"/>
    <linearGradient id="linear-gradient-18" x1="-7136.56" y1="20.84" x2="-7135.69" y2="16.29" xlink:href="#linear-gradient-13"/>
    <linearGradient id="linear-gradient-19" x1="-7134.21" y1="12.49" x2="-7139.16" y2="16.27" xlink:href="#linear-gradient-13"/>
    <linearGradient id="linear-gradient-20" x1="-7138.21" y1="9.89" x2="-7133.6" y2="15.82" gradientTransform="matrix(-1, 0, 0, 1, -7119.88, 0)" xlink:href="#linear-gradient-3"/>
    <linearGradient id="linear-gradient-21" x1="-7134.83" y1="11.68" x2="-7139.77" y2="15.47" xlink:href="#linear-gradient-13"/>
    <linearGradient id="linear-gradient-22" x1="-331.07" y1="237.99" x2="-343.46" y2="247.26" gradientTransform="translate(409.5 -196.8) rotate(7.9)" xlink:href="#linear-gradient-8"/>
    <linearGradient id="linear-gradient-23" x1="-331.53" y1="237.37" x2="-343.92" y2="246.65" gradientTransform="translate(409.5 -196.8) rotate(7.9)" xlink:href="#linear-gradient-8"/>
    <linearGradient id="linear-gradient-24" x1="-2109" y1="19.76" x2="-2077.54" y2="41.71" gradientTransform="matrix(-1, 0, 0, 1, -2084.45, 0)" xlink:href="#linear-gradient-8"/>
    <linearGradient id="linear-gradient-25" x1="-2100.82" y1="25.7" x2="-2104.73" y2="31.38" gradientTransform="matrix(-1, 0, 0, 1, -2084.45, 0)" xlink:href="#linear-gradient-3"/>
    <linearGradient id="linear-gradient-26" x1="-2100.68" y1="25.79" x2="-2104.59" y2="31.47" gradientTransform="matrix(-1, 0, 0, 1, -2084.45, 0)" xlink:href="#linear-gradient-3"/>
    <linearGradient id="linear-gradient-27" x1="-2100.51" y1="25.91" x2="-2104.42" y2="31.59" gradientTransform="matrix(-1, 0, 0, 1, -2084.45, 0)" xlink:href="#linear-gradient-3"/>
    <linearGradient id="linear-gradient-28" x1="-2100.21" y1="26.11" x2="-2104.12" y2="31.79" gradientTransform="matrix(-1, 0, 0, 1, -2084.45, 0)" xlink:href="#linear-gradient-3"/>
    <linearGradient id="linear-gradient-29" x1="-2100.02" y1="26.24" x2="-2103.93" y2="31.93" gradientTransform="matrix(-1, 0, 0, 1, -2084.45, 0)" xlink:href="#linear-gradient-3"/>
    <linearGradient id="linear-gradient-30" x1="-2099.9" y1="26.33" x2="-2103.81" y2="32.01" gradientTransform="matrix(-1, 0, 0, 1, -2084.45, 0)" xlink:href="#linear-gradient-3"/>
    <linearGradient id="linear-gradient-31" x1="-2101.02" y1="25.56" x2="-2104.93" y2="31.24" gradientTransform="matrix(-1, 0, 0, 1, -2084.45, 0)" xlink:href="#linear-gradient-3"/>
    <linearGradient id="linear-gradient-32" x1="-2102.86" y1="13.58" x2="-2079.31" y2="30.01" gradientTransform="matrix(-1, 0, 0, 1, -2084.45, 0)" xlink:href="#linear-gradient-8"/>
    <linearGradient id="linear-gradient-33" x1="-2096.74" y1="18.02" x2="-2099.66" y2="22.27" gradientTransform="matrix(-1, 0, 0, 1, -2084.45, 0)" xlink:href="#linear-gradient-3"/>
    <linearGradient id="linear-gradient-34" x1="-2096.63" y1="18.09" x2="-2099.56" y2="22.35" gradientTransform="matrix(-1, 0, 0, 1, -2084.45, 0)" xlink:href="#linear-gradient-3"/>
    <linearGradient id="linear-gradient-35" x1="-2096.5" y1="18.18" x2="-2099.43" y2="22.43" gradientTransform="matrix(-1, 0, 0, 1, -2084.45, 0)" xlink:href="#linear-gradient-3"/>
    <linearGradient id="linear-gradient-36" x1="-2096.28" y1="18.33" x2="-2099.21" y2="22.58" gradientTransform="matrix(-1, 0, 0, 1, -2084.45, 0)" xlink:href="#linear-gradient-3"/>
    <linearGradient id="linear-gradient-37" x1="-2096.14" y1="18.43" x2="-2099.07" y2="22.68" gradientTransform="matrix(-1, 0, 0, 1, -2084.45, 0)" xlink:href="#linear-gradient-3"/>
    <linearGradient id="linear-gradient-38" x1="-2096.05" y1="18.49" x2="-2098.98" y2="22.75" gradientTransform="matrix(-1, 0, 0, 1, -2084.45, 0)" xlink:href="#linear-gradient-3"/>
    <linearGradient id="linear-gradient-39" x1="-2096.89" y1="17.92" x2="-2099.81" y2="22.17" gradientTransform="matrix(-1, 0, 0, 1, -2084.45, 0)" xlink:href="#linear-gradient-3"/>
    <linearGradient id="linear-gradient-40" x1="-10.7" y1="114.25" x2="-5.89" y2="136.89" gradientTransform="matrix(-0.99, -0.11, -0.11, 0.99, 6.66, -99.26)" xlink:href="#linear-gradient-13"/>
    <linearGradient id="linear-gradient-41" x1="49.95" y1="-0.69" x2="24.6" y2="21.87" gradientTransform="matrix(1, 0, 0, 1, 0, 0)" xlink:href="#linear-gradient-8"/>
    <linearGradient id="linear-gradient-42" x1="-7132.67" y1="26.36" x2="-7135.51" y2="30.62" xlink:href="#linear-gradient-13"/>
    <linearGradient id="linear-gradient-43" x1="18.45" y1="27.05" x2="15.67" y2="31.22" gradientTransform="matrix(1, 0, 0, 1, 0, 0)" xlink:href="#linear-gradient-13"/>
  </defs>
  <g class="cls-1">
    <g id="Layer_1" data-name="Layer 1">
      <g>
        <g>
          <path class="cls-2" d="M44.1,51.7c-3-.5-5.2-4.9-5-8.6s2.9-4.3,4.8-8.8-.3-7.2.8-14.9C45,17.6,46.4,7.5,50,7s9,7.1,7.9,13.5c-.8,4.6-4.4,5.1-5.3,10.4s1.8,5.8,1.1,10.3S47.9,52.5,44.1,51.7Z" transform="translate(-2.4 -1.5)"/>
          <path class="cls-3" d="M43.3,52.9c3.1-5.3,5.2-14.5,6.5-21.4s2-13.5,2-13.6h-.2s-.7,6.2-2.1,13.6-3.4,16-6.4,21.3Z" transform="translate(-2.4 -1.5)"/>
        </g>
        <g>
          <path class="cls-4" d="M30.9,40.4c-5-1.4-8.1-9.1-6.1-12.3s4.2-.7,6.3-3-.6-6.9.7-13.1,5-10.8,8.1-10.5S46.1,9,44.4,13.9c-1.1,3.2-3.6,3.8-3.6,6.6s3.3,4,4,7C45.9,32.9,37.4,42.4,30.9,40.4Z" transform="translate(-2.4 -1.5)"/>
          <path class="cls-5" d="M33.7,42h-.1c-.1,0-.1-.1-.1-.2,3.5-13.5,2.4-28.1,2.4-28.2l.2-.2a.2.2,0,0,1,.2.2c0,.1,1.1,14.8-2.5,28.3C33.8,42,33.8,42,33.7,42Z" transform="translate(-2.4 -1.5)"/>
          <path class="cls-3" d="M41.3,16.4h0c-.1,0-.1,0-.1-.1C42.6,13.4,44,9.4,42.5,6a5.6,5.6,0,0,0-2.3-2.9c-.1-.1-.1-.1-.1-.2h.2a6.7,6.7,0,0,1,2.4,3c.8,1.9,1.2,5.3-1.3,10.4Z" transform="translate(-2.4 -1.5)"/>
          <path class="cls-6" d="M30.2,39.4h0c-3.8-3.6-5.4-6.7-4.9-9.1a4.5,4.5,0,0,1,2.5-2.9H28c0,.1,0,.1-.1.2a3.9,3.9,0,0,0-2.4,2.8c-.5,2.3,1.1,5.3,4.8,8.9h-.1Z" transform="translate(-2.4 -1.5)"/>
        </g>
        <g>
          <path class="cls-7" d="M5.9,31c0,11.8,9.9,21.3,22.2,21.3s22.7-10,22.7-21.7-10.5-21-22.7-21S5.9,19.2,5.9,31Z" transform="translate(-2.4 -1.5)"/>
          <g>
            <path class="cls-8" d="M49,25.8h.1v-.2l-.9-2.5h-.2c-.1,0-.1.1-.1.2l.9,2.5Z" transform="translate(-2.4 -1.5)"/>
            <path class="cls-8" d="M45.6,19.1h.1a.3.3,0,0,0,.1-.2,22.3,22.3,0,0,0-17.7-8.4,22.7,22.7,0,0,0-8.6,1.7c0,.1-.1.2,0,.2h.2a21.7,21.7,0,0,1,8.4-1.7,22,22,0,0,1,17.4,8.3Z" transform="translate(-2.4 -1.5)"/>
          </g>
          <path class="cls-9" d="M8.9,31c0,10.2,8.6,18.4,19.2,18.4s19.6-8.6,19.6-18.8-9-18.1-19.6-18.1S8.9,20.8,8.9,31Z" transform="translate(-2.4 -1.5)"/>
          <path class="cls-10" d="M8.9,31c0-10.2,8.6-18.5,19.2-18.5a20.5,20.5,0,0,1,14.7,6.1L28,30.4,25,49.2C15.9,47.7,8.9,40.1,8.9,31Z" transform="translate(-2.4 -1.5)"/>
          <path class="cls-11" d="M11.6,29.7c0,9.2,7.9,16.7,17.6,16.7s18.1-7.8,18.1-17S39,13,29.2,13,11.6,20.5,11.6,29.7Z" transform="translate(-2.4 -1.5)"/>
          <path class="cls-12" d="M42.9,30a1.5,1.5,0,0,0,1.5,1.4,1.6,1.6,0,0,0,1.4-1.5,1.5,1.5,0,0,0-1.6-1.4A1.4,1.4,0,0,0,42.9,30Z" transform="translate(-2.4 -1.5)"/>
          <path class="cls-12" d="M11,31.8a1.3,1.3,0,0,0,1.5,1.3,1.4,1.4,0,0,0,1.4-1.5,1.4,1.4,0,0,0-1.5-1.3A1.3,1.3,0,0,0,11,31.8Z" transform="translate(-2.4 -1.5)"/>
          <path class="cls-12" d="M31,44.6a1.4,1.4,0,0,0-1.2,1.6,1.5,1.5,0,0,0,1.7,1.2,1.5,1.5,0,0,0,1.2-1.7A1.3,1.3,0,0,0,31,44.6Z" transform="translate(-2.4 -1.5)"/>
          <path class="cls-12" d="M25.3,14.3a1.4,1.4,0,0,0-1.2,1.6,1.5,1.5,0,1,0,2.9-.5A1.6,1.6,0,0,0,25.3,14.3Z" transform="translate(-2.4 -1.5)"/>
          <path class="cls-12" d="M20.5,45.4c-.1.3-.1.7.1.7s.5-.2.6-.5.1-.7-.1-.8S20.7,45,20.5,45.4Z" transform="translate(-2.4 -1.5)"/>
          <path class="cls-12" d="M33.3,16.7c-.1.3-.1.7.1.7s.5-.2.6-.5a.7.7,0,0,0,0-.8A1,1,0,0,0,33.3,16.7Z" transform="translate(-2.4 -1.5)"/>
          <path class="cls-12" d="M13.8,39.9c-.3.3-.5.6-.3.7s.5.1.8-.2.5-.5.3-.6S14.1,39.7,13.8,39.9Z" transform="translate(-2.4 -1.5)"/>
          <path class="cls-12" d="M40.2,21.8a.6.6,0,0,0-.3.7.7.7,0,0,0,.8-.2c.4-.2.5-.5.4-.7S40.6,21.6,40.2,21.8Z" transform="translate(-2.4 -1.5)"/>
          <path class="cls-12" d="M13,23.7c-.4-.2-.8-.2-.8,0s.1.5.5.6.7.2.8,0S13.3,23.8,13,23.7Z" transform="translate(-2.4 -1.5)"/>
          <path class="cls-12" d="M41.8,37.9a.7.7,0,0,0-.8,0,1,1,0,0,0,.6.7.7.7,0,0,0,.8,0A1,1,0,0,0,41.8,37.9Z" transform="translate(-2.4 -1.5)"/>
          <path class="cls-12" d="M19.1,17.6c-.3-.3-.6-.5-.7-.4s-.1.5.1.8.5.5.7.4A.8.8,0,0,0,19.1,17.6Z" transform="translate(-2.4 -1.5)"/>
          <path class="cls-12" d="M36.1,44.2c-.3-.3-.6-.5-.7-.4s-.2.5.1.9a.6.6,0,0,0,.7.3A.8.8,0,0,0,36.1,44.2Z" transform="translate(-2.4 -1.5)"/>
          <path class="cls-13" d="M28.7,30.4l11.9,5.7a.4.4,0,0,0,.5-.3V34.3c0-.3.3-.4.6-.2l8.5,7.2c.3.3.1.7-.3.6l-11-2.3a.3.3,0,0,1-.2-.5l1.3-1.2c.2-.2.2-.5,0-.6L28.4,31c-.2-.1-.2-.3-.1-.5h0C28.3,30.4,28.5,30.3,28.7,30.4Z" transform="translate(-2.4 -1.5)"/>
          <path class="cls-8" d="M48.8,41.3l.3-.2a.4.4,0,0,0-.1-.3l-1.9-1.5h-.2a.1.1,0,0,0,0,.2L48.8,41l-8.5-1.8c-.1,0-.1.1-.1.2s0,.1.1.1l8.4,1.8Z" transform="translate(-2.4 -1.5)"/>
          <path class="cls-14" d="M27.5,29.8V18.7a.3.3,0,0,0-.5-.3l-1.3.7c-.3.1-.6-.1-.5-.4L27.9,8.1a.4.4,0,0,1,.7,0l3,10.4c0,.3-.2.5-.5.4l-1.7-.5c-.2-.1-.4.1-.4.3l-.9,11.1c0,.2-.1.4-.3.4h0C27.6,30.2,27.5,30,27.5,29.8Z" transform="translate(-2.4 -1.5)"/>
          <path class="cls-8" d="M30.6,17.5h.1c.1,0,.1-.1.1-.2s-1.3-4.4-2.3-8c0-.1-.1-.2-.3-.2a.2.2,0,0,0-.2.2l-.6,2.3.2.2h.1l.6-2.3c.6,2.4,2.2,7.9,2.2,8A.1.1,0,0,0,30.6,17.5Z" transform="translate(-2.4 -1.5)"/>
          <ellipse class="cls-15" cx="25.8" cy="28.9" rx="1.6" ry="1.5"/>
        </g>
        <g>
          <path class="cls-16" d="M11.9,59.7l4.2.3a3.2,3.2,0,0,0,1.6-.2h0a.3.3,0,0,1-.3.3,31.6,31.6,0,0,1-5.5,0,.2.2,0,0,1-.1-.3C11.8,59.8,11.8,59.8,11.9,59.7Z" transform="translate(-2.4 -1.5)"/>
          <path class="cls-17" d="M16.1,60l-4.2-.3c1-1.2,4.2-2,4.2-2H17a3.6,3.6,0,0,1,.7,2.1A3.2,3.2,0,0,1,16.1,60Z" transform="translate(-2.4 -1.5)"/>
          <path class="cls-18" d="M17.1,56.2v1.7a.3.3,0,0,1-.3.3H16l-.3-.4-.2-1.6Z" transform="translate(-2.4 -1.5)"/>
          <g>
            <path class="cls-19" d="M27.5,61.6a.9.9,0,0,0,.8-.7h0a1,1,0,0,1-.4.9,2.3,2.3,0,0,1-1.1.2,1,1,0,0,1-.8-.5h0A1.8,1.8,0,0,0,27.5,61.6Z" transform="translate(-2.4 -1.5)"/>
            <path class="cls-20" d="M25.5,56.7h.7c1.1,0,1.8,3,2.1,4.2a.9.9,0,0,1-.8.7,1.8,1.8,0,0,1-1.5-.1,9.3,9.3,0,0,1-1-3.4A1.3,1.3,0,0,1,25.5,56.7Z" transform="translate(-2.4 -1.5)"/>
          </g>
          <path class="cls-21" d="M26.1,55.2l.4,1.6a.4.4,0,0,1-.2.5l-.9.2-.3-.2-.6-1.8Z" transform="translate(-2.4 -1.5)"/>
          <path class="cls-22" d="M11.7,33.6s3.6,23,3.6,23.1a2.9,2.9,0,0,0,2.1.1s-.3-12.3-1.1-17c0,0,6.2,11,8.2,16.4a4.2,4.2,0,0,0,1.9-.7s-6.7-19.7-8.5-22.3Z" transform="translate(-2.4 -1.5)"/>
          <path class="cls-23" d="M11.1,17.6h-.8a8.2,8.2,0,0,1-6.4,0A7,7,0,0,0,2.6,21a9.9,9.9,0,0,0,7.9,1.3,32.8,32.8,0,0,0,1,11.6.3.3,0,0,0,.3.3,21.9,21.9,0,0,0,6.3-.4c.1,0,.2-.1.1-.2h0a4.7,4.7,0,0,1-.3-1.7,34.1,34.1,0,0,1,1.6-8.3c0,.1.1.2.1.3A33.4,33.4,0,0,1,21,18.6,30.6,30.6,0,0,0,11.1,17.6Z" transform="translate(-2.4 -1.5)"/>
          <path class="cls-24" d="M17.1,14.4s.3,2.9.5,3.7a.2.2,0,0,1-.1.3,2.7,2.7,0,0,1-2.7,0,.5.5,0,0,1-.3-.6V15.1Z" transform="translate(-2.4 -1.5)"/>
          <g>
            <path class="cls-25" d="M14.5,10.7a10.7,10.7,0,0,0-.9,3.1c-.1,1-.3,1.7.9,1.9a2.7,2.7,0,0,0,2.8-1.4A6.2,6.2,0,0,0,18,12C17.8,11.4,14.5,10.7,14.5,10.7Z" transform="translate(-2.4 -1.5)"/>
            <path class="cls-26" d="M16.9,13.5h-.1c-.1,0-.1-.2-.1-.2s.5-1.1.1-1.3l-1.3-.4c-.3-.1-1.1-.2-1.3-.6s0-.3.1-.4l.3-.7.4-.5c.3-.3.8,0,1.2.1s2.5.8,2.5,1.9h.1a.5.5,0,0,1,.5.1c.4.4.3,1.3-.6,2s-.1.1,0,.1.4.4-.2.7a1.7,1.7,0,0,1-1.4.3h0l.2-.9h-.4Z" transform="translate(-2.4 -1.5)"/>
            <path class="cls-27" d="M16.8,13.7s.4-1.3.9-.9-.3,1.4-.7,1.5Z" transform="translate(-2.4 -1.5)"/>
          </g>
          <g>
            <path class="cls-28" d="M13.8,11.1c1.4-4.2,7.3-1.6,5.3,2.1C17.1,12.3,14.7,10.8,13.8,11.1Z" transform="translate(-2.4 -1.5)"/>
            <path class="cls-29" d="M17.3,12.2l-3.7.5h-.3a2.1,2.1,0,0,0-1.6-1c-.1,0-.1-.1,0-.1l2.2-.5h0a5.5,5.5,0,0,1,3.4,1.1Z" transform="translate(-2.4 -1.5)"/>
          </g>
          <g>
            <path class="cls-30" d="M18.1,33.4a1.5,1.5,0,0,0,1.5-1.5V25.1A1.6,1.6,0,0,0,18,23.5c-2.6,0-8.1,0-12.6.4A1.1,1.1,0,0,0,4.3,25l-.4,6.5a1.4,1.4,0,0,0,1.5,1.6Z" transform="translate(-2.4 -1.5)"/>
            <path class="cls-8" d="M18.1,25.9a14.1,14.1,0,0,1-.1,2c0,.3-.2.6-.5.5l-2.2-.2a.6.6,0,0,1-.5-.6l.3-1.8c0-.3.3-.4.5-.4h1.9A.6.6,0,0,1,18.1,25.9Z" transform="translate(-2.4 -1.5)"/>
            <path class="cls-31" d="M12.4,29.3l-1.9.2a.5.5,0,0,1-.4-.5l.4-5.4h2.2v5.3A.5.5,0,0,1,12.4,29.3Z" transform="translate(-2.4 -1.5)"/>
            <path class="cls-8" d="M11.6,28.3a.2.2,0,0,1-.2.2h0l-.2-.2.3-4.7h.4Z" transform="translate(-2.4 -1.5)"/>
            <g>
              <path class="cls-32" d="M17.1,27.6h0V26h-.1v1.5h.1Z" transform="translate(-2.4 -1.5)"/>
              <path class="cls-33" d="M16.9,27.6h0V26h-.2v1.5a.1.1,0,0,0,.1.1Z" transform="translate(-2.4 -1.5)"/>
              <path class="cls-34" d="M16.6,27.6h-.1a10.6,10.6,0,0,0,.1-1.5.1.1,0,0,1,.1-.1h0v1.5Zm0-1.6Z" transform="translate(-2.4 -1.5)"/>
              <path class="cls-35" d="M16.2,27.6c.1,0,.1,0,.1-.1s.1-1.5,0-1.5,0-.1-.1-.1a.1.1,0,0,0-.1.1v1.5c0,.1,0,.1.1.1Z" transform="translate(-2.4 -1.5)"/>
              <path class="cls-36" d="M15.9,27.6a.1.1,0,0,0,.1-.1V26h-.1v1.5Z" transform="translate(-2.4 -1.5)"/>
              <path class="cls-37" d="M15.7,27.6h.1V26.1h-.1v1.5Z" transform="translate(-2.4 -1.5)"/>
              <path class="cls-38" d="M17.4,27.7h.1V26h-.1c-.1,0-.2,0-.2.1v1.6Z" transform="translate(-2.4 -1.5)"/>
            </g>
          </g>
          <g>
            <path class="cls-39" d="M13.6,23.8a1.1,1.1,0,0,0,1.1-1.2v-5a1.2,1.2,0,0,0-1.2-1.2c-2,0-6.1,0-9.4.3a1,1,0,0,0-.9.8l-.3,4.9a1.2,1.2,0,0,0,1.2,1.2Z" transform="translate(-2.4 -1.5)"/>
            <path class="cls-8" d="M13.6,18.1a8.1,8.1,0,0,1-.1,1.6.4.4,0,0,1-.4.4l-1.6-.2a.5.5,0,0,1-.4-.5l.2-1.3c.1-.2.2-.3.4-.3h1.5C13.4,17.8,13.6,17.9,13.6,18.1Z" transform="translate(-2.4 -1.5)"/>
            <path class="cls-31" d="M9.3,20.7H7.9c-.2.1-.3-.1-.3-.3l.3-4.1H9.6v4A.5.5,0,0,1,9.3,20.7Z" transform="translate(-2.4 -1.5)"/>
            <path class="cls-8" d="M8.7,20c0,.1,0,.1-.1.1H8.4l.3-3.6h.2Z" transform="translate(-2.4 -1.5)"/>
            <g>
              <path class="cls-40" d="M12.8,19.4h0V18.3h0c-.1,0-.1,0-.1.1v1.1Z" transform="translate(-2.4 -1.5)"/>
              <path class="cls-41" d="M12.7,19.4h0V18.2h-.1v1.2Z" transform="translate(-2.4 -1.5)"/>
              <path class="cls-42" d="M12.5,19.4h-.1c0-.4.1-1.1.1-1.2h.1c0,.1-.1,1-.1,1.2Zm0-1.2Z" transform="translate(-2.4 -1.5)"/>
              <path class="cls-43" d="M12.2,19.5h0c.1-1.1.1-1.1.1-1.2h-.1c-.1,0-.1,0-.1.1v1.1a.1.1,0,0,0,.1.1Z" transform="translate(-2.4 -1.5)"/>
              <path class="cls-44" d="M12,19.4h0V18.3h0c-.1,0-.1,0-.1.1v1.1Z" transform="translate(-2.4 -1.5)"/>
              <path class="cls-45" d="M11.8,19.4h0c0-.4.1-1,.1-1.1h-.1s0,.1-.1,1.2Z" transform="translate(-2.4 -1.5)"/>
              <path class="cls-46" d="M13,19.5c.1,0,.1,0,.1-.1V18.3c0-.1,0-.1-.1-.1a.1.1,0,0,0-.1.1v1.1Z" transform="translate(-2.4 -1.5)"/>
            </g>
          </g>
          <path class="cls-47" d="M2.5,19.3c.3-.1.9-.9,1-.6s-.2.7-.1.8.2.9,0,1.2A10.4,10.4,0,0,0,3,22c-.1.1-.1.3-.3.3s-.2-.2-.2-.3S2.2,19.4,2.5,19.3Z" transform="translate(-2.4 -1.5)"/>
          <g>
            <path class="cls-48" d="M22.5,20.4A8.3,8.3,0,0,0,21,18.6a30.6,30.6,0,0,0-1.5,4.9,6.6,6.6,0,0,1,.1,6,9.7,9.7,0,0,1,1.2,2.1C25.3,28.9,23.5,22.8,22.5,20.4Z" transform="translate(-2.4 -1.5)"/>
            <path class="cls-49" d="M16.7,33.6H12.8s3.4-1,3.6-.7a11.7,11.7,0,0,0,3.2-3.3,9.7,9.7,0,0,1,1.2,2.1A12.1,12.1,0,0,1,16.7,33.6Z" transform="translate(-2.4 -1.5)"/>
            <path class="cls-50" d="M16.8,32.9s.1,1.6-2,1.3a10.2,10.2,0,0,1-2.9-1.1A41.8,41.8,0,0,0,16.8,32.9Z" transform="translate(-2.4 -1.5)"/>
          </g>
        </g>
      </g>
    </g>
  </g>
</svg>
