<svg id="Layer_1" data-name="Layer 1" xmlns="http://www.w3.org/2000/svg" viewBox="0 0 60.5 46.3">
  <defs>
    <style>
      .cls-1 {
        fill: #fff;
      }

      .cls-2 {
        fill: #643e4c;
      }

      .cls-3 {
        fill: #e2706d;
      }

      .cls-4 {
        fill: #e2bf69;
      }

      .cls-5 {
        fill: #80aa44;
      }
    </style>
  </defs>
  <g>
    <path class="cls-1" d="M31,8.5A24.6,24.6,0,0,1,54.6,26h-1a3.2,3.2,0,0,0-1.4.2,5.6,5.6,0,0,0-4.8-2.8,4.9,4.9,0,0,0-3.3,1.1,6.3,6.3,0,0,0-5.4-3,6.7,6.7,0,0,0-3.9,1.2,6.6,6.6,0,0,0-7.6,0,6.7,6.7,0,0,0-3.9-1.2,6.3,6.3,0,0,0-5.4,3,4.9,4.9,0,0,0-3.3-1.1,5.6,5.6,0,0,0-4.8,2.8,3.2,3.2,0,0,0-1.4-.2H7.3A24.8,24.8,0,0,1,31,8.5Z" transform="translate(-0.7 -6.4)"/>
    <path class="cls-1" d="M48.4,50.7H13.6a7.3,7.3,0,0,1-7.3-7.3v-.2H55.7v.2A7.3,7.3,0,0,1,48.4,50.7Z" transform="translate(-0.7 -6.4)"/>
    <path class="cls-2" d="M48.4,52.8H13.6a9.4,9.4,0,0,1-9.4-9.4V42.2a1,1,0,0,1,1-1.1,1.1,1.1,0,0,1,1.1,1.1v1.2a7.3,7.3,0,0,0,7.3,7.3H48.4a7.3,7.3,0,0,0,7.3-7.3V42.2a1.1,1.1,0,0,1,1.1-1.1,1,1,0,0,1,1,1.1v1.2A9.4,9.4,0,0,1,48.4,52.8Z" transform="translate(-0.7 -6.4)"/>
    <g>
      <path class="cls-3" d="M42.7,42.2H55.9a4.4,4.4,0,0,0,4.3-4.4v-.2a4.4,4.4,0,0,0-4.3-4.4H6.1a4.4,4.4,0,0,0-4.3,4.4v.2a4.4,4.4,0,0,0,4.3,4.4H42.7Z" transform="translate(-0.7 -6.4)"/>
      <path class="cls-2" d="M55.9,43.2H6.1A5.4,5.4,0,0,1,.7,37.8v-.2a5.4,5.4,0,0,1,5.4-5.4H55.9a5.4,5.4,0,0,1,5.4,5.4v.2A5.4,5.4,0,0,1,55.9,43.2ZM6.1,34.3a3.3,3.3,0,0,0-3.3,3.3v.2a3.3,3.3,0,0,0,3.3,3.3H55.9a3.3,3.3,0,0,0,3.3-3.3v-.2a3.3,3.3,0,0,0-3.3-3.3Z" transform="translate(-0.7 -6.4)"/>
    </g>
    <g>
      <polygon class="cls-4" points="34.3 39.8 1.6 26.8 58.9 26.8 34.3 39.8"/>
      <path class="cls-2" d="M35,47.2h-.4L2,34.2a1,1,0,0,1-.7-1.1,1.1,1.1,0,0,1,1-.9H59.7a1.1,1.1,0,0,1,1,.8,1.1,1.1,0,0,1-.6,1.2L35.5,47.1ZM7.8,34.3,35,45.1,55.5,34.3Z" transform="translate(-0.7 -6.4)"/>
    </g>
    <g>
      <path class="cls-5" d="M53.6,26.9a2.6,2.6,0,0,0-1.9.7,4.6,4.6,0,0,0-4.3-3.3,4.4,4.4,0,0,0-3.6,1.8,5.4,5.4,0,0,0-5.1-3.7A5.5,5.5,0,0,0,34.8,24a5.3,5.3,0,0,0-7.6,0,5.5,5.5,0,0,0-3.9-1.6,5.4,5.4,0,0,0-5.1,3.7,4.4,4.4,0,0,0-3.6-1.8,4.6,4.6,0,0,0-4.3,3.3,2.6,2.6,0,0,0-1.9-.7,3.2,3.2,0,1,0,0,6.3H53.6a3.2,3.2,0,1,0,0-6.3Z" transform="translate(-0.7 -6.4)"/>
      <path class="cls-2" d="M53.6,34.3H8.4a4.2,4.2,0,0,1-4.2-4.2,4.2,4.2,0,0,1,4.2-4.2,3.2,3.2,0,0,1,1.4.2,5.6,5.6,0,0,1,4.8-2.8,4.9,4.9,0,0,1,3.3,1.1,6.3,6.3,0,0,1,5.4-3,6.7,6.7,0,0,1,3.9,1.2,6.6,6.6,0,0,1,7.6,0,6.7,6.7,0,0,1,3.9-1.2,6.3,6.3,0,0,1,5.4,3,4.9,4.9,0,0,1,3.3-1.1,5.6,5.6,0,0,1,4.8,2.8,3.2,3.2,0,0,1,1.4-.2,4.2,4.2,0,0,1,4.2,4.2A4.2,4.2,0,0,1,53.6,34.3ZM8.4,27.9a2.1,2.1,0,0,0-2.1,2.2,2.1,2.1,0,0,0,2.1,2.1H53.6a2.1,2.1,0,0,0,2.1-2.1,2.1,2.1,0,0,0-2.1-2.2,2.1,2.1,0,0,0-1.3.5,1.1,1.1,0,0,1-1,.1.9.9,0,0,1-.6-.7,3.5,3.5,0,0,0-3.3-2.5,3.5,3.5,0,0,0-2.8,1.4,1,1,0,0,1-1.8-.3,4.3,4.3,0,0,0-7.2-1.7,1.1,1.1,0,0,1-1.5,0,4.6,4.6,0,0,0-6.2,0,1.1,1.1,0,0,1-1.5,0,4.3,4.3,0,0,0-7.2,1.7,1,1,0,0,1-1.8.3,3.5,3.5,0,0,0-2.8-1.4,3.5,3.5,0,0,0-3.3,2.5.9.9,0,0,1-.6.7,1.1,1.1,0,0,1-1-.1A2.1,2.1,0,0,0,8.4,27.9Z" transform="translate(-0.7 -6.4)"/>
    </g>
    <path class="cls-2" d="M5.7,29.5H5.5a1.1,1.1,0,0,1-.9-1.2,26.9,26.9,0,0,1,52.8,0,1.1,1.1,0,0,1-2.1.3,24.7,24.7,0,0,0-48.6,0A1.1,1.1,0,0,1,5.7,29.5Z" transform="translate(-0.7 -6.4)"/>
  </g>
</svg>
