<?xml version="1.0" encoding="utf-8"?>
<!-- Generator: Adobe Illustrator 26.0.1, SVG Export Plug-In . SVG Version: 6.00 Build 0)  -->
<svg version="1.1" id="Layer_1" xmlns="http://www.w3.org/2000/svg" xmlns:xlink="http://www.w3.org/1999/xlink" x="0px" y="0px"
	 viewBox="0 0 62 62" style="enable-background:new 0 0 62 62;" xml:space="preserve">
<style type="text/css">
	.st0{fill:#DE1C4D;}
</style>
<path d="M55.2,5.8h-5.8v-1c0-0.8-0.3-1.5-0.9-2.1c-0.5-0.5-1.3-0.9-2.1-0.9S45,2.2,44.4,2.8c-0.5,0.5-0.9,1.3-0.9,2.1v1h-9.7v-1
	c0-0.8-0.3-1.5-0.9-2.1c-0.5-0.5-1.3-0.9-2.1-0.9s-1.5,0.3-2.1,0.9c-0.5,0.5-0.9,1.3-0.9,2.1v1h-9.7v-1c0-0.8-0.3-1.5-0.9-2.1
	c-0.5-0.5-1.3-0.9-2.1-0.9S14,2.2,13.4,2.8c-0.5,0.5-0.9,1.3-0.9,2.1v1H6.8c-1.3,0-2.5,0.5-3.4,1.4c-0.9,0.9-1.4,2.1-1.4,3.4v44.6
	c0,1.3,0.5,2.5,1.4,3.4c0.9,0.9,2.1,1.4,3.4,1.4h48.4c1.3,0,2.5-0.5,3.4-1.4s1.4-2.1,1.4-3.4V10.7c0-1.3-0.5-2.5-1.4-3.4
	C57.7,6.3,56.5,5.8,55.2,5.8z M45.5,4.8c0-0.3,0.1-0.5,0.3-0.7C46,4,46.2,3.9,46.5,3.9S47,4,47.2,4.2c0.2,0.2,0.3,0.4,0.3,0.7v5.8
	c0,0.3-0.1,0.5-0.3,0.7c-0.2,0.2-0.4,0.3-0.7,0.3s-0.5-0.1-0.7-0.3c-0.2-0.2-0.3-0.4-0.3-0.7V4.8z M30,4.8c0-0.3,0.1-0.5,0.3-0.7
	C30.5,4,30.7,3.9,31,3.9s0.5,0.1,0.7,0.3C31.9,4.3,32,4.6,32,4.8v5.8c0,0.3-0.1,0.5-0.3,0.7c-0.2,0.2-0.4,0.3-0.7,0.3
	s-0.5-0.1-0.7-0.3c-0.2-0.2-0.3-0.4-0.3-0.7V4.8z M14.5,4.8c0-0.3,0.1-0.5,0.3-0.7C15,4,15.2,3.9,15.5,3.9S16,4,16.2,4.2
	c0.2,0.2,0.3,0.4,0.3,0.7v5.8c0,0.3-0.1,0.5-0.3,0.7c-0.2,0.2-0.4,0.3-0.7,0.3s-0.5-0.1-0.7-0.3c-0.2-0.2-0.3-0.4-0.3-0.7V4.8z
	 M6.8,7.8h5.8v2.9c0,0.8,0.3,1.5,0.9,2.1c0.5,0.5,1.3,0.9,2.1,0.9s1.5-0.3,2.1-0.9c0.5-0.5,0.9-1.3,0.9-2.1V7.8h9.7v2.9
	c0,0.8,0.3,1.5,0.9,2.1c0.5,0.5,1.3,0.9,2.1,0.9s1.5-0.3,2.1-0.9c0.5-0.5,0.9-1.3,0.9-2.1V7.8h9.7v2.9c0,0.8,0.3,1.5,0.9,2.1
	c0.5,0.5,1.3,0.9,2.1,0.9s1.5-0.3,2.1-0.9c0.5-0.5,0.9-1.3,0.9-2.1V7.8h5.8c0.8,0,1.5,0.3,2.1,0.9c0.5,0.5,0.9,1.3,0.9,2.1v6.8H3.9
	v-6.8c0-0.8,0.3-1.5,0.9-2.1C5.3,8.1,6,7.8,6.8,7.8z M55.2,58.1H6.8c-0.8,0-1.5-0.3-2.1-0.9c-0.5-0.5-0.9-1.3-0.9-2.1V19.4h54.2
	v35.8c0,0.8-0.3,1.5-0.9,2.1S56,58.1,55.2,58.1z"/>
<path d="M53.3,26.2h-3.9c-0.3,0-0.5,0.1-0.7,0.3c-0.2,0.2-0.3,0.4-0.3,0.7V31c0,0.3,0.1,0.5,0.3,0.7c0.2,0.2,0.4,0.3,0.7,0.3h3.9
	c0.3,0,0.5-0.1,0.7-0.3c0.2-0.2,0.3-0.4,0.3-0.7v-3.9c0-0.3-0.1-0.5-0.3-0.7C53.8,26.3,53.5,26.2,53.3,26.2z M52.3,30h-1.9v-1.9h1.9
	V30z"/>
<path d="M33.9,45.5H30c-0.3,0-0.5,0.1-0.7,0.3c-0.2,0.2-0.3,0.4-0.3,0.7v3.9c0,0.3,0.1,0.5,0.3,0.7c0.2,0.2,0.4,0.3,0.7,0.3h3.9
	c0.3,0,0.5-0.1,0.7-0.3c0.2-0.2,0.3-0.4,0.3-0.7v-3.9c0-0.3-0.1-0.5-0.3-0.7C34.4,45.6,34.2,45.5,33.9,45.5z M32.9,49.4H31v-1.9h1.9
	V49.4z"/>
<path d="M24.2,26.2h-3.9c-0.3,0-0.5,0.1-0.7,0.3c-0.2,0.2-0.3,0.4-0.3,0.7V31c0,0.3,0.1,0.5,0.3,0.7c0.2,0.2,0.4,0.3,0.7,0.3h3.9
	c0.3,0,0.5-0.1,0.7-0.3c0.2-0.2,0.3-0.4,0.3-0.7v-3.9c0-0.3-0.1-0.5-0.3-0.7C24.7,26.3,24.5,26.2,24.2,26.2z M23.2,30h-1.9v-1.9h1.9
	V30z"/>
<path d="M14.5,35.8h-3.9c-0.3,0-0.5,0.1-0.7,0.3c-0.2,0.2-0.3,0.4-0.3,0.7v3.9c0,0.3,0.1,0.5,0.3,0.7c0.2,0.2,0.4,0.3,0.7,0.3h3.9
	c0.3,0,0.5-0.1,0.7-0.3c0.2-0.2,0.3-0.4,0.3-0.7v-3.9c0-0.3-0.1-0.5-0.3-0.7C15,35.9,14.8,35.8,14.5,35.8z M13.6,39.7h-1.9v-1.9h1.9
	V39.7z"/>
<path d="M24.2,35.8h-3.9c-0.3,0-0.5,0.1-0.7,0.3c-0.2,0.2-0.3,0.4-0.3,0.7v3.9c0,0.3,0.1,0.5,0.3,0.7c0.2,0.2,0.4,0.3,0.7,0.3h3.9
	c0.3,0,0.5-0.1,0.7-0.3c0.2-0.2,0.3-0.4,0.3-0.7v-3.9c0-0.3-0.1-0.5-0.3-0.7C24.7,35.9,24.5,35.8,24.2,35.8z M23.2,39.7h-1.9v-1.9
	h1.9V39.7z"/>
<path d="M14.5,45.5h-3.9c-0.3,0-0.5,0.1-0.7,0.3c-0.2,0.2-0.3,0.4-0.3,0.7v3.9c0,0.3,0.1,0.5,0.3,0.7c0.2,0.2,0.4,0.3,0.7,0.3h3.9
	c0.3,0,0.5-0.1,0.7-0.3c0.2-0.2,0.3-0.4,0.3-0.7v-3.9c0-0.3-0.1-0.5-0.3-0.7C15,45.6,14.8,45.5,14.5,45.5z M13.6,49.4h-1.9v-1.9h1.9
	V49.4z"/>
<path d="M24.2,45.5h-3.9c-0.3,0-0.5,0.1-0.7,0.3c-0.2,0.2-0.3,0.4-0.3,0.7v3.9c0,0.3,0.1,0.5,0.3,0.7c0.2,0.2,0.4,0.3,0.7,0.3h3.9
	c0.3,0,0.5-0.1,0.7-0.3c0.2-0.2,0.3-0.4,0.3-0.7v-3.9c0-0.3-0.1-0.5-0.3-0.7C24.7,45.6,24.5,45.5,24.2,45.5z M23.2,49.4h-1.9v-1.9
	h1.9V49.4z"/>
<path class="st0" d="M44.7,30.2l-4.8-0.7l-2.2-4.6c-0.1-0.2-0.2-0.3-0.4-0.4c-0.2-0.1-0.3-0.2-0.5-0.2c-0.2,0-0.4,0.1-0.5,0.2
	c-0.2,0.1-0.3,0.2-0.4,0.4l-2.2,4.6l-4.8,0.7c-0.2,0-0.3,0.1-0.5,0.2c-0.1,0.1-0.2,0.3-0.3,0.4c-0.1,0.2-0.1,0.4,0,0.5
	c0,0.2,0.1,0.3,0.3,0.5l3.5,3.6l-0.8,5.1c0,0.2,0,0.4,0.1,0.5c0.1,0.2,0.2,0.3,0.3,0.4c0.1,0.1,0.3,0.2,0.5,0.2c0.2,0,0.4,0,0.5-0.1
	l4.3-2.4l4.3,2.4c0.2,0.1,0.3,0.1,0.5,0.1c0.2,0,0.4-0.1,0.5-0.2c0.1-0.1,0.3-0.2,0.3-0.4c0.1-0.2,0.1-0.4,0.1-0.5l-0.8-5.1l3.5-3.6
	c0.1-0.1,0.2-0.3,0.3-0.5c0-0.2,0-0.4,0-0.5s-0.2-0.3-0.3-0.4C45.1,30.3,44.9,30.2,44.7,30.2L44.7,30.2z M40,34.4
	c-0.1,0.1-0.2,0.2-0.2,0.4c0,0.1-0.1,0.3,0,0.4l0.6,3.6l-3-1.7c-0.1-0.1-0.3-0.1-0.5-0.1c-0.2,0-0.3,0-0.5,0.1l-3,1.7l0.6-3.6
	c0-0.1,0-0.3,0-0.4c0-0.1-0.1-0.3-0.2-0.4l-2.6-2.6l3.5-0.5c0.2,0,0.3-0.1,0.4-0.2c0.1-0.1,0.2-0.2,0.3-0.4l1.5-3.2l1.5,3.2
	c0.1,0.1,0.2,0.3,0.3,0.4c0.1,0.1,0.3,0.2,0.4,0.2l3.5,0.5L40,34.4z"/>
<path d="M53.3,35.8h-3.9c-0.3,0-0.5,0.1-0.7,0.3c-0.2,0.2-0.3,0.4-0.3,0.7v3.9c0,0.3,0.1,0.5,0.3,0.7c0.2,0.2,0.4,0.3,0.7,0.3h3.9
	c0.3,0,0.5-0.1,0.7-0.3c0.2-0.2,0.3-0.4,0.3-0.7v-3.9c0-0.3-0.1-0.5-0.3-0.7C53.8,35.9,53.5,35.8,53.3,35.8z M52.3,39.7h-1.9v-1.9
	h1.9V39.7z"/>
<path d="M53.3,45.5h-3.9c-0.3,0-0.5,0.1-0.7,0.3c-0.2,0.2-0.3,0.4-0.3,0.7v3.9c0,0.3,0.1,0.5,0.3,0.7c0.2,0.2,0.4,0.3,0.7,0.3h3.9
	c0.3,0,0.5-0.1,0.7-0.3c0.2-0.2,0.3-0.4,0.3-0.7v-3.9c0-0.3-0.1-0.5-0.3-0.7C53.8,45.6,53.5,45.5,53.3,45.5z M52.3,49.4h-1.9v-1.9
	h1.9V49.4z"/>
<path d="M43.6,45.5h-3.9c-0.3,0-0.5,0.1-0.7,0.3c-0.2,0.2-0.3,0.4-0.3,0.7v3.9c0,0.3,0.1,0.5,0.3,0.7c0.2,0.2,0.4,0.3,0.7,0.3h3.9
	c0.3,0,0.5-0.1,0.7-0.3c0.2-0.2,0.3-0.4,0.3-0.7v-3.9c0-0.3-0.1-0.5-0.3-0.7C44.1,45.6,43.9,45.5,43.6,45.5z M42.6,49.4h-1.9v-1.9
	h1.9V49.4z"/>
</svg>
