<svg id="Layer_1" data-name="Layer 1" xmlns="http://www.w3.org/2000/svg" xmlns:xlink="http://www.w3.org/1999/xlink" viewBox="0 0 50.7 41.3">
  <defs>
    <style>
      .cls-1 {
        fill: none;
      }

      .cls-2 {
        fill: #f5f5f5;
      }

      .cls-3 {
        fill: #6c7a89;
      }

      .cls-4 {
        fill: #6d4c41;
      }

      .cls-5 {
        opacity: 0.5;
      }

      .cls-6 {
        fill: #fff;
      }

      .cls-7 {
        fill: #4dd0e1;
      }

      .cls-8 {
        clip-path: url(#clip-path);
      }

      .cls-9 {
        opacity: 0.3;
      }

      .cls-10 {
        opacity: 0.2;
      }

      .cls-11 {
        fill: #bccad9;
      }

      .cls-12 {
        fill: #3edc81;
      }

      .cls-13 {
        clip-path: url(#clip-path-2);
      }

      .cls-14 {
        opacity: 0.4;
      }

      .cls-15 {
        fill: #fbfcfc;
      }
    </style>
    <clipPath id="clip-path" transform="translate(-8.4 -6)">
      <path class="cls-1" d="M47.2,16.6a.1.1,0,0,0-.1-.1H10.9a.1.1,0,0,0-.1.1h-.1L13,23.5c0,.2.2.3.4.3H44.6c.2,0,.4-.1.4-.3l2.3-6.8Z"/>
    </clipPath>
    <clipPath id="clip-path-2" transform="translate(-8.4 -6)">
      <path class="cls-1" d="M39.7,43.4h0a.1.1,0,0,0,.1.1l.7.3-3.3,1.6,1.7-1.8c.1,0,.1,0,.1-.1h-.1l-.8-.4,1.8-2,1.8.8Z"/>
    </clipPath>
  </defs>
  <g>
    <rect class="cls-2" x="3.3" y="19.3" width="34.6" height="21.29"/>
    <g>
      <g>
        <g>
          <path class="cls-3" d="M48.3,15H9.7a1,1,0,0,0-1,1.3l2.9,8.8H46.4l2.9-8.8A1,1,0,0,0,48.3,15Z" transform="translate(-8.4 -6)"/>
          <path class="cls-4" d="M46.4,25.4H11.6c-.2,0-.3-.1-.3-.2L8.4,16.4a1.7,1.7,0,0,1,.2-1.2,1.6,1.6,0,0,1,1.1-.5H48.3a1.6,1.6,0,0,1,1.1.5,1.7,1.7,0,0,1,.2,1.2l-2.9,8.8C46.7,25.3,46.6,25.4,46.4,25.4Zm-34.6-.6H46.2L49,16.2a1.3,1.3,0,0,0-.1-.6.9.9,0,0,0-.6-.3H9.7l-.6.3a1.3,1.3,0,0,0-.1.6Z" transform="translate(-8.4 -6)"/>
        </g>
        <g class="cls-5">
          <path class="cls-6" d="M10.1,15.4H48.8a.6.6,0,0,0-.5-.2H9.7l-.6.3a1.3,1.3,0,0,0-.1.6l2.8,8.6h.3L9.4,16.4c-.1-.2-.1-.5.1-.6A.7.7,0,0,1,10.1,15.4Z" transform="translate(-8.4 -6)"/>
        </g>
        <g>
          <path class="cls-7" d="M47.1,16.3H10.9c-.3,0-.5.3-.4.5l2.2,6.7a.9.9,0,0,0,.7.6H44.6a.9.9,0,0,0,.7-.6l2.2-6.7C47.6,16.6,47.4,16.3,47.1,16.3Z" transform="translate(-8.4 -6)"/>
          <path class="cls-4" d="M44.6,24.3H13.4a1,1,0,0,1-.9-.7l-2.3-6.7a1.3,1.3,0,0,1,.1-.6.9.9,0,0,1,.6-.3H47.1l.6.3a1.3,1.3,0,0,1,.1.6l-2.3,6.7A1,1,0,0,1,44.6,24.3ZM10.9,16.5a.1.1,0,0,0-.1.1h-.1L13,23.5c0,.2.2.3.4.3H44.6c.2,0,.4-.1.4-.3l2.3-6.8h-.1a.1.1,0,0,0-.1-.1Z" transform="translate(-8.4 -6)"/>
        </g>
        <g class="cls-8">
          <g class="cls-9">
            <rect class="cls-6" x="21.4" y="4.4" width="5" height="32.29" transform="translate(-16 13.8) rotate(-39.4)"/>
          </g>
          <g class="cls-9">
            <rect class="cls-6" x="30" y="3" width="2.2" height="32.29" transform="translate(-13.5 18.1) rotate(-39.4)"/>
          </g>
        </g>
        <g class="cls-10">
          <path class="cls-4" d="M11.6,17.5c-.1-.2.1-.5.4-.5H47.5v-.2c.1-.2-.1-.5-.4-.5H10.9c-.3,0-.5.3-.4.5l2.2,6.7a.9.9,0,0,0,.7.6h.4Z" transform="translate(-8.4 -6)"/>
        </g>
        <g>
          <path class="cls-2" d="M3.3,19.2H38a0,0,0,0,1,0,0v4.5A17.4,17.4,0,0,1,20.6,41h0A17.4,17.4,0,0,1,3.3,23.7V19.2A0,0,0,0,1,3.3,19.2Z"/>
          <path class="cls-4" d="M44.7,47.3H13.3a2,2,0,0,1-2-2V25.2a.3.3,0,0,1,.3-.3H46.4a.3.3,0,0,1,.3.3V45.3A2,2,0,0,1,44.7,47.3ZM11.9,25.5V45.3a1.4,1.4,0,0,0,1.4,1.4H44.7a1.4,1.4,0,0,0,1.4-1.4V25.5Z" transform="translate(-8.4 -6)"/>
        </g>
        <rect class="cls-6" x="5.7" y="21.2" width="30.4" height="13.08" rx="0.9"/>
        <g class="cls-10">
          <path class="cls-4" d="M46.5,25.1H11.8V26l31.4.2a1.2,1.2,0,0,1,1.1,1.5c-1.5,5.5-7.6,17.7-32.6,17.9V46a1.5,1.5,0,0,0,1.5,1H44.7a1.7,1.7,0,0,0,1.7-1.7V26.4h.1Z" transform="translate(-8.4 -6)"/>
        </g>
        <g class="cls-10">
          <path class="cls-4" d="M42.8,42.2a.3.3,0,0,1-.1-.2c-.1-.2-.2-.2-.3-.3l-1.8-.8a.8.8,0,0,0-.8.2l-1.9,2a.7.7,0,0,0-.1.6v.2q0,.1.3.3h.1l-1.2,1.2a.6.6,0,0,0-.1.8h0a.5.5,0,0,0,.5.3h.3l3.3-1.6h.1a.5.5,0,0,0,.2-.8h0l-.2-.2,1.3-.9A.6.6,0,0,0,42.8,42.2Z" transform="translate(-8.4 -6)"/>
        </g>
        <g>
          <rect class="cls-11" x="5.7" y="21.1" width="29.9" height="12.64" rx="6.3"/>
          <path class="cls-4" d="M43.3,40H14.7a.9.9,0,0,1-.9-.9V27.8a1,1,0,0,1,.9-1H43.3a1,1,0,0,1,.9,1V39.1A.9.9,0,0,1,43.3,40ZM14.7,27.4a.4.4,0,0,0-.4.4V39.1a.4.4,0,0,0,.4.4H43.3a.4.4,0,0,0,.4-.4V27.8a.4.4,0,0,0-.4-.4Z" transform="translate(-8.4 -6)"/>
        </g>
        <g class="cls-5">
          <path class="cls-6" d="M15,27.5h-.3a.4.4,0,0,0-.4.4V39.1c0,.2.1.3.3.4a.3.3,0,0,1-.1-.2V27.9A.5.5,0,0,1,15,27.5Z" transform="translate(-8.4 -6)"/>
        </g>
        <rect class="cls-4" x="6.7" y="22" width="2.2" height="2.17" rx="1.1"/>
        <g class="cls-5">
          <path class="cls-6" d="M15.5,29.7v-1c0-.2.1-.3.2-.3h-.1c-.2,0-.3.1-.3.2v1.1l.2.2Z" transform="translate(-8.4 -6)"/>
        </g>
        <rect class="cls-4" x="6.7" y="27.3" width="2.2" height="2.17" rx="1.1"/>
        <g class="cls-5">
          <path class="cls-6" d="M15.4,35V33.9c0-.1.2-.2.3-.2h1.2a.2.2,0,0,0-.2-.2H15.6a.3.3,0,0,0-.3.3v1.1a.2.2,0,0,0,.2.2A.1.1,0,0,1,15.4,35Z" transform="translate(-8.4 -6)"/>
        </g>
        <rect class="cls-4" x="9.5" y="27.3" width="2.2" height="2.17" rx="1.1"/>
        <rect class="cls-4" x="12.2" y="27.3" width="2.2" height="2.17" rx="1.1"/>
        <rect class="cls-4" x="14.9" y="27.3" width="2.2" height="2.17" rx="1.1"/>
        <rect class="cls-4" x="17.7" y="27.3" width="2.2" height="2.17" rx="1.1"/>
        <rect class="cls-4" x="20.3" y="27.3" width="2.2" height="2.17" rx="1.1"/>
        <rect class="cls-4" x="23.1" y="27.3" width="2.2" height="2.17" rx="1.1"/>
        <rect class="cls-4" x="25.8" y="27.3" width="2.2" height="2.17" rx="1.1"/>
        <rect class="cls-4" x="6.7" y="24.6" width="3.2" height="2.17" rx="1.1"/>
        <g class="cls-5">
          <path class="cls-6" d="M15.6,32.4V31.3c0-.1.1-.3.2-.3h1.9a.1.1,0,0,0,.1.1l-.3-.2H15.7c-.1,0-.2.1-.2.3v1.1c0,.1,0,.1.1.2Z" transform="translate(-8.4 -6)"/>
        </g>
        <rect class="cls-4" x="6.7" y="30.1" width="3.2" height="2.17" rx="1.1"/>
        <g class="cls-5">
          <path class="cls-6" d="M15.5,37.9V36.7a.3.3,0,0,1,.3-.3h-.2c-.1,0-.2.1-.2.3v1.1a.4.4,0,0,0,.1.3Z" transform="translate(-8.4 -6)"/>
        </g>
        <rect class="cls-4" x="10.2" y="24.6" width="2.1" height="2.17" rx="1"/>
        <rect class="cls-4" x="10.2" y="30.1" width="2.1" height="2.17" rx="1"/>
        <rect class="cls-4" x="12.9" y="30.1" width="2.1" height="2.17" rx="1"/>
        <rect class="cls-4" x="12.9" y="24.6" width="2.1" height="2.17" rx="1"/>
        <rect class="cls-4" x="15.6" y="24.6" width="2.1" height="2.17" rx="1"/>
        <rect class="cls-4" x="18.3" y="24.6" width="2.1" height="2.17" rx="1"/>
        <rect class="cls-4" x="21" y="24.6" width="2.1" height="2.17" rx="1"/>
        <rect class="cls-4" x="23.7" y="24.6" width="2.1" height="2.17" rx="1"/>
        <rect class="cls-4" x="15.6" y="30.1" width="10.2" height="2.17" rx="0.4"/>
        <g class="cls-5">
          <path class="cls-6" d="M24.4,37.8V36.7c0-.1.2-.2.4-.2h8.9c0-.1-.1-.2-.3-.2H24.6a.3.3,0,0,0-.3.3v1.1c0,.1,0,.2.2.2A.1.1,0,0,1,24.4,37.8Z" transform="translate(-8.4 -6)"/>
        </g>
        <rect class="cls-4" x="26.4" y="24.6" width="2.1" height="2.17" rx="1"/>
        <rect class="cls-4" x="26.4" y="30.1" width="2.1" height="2.17" rx="1"/>
        <rect class="cls-4" x="29.2" y="24.6" width="2.1" height="2.17" rx="1"/>
        <rect class="cls-4" x="29.2" y="30.1" width="2.1" height="2.17" rx="1"/>
        <rect class="cls-4" x="31.8" y="30.1" width="2.5" height="2.17" rx="1.1"/>
        <g class="cls-5">
          <path class="cls-6" d="M40.6,37.8V36.7a.5.5,0,0,1,.3-.3h1.5a.2.2,0,0,0-.2-.2H40.8a.3.3,0,0,0-.3.3v1.1a.2.2,0,0,0,.2.2C40.6,37.9,40.6,37.9,40.6,37.8Z" transform="translate(-8.4 -6)"/>
        </g>
        <path class="cls-4" d="M40.6,31v1.9c0,.2-.1.4-.3.4h-3c-.2,0-.4.1-.4.3v1.5c0,.2.2.3.4.3h5.1a.3.3,0,0,0,.3-.3V31c0-.2-.1-.4-.3-.4H41A.4.4,0,0,0,40.6,31Z" transform="translate(-8.4 -6)"/>
        <g class="cls-5">
          <path class="cls-6" d="M37.4,34.8V34a.3.3,0,0,1,.3-.3h2.7a.8.8,0,0,0,.8-.7V31.3c0-.2.1-.3.2-.3h-.1a.3.3,0,0,0-.3.3v1.7a.7.7,0,0,1-.8.7H37.5a.5.5,0,0,0-.3.3v.8a.3.3,0,0,0,.3.3A.3.3,0,0,1,37.4,34.8Z" transform="translate(-8.4 -6)"/>
        </g>
        <rect class="cls-4" x="9.5" y="22" width="2.2" height="2.17" rx="1.1"/>
        <rect class="cls-4" x="12.2" y="22" width="2.2" height="2.17" rx="1.1"/>
        <rect class="cls-4" x="14.9" y="22" width="2.2" height="2.17" rx="1.1"/>
        <rect class="cls-4" x="17.7" y="22" width="2.2" height="2.17" rx="1.1"/>
        <rect class="cls-4" x="20.3" y="22" width="2.2" height="2.17" rx="1.1"/>
        <rect class="cls-4" x="23.1" y="22" width="2.2" height="2.17" rx="1.1"/>
        <rect class="cls-4" x="25.8" y="22" width="2.2" height="2.17" rx="1.1"/>
        <rect class="cls-4" x="28.5" y="22" width="2.2" height="2.17" rx="1.1"/>
        <rect class="cls-4" x="31.2" y="22" width="3.2" height="2.17" rx="1.1"/>
        <g class="cls-5">
          <path class="cls-6" d="M40.1,29.7v-1a.3.3,0,0,1,.3-.3h-.2a.2.2,0,0,0-.2.2v1.1c0,.1,0,.2.1.2Z" transform="translate(-8.4 -6)"/>
        </g>
        <g class="cls-5">
          <path class="cls-6" d="M18.3,29.7v-1a.3.3,0,0,1,.3-.3h-.1c-.2,0-.3.1-.3.2v1.1l.2.2A.1.1,0,0,1,18.3,29.7Z" transform="translate(-8.4 -6)"/>
        </g>
        <g class="cls-5">
          <path class="cls-6" d="M18.9,32.4V31.3c0-.1.1-.2.3-.2h1.2l-.3-.2h-1a.3.3,0,0,0-.3.3v1.1a.2.2,0,0,0,.2.2A.1.1,0,0,1,18.9,32.4Z" transform="translate(-8.4 -6)"/>
        </g>
        <g class="cls-5">
          <path class="cls-6" d="M24.4,32.4V31.3a.2.2,0,0,1,.2-.2h1.2c-.1-.1-.1-.2-.2-.2H24.5a.3.3,0,0,0-.3.3v1.1a.2.2,0,0,0,.2.2Z" transform="translate(-8.4 -6)"/>
        </g>
        <g class="cls-5">
          <path class="cls-6" d="M27.1,32.4V31.3a.2.2,0,0,1,.2-.2h1.2a.2.2,0,0,0-.2-.2H27.2l-.3.3v1.1a.2.2,0,0,0,.2.2Z" transform="translate(-8.4 -6)"/>
        </g>
        <g class="cls-5">
          <path class="cls-6" d="M29.8,32.4V31.3a.2.2,0,0,1,.2-.2h1.2a.2.2,0,0,0-.2-.2H29.9c-.1,0-.2.2-.2.3v1.1c0,.1,0,.2.1.2Z" transform="translate(-8.4 -6)"/>
        </g>
        <g class="cls-5">
          <path class="cls-6" d="M32.5,32.4V31.3c0-.1.1-.2.3-.2h1.1a.2.2,0,0,0-.2-.2H32.6c-.1,0-.2.2-.2.3v1.1c0,.1,0,.2.1.2Z" transform="translate(-8.4 -6)"/>
        </g>
        <g class="cls-5">
          <path class="cls-6" d="M35.2,32.4V31.3c0-.1.1-.2.3-.2h1.1a.2.2,0,0,0-.2-.2H35.3c-.1,0-.2.2-.2.3v1.1c0,.1,0,.2.1.2Z" transform="translate(-8.4 -6)"/>
        </g>
        <g class="cls-5">
          <path class="cls-6" d="M37.9,32.4V31.3c0-.1.1-.2.3-.2h1.2l-.3-.2h-1a.3.3,0,0,0-.3.3v1.1a.2.2,0,0,0,.2.2A.1.1,0,0,1,37.9,32.4Z" transform="translate(-8.4 -6)"/>
        </g>
        <g class="cls-5">
          <path class="cls-6" d="M21.6,32.4V31.3c0-.1.2-.2.3-.2h1.2l-.3-.2h-1a.3.3,0,0,0-.3.3v1.1a.2.2,0,0,0,.2.2Z" transform="translate(-8.4 -6)"/>
        </g>
        <g class="cls-5">
          <path class="cls-6" d="M21,29.7v-1c0-.2.1-.3.2-.3h-.1a.2.2,0,0,0-.2.2v1.1c0,.1,0,.2.1.2Z" transform="translate(-8.4 -6)"/>
        </g>
        <g class="cls-5">
          <path class="cls-6" d="M23.7,29.7v-1a.3.3,0,0,1,.3-.3h-.2a.2.2,0,0,0-.2.2v1.1c0,.1,0,.2.1.2Z" transform="translate(-8.4 -6)"/>
        </g>
        <g class="cls-5">
          <path class="cls-6" d="M26.5,29.7v-1c0-.2.1-.3.2-.3h-.1a.2.2,0,0,0-.2.2v1.1c0,.1,0,.2.1.2Z" transform="translate(-8.4 -6)"/>
        </g>
        <g class="cls-5">
          <path class="cls-6" d="M29.1,29.7v-1a.3.3,0,0,1,.3-.3h-.1c-.2,0-.3.1-.3.2v1.3Z" transform="translate(-8.4 -6)"/>
        </g>
        <g class="cls-5">
          <path class="cls-6" d="M31.9,29.7v-1a.3.3,0,0,1,.3-.3H32a.2.2,0,0,0-.2.2v1.3Z" transform="translate(-8.4 -6)"/>
        </g>
        <g class="cls-5">
          <path class="cls-6" d="M34.6,29.7v-1a.3.3,0,0,1,.3-.3h-.1c-.2,0-.3.1-.3.2v1.1l.2.2C34.6,29.8,34.6,29.8,34.6,29.7Z" transform="translate(-8.4 -6)"/>
        </g>
        <g class="cls-5">
          <path class="cls-6" d="M37.3,29.7v-1a.3.3,0,0,1,.3-.3h-.1c-.2,0-.3.1-.3.2v1.1a.2.2,0,0,0,.2.2A.1.1,0,0,1,37.3,29.7Z" transform="translate(-8.4 -6)"/>
        </g>
        <g class="cls-5">
          <path class="cls-6" d="M18.3,35V33.9c0-.1.1-.2.3-.2h1.2a.2.2,0,0,0-.2-.2H18.5a.3.3,0,0,0-.3.3v1.1a.2.2,0,0,0,.2.2C18.3,35.1,18.3,35.1,18.3,35Z" transform="translate(-8.4 -6)"/>
        </g>
        <g class="cls-5">
          <path class="cls-6" d="M21,35V33.9a.2.2,0,0,1,.2-.2h1.2a.2.2,0,0,0-.2-.2H21.1a.5.5,0,0,0-.3.3v1.1a.2.2,0,0,0,.2.2Z" transform="translate(-8.4 -6)"/>
        </g>
        <g class="cls-5">
          <path class="cls-6" d="M23.7,35V33.9a.2.2,0,0,1,.2-.2h1.2a.2.2,0,0,0-.2-.2H23.8c-.1,0-.2.2-.2.3v1.1c0,.1,0,.2.1.2Z" transform="translate(-8.4 -6)"/>
        </g>
        <g class="cls-5">
          <path class="cls-6" d="M26.5,35V33.9a.2.2,0,0,1,.2-.2h1.2a.2.2,0,0,0-.2-.2H26.6a.5.5,0,0,0-.3.3v1.1a.2.2,0,0,0,.2.2Z" transform="translate(-8.4 -6)"/>
        </g>
        <g class="cls-5">
          <path class="cls-6" d="M29.1,35V33.9c0-.1.1-.2.3-.2h1.2l-.3-.2H29.2c-.1,0-.2.2-.2.3v1.1c0,.1,0,.2.1.2Z" transform="translate(-8.4 -6)"/>
        </g>
        <g class="cls-5">
          <path class="cls-6" d="M31.9,35V33.9c0-.1.1-.2.3-.2h1.2l-.3-.2H32c-.1,0-.2.2-.2.3v1.1c0,.1,0,.2.1.2Z" transform="translate(-8.4 -6)"/>
        </g>
        <g class="cls-5">
          <path class="cls-6" d="M34.6,35V33.9c0-.1.1-.2.3-.2h1.2l-.3-.2H34.7c-.1,0-.2.2-.2.3v1.1a.3.3,0,0,0,.1.2Z" transform="translate(-8.4 -6)"/>
        </g>
        <g class="cls-5">
          <path class="cls-6" d="M18.9,37.8V36.7c0-.1.1-.2.3-.2h1.2l-.3-.2H19c-.1,0-.2.2-.2.3v1.1c0,.1,0,.2.1.2Z" transform="translate(-8.4 -6)"/>
        </g>
        <g class="cls-5">
          <path class="cls-6" d="M21.6,37.8V36.7c0-.1.1-.2.3-.2h1.2c-.1-.1-.1-.2-.2-.2H21.8a.3.3,0,0,0-.3.3v1.1l.2.2C21.6,37.9,21.6,37.9,21.6,37.8Z" transform="translate(-8.4 -6)"/>
        </g>
        <g class="cls-5">
          <path class="cls-6" d="M35.2,37.8V36.7c0-.1.1-.2.3-.2h1.2l-.3-.2H35.3c-.1,0-.2.2-.2.3v1.1c0,.1,0,.2.1.2Z" transform="translate(-8.4 -6)"/>
        </g>
        <g class="cls-5">
          <path class="cls-6" d="M37.9,37.8V36.7c0-.1.1-.2.3-.2h1.2l-.3-.2H38c-.1,0-.2.2-.2.3v1.1c0,.1,0,.2.1.2Z" transform="translate(-8.4 -6)"/>
        </g>
        <g class="cls-10">
          <rect class="cls-4" x="16" y="34.9" width="9.9" height="5.17" rx="0.6"/>
        </g>
        <g>
          <rect class="cls-2" x="15.8" y="34.8" width="9.5" height="4.82" rx="2.4"/>
          <path class="cls-4" d="M33.4,45.8H24.6a.6.6,0,0,1-.6-.6v-4a.6.6,0,0,1,.6-.6h8.8a.6.6,0,0,1,.6.6v4A.6.6,0,0,1,33.4,45.8ZM24.6,41a.2.2,0,0,0-.2.2v4a.2.2,0,0,0,.2.2h8.8a.2.2,0,0,0,.2-.2v-4a.2.2,0,0,0-.2-.2Z" transform="translate(-8.4 -6)"/>
        </g>
        <g class="cls-10">
          <path class="cls-4" d="M24.7,45.4v-4a.2.2,0,0,1,.2-.2h8.7c0-.2-.1-.3-.2-.3H24.6c-.1,0-.2.2-.2.3v4a.2.2,0,0,0,.2.2Z" transform="translate(-8.4 -6)"/>
        </g>
        <g>
          <path class="cls-6" d="M37.2,46.2a.5.5,0,0,1-.5-.3h-.1a.8.8,0,0,1,.1-.8l1.2-1.2h-.1c-.1-.1-.2-.1-.3-.3a.3.3,0,0,1-.1-.2c0-.2,0-.4.2-.5l1.9-2.1a.5.5,0,0,1,.7-.1l1.8.7.3.3a.4.4,0,0,1,.1.3.9.9,0,0,1-.3.6l-1.2.9a.3.3,0,0,1,.1.2h.1a.8.8,0,0,1-.3.9h0l-3.3,1.6Zm2.7-5.1h0L38,43.2h.1l.9.4-1.8,1.9s-.1,0,0,.1h0L40.5,44h0l-.8-.4L41.8,42h0L40,41.1Z" transform="translate(-8.4 -6)"/>
          <g>
            <path class="cls-12" d="M37.2,45.7c-.1,0-.1,0-.1-.1s-.1-.1,0-.2l1.7-1.7-.8-.4h-.1a.1.1,0,0,1,.1-.1l1.8-2H40l1.8.8a.1.1,0,0,1,.1.1c0,.1,0,.1-.1.2l-1.9,1.4.6.3a.1.1,0,0,1,.1.1v.2l-3.3,1.6Z" transform="translate(-8.4 -6)"/>
            <path class="cls-4" d="M39.9,41.2l1.8.8-2,1.4h0a.1.1,0,0,0,.1.1l.7.3-3.3,1.6,1.7-1.8c.1,0,.1,0,.1-.1h-.1l-.8-.4,1.8-2m0-.4h-.2L37.8,43v.3c0,.1.1.1.2.2l.5.2L37,45.3a.6.6,0,0,0-.1.4l.3.2h.1l3.3-1.6c.1-.1.2-.2.2-.3s-.1-.2-.2-.3h-.4l1.7-1.3c.1-.1.2-.2.2-.3l-.2-.2-1.8-.8Z" transform="translate(-8.4 -6)"/>
          </g>
          <g class="cls-13">
            <g class="cls-14">
              <rect class="cls-15" x="36.6" y="42" width="5.4" height="1.05" transform="translate(-13.2 -1) rotate(-6.9)"/>
            </g>
            <g class="cls-14">
              <rect class="cls-15" x="36.1" y="43.8" width="5.4" height="0.84" transform="translate(-16.4 2.6) rotate(-11.5)"/>
            </g>
          </g>
        </g>
        <g class="cls-10">
          <path class="cls-4" d="M42.3,27.1s-2,11.4-28.2,11.8v.5l.3.2H43.6l.3-.4V27.5l-.4-.3Z" transform="translate(-8.4 -6)"/>
        </g>
        <g class="cls-10">
          <path class="cls-4" d="M46,20.8s-1.4,3.8-12.9,3l11.8.3Z" transform="translate(-8.4 -6)"/>
        </g>
      </g>
      <g>
        <rect class="cls-2" x="52.6" y="36.7" width="5.6" height="8.71" rx="2.8" transform="translate(-16.2 7.6) rotate(-13.1)"/>
        <path class="cls-4" d="M55.2,45.9a2.8,2.8,0,0,1-1.3-.4,2.4,2.4,0,0,1-1-1.4l-1-4.6a2.2,2.2,0,0,1,1.7-2.8l1.6-.4a2.5,2.5,0,0,1,1.7.3,2.1,2.1,0,0,1,1,1.4L59,42.7a2.3,2.3,0,0,1-1.7,2.7l-1.6.4Zm.5-9h-.4l-1.6.4a1.6,1.6,0,0,0-1.2,2l1,4.6a1.8,1.8,0,0,0,.8,1.1,1.7,1.7,0,0,0,1.2.2l1.7-.4a1.6,1.6,0,0,0,1.2-2l-1.1-4.6a1.6,1.6,0,0,0-.7-1.1Zm1.5,8.2Z" transform="translate(-8.4 -6)"/>
      </g>
      <g>
        <line class="cls-2" x1="46" y1="31" x2="46.6" y2="32.9"/>
        <path class="cls-4" d="M54.9,39.3a.5.5,0,0,1-.4-.3L54,37.1a.5.5,0,0,1,.3-.5c.2,0,.5.1.5.3l.5,1.9c.1.2,0,.4-.3.5Z" transform="translate(-8.4 -6)"/>
      </g>
      <g class="cls-10">
        <path class="cls-4" d="M55.1,36.7h0a2,2,0,0,1,1.3,1.4l.5,2.2a3.5,3.5,0,0,1-.6,3,2.5,2.5,0,0,1-2.9,1.1h0a2,2,0,0,0,2.2,1.1l1.6-.4a1.9,1.9,0,0,0,1.5-2.4l-1.1-4.6v-.2a2.3,2.3,0,0,0-1.7-1.3h-.8Z" transform="translate(-8.4 -6)"/>
      </g>
    </g>
  </g>
</svg>
