<?xml version="1.0" encoding="utf-8"?>
<!-- Generator: Adobe Illustrator 26.0.1, SVG Export Plug-In . SVG Version: 6.00 Build 0)  -->
<svg version="1.1" id="Layer_1" xmlns="http://www.w3.org/2000/svg" xmlns:xlink="http://www.w3.org/1999/xlink" x="0px" y="0px"
	 viewBox="0 0 19 17" style="enable-background:new 0 0 19 17;" xml:space="preserve">
<style type="text/css">
	.st0{fill:#DC3073;}
	.st1{opacity:0.3;fill:#DC3073;}
</style>
<g>
	<g>
		<path class="st0" d="M8.7,3.3L2.4,7L5,8.6l0,0l-2.6,1.6l6.4,3.7c1.9,1.1,4.2,1.1,6.1,0c1.9-1.1,3-3,3.1-5.2l0,0l0-0.1
			c0,0,0,0,0-0.1l0,0l0,0l0,0c0,0,0,0,0,0l0-0.1l0,0c0-2.2-1.2-4.1-3.1-5.2C12.9,2.2,10.6,2.2,8.7,3.3z M7.4,8.6l3.3-1.9
			c1-0.6,1.9-0.2,2.2,0C13.2,6.9,14,7.5,14,8.6c0,1.2-0.8,1.7-1.1,1.9c-0.3,0.2-1.2,0.6-2.2,0L7.4,8.6z M14.3,4.4
			c1.5,0.9,2.4,2.4,2.5,4.2l0,0.2c0,1.8-1,3.4-2.6,4.3c-1.5,0.8-3.3,0.7-4.8-0.1l-4.6-2.6l1.5-0.9l3.9,2.3c1.5,0.9,2.9,0.3,3.4,0
			c0.5-0.3,1.7-1.2,1.7-3c0-1.8-1.2-2.7-1.7-3c-0.5-0.3-1.9-0.9-3.4,0L6.2,7.9L4.7,7l4.6-2.7C10.9,3.5,12.7,3.5,14.3,4.4z"/>
		<path class="st1" d="M5.1,8.1l0.4,0.3l0,0L6.7,9l0.8,0.4c0.2-0.2,0.3-0.3,0.4-0.6L7.4,8.6l0.5-0.3L6.7,7.6l0,0L6.2,7.9L5.4,7.4
			C5.3,7.6,5.2,7.8,5.1,8.1z"/>
		<path class="st0" d="M8.7,3.3L2.4,7L5,8.6l0,0l1.2,0.7l3.9,2.3c1.5,0.9,2.9,0.3,3.4,0c0.5-0.3,1.7-1.2,1.7-3c0-1.2-0.5-2-1.1-2.5
			c0.6,0.7,0.9,1.7,0.6,2.8c-0.3,0.9-1,1.6-1.9,1.8c-1,0.3-1.9,0.1-2.6-0.5L7.4,8.6L6.2,7.9L4.7,7l4.6-2.7C10,4,10.7,3.7,11.5,3.7
			l0,0c0,0,0.1,0,0.1,0c0,0,0.1,0,0.1,0c0,0,0,0,0,0c0.1,0,0.1,0,0.2,0c0,0,0,0,0,0c0,0,0.1,0,0.1,0c1,0,1.9,0.3,2.8,0.8
			c1.7,1,2.8,2.7,3,4.7c0-0.2,0-0.3,0-0.5l0,0l0-0.1c0,0,0,0,0-0.1l0,0l0,0l0,0c0,0,0,0,0,0l0-0.1l0,0c0-2.2-1.2-4.1-3.1-5.2
			C12.9,2.2,10.6,2.2,8.7,3.3z"/>
		<polygon class="st1" points="4.7,7 3.5,6.3 5.1,6.8 		"/>
		<polygon class="st1" points="3.5,9.5 4.7,10.2 5.1,10 		"/>
	</g>
	<circle class="st0" cx="1.5" cy="8.6" r="1"/>
</g>
</svg>
