<?xml version="1.0" encoding="utf-8"?>
<!-- Generator: Adobe Illustrator 26.0.1, SVG Export Plug-In . SVG Version: 6.00 Build 0)  -->
<svg version="1.1" id="Layer_1" xmlns="http://www.w3.org/2000/svg" xmlns:xlink="http://www.w3.org/1999/xlink" x="0px" y="0px"
	 viewBox="0 0 170.3 41.6" style="enable-background:new 0 0 170.3 41.6;" xml:space="preserve">
<style type="text/css">
	.st0{fill:#DC3073;}
	.st1{opacity:0.3;fill:#DC3073;enable-background:new    ;}
	.st2{font-family:'Raleway-Bold';}
	.st3{font-size:28.5024px;}
</style>
<g>
	<g>
		<path class="st0" d="M22.1,10.5l-11.9,6.8l5,3l0,0l-5,3l11.9,6.8c5.4,3.2,12.4,1.4,15.6-4c1-1.7,1.6-3.7,1.6-5.7l0,0v-0.1h0.1
			v-0.2h-0.1c-0.1-6.3-5.4-11.3-11.7-11.2C25.6,9.1,23.7,9.6,22.1,10.5L22.1,10.5z M19.5,20.4l6.2-3.6c1.3-0.7,2.9-0.7,4.2,0
			c1.3,0.8,2.1,2.1,2.1,3.6c0,1.5-0.8,2.8-2.1,3.6c-1.3,0.7-2.9,0.7-4.2,0L19.5,20.4z M32.4,12.4c2.8,1.6,4.5,4.6,4.6,7.9v0.3
			c0,5-4.2,9.1-9.2,9c-1.6,0-3.3-0.5-4.7-1.3l-8.5-4.9l2.7-1.7l7.3,4.2c3.1,1.8,7,0.7,8.7-2.3c0.6-1,0.8-2,0.9-3.2
			c0-3.5-2.8-6.4-6.3-6.4c-1.1,0-2.2,0.3-3.2,0.9l-7.3,4.2l-2.7-1.7l8.6-5C26,10.8,29.5,10.8,32.4,12.4z"/>
		<path class="st1" d="M15.3,19.4l0.7,0.4l0,0l2.2,1.3l1.5,0.8c0.3-0.3,0.6-0.7,0.7-1.1l-1-0.5l0.9-0.6l-2.2-1.3h-0.1l-1,0.5
			l-1.4-0.9C15.6,18.5,15.4,19,15.3,19.4z"/>
		<path class="st0" d="M22.1,10.5l-11.9,6.8l5,3l0,0l2.2,1.3l7.3,4.2c3.1,1.8,7,0.7,8.7-2.3c0.6-1,0.8-2,0.9-3.2
			c0-1.8-0.7-3.5-2-4.7c1.3,1.4,1.7,3.4,1.1,5.2c-0.5,1.7-1.8,3-3.5,3.5c-1.6,0.5-3.4,0.2-4.7-0.9l-5.5-3.1L17.2,19l-2.7-1.7l8.6-5
			c1.2-0.7,2.6-1.1,4-1.2h1c1.9,0.1,3.7,0.6,5.3,1.5c3.2,1.8,5.3,5.1,5.7,8.8v-0.9l0,0v-0.1h0.1v-0.2h-0.1
			c-0.1-6.3-5.4-11.3-11.7-11.2C25.6,9.1,23.7,9.6,22.1,10.5L22.1,10.5z"/>
		<polygon class="st1" points="14.6,17.4 12.3,16.1 15.3,17 		"/>
		<polygon class="st1" points="12.3,22.1 14.6,23.3 15.3,22.9 		"/>
	</g>
	<circle class="st0" cx="8.5" cy="20.4" r="1.8"/>
</g>
<text transform="matrix(1 0 0 1 39.1885 30.7601)" class="st0 st2 st3">DeliGo</text>
</svg>
