<?xml version="1.0" encoding="utf-8"?>
<!-- Generator: Adobe Illustrator 26.0.1, SVG Export Plug-In . SVG Version: 6.00 Build 0)  -->
<svg version="1.1" id="Layer_1" xmlns="http://www.w3.org/2000/svg" xmlns:xlink="http://www.w3.org/1999/xlink" x="0px" y="0px"
	 viewBox="0 0 316.3 302.3" style="enable-background:new 0 0 316.3 302.3;" xml:space="preserve">
<style type="text/css">
	.st0{fill:#FFFFFF;}
	.st1{font-family:'Raleway-Bold';}
	.st2{font-size:20.87px;}
	.st3{fill:none;}
</style>
<path class="st0" d="M12,0h292.3c6.6,0,12,5.4,12,12v278.3c0,6.6-5.4,12-12,12H12c-6.6,0-12-5.4-12-12V12C0,5.4,5.4,0,12,0z"/>
<text transform="matrix(1 0 0 1 239.69 53.39)" class="st1 st2"> </text>
<path d="M42.1,250c-0.1-0.1-0.2-0.2-0.3-0.2c-0.2-0.1-0.4-0.2-0.5-0.3c-0.2-0.1-0.5-0.2-0.7-0.2c-0.2-0.1-0.5-0.1-0.8-0.1
	c-0.4,0-0.7,0.1-1,0.2c-0.2,0.2-0.3,0.4-0.3,0.7c0,0.2,0,0.3,0.1,0.4c0.1,0.1,0.2,0.2,0.4,0.3s0.4,0.2,0.6,0.2l0.8,0.2
	c0.4,0.1,0.8,0.2,1.1,0.4c0.3,0.1,0.6,0.3,0.9,0.5c0.2,0.2,0.4,0.4,0.5,0.7s0.2,0.7,0.2,1c0,0.4-0.1,0.8-0.3,1.2
	c-0.2,0.3-0.4,0.6-0.7,0.8s-0.6,0.4-1,0.4c-0.4,0.1-0.8,0.1-1.2,0.1c-0.6,0-1.3-0.1-1.9-0.3c-0.6-0.2-1.2-0.4-1.7-0.8l0.7-1.4
	c0.1,0.1,0.3,0.2,0.4,0.3c0.2,0.1,0.4,0.2,0.7,0.4c0.3,0.1,0.6,0.2,0.9,0.3c0.3,0.1,0.7,0.1,1,0.1c0.9,0,1.4-0.3,1.4-0.9
	c0-0.2,0-0.3-0.2-0.5c-0.1-0.1-0.3-0.3-0.5-0.3c-0.2-0.1-0.5-0.2-0.7-0.3l-0.9-0.3c-0.4-0.1-0.7-0.2-1.1-0.4
	c-0.3-0.1-0.5-0.3-0.8-0.5c-0.2-0.2-0.3-0.4-0.5-0.6c-0.1-0.3-0.2-0.6-0.2-0.9c0-0.4,0.1-0.8,0.2-1.1c0.2-0.3,0.4-0.6,0.7-0.8
	s0.6-0.4,1-0.5s0.8-0.2,1.2-0.2c0.6,0,1.1,0.1,1.7,0.3c0.5,0.2,0.9,0.4,1.3,0.7L42.1,250z"/>
<path d="M43.8,253.2c0-0.4,0.1-0.9,0.2-1.2c0.2-0.4,0.4-0.7,0.7-1s0.6-0.5,1-0.7s0.9-0.3,1.4-0.3c0.6,0,1.2,0.1,1.8,0.4
	c0.5,0.3,0.8,0.7,1.1,1.2l-1.6,0.5c-0.1-0.2-0.3-0.4-0.5-0.5s-0.5-0.2-0.8-0.2c-0.2,0-0.4,0-0.6,0.1c-0.2,0.1-0.4,0.2-0.5,0.4
	c-0.2,0.2-0.3,0.4-0.3,0.6c-0.1,0.2-0.1,0.5-0.1,0.8s0,0.5,0.1,0.8c0.1,0.2,0.2,0.4,0.4,0.6c0.1,0.2,0.3,0.3,0.5,0.4
	c0.2,0.1,0.4,0.1,0.6,0.1c0.3,0,0.6-0.1,0.8-0.2c0.2-0.1,0.4-0.3,0.5-0.5l1.6,0.5c-0.2,0.5-0.6,0.9-1.1,1.2
	c-0.5,0.3-1.2,0.5-1.8,0.4c-0.5,0-0.9-0.1-1.4-0.3c-0.4-0.2-0.8-0.4-1-0.7c-0.3-0.3-0.5-0.6-0.7-1C43.9,254.1,43.8,253.6,43.8,253.2
	z"/>
<path d="M52.7,256.4c-0.3,0-0.6,0-0.8-0.1c-0.3-0.1-0.5-0.2-0.7-0.4c-0.2-0.2-0.3-0.4-0.5-0.6c-0.1-0.2-0.2-0.5-0.2-0.8
	s0.1-0.6,0.2-0.8c0.1-0.3,0.3-0.5,0.6-0.6c0.3-0.2,0.5-0.3,0.8-0.4c0.4-0.1,0.7-0.2,1.1-0.1c0.3,0,0.5,0,0.8,0.1
	c0.2,0,0.5,0.1,0.7,0.2v-0.4c0-0.4-0.1-0.7-0.4-1c-0.3-0.2-0.7-0.4-1-0.3c-0.3,0-0.7,0.1-1,0.2c-0.4,0.1-0.7,0.3-1,0.5l-0.5-1
	c0.8-0.5,1.7-0.8,2.6-0.8c0.8,0,1.5,0.2,2.1,0.7c0.5,0.5,0.8,1.2,0.8,1.9v2c0,0.1,0,0.3,0.1,0.4c0.1,0.1,0.2,0.1,0.3,0.1v1.4
	c-0.2,0.1-0.5,0.1-0.7,0.1c-0.3,0-0.5-0.1-0.7-0.2S55,256.2,55,256v-0.3c-0.3,0.4-0.6,0.6-1,0.8C53.6,256.4,53.2,256.5,52.7,256.4z
	 M53.2,255.3c0.3,0,0.5,0,0.8-0.1c0.2-0.1,0.4-0.2,0.6-0.4c0.2-0.1,0.3-0.3,0.3-0.5v-0.7c-0.2-0.1-0.4-0.1-0.6-0.2
	c-0.2,0-0.4-0.1-0.6-0.1c-0.4,0-0.7,0.1-1,0.3c-0.2,0.1-0.4,0.4-0.4,0.7s0.1,0.5,0.3,0.7C52.6,255.2,52.9,255.3,53.2,255.3z"/>
<path d="M63.7,256.3h-1.6v-3.5c0-0.4-0.1-0.8-0.3-1.1c-0.2-0.2-0.4-0.4-0.7-0.4c-0.2,0-0.3,0-0.5,0.1s-0.3,0.2-0.5,0.3
	s-0.3,0.3-0.4,0.4c-0.1,0.2-0.2,0.3-0.3,0.5v3.7h-1.6V250h1.5v1.2c0.2-0.4,0.6-0.7,1-0.9c0.5-0.2,1-0.3,1.5-0.3c0.3,0,0.7,0.1,1,0.2
	c0.2,0.1,0.4,0.3,0.6,0.6c0.1,0.2,0.2,0.5,0.3,0.8s0.1,0.6,0.1,0.9L63.7,256.3z"/>
<path d="M71.8,256c-0.3,0.1-0.5,0.2-0.8,0.3c-0.3,0.1-0.7,0.1-1,0.1c-0.2,0-0.4,0-0.6-0.1s-0.4-0.1-0.5-0.3
	c-0.2-0.1-0.3-0.3-0.3-0.5c-0.1-0.2-0.1-0.5-0.1-0.7v-3.6h-0.8V250h0.8v-2H70v2h1.3v1.2H70v3.1c0,0.2,0,0.4,0.2,0.5
	c0.1,0.1,0.3,0.1,0.4,0.1c0.2,0,0.3,0,0.5-0.1l0.4-0.1L71.8,256z"/>
<path d="M78.5,256.3h-1.6v-3.5c0-0.4-0.1-0.8-0.3-1.1c-0.2-0.2-0.5-0.4-0.8-0.4c-0.2,0-0.3,0-0.5,0.1s-0.3,0.2-0.5,0.3
	c-0.1,0.1-0.3,0.3-0.4,0.4c-0.1,0.2-0.2,0.3-0.3,0.5v3.7h-1.6v-8.8h1.6v3.6c0.2-0.4,0.5-0.7,0.9-0.9s0.9-0.3,1.3-0.3
	c0.3,0,0.7,0.1,1,0.2c0.2,0.1,0.5,0.3,0.6,0.6c0.2,0.2,0.3,0.5,0.3,0.8c0.1,0.3,0.1,0.6,0.1,0.9L78.5,256.3z"/>
<path d="M82.8,256.4c-0.5,0-0.9-0.1-1.4-0.2c-0.4-0.2-0.7-0.4-1-0.7s-0.5-0.6-0.7-1s-0.2-0.8-0.2-1.2s0.1-0.9,0.2-1.3
	c0.2-0.4,0.4-0.7,0.7-1c0.3-0.3,0.6-0.5,1-0.7s0.9-0.3,1.4-0.3s0.9,0.1,1.4,0.3c0.4,0.2,0.7,0.4,1,0.7s0.5,0.6,0.7,1
	c0.1,0.4,0.2,0.8,0.2,1.2v0.3v0.2h-4.9c0,0.2,0.1,0.5,0.2,0.7s0.2,0.4,0.4,0.5c0.2,0.1,0.3,0.2,0.5,0.3s0.4,0.1,0.6,0.1
	c0.3,0,0.6-0.1,0.9-0.2c0.3-0.1,0.5-0.3,0.6-0.6l1.4,0.4c-0.2,0.5-0.6,0.9-1.1,1.2C84,256.3,83.4,256.5,82.8,256.4z M84.4,252.7
	c0-0.4-0.2-0.8-0.5-1.1s-0.7-0.4-1.1-0.4c-0.2,0-0.4,0-0.6,0.1s-0.4,0.2-0.5,0.3s-0.3,0.3-0.3,0.5c-0.1,0.2-0.2,0.4-0.2,0.6
	L84.4,252.7L84.4,252.7z"/>
<path d="M95.9,255.8c-0.3,0.2-0.6,0.3-1,0.4s-0.8,0.2-1.2,0.2c-0.6,0-1.2-0.1-1.7-0.4c-1.5-0.8-2.5-2.3-2.5-4c0-0.6,0.1-1.1,0.3-1.6
	c0.2-0.5,0.5-1,0.9-1.4s0.8-0.8,1.3-1s1.1-0.4,1.7-0.4s1.2,0.1,1.7,0.4c0.5,0.2,0.9,0.6,1.3,1s0.6,0.9,0.8,1.4c0.4,1,0.4,2.1,0,3.2
	c-0.2,0.5-0.5,1-0.8,1.4l1.2,1.3h-1.6L95.9,255.8z M93.7,254.9c0.2,0,0.4,0,0.6-0.1c0.2,0,0.4-0.1,0.5-0.2l-1.3-1.5h1.6l0.6,0.7
	c0.2-0.3,0.3-0.5,0.4-0.8s0.1-0.6,0.1-0.9c0-0.4-0.1-0.7-0.2-1.1c-0.1-0.3-0.3-0.6-0.5-0.9c-0.2-0.3-0.5-0.5-0.8-0.6
	c-0.3-0.2-0.7-0.2-1-0.2c-0.4,0-0.7,0.1-1.1,0.2c-0.3,0.2-0.6,0.4-0.8,0.7c-0.2,0.3-0.4,0.6-0.5,0.9c-0.1,0.3-0.2,0.7-0.2,1
	c0,0.4,0.1,0.7,0.2,1.1c0.1,0.3,0.3,0.6,0.5,0.9c0.2,0.3,0.5,0.5,0.8,0.6C93,254.8,93.4,254.9,93.7,254.9L93.7,254.9z"/>
<path d="M99.2,256.3v-8.5h3.8c0.4,0,0.8,0.1,1.1,0.2c0.3,0.2,0.6,0.4,0.9,0.6c0.2,0.3,0.4,0.6,0.6,0.9c0.1,0.3,0.2,0.7,0.2,1
	c0,0.5-0.1,1-0.4,1.5c-0.3,0.4-0.7,0.8-1.1,1l1.9,3.2h-1.9l-1.7-2.9H101v2.9L99.2,256.3z M100.8,252h2.1c0.1,0,0.3,0,0.4-0.1
	s0.3-0.2,0.3-0.3c0.1-0.1,0.2-0.3,0.2-0.4c0.1-0.2,0.1-0.4,0.1-0.5c0-0.2,0-0.4-0.1-0.6c-0.1-0.2-0.1-0.3-0.3-0.4
	c-0.1-0.1-0.2-0.2-0.4-0.3c-0.1-0.1-0.3-0.1-0.4-0.1h-2v2.7H100.8z"/>
<path d="M109.5,253.2c0-0.4,0.1-0.9,0.2-1.2c0.2-0.4,0.4-0.7,0.7-1c0.3-0.3,0.6-0.5,1-0.7s0.9-0.3,1.4-0.3c0.6,0,1.2,0.1,1.8,0.4
	c0.5,0.3,0.8,0.7,1.1,1.2l-1.6,0.5c-0.1-0.2-0.3-0.4-0.5-0.5s-0.5-0.2-0.7-0.2s-0.4,0-0.7,0.1c-0.2,0.1-0.4,0.2-0.5,0.4
	c-0.2,0.2-0.3,0.4-0.4,0.6c-0.1,0.2-0.1,0.5-0.1,0.8s0,0.5,0.1,0.8c0.1,0.2,0.2,0.4,0.3,0.6c0.1,0.2,0.3,0.3,0.5,0.4
	c0.2,0.1,0.4,0.1,0.6,0.1c0.3,0,0.6-0.1,0.8-0.2c0.2-0.1,0.4-0.3,0.5-0.5l1.6,0.5c-0.2,0.5-0.6,0.9-1.1,1.2
	c-0.5,0.3-1.2,0.5-1.8,0.4c-0.5,0-0.9-0.1-1.4-0.3c-0.4-0.2-0.7-0.4-1-0.7s-0.5-0.6-0.7-1C109.5,254.1,109.4,253.6,109.5,253.2z"/>
<path d="M119.5,256.4c-0.5,0-0.9-0.1-1.4-0.3c-0.4-0.2-0.7-0.4-1-0.7s-0.5-0.6-0.7-1s-0.2-0.8-0.2-1.2s0.1-0.9,0.2-1.2
	c0.2-0.4,0.4-0.7,0.7-1c0.3-0.3,0.6-0.5,1-0.7s0.9-0.3,1.4-0.3s0.9,0.1,1.4,0.3c0.4,0.2,0.7,0.4,1,0.7s0.5,0.6,0.7,1
	s0.2,0.8,0.2,1.2s-0.1,0.8-0.2,1.2c-0.2,0.4-0.4,0.7-0.7,1c-0.3,0.3-0.6,0.5-1,0.7C120.4,256.4,119.9,256.5,119.5,256.4z
	 M117.8,253.2c0,0.3,0,0.5,0.1,0.8c0.1,0.2,0.2,0.4,0.3,0.6c0.1,0.2,0.3,0.3,0.5,0.4c0.4,0.2,0.9,0.2,1.3,0c0.2-0.1,0.4-0.2,0.5-0.4
	c0.2-0.2,0.3-0.4,0.4-0.6c0.1-0.2,0.1-0.5,0.1-0.8s0-0.5-0.1-0.8c-0.1-0.2-0.2-0.4-0.4-0.6c-0.1-0.2-0.3-0.3-0.5-0.4
	c-0.2-0.1-0.4-0.1-0.7-0.1c-0.2,0-0.4,0-0.7,0.1c-0.2,0.1-0.4,0.2-0.5,0.4c-0.2,0.2-0.3,0.4-0.4,0.6
	C117.9,252.7,117.8,252.9,117.8,253.2z"/>
<path d="M126.4,256.4c-0.4,0-0.8-0.1-1.2-0.2c-0.4-0.2-0.7-0.4-1-0.7s-0.5-0.6-0.6-1s-0.2-0.8-0.2-1.3c0-0.4,0.1-0.9,0.2-1.3
	c0.1-0.4,0.3-0.7,0.6-1c0.2-0.3,0.5-0.5,0.9-0.7s0.7-0.3,1.1-0.2c0.4,0,0.9,0.1,1.3,0.3s0.7,0.5,0.9,0.9v-3.6h1.6v6.9
	c0,0.1,0,0.3,0.1,0.4c0.1,0.1,0.2,0.1,0.3,0.1v1.4c-0.2,0.1-0.5,0.1-0.7,0.1c-0.3,0-0.5-0.1-0.7-0.2s-0.3-0.3-0.3-0.6v-0.4
	c-0.2,0.4-0.5,0.7-0.9,0.9C127.3,256.4,126.9,256.5,126.4,256.4z M126.9,255.1c0.2,0,0.3,0,0.5-0.1s0.3-0.1,0.4-0.2
	c0.1-0.1,0.3-0.2,0.4-0.3c0.1-0.1,0.2-0.3,0.2-0.4v-1.5c-0.1-0.2-0.2-0.3-0.3-0.5c-0.1-0.1-0.2-0.3-0.4-0.4
	c-0.1-0.1-0.3-0.2-0.5-0.3s-0.3-0.1-0.5-0.1s-0.5,0-0.7,0.1s-0.4,0.3-0.5,0.4c-0.2,0.2-0.3,0.4-0.3,0.6c-0.1,0.2-0.1,0.5-0.1,0.7
	s0,0.5,0.1,0.7s0.2,0.4,0.4,0.6c0.2,0.2,0.3,0.3,0.6,0.4C126.4,255,126.6,255.1,126.9,255.1z"/>
<path d="M134.5,256.4c-0.5,0-0.9-0.1-1.4-0.2c-0.4-0.2-0.7-0.4-1-0.7s-0.5-0.6-0.7-1s-0.2-0.8-0.2-1.2s0.1-0.9,0.2-1.3
	c0.2-0.4,0.4-0.7,0.7-1s0.6-0.5,1-0.7s0.9-0.3,1.4-0.3s0.9,0.1,1.4,0.3c0.8,0.3,1.4,1,1.7,1.7c0.1,0.4,0.2,0.8,0.2,1.2
	c0,0.1,0,0.2,0,0.3s0,0.2,0,0.2h-4.9c0,0.2,0.1,0.5,0.2,0.7c0.2,0.4,0.5,0.7,0.9,0.8c0.2,0.1,0.4,0.1,0.6,0.1c0.3,0,0.6-0.1,0.9-0.2
	c0.3-0.1,0.5-0.3,0.6-0.6l1.4,0.4c-0.2,0.5-0.6,0.8-1.1,1.1C135.8,256.3,135.1,256.5,134.5,256.4z M136.1,252.7
	c0-0.4-0.2-0.8-0.5-1.1s-0.7-0.4-1.1-0.4c-0.2,0-0.4,0-0.6,0.1c-0.2,0.1-0.3,0.2-0.5,0.3s-0.3,0.3-0.4,0.5c-0.1,0.2-0.1,0.4-0.2,0.6
	L136.1,252.7L136.1,252.7z"/>
<path d="M149.1,250h1.5l-2.6,6.3h-1.3l-1.1-2.8l-1.1,2.8h-1.3l-2.6-6.3h1.5l1.9,4.8l0.8-2l-1.1-2.7h1.3l0.7,1.9l0.7-1.9h1.3
	l-1.1,2.7l0.8,2L149.1,250z"/>
<path d="M151.4,249.2v-1.6h1.6v1.6H151.4z M151.4,256.3V250h1.6v6.3H151.4z"/>
<path d="M158.2,256c-0.3,0.1-0.5,0.2-0.8,0.3c-0.3,0.1-0.7,0.1-1,0.1c-0.2,0-0.4,0-0.6-0.1c-0.2-0.1-0.4-0.1-0.5-0.3
	c-0.2-0.1-0.3-0.3-0.4-0.5c-0.1-0.2-0.1-0.5-0.1-0.7v-3.6H154V250h0.8v-2h1.6v2h1.3v1.2h-1.3v3.1c0,0.2,0,0.4,0.2,0.5
	c0.1,0.1,0.3,0.1,0.4,0.1c0.2,0,0.3,0,0.5-0.1l0.4-0.1L158.2,256z"/>
<path d="M164.9,256.3h-1.6v-3.5c0-0.4-0.1-0.8-0.3-1.1c-0.2-0.2-0.5-0.4-0.8-0.4c-0.2,0-0.3,0-0.5,0.1s-0.3,0.2-0.5,0.3
	c-0.1,0.1-0.3,0.3-0.4,0.4c-0.1,0.2-0.2,0.3-0.3,0.5v3.7h-1.6v-8.8h1.6v3.6c0.2-0.4,0.6-0.7,1-0.9s0.9-0.3,1.3-0.3
	c0.3,0,0.7,0.1,1,0.2c0.2,0.1,0.5,0.3,0.6,0.6c0.1,0.2,0.2,0.5,0.3,0.8s0.1,0.6,0.1,0.9L164.9,256.3z"/>
<path d="M169,257.5l0.4,0.1h0.3c0.1,0,0.2,0,0.3-0.1c0.1,0,0.2-0.1,0.2-0.2c0.1-0.1,0.2-0.3,0.2-0.4c0.1-0.2,0.2-0.4,0.2-0.7
	l-2.5-6.3h1.7l1.7,4.9l1.5-4.9h1.5l-2.6,7.5c-0.1,0.4-0.4,0.8-0.8,1.1c-0.4,0.3-0.9,0.4-1.4,0.4h-0.4c-0.1,0-0.3-0.1-0.4-0.1v-1.3
	H169z"/>
<path d="M178.1,256.4c-0.5,0-0.9-0.1-1.4-0.3c-0.4-0.2-0.7-0.4-1-0.7s-0.5-0.6-0.7-1c-0.1-0.4-0.2-0.8-0.2-1.2s0.1-0.9,0.2-1.2
	c0.2-0.4,0.4-0.7,0.7-1s0.6-0.5,1-0.7c0.9-0.3,1.9-0.3,2.8,0c0.8,0.3,1.4,1,1.7,1.8c0.1,0.4,0.2,0.8,0.2,1.2s-0.1,0.8-0.2,1.2
	c-0.2,0.4-0.4,0.7-0.7,1s-0.6,0.5-1,0.7C179.1,256.4,178.6,256.5,178.1,256.4z M176.5,253.2c0,0.3,0,0.5,0.1,0.8
	c0.1,0.2,0.2,0.4,0.4,0.6c0.1,0.2,0.3,0.3,0.5,0.4c0.6,0.3,1.4,0.1,1.9-0.4c0.1-0.2,0.3-0.4,0.3-0.6c0.2-0.5,0.2-1,0-1.5
	c-0.1-0.2-0.2-0.4-0.3-0.6c-0.2-0.2-0.3-0.3-0.5-0.4c-0.2-0.1-0.4-0.1-0.6-0.1c-0.2,0-0.4,0-0.6,0.1c-0.2,0.1-0.4,0.2-0.5,0.4
	c-0.2,0.2-0.3,0.4-0.3,0.6C176.6,252.7,176.5,252.9,176.5,253.2z"/>
<path d="M184.4,256.4c-0.6,0-1.1-0.2-1.5-0.6c-0.4-0.5-0.6-1.2-0.5-1.9V250h1.6v3.6c0,1,0.4,1.5,1,1.5c0.3,0,0.6-0.1,0.9-0.3
	c0.3-0.2,0.6-0.5,0.7-0.9V250h1.7v4.4c0,0.1,0,0.3,0.1,0.4c0.1,0.1,0.2,0.1,0.3,0.1v1.4c-0.1,0-0.3,0.1-0.4,0.1H188
	c-0.2,0-0.5-0.1-0.7-0.2s-0.3-0.3-0.3-0.6v-0.5c-0.3,0.4-0.6,0.8-1.1,1C185.5,256.4,184.9,256.5,184.4,256.4z"/>
<path d="M193.7,251.4c-0.4,0-0.9,0.1-1.3,0.3c-0.4,0.2-0.7,0.4-0.8,0.8v3.8H190V250h1.4v1.3c0.1-0.2,0.2-0.4,0.4-0.6
	c0.1-0.2,0.3-0.3,0.5-0.4c0.2-0.1,0.3-0.2,0.5-0.3s0.3-0.1,0.5-0.1h0.3L193.7,251.4z"/>
<path d="M200.9,256.4c-0.5,0-0.9-0.1-1.3-0.3c-0.4-0.2-0.7-0.5-0.9-0.9v3.7h-1.6V250h1.4v1.1c0.2-0.4,0.5-0.7,0.9-0.9
	s0.8-0.3,1.3-0.3c0.4,0,0.8,0.1,1.2,0.3s0.7,0.4,0.9,0.7c0.3,0.3,0.5,0.6,0.6,1s0.2,0.8,0.2,1.3c0,0.4-0.1,0.9-0.2,1.3
	c-0.1,0.4-0.3,0.7-0.6,1c-0.2,0.3-0.5,0.5-0.9,0.7C201.7,256.3,201.3,256.4,200.9,256.4z M200.4,255.1c0.5,0,0.9-0.2,1.2-0.6
	c0.1-0.2,0.3-0.4,0.3-0.6c0.1-0.2,0.1-0.5,0.1-0.7c0-0.3,0-0.5-0.1-0.7s-0.2-0.4-0.4-0.6c-0.2-0.2-0.3-0.3-0.6-0.4
	c-0.4-0.2-0.8-0.2-1.2-0.1c-0.2,0.1-0.3,0.1-0.4,0.2c-0.1,0.1-0.3,0.2-0.4,0.3c-0.1,0.1-0.2,0.3-0.2,0.4v1.5
	c0.1,0.3,0.4,0.7,0.7,0.9C199.7,254.9,200,255.1,200.4,255.1L200.4,255.1z"/>
<path d="M210.6,256.3H209v-3.5c0-0.4-0.1-0.8-0.3-1.1c-0.2-0.2-0.5-0.4-0.8-0.4c-0.2,0-0.3,0-0.4,0.1c-0.2,0.1-0.3,0.2-0.5,0.3
	c-0.1,0.1-0.3,0.3-0.4,0.4c-0.1,0.2-0.2,0.3-0.3,0.5v3.7h-1.6v-8.8h1.6v3.6c0.2-0.4,0.5-0.7,0.9-0.9s0.9-0.3,1.3-0.3
	c0.3,0,0.7,0.1,1,0.2c0.2,0.1,0.5,0.3,0.6,0.6c0.2,0.2,0.3,0.5,0.3,0.8c0.1,0.3,0.1,0.6,0.1,0.9L210.6,256.3L210.6,256.3z"/>
<path d="M214.9,256.4c-0.5,0-0.9-0.1-1.4-0.3c-0.4-0.2-0.7-0.4-1-0.7s-0.5-0.6-0.7-1c-0.1-0.4-0.2-0.8-0.2-1.2s0.1-0.9,0.2-1.2
	c0.2-0.4,0.4-0.7,0.7-1s0.6-0.5,1-0.7c0.9-0.3,1.9-0.3,2.7,0s1.4,1,1.7,1.8c0.1,0.4,0.2,0.8,0.2,1.2s-0.1,0.8-0.2,1.2
	c-0.2,0.4-0.4,0.7-0.6,1c-0.3,0.3-0.6,0.5-1,0.7C215.9,256.4,215.4,256.5,214.9,256.4z M213.3,253.2c0,0.3,0,0.5,0.1,0.8
	c0.1,0.2,0.2,0.4,0.4,0.6c0.1,0.2,0.3,0.3,0.5,0.4c0.6,0.3,1.4,0.1,1.8-0.4c0.1-0.2,0.3-0.4,0.3-0.6c0.2-0.5,0.2-1,0-1.5
	c-0.1-0.2-0.2-0.4-0.3-0.6c-0.2-0.2-0.3-0.3-0.5-0.4c-0.2-0.1-0.4-0.1-0.6-0.1c-0.2,0-0.4,0-0.7,0.1c-0.2,0.1-0.4,0.2-0.5,0.4
	c-0.2,0.2-0.3,0.4-0.4,0.6C213.3,252.7,213.3,252.9,213.3,253.2z"/>
<path d="M225.1,256.3h-1.6v-3.5c0-0.4-0.1-0.8-0.3-1.1c-0.2-0.2-0.5-0.4-0.7-0.4s-0.3,0-0.5,0.1s-0.3,0.2-0.5,0.3s-0.3,0.3-0.4,0.4
	c-0.1,0.2-0.2,0.3-0.3,0.5v3.7h-1.6V250h1.5v1.2c0.2-0.4,0.6-0.7,1-0.9c0.5-0.2,1-0.3,1.5-0.3c0.3,0,0.7,0.1,1,0.2
	c0.2,0.1,0.4,0.3,0.6,0.6c0.1,0.2,0.2,0.5,0.3,0.8s0.1,0.6,0.1,0.9L225.1,256.3z"/>
<path d="M229.4,256.4c-0.5,0-0.9-0.1-1.4-0.2c-0.8-0.3-1.4-1-1.7-1.7c-0.2-0.4-0.2-0.8-0.2-1.2s0.1-0.9,0.2-1.3
	c0.3-0.8,0.9-1.4,1.7-1.8c0.4-0.2,0.9-0.3,1.4-0.3s0.9,0.1,1.4,0.3c0.4,0.2,0.7,0.4,1,0.7s0.5,0.6,0.6,1c0.2,0.4,0.2,0.8,0.2,1.2
	c0,0.1,0,0.2,0,0.3s0,0.2,0,0.2h-4.9c0,0.4,0.2,0.9,0.6,1.1c0.3,0.3,0.7,0.4,1.1,0.4c0.3,0,0.6-0.1,0.9-0.2c0.3-0.1,0.5-0.3,0.6-0.6
	l1.4,0.4c-0.3,0.5-0.6,0.9-1.1,1.2C230.7,256.3,230.1,256.4,229.4,256.4z M231.1,252.7c0-0.4-0.2-0.8-0.5-1.1s-0.7-0.4-1.1-0.4
	c-0.2,0-0.4,0-0.6,0.1c-0.2,0.1-0.4,0.2-0.5,0.3s-0.3,0.3-0.4,0.5c-0.1,0.2-0.1,0.4-0.2,0.6L231.1,252.7L231.1,252.7z"/>
<path d="M236.2,253.2c0-0.4,0.1-0.9,0.2-1.2c0.2-0.4,0.4-0.7,0.7-1s0.7-0.5,1.1-0.7c0.4-0.2,0.9-0.3,1.4-0.3c0.6,0,1.2,0.1,1.8,0.4
	c0.5,0.3,0.8,0.7,1.1,1.2l-1.6,0.5c-0.1-0.2-0.3-0.4-0.5-0.5s-0.5-0.2-0.8-0.2c-0.2,0-0.4,0-0.6,0.1c-0.2,0.1-0.4,0.2-0.5,0.4
	c-0.2,0.2-0.3,0.4-0.3,0.6c-0.2,0.5-0.2,1,0,1.5c0.1,0.2,0.2,0.4,0.4,0.6c0.1,0.2,0.3,0.3,0.5,0.4c0.2,0.1,0.4,0.1,0.6,0.1
	c0.3,0,0.6-0.1,0.8-0.2c0.2-0.1,0.4-0.3,0.5-0.5l1.6,0.5c-0.2,0.5-0.6,0.9-1.1,1.2c-1,0.5-2.1,0.6-3.2,0.2c-0.4-0.2-0.7-0.4-1-0.7
	s-0.5-0.6-0.7-1C236.3,254.1,236.2,253.6,236.2,253.2z"/>
<path d="M245.1,256.4c-0.3,0-0.6,0-0.9-0.1c-0.3-0.1-0.5-0.2-0.7-0.4c-0.2-0.2-0.3-0.4-0.4-0.6c-0.1-0.2-0.2-0.5-0.2-0.8
	s0.1-0.6,0.2-0.8c0.1-0.3,0.3-0.5,0.6-0.6c0.3-0.2,0.5-0.3,0.8-0.4c0.4-0.1,0.7-0.2,1.1-0.1c0.3,0,0.5,0,0.8,0.1
	c0.2,0,0.5,0.1,0.7,0.2v-0.4c0-0.4-0.1-0.7-0.4-1c-0.3-0.2-0.7-0.4-1.1-0.3c-0.3,0-0.7,0.1-1,0.2c-0.4,0.1-0.7,0.3-1,0.5l-0.5-1
	c0.8-0.5,1.7-0.8,2.6-0.8c0.8,0,1.5,0.2,2.1,0.7c0.5,0.5,0.8,1.2,0.8,1.9v2c0,0.1,0,0.3,0.1,0.4c0.1,0.1,0.2,0.1,0.3,0.1v1.4
	c-0.2,0.1-0.5,0.1-0.7,0.1c-0.3,0-0.5-0.1-0.7-0.2s-0.3-0.3-0.3-0.5v-0.3C246.8,256.1,246,256.5,245.1,256.4L245.1,256.4z
	 M245.5,255.3c0.3,0,0.5,0,0.8-0.1c0.2-0.1,0.4-0.2,0.6-0.4c0.2-0.1,0.3-0.3,0.3-0.5v-0.7c-0.2-0.1-0.4-0.1-0.6-0.2
	c-0.2,0-0.4-0.1-0.6-0.1c-0.4,0-0.7,0.1-1,0.3c-0.2,0.1-0.4,0.4-0.4,0.7s0.1,0.5,0.3,0.7C245,255.2,245.3,255.3,245.5,255.3
	L245.5,255.3z"/>
<path d="M260,256.3h-1.6v-3.5c0-0.4-0.1-0.8-0.3-1.1c-0.2-0.2-0.4-0.4-0.7-0.4c-0.3,0-0.7,0.1-0.9,0.4c-0.3,0.3-0.5,0.6-0.6,0.9v3.7
	h-1.6v-3.5c0-0.4-0.1-0.8-0.3-1.1c-0.2-0.2-0.4-0.4-0.7-0.4s-0.6,0.1-0.9,0.4c-0.3,0.3-0.5,0.6-0.6,0.9v3.7h-1.6V250h1.4v1.2
	c0.2-0.4,0.6-0.7,1-0.9s0.9-0.3,1.4-0.3c0.4,0,0.9,0.1,1.2,0.4c0.3,0.3,0.5,0.6,0.6,1c0.2-0.4,0.6-0.8,1-1c0.4-0.2,0.9-0.4,1.3-0.3
	c0.3,0,0.7,0.1,1,0.2c0.2,0.1,0.4,0.3,0.6,0.6c0.1,0.2,0.2,0.5,0.3,0.8c0,0.3,0.1,0.6,0.1,0.9L260,256.3z"/>
<path d="M264.4,256.4c-0.5,0-0.9-0.1-1.4-0.2c-0.4-0.2-0.8-0.4-1-0.7c-0.3-0.3-0.5-0.6-0.7-1s-0.2-0.8-0.2-1.2s0.1-0.9,0.2-1.3
	c0.2-0.4,0.4-0.7,0.7-1c0.3-0.3,0.7-0.6,1-0.7c0.4-0.2,0.9-0.3,1.4-0.3s0.9,0.1,1.4,0.3c0.4,0.2,0.7,0.4,1,0.7s0.5,0.6,0.6,1
	s0.2,0.8,0.2,1.2v0.3v0.2h-4.9c0,0.2,0.1,0.5,0.2,0.7s0.2,0.4,0.4,0.5c0.1,0.1,0.3,0.2,0.5,0.3c0.5,0.2,1.1,0.1,1.5-0.1
	c0.3-0.1,0.5-0.3,0.6-0.6l1.4,0.4c-0.2,0.5-0.6,0.9-1.1,1.2C265.6,256.3,265,256.5,264.4,256.4z M266,252.7c0-0.4-0.2-0.8-0.5-1.1
	s-0.7-0.4-1.1-0.4s-0.8,0.2-1.1,0.4c-0.1,0.1-0.3,0.3-0.4,0.5s-0.1,0.4-0.2,0.6H266z"/>
<path d="M272.4,251.4c-0.5,0-0.9,0.1-1.3,0.3s-0.7,0.5-0.8,0.8v3.8h-1.6V250h1.5v1.3c0.1-0.2,0.2-0.4,0.4-0.6
	c0.1-0.2,0.3-0.3,0.5-0.4c0.2-0.1,0.3-0.2,0.5-0.3s0.3-0.1,0.5-0.1h0.3V251.4z"/>
<path d="M274.9,256.4c-0.3,0-0.6,0-0.9-0.1s-0.5-0.2-0.7-0.4c-0.2-0.2-0.3-0.4-0.4-0.6c-0.1-0.2-0.2-0.5-0.2-0.8s0.1-0.6,0.2-0.8
	c0.1-0.3,0.3-0.5,0.5-0.6c0.3-0.2,0.5-0.3,0.9-0.4c0.4-0.1,0.7-0.2,1.1-0.1c0.3,0,0.5,0,0.8,0.1c0.2,0,0.5,0.1,0.7,0.2v-0.4
	c0-0.4-0.1-0.7-0.4-1c-0.3-0.2-0.7-0.4-1.1-0.3c-0.3,0-0.7,0.1-1,0.2c-0.4,0.1-0.7,0.3-1,0.5l-0.5-1c0.8-0.5,1.7-0.8,2.6-0.8
	c0.8,0,1.5,0.2,2.1,0.7c0.5,0.5,0.8,1.2,0.8,1.9v2c0,0.1,0,0.3,0.1,0.4c0.1,0.1,0.2,0.1,0.3,0.1v1.4c-0.2,0.1-0.5,0.1-0.7,0.1
	c-0.3,0-0.5-0.1-0.7-0.2s-0.3-0.3-0.3-0.5v-0.3C276.7,256.1,275.8,256.5,274.9,256.4L274.9,256.4z M275.4,255.3c0.3,0,0.5,0,0.8-0.1
	c0.2-0.1,0.4-0.2,0.6-0.4c0.2-0.1,0.3-0.3,0.3-0.5v-0.7c-0.2-0.1-0.4-0.1-0.6-0.2c-0.2,0-0.4-0.1-0.6-0.1c-0.4,0-0.7,0.1-1,0.3
	c-0.2,0.2-0.4,0.4-0.4,0.7s0.1,0.5,0.3,0.7C274.8,255.2,275.1,255.3,275.4,255.3L275.4,255.3z"/>
<path d="M65.2,270.4c-0.3,0.1-0.5,0.2-0.8,0.3c-0.3,0.1-0.7,0.1-1,0.1c-0.2,0-0.4,0-0.6-0.1c-0.2-0.1-0.4-0.1-0.5-0.3
	c-0.1-0.1-0.3-0.3-0.3-0.5c-0.1-0.2-0.1-0.5-0.1-0.7v-3.6H61v-1.2h0.8v-2h1.6v2h1.3v1.2h-1.3v3.1c0,0.2,0,0.4,0.2,0.5
	c0.1,0.1,0.3,0.1,0.4,0.1c0.2,0,0.3,0,0.5-0.1l0.4-0.1L65.2,270.4z"/>
<path d="M68.8,270.8c-0.5,0-0.9-0.1-1.4-0.3c-0.4-0.2-0.7-0.4-1-0.7c-0.3-0.3-0.5-0.6-0.7-1s-0.2-0.8-0.2-1.2c0-0.4,0.1-0.9,0.2-1.2
	c0.2-0.4,0.4-0.7,0.7-1c0.3-0.3,0.6-0.5,1-0.7s0.9-0.3,1.4-0.3s0.9,0.1,1.4,0.3c0.4,0.2,0.7,0.4,1,0.7c0.3,0.3,0.5,0.6,0.7,1
	s0.2,0.8,0.2,1.2c0,0.4-0.1,0.8-0.2,1.2c-0.1,0.4-0.4,0.7-0.6,1c-0.3,0.3-0.6,0.5-1,0.7C69.7,270.8,69.3,270.9,68.8,270.8z
	 M67.2,267.6c0,0.3,0,0.5,0.1,0.8c0.1,0.2,0.2,0.4,0.3,0.6c0.1,0.2,0.3,0.3,0.5,0.4s0.4,0.1,0.6,0.1s0.4,0,0.7-0.1
	c0.2-0.1,0.4-0.2,0.5-0.4c0.2-0.2,0.3-0.4,0.3-0.6c0.1-0.2,0.1-0.5,0.1-0.8s0-0.5-0.1-0.8c-0.1-0.2-0.2-0.4-0.3-0.6
	c-0.1-0.2-0.3-0.3-0.5-0.4s-0.4-0.1-0.7-0.1c-0.2,0-0.4,0-0.6,0.1s-0.4,0.2-0.5,0.4c-0.2,0.2-0.3,0.4-0.3,0.6
	C67.2,267.1,67.1,267.3,67.2,267.6z"/>
<path d="M78.7,270.8c-0.4,0-0.8-0.1-1.2-0.2c-0.4-0.2-0.7-0.4-0.9-0.7c-0.3-0.3-0.5-0.6-0.6-1c-0.2-0.4-0.2-0.8-0.2-1.3
	c0-0.4,0.1-0.9,0.2-1.3s0.3-0.7,0.6-1c0.2-0.3,0.5-0.5,0.9-0.7s0.7-0.3,1.1-0.2c0.4,0,0.9,0.1,1.2,0.3c0.4,0.2,0.7,0.5,0.9,0.9V262
	h1.6v6.9c0,0.1,0,0.2,0.1,0.4c0.1,0.1,0.2,0.1,0.3,0.1v1.4c-0.2,0.1-0.5,0.1-0.7,0.1c-0.3,0-0.5-0.1-0.7-0.2s-0.3-0.3-0.3-0.6v-0.4
	c-0.2,0.4-0.5,0.7-0.9,0.9C79.5,270.8,79.1,270.9,78.7,270.8z M79.1,269.5c0.2,0,0.3,0,0.5-0.1s0.3-0.1,0.5-0.2
	c0.1-0.1,0.3-0.2,0.4-0.3c0.1-0.1,0.2-0.3,0.2-0.4V267c-0.1-0.2-0.2-0.3-0.3-0.5c-0.1-0.1-0.3-0.3-0.4-0.4s-0.3-0.2-0.5-0.3
	c-0.2-0.1-0.3-0.1-0.5-0.1s-0.5,0-0.7,0.1s-0.4,0.3-0.5,0.4c-0.1,0.2-0.3,0.4-0.3,0.6c-0.1,0.2-0.1,0.5-0.1,0.8c0,0.2,0,0.5,0.1,0.7
	s0.2,0.4,0.4,0.6c0.2,0.2,0.3,0.3,0.5,0.4C78.6,269.4,78.8,269.5,79.1,269.5z"/>
<path d="M86.7,270.8c-0.5,0-0.9-0.1-1.3-0.3c-0.4-0.2-0.7-0.4-1-0.7c-0.3-0.3-0.5-0.6-0.7-1s-0.3-0.8-0.3-1.3c0-0.4,0.1-0.9,0.2-1.2
	c0.2-0.4,0.4-0.7,0.7-1c0.3-0.3,0.6-0.5,1-0.7s0.9-0.3,1.4-0.3s0.9,0.1,1.4,0.3c0.8,0.3,1.4,1,1.7,1.8c0.1,0.4,0.2,0.8,0.2,1.2
	c0,0.4-0.1,0.8-0.2,1.2c-0.2,0.4-0.4,0.7-0.7,1c-0.3,0.3-0.6,0.5-1,0.7C87.6,270.7,87.2,270.8,86.7,270.8z M85,267.6
	c0,0.3,0,0.5,0.1,0.8c0.1,0.2,0.2,0.4,0.4,0.6c0.1,0.2,0.3,0.3,0.5,0.4s0.4,0.1,0.7,0.1c0.2,0,0.4,0,0.6-0.1s0.4-0.2,0.5-0.4
	c0.1-0.2,0.3-0.4,0.3-0.6c0.1-0.2,0.1-0.5,0.1-0.8s0-0.5-0.1-0.8c-0.1-0.2-0.2-0.4-0.3-0.6c-0.2-0.2-0.3-0.3-0.5-0.4
	s-0.4-0.1-0.6-0.1s-0.4,0-0.7,0.1c-0.2,0.1-0.4,0.2-0.5,0.4c-0.2,0.2-0.3,0.4-0.4,0.6C85.1,267.1,85,267.3,85,267.6z"/>
<path d="M98.6,264.4h1.5l-2.6,6.3h-1.3l-1.1-2.8l-1.1,2.8h-1.3l-2.6-6.3h1.5l1.9,4.8l0.8-2l-1.1-2.7h1.3l0.7,1.9l0.7-1.9h1.3
	l-1.1,2.7l0.8,2L98.6,264.4z"/>
<path d="M106.7,270.7h-1.6v-3.5c0-0.4-0.1-0.8-0.3-1.1c-0.2-0.2-0.5-0.4-0.7-0.4s-0.3,0-0.5,0.1s-0.3,0.2-0.5,0.3
	c-0.2,0.1-0.3,0.3-0.4,0.4c-0.1,0.2-0.2,0.3-0.3,0.5v3.7h-1.6v-6.3h1.5v1.2c0.2-0.4,0.6-0.7,1-0.9c0.5-0.2,1-0.3,1.5-0.3
	c0.3,0,0.7,0.1,1,0.2c0.2,0.1,0.4,0.3,0.6,0.6c0.1,0.2,0.2,0.5,0.3,0.8c0.1,0.3,0.1,0.6,0.1,0.9L106.7,270.7z"/>
<path d="M108.1,262h1.6v6.8c0,0.2,0,0.4,0.2,0.5c0.1,0.1,0.3,0.2,0.5,0.2c0.1,0,0.2,0,0.3,0c0.1,0,0.2-0.1,0.3-0.1l0.2,1.2
	c-0.2,0.1-0.5,0.2-0.8,0.2s-0.5,0.1-0.8,0.1c-0.4,0-0.8-0.1-1.2-0.4c-0.3-0.3-0.4-0.7-0.4-1.1L108.1,262z"/>
<path d="M114.8,270.8c-0.5,0-0.9-0.1-1.4-0.3c-0.8-0.3-1.4-1-1.7-1.8c-0.2-0.4-0.2-0.8-0.2-1.2c0-0.4,0.1-0.9,0.2-1.2
	c0.2-0.4,0.4-0.7,0.7-1c0.3-0.3,0.6-0.5,1-0.7s0.9-0.3,1.4-0.3s0.9,0.1,1.4,0.3c0.4,0.2,0.7,0.4,1,0.7c0.3,0.3,0.5,0.6,0.7,1
	s0.2,0.8,0.2,1.2c0,0.4-0.1,0.8-0.2,1.2c-0.2,0.4-0.4,0.7-0.7,1c-0.3,0.3-0.6,0.5-1,0.7C115.8,270.7,115.3,270.8,114.8,270.8z
	 M113.2,267.6c0,0.3,0,0.5,0.1,0.8c0.1,0.2,0.2,0.4,0.3,0.6c0.1,0.2,0.3,0.3,0.5,0.4c0.4,0.2,0.9,0.2,1.3,0c0.2-0.1,0.4-0.2,0.5-0.4
	c0.2-0.2,0.3-0.4,0.3-0.6c0.1-0.2,0.1-0.5,0.1-0.8s0-0.5-0.1-0.8c-0.1-0.2-0.2-0.4-0.3-0.6c-0.1-0.2-0.3-0.3-0.5-0.4
	s-0.4-0.1-0.6-0.1s-0.4,0-0.7,0.1c-0.2,0.1-0.4,0.2-0.5,0.4c-0.2,0.2-0.3,0.4-0.3,0.6C113.2,267.1,113.2,267.3,113.2,267.6z"/>
<path d="M120.9,270.8c-0.3,0-0.6,0-0.8-0.1c-0.3-0.1-0.5-0.2-0.7-0.4c-0.2-0.2-0.3-0.4-0.5-0.6c-0.1-0.2-0.2-0.5-0.2-0.8
	s0.1-0.6,0.2-0.8c0.1-0.3,0.3-0.5,0.6-0.6c0.3-0.2,0.5-0.3,0.8-0.4c0.4-0.1,0.7-0.2,1.1-0.1c0.3,0,0.5,0,0.8,0.1
	c0.2,0,0.5,0.1,0.7,0.2v-0.4c0-0.4-0.1-0.7-0.4-1c-0.3-0.2-0.7-0.4-1-0.3c-0.3,0-0.7,0.1-1,0.2c-0.4,0.1-0.7,0.3-1,0.5l-0.5-1
	c0.8-0.5,1.7-0.8,2.6-0.8c0.8,0,1.5,0.2,2.1,0.7c0.5,0.5,0.8,1.2,0.8,1.9v2c0,0.1,0,0.3,0.1,0.4s0.2,0.1,0.3,0.1v1.4
	c-0.2,0.1-0.5,0.1-0.7,0.1c-0.3,0-0.5-0.1-0.7-0.2s-0.3-0.3-0.3-0.5v-0.3C122.7,270.5,121.8,270.9,120.9,270.8L120.9,270.8z
	 M121.4,269.6c0.3,0,0.5,0,0.8-0.1c0.2-0.1,0.4-0.2,0.6-0.4c0.2-0.1,0.3-0.3,0.3-0.5v-0.7c-0.2-0.1-0.4-0.1-0.6-0.2
	c-0.2,0-0.4-0.1-0.6-0.1c-0.4,0-0.7,0.1-1,0.3c-0.2,0.1-0.4,0.4-0.4,0.7c0,0.3,0.1,0.5,0.3,0.7C120.8,269.6,121.1,269.7,121.4,269.6
	z"/>
<path d="M128.7,270.8c-0.4,0-0.8-0.1-1.2-0.2c-0.4-0.2-0.7-0.4-0.9-0.7c-0.3-0.3-0.5-0.6-0.6-1c-0.2-0.4-0.2-0.8-0.2-1.3
	c0-0.4,0.1-0.9,0.2-1.3s0.3-0.7,0.6-1c0.2-0.3,0.5-0.5,0.9-0.7s0.7-0.3,1.1-0.2c0.4,0,0.9,0.1,1.2,0.3c0.4,0.2,0.7,0.5,0.9,0.9V262
	h1.6v6.9c0,0.1,0,0.3,0.1,0.4s0.2,0.1,0.3,0.1v1.4c-0.2,0.1-0.5,0.1-0.7,0.1c-0.3,0-0.5-0.1-0.7-0.2s-0.3-0.3-0.3-0.6v-0.4
	c-0.2,0.4-0.5,0.7-0.9,0.9C129.6,270.8,129.1,270.9,128.7,270.8z M129.1,269.5c0.2,0,0.3,0,0.5-0.1s0.3-0.1,0.4-0.2
	c0.1-0.1,0.3-0.2,0.4-0.3c0.1-0.1,0.2-0.3,0.2-0.4V267c-0.1-0.2-0.2-0.3-0.3-0.5c-0.1-0.1-0.2-0.3-0.4-0.4c-0.1-0.1-0.3-0.2-0.5-0.3
	c-0.4-0.1-0.8-0.1-1.1,0.1c-0.2,0.1-0.4,0.3-0.5,0.4c-0.2,0.2-0.3,0.4-0.3,0.6c-0.1,0.2-0.1,0.5-0.1,0.8c0,0.2,0,0.5,0.1,0.7
	s0.2,0.4,0.4,0.6s0.3,0.3,0.5,0.4C128.6,269.5,128.9,269.5,129.1,269.5z"/>
<path d="M140.5,270.4c-0.3,0.1-0.5,0.2-0.8,0.3c-0.3,0.1-0.7,0.1-1,0.1c-0.2,0-0.4,0-0.6-0.1c-0.2-0.1-0.4-0.1-0.5-0.3
	c-0.2-0.1-0.3-0.3-0.4-0.5c-0.1-0.2-0.1-0.5-0.1-0.7v-3.6h-0.8v-1.2h0.8v-2h1.6v2h1.3v1.2h-1.3v3.1c0,0.2,0,0.4,0.2,0.5
	c0.1,0.1,0.3,0.1,0.4,0.1c0.2,0,0.3,0,0.5-0.1l0.4-0.1L140.5,270.4z"/>
<path d="M147.2,270.7h-1.6v-3.5c0-0.4-0.1-0.8-0.3-1.1c-0.2-0.2-0.5-0.4-0.8-0.4c-0.2,0-0.3,0-0.5,0.1s-0.3,0.2-0.5,0.3
	c-0.1,0.1-0.3,0.3-0.4,0.4c-0.1,0.2-0.2,0.3-0.3,0.5v3.7h-1.6V262h1.6v3.7c0.2-0.4,0.5-0.7,0.9-0.9c0.4-0.2,0.9-0.3,1.3-0.3
	c0.3,0,0.7,0.1,1,0.2c0.2,0.1,0.5,0.3,0.6,0.6c0.2,0.2,0.3,0.5,0.3,0.8c0.1,0.3,0.1,0.6,0.1,0.9L147.2,270.7z"/>
<path d="M151.5,270.8c-0.5,0-0.9-0.1-1.4-0.2c-0.4-0.2-0.8-0.4-1.1-0.7c-0.3-0.3-0.5-0.6-0.7-1s-0.2-0.8-0.2-1.2
	c0-0.4,0.1-0.9,0.2-1.3c0.2-0.4,0.4-0.7,0.7-1s0.6-0.5,1-0.7s0.9-0.3,1.4-0.3s0.9,0.1,1.4,0.3c0.4,0.2,0.7,0.4,1,0.7
	c0.3,0.3,0.5,0.6,0.7,1c0.1,0.4,0.2,0.8,0.2,1.2v0.3c0,0.1,0,0.2,0,0.2h-4.8c0,0.2,0.1,0.5,0.2,0.7c0.1,0.2,0.2,0.4,0.4,0.5
	s0.3,0.2,0.5,0.3c0.2,0.1,0.4,0.1,0.6,0.1c0.3,0,0.6-0.1,0.9-0.2c0.3-0.1,0.5-0.3,0.6-0.6l1.4,0.4c-0.2,0.5-0.6,0.9-1.1,1.1
	C152.8,270.7,152.2,270.9,151.5,270.8z M153.1,267.1c0-0.4-0.2-0.8-0.5-1.1c-0.3-0.3-0.7-0.4-1.1-0.4c-0.2,0-0.4,0-0.6,0.1
	c-0.2,0.1-0.4,0.2-0.5,0.3c-0.1,0.1-0.3,0.3-0.4,0.5c-0.1,0.2-0.2,0.4-0.2,0.6H153.1z"/>
<path d="M158.8,270.7v-8.5h3.1c0.6,0,1.2,0.1,1.8,0.3c0.5,0.2,0.9,0.5,1.3,0.9c0.4,0.4,0.6,0.8,0.8,1.4c0.2,0.5,0.3,1.1,0.3,1.6
	c0,0.6-0.1,1.2-0.3,1.8c-0.4,1-1.2,1.8-2.2,2.2c-0.6,0.2-1.1,0.3-1.7,0.3L158.8,270.7L158.8,270.7z M164.4,266.5
	c0-0.4,0-0.8-0.2-1.1c-0.1-0.3-0.3-0.6-0.5-0.9s-0.5-0.4-0.8-0.6c-0.3-0.1-0.7-0.2-1.1-0.2h-1.4v5.6h1.4c0.4,0,0.7-0.1,1.1-0.2
	c0.3-0.1,0.6-0.3,0.8-0.6c0.2-0.3,0.4-0.6,0.5-0.9C164.4,267.2,164.4,266.8,164.4,266.5z"/>
<path d="M170.2,270.8c-0.5,0-0.9-0.1-1.4-0.2c-0.4-0.2-0.8-0.4-1.1-0.7c-0.3-0.3-0.5-0.6-0.7-1s-0.2-0.8-0.2-1.2
	c0-0.4,0.1-0.9,0.2-1.3c0.2-0.4,0.4-0.7,0.7-1s0.6-0.5,1-0.7s0.9-0.3,1.4-0.3s0.9,0.1,1.4,0.3c0.4,0.2,0.7,0.4,1,0.7
	c0.3,0.3,0.5,0.6,0.7,1c0.1,0.4,0.2,0.8,0.2,1.2v0.3c0,0.1,0,0.2,0,0.2h-4.8c0,0.2,0.1,0.5,0.2,0.7c0.1,0.2,0.2,0.4,0.4,0.5
	s0.3,0.2,0.5,0.3c0.2,0.1,0.4,0.1,0.6,0.1c0.3,0,0.6-0.1,0.9-0.2c0.3-0.1,0.5-0.3,0.6-0.6l1.4,0.4c-0.2,0.5-0.6,0.9-1.1,1.2
	C171.4,270.7,170.8,270.9,170.2,270.8z M171.8,267.1c0-0.4-0.2-0.8-0.5-1.1c-0.3-0.3-0.7-0.4-1.1-0.4c-0.2,0-0.4,0-0.6,0.1
	c-0.2,0.1-0.4,0.2-0.5,0.3c-0.1,0.1-0.3,0.3-0.4,0.5c-0.1,0.2-0.2,0.4-0.2,0.6H171.8z"/>
<path d="M174.4,262h1.6v6.8c0,0.2,0.1,0.4,0.2,0.5c0.1,0.1,0.3,0.2,0.5,0.2c0.1,0,0.2,0,0.3,0s0.2-0.1,0.3-0.1l0.2,1.2
	c-0.2,0.1-0.5,0.2-0.8,0.2s-0.5,0.1-0.8,0.1c-0.4,0-0.8-0.1-1.2-0.4c-0.3-0.3-0.4-0.7-0.4-1.1L174.4,262L174.4,262z"/>
<path d="M178.2,263.6V262h1.6v1.6H178.2z M178.2,270.7v-6.3h1.6v6.3H178.2z"/>
<path d="M183.8,270.8c-0.4,0-0.8-0.1-1.1-0.2c-0.3-0.2-0.6-0.4-0.9-0.7c-0.3-0.3-0.5-0.6-0.6-1s-0.2-0.8-0.2-1.2
	c0-0.4,0.1-0.9,0.2-1.3c0.1-0.4,0.3-0.7,0.6-1s0.6-0.5,0.9-0.7c0.4-0.2,0.8-0.3,1.2-0.2c0.4,0,0.9,0.1,1.3,0.3
	c0.4,0.2,0.7,0.5,0.9,0.9v-1.1h1.4v6c0,0.4-0.1,0.9-0.3,1.2c-0.2,0.4-0.4,0.7-0.7,0.9c-0.3,0.3-0.7,0.5-1.1,0.6
	c-0.5,0.1-0.9,0.2-1.4,0.2c-0.6,0-1.2-0.1-1.7-0.3c-0.5-0.2-0.9-0.6-1.2-1l0.9-0.9c0.2,0.3,0.6,0.5,0.9,0.7c0.6,0.3,1.2,0.3,1.9,0.1
	c0.2-0.1,0.4-0.2,0.6-0.3c0.2-0.2,0.3-0.3,0.4-0.5c0.1-0.3,0.2-0.5,0.1-0.8v-0.8c-0.2,0.4-0.5,0.7-0.9,0.8
	C184.6,270.7,184.2,270.8,183.8,270.8z M184.3,269.5c0.2,0,0.3,0,0.5-0.1s0.3-0.1,0.4-0.2c0.1-0.1,0.3-0.2,0.4-0.3
	c0.1-0.1,0.2-0.3,0.2-0.4V267c-0.1-0.4-0.4-0.7-0.7-0.9c-0.3-0.2-0.6-0.3-1-0.3c-0.2,0-0.5,0-0.7,0.2c-0.2,0.1-0.4,0.3-0.5,0.4
	c-0.2,0.2-0.3,0.4-0.3,0.6c-0.1,0.2-0.1,0.5-0.1,0.7s0,0.5,0.1,0.7s0.2,0.4,0.4,0.6s0.3,0.3,0.6,0.4
	C183.8,269.4,184,269.5,184.3,269.5z"/>
<path d="M191.8,270.8c-0.5,0-0.9-0.1-1.4-0.3c-0.4-0.2-0.7-0.4-1-0.7c-0.3-0.3-0.5-0.6-0.7-1s-0.2-0.8-0.2-1.2
	c0-0.4,0.1-0.9,0.2-1.2c0.2-0.4,0.4-0.7,0.7-1s0.6-0.5,1-0.7s0.9-0.3,1.4-0.3s0.9,0.1,1.4,0.3c0.8,0.3,1.4,1,1.7,1.8
	c0.2,0.4,0.2,0.8,0.2,1.2c0,0.4-0.1,0.8-0.2,1.2c-0.1,0.4-0.4,0.7-0.6,1c-0.3,0.3-0.6,0.5-1,0.7
	C192.8,270.8,192.3,270.9,191.8,270.8z M190.2,267.6c0,0.3,0,0.5,0.1,0.8c0.1,0.2,0.2,0.4,0.3,0.6s0.3,0.3,0.5,0.4
	c0.4,0.2,0.9,0.2,1.3,0c0.2-0.1,0.4-0.2,0.5-0.4c0.2-0.2,0.3-0.4,0.3-0.6c0.2-0.5,0.2-1,0-1.5c-0.1-0.2-0.2-0.4-0.3-0.6
	s-0.3-0.3-0.5-0.4s-0.4-0.1-0.7-0.1c-0.2,0-0.4,0-0.6,0.1c-0.2,0.1-0.4,0.2-0.5,0.4c-0.2,0.2-0.3,0.4-0.3,0.6
	C190.2,267.1,190.2,267.3,190.2,267.6z"/>
<path d="M199.2,270.7v-8.5h5.7v1.4h-4.1v2.2h3.4v1.4h-3.4v3.5H199.2z"/>
<path d="M208.4,270.8c-0.5,0-0.9-0.1-1.4-0.3c-0.4-0.2-0.7-0.4-1-0.7c-0.3-0.3-0.5-0.6-0.7-1c-0.1-0.4-0.2-0.8-0.2-1.2
	c0-0.4,0.1-0.9,0.2-1.2c0.2-0.4,0.4-0.7,0.7-1s0.6-0.5,1-0.7c0.9-0.3,1.9-0.3,2.8,0c0.8,0.3,1.4,1,1.7,1.8c0.1,0.4,0.2,0.8,0.2,1.2
	c0,0.4-0.1,0.8-0.2,1.2c-0.2,0.4-0.4,0.7-0.6,1c-0.3,0.3-0.6,0.5-1,0.7C209.4,270.8,208.9,270.9,208.4,270.8z M206.8,267.6
	c0,0.3,0,0.5,0.1,0.8c0.1,0.2,0.2,0.4,0.3,0.6s0.3,0.3,0.5,0.4c0.6,0.3,1.4,0.1,1.8-0.4c0.1-0.2,0.3-0.4,0.3-0.6
	c0.2-0.5,0.2-1,0-1.5c-0.1-0.2-0.2-0.4-0.3-0.6c-0.2-0.2-0.3-0.3-0.5-0.4s-0.4-0.1-0.6-0.1c-0.2,0-0.4,0-0.7,0.1
	c-0.2,0.1-0.4,0.2-0.5,0.4c-0.2,0.2-0.3,0.4-0.3,0.6C206.8,267.1,206.8,267.3,206.8,267.6z"/>
<path d="M215.7,270.8c-0.5,0-0.9-0.1-1.4-0.3c-0.4-0.2-0.7-0.4-1-0.7c-0.3-0.3-0.5-0.6-0.7-1s-0.2-0.8-0.2-1.2
	c0-0.4,0.1-0.9,0.2-1.2c0.2-0.4,0.4-0.7,0.7-1s0.6-0.5,1-0.7s0.9-0.3,1.4-0.3s0.9,0.1,1.4,0.3c0.4,0.2,0.7,0.4,1,0.7
	c0.3,0.3,0.5,0.6,0.7,1s0.2,0.8,0.2,1.2c0,0.4-0.1,0.8-0.2,1.2c-0.2,0.4-0.4,0.7-0.6,1c-0.3,0.3-0.6,0.5-1,0.7
	C216.7,270.8,216.2,270.9,215.7,270.8z M214.1,267.6c0,0.3,0,0.5,0.1,0.8c0.1,0.2,0.2,0.4,0.4,0.6c0.1,0.2,0.3,0.3,0.5,0.4
	c0.4,0.2,0.9,0.2,1.3,0c0.2-0.1,0.4-0.2,0.5-0.4c0.2-0.2,0.3-0.4,0.4-0.6c0.1-0.2,0.1-0.5,0.1-0.8s0-0.5-0.1-0.8
	c-0.1-0.2-0.2-0.4-0.4-0.6c-0.1-0.2-0.3-0.3-0.5-0.4s-0.4-0.1-0.6-0.1c-0.2,0-0.4,0-0.6,0.1c-0.2,0.1-0.4,0.2-0.5,0.4
	c-0.2,0.2-0.3,0.4-0.3,0.6C214.1,267.1,214.1,267.3,214.1,267.6z"/>
<path d="M222.7,270.8c-0.4,0-0.8-0.1-1.2-0.2c-0.4-0.2-0.7-0.4-1-0.7c-0.3-0.3-0.5-0.6-0.6-1s-0.2-0.8-0.2-1.3
	c0-0.4,0.1-0.9,0.2-1.3c0.1-0.4,0.3-0.7,0.6-1c0.2-0.3,0.5-0.5,0.9-0.7s0.7-0.3,1.1-0.2c0.4,0,0.9,0.1,1.2,0.3
	c0.4,0.2,0.7,0.5,0.9,0.9V262h1.6v6.9c0,0.1,0,0.3,0.1,0.4s0.2,0.1,0.3,0.1v1.4c-0.2,0.1-0.5,0.1-0.7,0.1c-0.3,0-0.5-0.1-0.7-0.2
	s-0.3-0.3-0.3-0.6v-0.4c-0.2,0.4-0.5,0.7-0.9,0.9C223.5,270.8,223.1,270.9,222.7,270.8z M223.1,269.5c0.2,0,0.3,0,0.5-0.1
	s0.3-0.1,0.4-0.2c0.1-0.1,0.3-0.2,0.4-0.3c0.1-0.1,0.2-0.3,0.2-0.4V267c-0.1-0.2-0.2-0.3-0.3-0.5c-0.1-0.1-0.2-0.3-0.4-0.4
	c-0.1-0.1-0.3-0.2-0.5-0.3c-0.2-0.1-0.3-0.1-0.5-0.1s-0.5,0-0.7,0.1s-0.4,0.3-0.5,0.4c-0.2,0.2-0.3,0.4-0.3,0.6
	c-0.1,0.2-0.1,0.5-0.1,0.7s0,0.5,0.1,0.7s0.2,0.4,0.4,0.6s0.3,0.3,0.6,0.4C222.6,269.4,222.9,269.5,223.1,269.5z"/>
<path d="M232.4,270.8c-0.3,0-0.6,0-0.9-0.1c-0.3-0.1-0.5-0.2-0.7-0.4c-0.2-0.2-0.3-0.4-0.4-0.6c-0.1-0.2-0.2-0.5-0.2-0.8
	s0.1-0.6,0.2-0.8c0.1-0.3,0.3-0.5,0.6-0.6c0.3-0.2,0.5-0.3,0.9-0.4s0.7-0.2,1.1-0.1c0.3,0,0.5,0,0.8,0.1c0.2,0,0.5,0.1,0.7,0.2v-0.4
	c0-0.4-0.1-0.7-0.4-1c-0.3-0.2-0.6-0.4-1-0.3c-0.3,0-0.7,0.1-1,0.2c-0.4,0.1-0.7,0.3-1,0.5l-0.5-1c0.8-0.5,1.7-0.8,2.6-0.8
	c0.8,0,1.5,0.2,2.1,0.7c0.5,0.5,0.8,1.2,0.8,1.9v2c0,0.1,0,0.3,0.1,0.4s0.2,0.1,0.3,0.1v1.4c-0.2,0.1-0.5,0.1-0.7,0.1
	c-0.3,0-0.5-0.1-0.7-0.2s-0.3-0.3-0.3-0.5v-0.3c-0.3,0.4-0.6,0.6-1,0.8C233.3,270.8,232.9,270.9,232.4,270.8z M232.9,269.7
	c0.3,0,0.5,0,0.8-0.1c0.2-0.1,0.4-0.2,0.6-0.4c0.2-0.1,0.3-0.3,0.3-0.5V268c-0.2-0.1-0.4-0.1-0.6-0.2c-0.2,0-0.4-0.1-0.6-0.1
	c-0.4,0-0.7,0.1-1,0.3c-0.2,0.2-0.4,0.4-0.4,0.7c0,0.3,0.1,0.5,0.3,0.7C232.3,269.6,232.6,269.7,232.9,269.7L232.9,269.7z"/>
<path d="M241.4,270.8c-0.5,0-0.9-0.1-1.3-0.3c-0.4-0.2-0.7-0.5-0.9-0.9v3.7h-1.6v-8.8h1.4v1.1c0.2-0.4,0.5-0.7,0.9-0.9
	c0.4-0.2,0.8-0.3,1.3-0.3c0.4,0,0.8,0.1,1.2,0.3c0.4,0.2,0.7,0.4,0.9,0.7c0.3,0.3,0.5,0.6,0.6,1s0.2,0.8,0.2,1.3
	c0,0.4-0.1,0.9-0.2,1.3c-0.1,0.4-0.3,0.7-0.6,1c-0.2,0.3-0.5,0.5-0.9,0.7C242.1,270.7,241.7,270.8,241.4,270.8z M240.8,269.5
	c0.2,0,0.5-0.1,0.7-0.2s0.4-0.2,0.5-0.4c0.1-0.2,0.3-0.4,0.3-0.6c0.1-0.2,0.1-0.5,0.1-0.7c0-0.3,0-0.5-0.1-0.7s-0.2-0.4-0.4-0.6
	s-0.3-0.3-0.6-0.4c-0.2-0.1-0.5-0.1-0.7-0.1s-0.3,0-0.5,0.1s-0.3,0.1-0.4,0.2c-0.1,0.1-0.3,0.2-0.4,0.3c-0.1,0.1-0.2,0.3-0.2,0.4
	v1.5c0.1,0.3,0.4,0.7,0.7,0.9C240.1,269.3,240.5,269.5,240.8,269.5L240.8,269.5z"/>
<path d="M249,270.8c-0.5,0-0.9-0.1-1.3-0.3c-0.4-0.2-0.7-0.5-0.9-0.9v3.7h-1.6v-8.8h1.4v1.1c0.2-0.4,0.5-0.7,0.9-0.9
	c0.4-0.2,0.8-0.3,1.3-0.3c0.4,0,0.8,0.1,1.2,0.3c0.4,0.2,0.7,0.4,0.9,0.7c0.3,0.3,0.5,0.6,0.6,1c0.2,0.4,0.2,0.8,0.2,1.3
	c0,0.4-0.1,0.9-0.2,1.3c-0.1,0.4-0.3,0.7-0.6,1c-0.2,0.3-0.5,0.5-0.9,0.7C249.7,270.7,249.3,270.8,249,270.8z M248.4,269.5
	c0.2,0,0.5-0.1,0.7-0.2s0.4-0.2,0.5-0.4c0.1-0.2,0.3-0.4,0.3-0.6c0.1-0.2,0.1-0.5,0.1-0.7c0-0.3,0-0.5-0.1-0.7s-0.2-0.4-0.4-0.6
	c-0.3-0.4-0.8-0.5-1.2-0.5c-0.2,0-0.3,0-0.5,0.1s-0.3,0.1-0.4,0.2c-0.1,0.1-0.3,0.2-0.4,0.3c-0.1,0.1-0.2,0.3-0.2,0.4v1.5
	c0.1,0.4,0.4,0.7,0.7,0.9C247.7,269.4,248.1,269.5,248.4,269.5L248.4,269.5z"/>
<image style="overflow:visible;enable-background:new    ;" width="1600" height="1600" xlink:href="../../../../Downloads/food.jpeg"  transform="matrix(0.1095 0 0 0.1095 75.6091 61.5157)">
</image>
<path d="M252.8,270.7V269h1.3v1.7H252.8z"/>
<rect x="38.6" y="39.5" class="st3" width="249.2" height="18.4"/>
<text transform="matrix(1 0 0 1 39.619 54.7202)" class="st1 st2">Get the DeliGo Food App</text>
</svg>
