<?xml version="1.0" encoding="utf-8"?>
<!-- Generator: Adobe Illustrator 26.0.1, SVG Export Plug-In . SVG Version: 6.00 Build 0)  -->
<svg version="1.1" id="Layer_1" xmlns="http://www.w3.org/2000/svg" xmlns:xlink="http://www.w3.org/1999/xlink" x="0px" y="0px"
	 viewBox="0 0 316.3 302.3" style="enable-background:new 0 0 316.3 302.3;" xml:space="preserve">
<style type="text/css">
	.st0{fill:#FFFFFF;}
	.st1{font-family:'Raleway-Bold';}
	.st2{font-size:20.87px;}
	.st3{fill:none;}
</style>
<path class="st0" d="M12,0h292.3c6.6,0,12,5.4,12,12v278.3c0,6.6-5.4,12-12,12H12c-6.6,0-12-5.4-12-12V12C0,5.4,5.4,0,12,0z"/>
<image style="overflow:visible;enable-background:new    ;" width="1600" height="1600" xlink:href="../../../../Downloads/rider.jpeg"  transform="matrix(0.1215 0 0 0.1215 63.0302 53.9452)">
</image>
<text transform="matrix(1 0 0 1 237.21 53.39)" class="st1 st2"> </text>
<path d="M42.1,250c-0.1-0.1-0.2-0.2-0.3-0.2c-0.2-0.1-0.4-0.2-0.5-0.3c-0.2-0.1-0.5-0.2-0.7-0.2c-0.2-0.1-0.5-0.1-0.8-0.1
	c-0.4,0-0.7,0.1-1,0.2c-0.2,0.2-0.3,0.4-0.3,0.7c0,0.2,0,0.3,0.1,0.4c0.1,0.1,0.2,0.2,0.4,0.3s0.4,0.2,0.6,0.2l0.8,0.2
	c0.4,0.1,0.8,0.2,1.1,0.4c0.3,0.1,0.6,0.3,0.9,0.5c0.2,0.2,0.4,0.4,0.5,0.7s0.2,0.7,0.2,1c0,0.4-0.1,0.8-0.3,1.2
	c-0.2,0.3-0.4,0.6-0.7,0.8s-0.6,0.4-1,0.4c-0.4,0.1-0.8,0.1-1.2,0.1c-0.6,0-1.3-0.1-1.9-0.3c-0.6-0.2-1.2-0.4-1.7-0.8l0.7-1.4
	c0.1,0.1,0.3,0.2,0.4,0.3c0.2,0.1,0.4,0.2,0.7,0.4c0.3,0.1,0.6,0.2,0.9,0.3c0.3,0.1,0.7,0.1,1,0.1c0.9,0,1.4-0.3,1.4-0.9
	c0-0.2,0-0.3-0.2-0.5c-0.1-0.1-0.3-0.3-0.5-0.3c-0.2-0.1-0.5-0.2-0.7-0.3l-0.9-0.3c-0.4-0.1-0.7-0.2-1.1-0.4
	c-0.3-0.1-0.5-0.3-0.8-0.5c-0.2-0.2-0.3-0.4-0.5-0.6c-0.1-0.3-0.2-0.6-0.2-0.9c0-0.4,0.1-0.8,0.2-1.1c0.2-0.3,0.4-0.6,0.7-0.8
	s0.6-0.4,1-0.5s0.8-0.2,1.2-0.2c0.6,0,1.1,0.1,1.7,0.3c0.5,0.2,0.9,0.4,1.3,0.7L42.1,250z"/>
<path d="M43.8,253.2c0-0.4,0.1-0.9,0.2-1.2c0.2-0.4,0.4-0.7,0.7-1s0.6-0.5,1-0.7s0.9-0.3,1.4-0.3c0.6,0,1.2,0.1,1.8,0.4
	c0.5,0.3,0.8,0.7,1.1,1.2l-1.6,0.5c-0.1-0.2-0.3-0.4-0.5-0.5s-0.5-0.2-0.8-0.2c-0.2,0-0.4,0-0.6,0.1c-0.2,0.1-0.4,0.2-0.5,0.4
	c-0.2,0.2-0.3,0.4-0.3,0.6c-0.1,0.2-0.1,0.5-0.1,0.8s0,0.5,0.1,0.8c0.1,0.2,0.2,0.4,0.4,0.6c0.1,0.2,0.3,0.3,0.5,0.4
	c0.2,0.1,0.4,0.1,0.6,0.1c0.3,0,0.6-0.1,0.8-0.2c0.2-0.1,0.4-0.3,0.5-0.5l1.6,0.5c-0.2,0.5-0.6,0.9-1.1,1.2
	c-0.5,0.3-1.2,0.5-1.8,0.4c-0.5,0-0.9-0.1-1.4-0.3c-0.4-0.2-0.8-0.4-1-0.7c-0.3-0.3-0.5-0.6-0.7-1C43.9,254.1,43.8,253.6,43.8,253.2
	z"/>
<path d="M52.7,256.4c-0.3,0-0.6,0-0.8-0.1c-0.3-0.1-0.5-0.2-0.7-0.4c-0.2-0.2-0.3-0.4-0.5-0.6c-0.1-0.2-0.2-0.5-0.2-0.8
	s0.1-0.6,0.2-0.8c0.1-0.3,0.3-0.5,0.6-0.6c0.3-0.2,0.5-0.3,0.8-0.4c0.4-0.1,0.7-0.2,1.1-0.1c0.3,0,0.5,0,0.8,0.1
	c0.2,0,0.5,0.1,0.7,0.2v-0.4c0-0.4-0.1-0.7-0.4-1c-0.3-0.2-0.7-0.4-1-0.3c-0.3,0-0.7,0.1-1,0.2c-0.4,0.1-0.7,0.3-1,0.5l-0.5-1
	c0.8-0.5,1.7-0.8,2.6-0.8c0.8,0,1.5,0.2,2.1,0.7c0.5,0.5,0.8,1.2,0.8,1.9v2c0,0.1,0,0.3,0.1,0.4c0.1,0.1,0.2,0.1,0.3,0.1v1.4
	c-0.2,0.1-0.5,0.1-0.7,0.1c-0.3,0-0.5-0.1-0.7-0.2S55,256.2,55,256v-0.3c-0.3,0.4-0.6,0.6-1,0.8C53.6,256.4,53.2,256.5,52.7,256.4z
	 M53.2,255.3c0.3,0,0.5,0,0.8-0.1c0.2-0.1,0.4-0.2,0.6-0.4c0.2-0.1,0.3-0.3,0.3-0.5v-0.7c-0.2-0.1-0.4-0.1-0.6-0.2
	c-0.2,0-0.4-0.1-0.6-0.1c-0.4,0-0.7,0.1-1,0.3c-0.2,0.1-0.4,0.4-0.4,0.7s0.1,0.5,0.3,0.7C52.6,255.2,52.9,255.3,53.2,255.3z"/>
<path d="M63.7,256.3h-1.6v-3.5c0-0.4-0.1-0.8-0.3-1.1c-0.2-0.2-0.4-0.4-0.7-0.4c-0.2,0-0.3,0-0.5,0.1s-0.3,0.2-0.5,0.3
	s-0.3,0.3-0.4,0.4c-0.1,0.2-0.2,0.3-0.3,0.5v3.7h-1.6V250h1.5v1.2c0.2-0.4,0.6-0.7,1-0.9c0.5-0.2,1-0.3,1.5-0.3c0.3,0,0.7,0.1,1,0.2
	c0.2,0.1,0.4,0.3,0.6,0.6c0.1,0.2,0.2,0.5,0.3,0.8s0.1,0.6,0.1,0.9L63.7,256.3z"/>
<path d="M71.8,256c-0.3,0.1-0.5,0.2-0.8,0.3c-0.3,0.1-0.7,0.1-1,0.1c-0.2,0-0.4,0-0.6-0.1s-0.4-0.1-0.5-0.3
	c-0.2-0.1-0.3-0.3-0.3-0.5c-0.1-0.2-0.1-0.5-0.1-0.7v-3.6h-0.8V250h0.8v-2H70v2h1.3v1.2H70v3.1c0,0.2,0,0.4,0.2,0.5
	c0.1,0.1,0.3,0.1,0.4,0.1c0.2,0,0.3,0,0.5-0.1l0.4-0.1L71.8,256z"/>
<path d="M78.5,256.3h-1.6v-3.5c0-0.4-0.1-0.8-0.3-1.1c-0.2-0.2-0.5-0.4-0.8-0.4c-0.2,0-0.3,0-0.5,0.1s-0.3,0.2-0.5,0.3
	c-0.1,0.1-0.3,0.3-0.4,0.4c-0.1,0.2-0.2,0.3-0.3,0.5v3.7h-1.6v-8.8h1.6v3.6c0.2-0.4,0.5-0.7,0.9-0.9s0.9-0.3,1.3-0.3
	c0.3,0,0.7,0.1,1,0.2c0.2,0.1,0.5,0.3,0.6,0.6c0.2,0.2,0.3,0.5,0.3,0.8c0.1,0.3,0.1,0.6,0.1,0.9L78.5,256.3z"/>
<path d="M82.8,256.4c-0.5,0-0.9-0.1-1.4-0.2c-0.4-0.2-0.7-0.4-1-0.7s-0.5-0.6-0.7-1s-0.2-0.8-0.2-1.2s0.1-0.9,0.2-1.3
	c0.2-0.4,0.4-0.7,0.7-1c0.3-0.3,0.6-0.5,1-0.7s0.9-0.3,1.4-0.3s0.9,0.1,1.4,0.3c0.4,0.2,0.7,0.4,1,0.7s0.5,0.6,0.7,1
	c0.1,0.4,0.2,0.8,0.2,1.2v0.3v0.2h-4.9c0,0.2,0.1,0.5,0.2,0.7s0.2,0.4,0.4,0.5c0.2,0.1,0.3,0.2,0.5,0.3s0.4,0.1,0.6,0.1
	c0.3,0,0.6-0.1,0.9-0.2c0.3-0.1,0.5-0.3,0.6-0.6l1.4,0.4c-0.2,0.5-0.6,0.9-1.1,1.2C84,256.3,83.4,256.5,82.8,256.4z M84.4,252.7
	c0-0.4-0.2-0.8-0.5-1.1s-0.7-0.4-1.1-0.4c-0.2,0-0.4,0-0.6,0.1s-0.4,0.2-0.5,0.3s-0.3,0.3-0.3,0.5c-0.1,0.2-0.2,0.4-0.2,0.6
	L84.4,252.7L84.4,252.7z"/>
<path d="M95.9,255.8c-0.3,0.2-0.6,0.3-1,0.4s-0.8,0.2-1.2,0.2c-0.6,0-1.2-0.1-1.7-0.4c-1.5-0.8-2.5-2.3-2.5-4c0-0.6,0.1-1.1,0.3-1.6
	c0.2-0.5,0.5-1,0.9-1.4s0.8-0.8,1.3-1s1.1-0.4,1.7-0.4s1.2,0.1,1.7,0.4c0.5,0.2,0.9,0.6,1.3,1s0.6,0.9,0.8,1.4c0.4,1,0.4,2.1,0,3.2
	c-0.2,0.5-0.5,1-0.8,1.4l1.2,1.3h-1.6L95.9,255.8z M93.7,254.9c0.2,0,0.4,0,0.6-0.1c0.2,0,0.4-0.1,0.5-0.2l-1.3-1.5h1.6l0.6,0.7
	c0.2-0.3,0.3-0.5,0.4-0.8s0.1-0.6,0.1-0.9c0-0.4-0.1-0.7-0.2-1.1c-0.1-0.3-0.3-0.6-0.5-0.9c-0.2-0.3-0.5-0.5-0.8-0.6
	c-0.3-0.2-0.7-0.2-1-0.2c-0.4,0-0.7,0.1-1.1,0.2c-0.3,0.2-0.6,0.4-0.8,0.7c-0.2,0.3-0.4,0.6-0.5,0.9c-0.1,0.3-0.2,0.7-0.2,1
	c0,0.4,0.1,0.7,0.2,1.1c0.1,0.3,0.3,0.6,0.5,0.9c0.2,0.3,0.5,0.5,0.8,0.6C93,254.8,93.4,254.9,93.7,254.9L93.7,254.9z"/>
<path d="M99.2,256.3v-8.5h3.8c0.4,0,0.8,0.1,1.1,0.2c0.3,0.2,0.6,0.4,0.9,0.6c0.2,0.3,0.4,0.6,0.6,0.9c0.1,0.3,0.2,0.7,0.2,1
	c0,0.5-0.1,1-0.4,1.5c-0.3,0.4-0.7,0.8-1.1,1l1.9,3.2h-1.9l-1.7-2.9H101v2.9L99.2,256.3z M100.8,252h2.1c0.1,0,0.3,0,0.4-0.1
	s0.3-0.2,0.3-0.3c0.1-0.1,0.2-0.3,0.2-0.4c0.1-0.2,0.1-0.4,0.1-0.5c0-0.2,0-0.4-0.1-0.6c-0.1-0.2-0.1-0.3-0.3-0.4
	c-0.1-0.1-0.2-0.2-0.4-0.3c-0.1-0.1-0.3-0.1-0.4-0.1h-2v2.7L100.8,252L100.8,252z"/>
<path d="M109.5,253.2c0-0.4,0.1-0.9,0.2-1.2c0.2-0.4,0.4-0.7,0.7-1c0.3-0.3,0.6-0.5,1-0.7s0.9-0.3,1.4-0.3c0.6,0,1.2,0.1,1.8,0.4
	c0.5,0.3,0.8,0.7,1.1,1.2l-1.6,0.5c-0.1-0.2-0.3-0.4-0.5-0.5s-0.5-0.2-0.7-0.2s-0.4,0-0.7,0.1c-0.2,0.1-0.4,0.2-0.5,0.4
	c-0.2,0.2-0.3,0.4-0.4,0.6c-0.1,0.2-0.1,0.5-0.1,0.8s0,0.5,0.1,0.8c0.1,0.2,0.2,0.4,0.3,0.6c0.1,0.2,0.3,0.3,0.5,0.4
	c0.2,0.1,0.4,0.1,0.6,0.1c0.3,0,0.6-0.1,0.8-0.2c0.2-0.1,0.4-0.3,0.5-0.5l1.6,0.5c-0.2,0.5-0.6,0.9-1.1,1.2
	c-0.5,0.3-1.2,0.5-1.8,0.4c-0.5,0-0.9-0.1-1.4-0.3c-0.4-0.2-0.7-0.4-1-0.7s-0.5-0.6-0.7-1C109.5,254.1,109.4,253.6,109.5,253.2z"/>
<path d="M119.5,256.4c-0.5,0-0.9-0.1-1.4-0.3c-0.4-0.2-0.7-0.4-1-0.7s-0.5-0.6-0.7-1s-0.2-0.8-0.2-1.2s0.1-0.9,0.2-1.2
	c0.2-0.4,0.4-0.7,0.7-1c0.3-0.3,0.6-0.5,1-0.7s0.9-0.3,1.4-0.3s0.9,0.1,1.4,0.3c0.4,0.2,0.7,0.4,1,0.7s0.5,0.6,0.7,1
	s0.2,0.8,0.2,1.2s-0.1,0.8-0.2,1.2c-0.2,0.4-0.4,0.7-0.7,1c-0.3,0.3-0.6,0.5-1,0.7C120.4,256.4,119.9,256.5,119.5,256.4z
	 M117.8,253.2c0,0.3,0,0.5,0.1,0.8c0.1,0.2,0.2,0.4,0.3,0.6c0.1,0.2,0.3,0.3,0.5,0.4c0.4,0.2,0.9,0.2,1.3,0c0.2-0.1,0.4-0.2,0.5-0.4
	c0.2-0.2,0.3-0.4,0.4-0.6c0.1-0.2,0.1-0.5,0.1-0.8s0-0.5-0.1-0.8c-0.1-0.2-0.2-0.4-0.4-0.6c-0.1-0.2-0.3-0.3-0.5-0.4
	c-0.2-0.1-0.4-0.1-0.7-0.1c-0.2,0-0.4,0-0.7,0.1c-0.2,0.1-0.4,0.2-0.5,0.4c-0.2,0.2-0.3,0.4-0.4,0.6
	C117.9,252.7,117.8,252.9,117.8,253.2z"/>
<path d="M126.4,256.4c-0.4,0-0.8-0.1-1.2-0.2c-0.4-0.2-0.7-0.4-1-0.7s-0.5-0.6-0.6-1s-0.2-0.8-0.2-1.3c0-0.4,0.1-0.9,0.2-1.3
	c0.1-0.4,0.3-0.7,0.6-1c0.2-0.3,0.5-0.5,0.9-0.7s0.7-0.3,1.1-0.2c0.4,0,0.9,0.1,1.3,0.3s0.7,0.5,0.9,0.9v-3.6h1.6v6.9
	c0,0.1,0,0.3,0.1,0.4c0.1,0.1,0.2,0.1,0.3,0.1v1.4c-0.2,0.1-0.5,0.1-0.7,0.1c-0.3,0-0.5-0.1-0.7-0.2s-0.3-0.3-0.3-0.6v-0.4
	c-0.2,0.4-0.5,0.7-0.9,0.9C127.3,256.4,126.9,256.5,126.4,256.4z M126.9,255.1c0.2,0,0.3,0,0.5-0.1s0.3-0.1,0.4-0.2
	c0.1-0.1,0.3-0.2,0.4-0.3c0.1-0.1,0.2-0.3,0.2-0.4v-1.5c-0.1-0.2-0.2-0.3-0.3-0.5c-0.1-0.1-0.2-0.3-0.4-0.4
	c-0.1-0.1-0.3-0.2-0.5-0.3s-0.3-0.1-0.5-0.1s-0.5,0-0.7,0.1s-0.4,0.3-0.5,0.4c-0.2,0.2-0.3,0.4-0.3,0.6c-0.1,0.2-0.1,0.5-0.1,0.7
	s0,0.5,0.1,0.7s0.2,0.4,0.4,0.6c0.2,0.2,0.3,0.3,0.6,0.4C126.4,255,126.6,255.1,126.9,255.1z"/>
<path d="M134.5,256.4c-0.5,0-0.9-0.1-1.4-0.2c-0.4-0.2-0.7-0.4-1-0.7s-0.5-0.6-0.7-1s-0.2-0.8-0.2-1.2s0.1-0.9,0.2-1.3
	c0.2-0.4,0.4-0.7,0.7-1s0.6-0.5,1-0.7s0.9-0.3,1.4-0.3s0.9,0.1,1.4,0.3c0.8,0.3,1.4,1,1.7,1.7c0.1,0.4,0.2,0.8,0.2,1.2
	c0,0.1,0,0.2,0,0.3s0,0.2,0,0.2h-4.9c0,0.2,0.1,0.5,0.2,0.7c0.2,0.4,0.5,0.7,0.9,0.8c0.2,0.1,0.4,0.1,0.6,0.1c0.3,0,0.6-0.1,0.9-0.2
	c0.3-0.1,0.5-0.3,0.6-0.6l1.4,0.4c-0.2,0.5-0.6,0.8-1.1,1.1C135.8,256.3,135.1,256.5,134.5,256.4z M136.1,252.7
	c0-0.4-0.2-0.8-0.5-1.1s-0.7-0.4-1.1-0.4c-0.2,0-0.4,0-0.6,0.1c-0.2,0.1-0.3,0.2-0.5,0.3s-0.3,0.3-0.4,0.5c-0.1,0.2-0.1,0.4-0.2,0.6
	L136.1,252.7L136.1,252.7z"/>
<path d="M149.1,250h1.5l-2.6,6.3h-1.3l-1.1-2.8l-1.1,2.8h-1.3l-2.6-6.3h1.5l1.9,4.8l0.8-2l-1.1-2.7h1.3l0.7,1.9l0.7-1.9h1.3
	l-1.1,2.7l0.8,2L149.1,250z"/>
<path d="M151.4,249.2v-1.6h1.6v1.6H151.4z M151.4,256.3V250h1.6v6.3H151.4z"/>
<path d="M158.2,256c-0.3,0.1-0.5,0.2-0.8,0.3c-0.3,0.1-0.7,0.1-1,0.1c-0.2,0-0.4,0-0.6-0.1c-0.2-0.1-0.4-0.1-0.5-0.3
	c-0.2-0.1-0.3-0.3-0.4-0.5c-0.1-0.2-0.1-0.5-0.1-0.7v-3.6H154V250h0.8v-2h1.6v2h1.3v1.2h-1.3v3.1c0,0.2,0,0.4,0.2,0.5
	c0.1,0.1,0.3,0.1,0.4,0.1c0.2,0,0.3,0,0.5-0.1l0.4-0.1L158.2,256z"/>
<path d="M164.9,256.3h-1.6v-3.5c0-0.4-0.1-0.8-0.3-1.1c-0.2-0.2-0.5-0.4-0.8-0.4c-0.2,0-0.3,0-0.5,0.1s-0.3,0.2-0.5,0.3
	c-0.1,0.1-0.3,0.3-0.4,0.4c-0.1,0.2-0.2,0.3-0.3,0.5v3.7h-1.6v-8.8h1.6v3.6c0.2-0.4,0.6-0.7,1-0.9s0.9-0.3,1.3-0.3
	c0.3,0,0.7,0.1,1,0.2c0.2,0.1,0.5,0.3,0.6,0.6c0.1,0.2,0.2,0.5,0.3,0.8s0.1,0.6,0.1,0.9L164.9,256.3z"/>
<path d="M169,257.5l0.4,0.1h0.3c0.1,0,0.2,0,0.3-0.1c0.1,0,0.2-0.1,0.2-0.2c0.1-0.1,0.2-0.3,0.2-0.4c0.1-0.2,0.2-0.4,0.2-0.7
	l-2.5-6.3h1.7l1.7,4.9l1.5-4.9h1.5l-2.6,7.5c-0.1,0.4-0.4,0.8-0.8,1.1c-0.4,0.3-0.9,0.4-1.4,0.4h-0.4c-0.1,0-0.3-0.1-0.4-0.1v-1.3
	L169,257.5L169,257.5z"/>
<path d="M178.1,256.4c-0.5,0-0.9-0.1-1.4-0.3c-0.4-0.2-0.7-0.4-1-0.7s-0.5-0.6-0.7-1c-0.1-0.4-0.2-0.8-0.2-1.2s0.1-0.9,0.2-1.2
	c0.2-0.4,0.4-0.7,0.7-1s0.6-0.5,1-0.7c0.9-0.3,1.9-0.3,2.8,0c0.8,0.3,1.4,1,1.7,1.8c0.1,0.4,0.2,0.8,0.2,1.2s-0.1,0.8-0.2,1.2
	c-0.2,0.4-0.4,0.7-0.7,1s-0.6,0.5-1,0.7C179.1,256.4,178.6,256.5,178.1,256.4z M176.5,253.2c0,0.3,0,0.5,0.1,0.8
	c0.1,0.2,0.2,0.4,0.4,0.6c0.1,0.2,0.3,0.3,0.5,0.4c0.6,0.3,1.4,0.1,1.9-0.4c0.1-0.2,0.3-0.4,0.3-0.6c0.2-0.5,0.2-1,0-1.5
	c-0.1-0.2-0.2-0.4-0.3-0.6c-0.2-0.2-0.3-0.3-0.5-0.4c-0.2-0.1-0.4-0.1-0.6-0.1c-0.2,0-0.4,0-0.6,0.1c-0.2,0.1-0.4,0.2-0.5,0.4
	c-0.2,0.2-0.3,0.4-0.3,0.6C176.6,252.7,176.5,252.9,176.5,253.2z"/>
<path d="M184.4,256.4c-0.6,0-1.1-0.2-1.5-0.6c-0.4-0.5-0.6-1.2-0.5-1.9V250h1.6v3.6c0,1,0.4,1.5,1,1.5c0.3,0,0.6-0.1,0.9-0.3
	c0.3-0.2,0.6-0.5,0.7-0.9V250h1.7v4.4c0,0.1,0,0.3,0.1,0.4c0.1,0.1,0.2,0.1,0.3,0.1v1.4c-0.1,0-0.3,0.1-0.4,0.1H188
	c-0.2,0-0.5-0.1-0.7-0.2s-0.3-0.3-0.3-0.6v-0.5c-0.3,0.4-0.6,0.8-1.1,1C185.5,256.4,184.9,256.5,184.4,256.4z"/>
<path d="M193.7,251.4c-0.4,0-0.9,0.1-1.3,0.3c-0.4,0.2-0.7,0.4-0.8,0.8v3.8H190V250h1.4v1.3c0.1-0.2,0.2-0.4,0.4-0.6
	c0.1-0.2,0.3-0.3,0.5-0.4c0.2-0.1,0.3-0.2,0.5-0.3s0.3-0.1,0.5-0.1h0.3L193.7,251.4z"/>
<path d="M200.9,256.4c-0.5,0-0.9-0.1-1.3-0.3c-0.4-0.2-0.7-0.5-0.9-0.9v3.7h-1.6V250h1.4v1.1c0.2-0.4,0.5-0.7,0.9-0.9
	s0.8-0.3,1.3-0.3c0.4,0,0.8,0.1,1.2,0.3s0.7,0.4,0.9,0.7c0.3,0.3,0.5,0.6,0.6,1s0.2,0.8,0.2,1.3c0,0.4-0.1,0.9-0.2,1.3
	c-0.1,0.4-0.3,0.7-0.6,1c-0.2,0.3-0.5,0.5-0.9,0.7C201.7,256.3,201.3,256.4,200.9,256.4z M200.4,255.1c0.5,0,0.9-0.2,1.2-0.6
	c0.1-0.2,0.3-0.4,0.3-0.6c0.1-0.2,0.1-0.5,0.1-0.7c0-0.3,0-0.5-0.1-0.7s-0.2-0.4-0.4-0.6c-0.2-0.2-0.3-0.3-0.6-0.4
	c-0.4-0.2-0.8-0.2-1.2-0.1c-0.2,0.1-0.3,0.1-0.4,0.2c-0.1,0.1-0.3,0.2-0.4,0.3c-0.1,0.1-0.2,0.3-0.2,0.4v1.5
	c0.1,0.3,0.4,0.7,0.7,0.9C199.7,254.9,200,255.1,200.4,255.1L200.4,255.1z"/>
<path d="M210.6,256.3H209v-3.5c0-0.4-0.1-0.8-0.3-1.1c-0.2-0.2-0.5-0.4-0.8-0.4c-0.2,0-0.3,0-0.4,0.1c-0.2,0.1-0.3,0.2-0.5,0.3
	c-0.1,0.1-0.3,0.3-0.4,0.4c-0.1,0.2-0.2,0.3-0.3,0.5v3.7h-1.6v-8.8h1.6v3.6c0.2-0.4,0.5-0.7,0.9-0.9s0.9-0.3,1.3-0.3
	c0.3,0,0.7,0.1,1,0.2c0.2,0.1,0.5,0.3,0.6,0.6c0.2,0.2,0.3,0.5,0.3,0.8c0.1,0.3,0.1,0.6,0.1,0.9L210.6,256.3L210.6,256.3z"/>
<path d="M214.9,256.4c-0.5,0-0.9-0.1-1.4-0.3c-0.4-0.2-0.7-0.4-1-0.7s-0.5-0.6-0.7-1c-0.1-0.4-0.2-0.8-0.2-1.2s0.1-0.9,0.2-1.2
	c0.2-0.4,0.4-0.7,0.7-1s0.6-0.5,1-0.7c0.9-0.3,1.9-0.3,2.7,0s1.4,1,1.7,1.8c0.1,0.4,0.2,0.8,0.2,1.2s-0.1,0.8-0.2,1.2
	c-0.2,0.4-0.4,0.7-0.6,1c-0.3,0.3-0.6,0.5-1,0.7C215.9,256.4,215.4,256.5,214.9,256.4z M213.3,253.2c0,0.3,0,0.5,0.1,0.8
	c0.1,0.2,0.2,0.4,0.4,0.6c0.1,0.2,0.3,0.3,0.5,0.4c0.6,0.3,1.4,0.1,1.8-0.4c0.1-0.2,0.3-0.4,0.3-0.6c0.2-0.5,0.2-1,0-1.5
	c-0.1-0.2-0.2-0.4-0.3-0.6c-0.2-0.2-0.3-0.3-0.5-0.4c-0.2-0.1-0.4-0.1-0.6-0.1c-0.2,0-0.4,0-0.7,0.1c-0.2,0.1-0.4,0.2-0.5,0.4
	c-0.2,0.2-0.3,0.4-0.4,0.6C213.3,252.7,213.3,252.9,213.3,253.2z"/>
<path d="M225.1,256.3h-1.6v-3.5c0-0.4-0.1-0.8-0.3-1.1c-0.2-0.2-0.5-0.4-0.7-0.4s-0.3,0-0.5,0.1s-0.3,0.2-0.5,0.3s-0.3,0.3-0.4,0.4
	c-0.1,0.2-0.2,0.3-0.3,0.5v3.7h-1.6V250h1.5v1.2c0.2-0.4,0.6-0.7,1-0.9c0.5-0.2,1-0.3,1.5-0.3c0.3,0,0.7,0.1,1,0.2
	c0.2,0.1,0.4,0.3,0.6,0.6c0.1,0.2,0.2,0.5,0.3,0.8s0.1,0.6,0.1,0.9L225.1,256.3z"/>
<path d="M229.4,256.4c-0.5,0-0.9-0.1-1.4-0.2c-0.8-0.3-1.4-1-1.7-1.7c-0.2-0.4-0.2-0.8-0.2-1.2s0.1-0.9,0.2-1.3
	c0.3-0.8,0.9-1.4,1.7-1.8c0.4-0.2,0.9-0.3,1.4-0.3s0.9,0.1,1.4,0.3c0.4,0.2,0.7,0.4,1,0.7s0.5,0.6,0.6,1c0.2,0.4,0.2,0.8,0.2,1.2
	c0,0.1,0,0.2,0,0.3s0,0.2,0,0.2h-4.9c0,0.4,0.2,0.9,0.6,1.1c0.3,0.3,0.7,0.4,1.1,0.4c0.3,0,0.6-0.1,0.9-0.2c0.3-0.1,0.5-0.3,0.6-0.6
	l1.4,0.4c-0.3,0.5-0.6,0.9-1.1,1.2C230.7,256.3,230.1,256.4,229.4,256.4z M231.1,252.7c0-0.4-0.2-0.8-0.5-1.1s-0.7-0.4-1.1-0.4
	c-0.2,0-0.4,0-0.6,0.1c-0.2,0.1-0.4,0.2-0.5,0.3s-0.3,0.3-0.4,0.5c-0.1,0.2-0.1,0.4-0.2,0.6L231.1,252.7L231.1,252.7z"/>
<path d="M236.2,253.2c0-0.4,0.1-0.9,0.2-1.2c0.2-0.4,0.4-0.7,0.7-1s0.7-0.5,1.1-0.7c0.4-0.2,0.9-0.3,1.4-0.3c0.6,0,1.2,0.1,1.8,0.4
	c0.5,0.3,0.8,0.7,1.1,1.2l-1.6,0.5c-0.1-0.2-0.3-0.4-0.5-0.5s-0.5-0.2-0.8-0.2c-0.2,0-0.4,0-0.6,0.1c-0.2,0.1-0.4,0.2-0.5,0.4
	c-0.2,0.2-0.3,0.4-0.3,0.6c-0.2,0.5-0.2,1,0,1.5c0.1,0.2,0.2,0.4,0.4,0.6c0.1,0.2,0.3,0.3,0.5,0.4c0.2,0.1,0.4,0.1,0.6,0.1
	c0.3,0,0.6-0.1,0.8-0.2c0.2-0.1,0.4-0.3,0.5-0.5l1.6,0.5c-0.2,0.5-0.6,0.9-1.1,1.2c-1,0.5-2.1,0.6-3.2,0.2c-0.4-0.2-0.7-0.4-1-0.7
	s-0.5-0.6-0.7-1C236.3,254.1,236.2,253.6,236.2,253.2z"/>
<path d="M245.1,256.4c-0.3,0-0.6,0-0.9-0.1c-0.3-0.1-0.5-0.2-0.7-0.4c-0.2-0.2-0.3-0.4-0.4-0.6c-0.1-0.2-0.2-0.5-0.2-0.8
	s0.1-0.6,0.2-0.8c0.1-0.3,0.3-0.5,0.6-0.6c0.3-0.2,0.5-0.3,0.8-0.4c0.4-0.1,0.7-0.2,1.1-0.1c0.3,0,0.5,0,0.8,0.1
	c0.2,0,0.5,0.1,0.7,0.2v-0.4c0-0.4-0.1-0.7-0.4-1c-0.3-0.2-0.7-0.4-1.1-0.3c-0.3,0-0.7,0.1-1,0.2c-0.4,0.1-0.7,0.3-1,0.5l-0.5-1
	c0.8-0.5,1.7-0.8,2.6-0.8c0.8,0,1.5,0.2,2.1,0.7c0.5,0.5,0.8,1.2,0.8,1.9v2c0,0.1,0,0.3,0.1,0.4c0.1,0.1,0.2,0.1,0.3,0.1v1.4
	c-0.2,0.1-0.5,0.1-0.7,0.1c-0.3,0-0.5-0.1-0.7-0.2s-0.3-0.3-0.3-0.5v-0.3C246.8,256.1,246,256.5,245.1,256.4L245.1,256.4z
	 M245.5,255.3c0.3,0,0.5,0,0.8-0.1c0.2-0.1,0.4-0.2,0.6-0.4c0.2-0.1,0.3-0.3,0.3-0.5v-0.7c-0.2-0.1-0.4-0.1-0.6-0.2
	c-0.2,0-0.4-0.1-0.6-0.1c-0.4,0-0.7,0.1-1,0.3c-0.2,0.1-0.4,0.4-0.4,0.7s0.1,0.5,0.3,0.7C245,255.2,245.3,255.3,245.5,255.3
	L245.5,255.3z"/>
<path d="M260,256.3h-1.6v-3.5c0-0.4-0.1-0.8-0.3-1.1c-0.2-0.2-0.4-0.4-0.7-0.4c-0.3,0-0.7,0.1-0.9,0.4c-0.3,0.3-0.5,0.6-0.6,0.9v3.7
	h-1.6v-3.5c0-0.4-0.1-0.8-0.3-1.1c-0.2-0.2-0.4-0.4-0.7-0.4s-0.6,0.1-0.9,0.4c-0.3,0.3-0.5,0.6-0.6,0.9v3.7h-1.6V250h1.4v1.2
	c0.2-0.4,0.6-0.7,1-0.9s0.9-0.3,1.4-0.3c0.4,0,0.9,0.1,1.2,0.4c0.3,0.3,0.5,0.6,0.6,1c0.2-0.4,0.6-0.8,1-1c0.4-0.2,0.9-0.4,1.3-0.3
	c0.3,0,0.7,0.1,1,0.2c0.2,0.1,0.4,0.3,0.6,0.6c0.1,0.2,0.2,0.5,0.3,0.8c0,0.3,0.1,0.6,0.1,0.9L260,256.3z"/>
<path d="M264.4,256.4c-0.5,0-0.9-0.1-1.4-0.2c-0.4-0.2-0.8-0.4-1-0.7c-0.3-0.3-0.5-0.6-0.7-1s-0.2-0.8-0.2-1.2s0.1-0.9,0.2-1.3
	c0.2-0.4,0.4-0.7,0.7-1c0.3-0.3,0.7-0.6,1-0.7c0.4-0.2,0.9-0.3,1.4-0.3s0.9,0.1,1.4,0.3c0.4,0.2,0.7,0.4,1,0.7s0.5,0.6,0.6,1
	s0.2,0.8,0.2,1.2v0.3v0.2h-4.9c0,0.2,0.1,0.5,0.2,0.7s0.2,0.4,0.4,0.5c0.1,0.1,0.3,0.2,0.5,0.3c0.5,0.2,1.1,0.1,1.5-0.1
	c0.3-0.1,0.5-0.3,0.6-0.6l1.4,0.4c-0.2,0.5-0.6,0.9-1.1,1.2C265.6,256.3,265,256.5,264.4,256.4z M266,252.7c0-0.4-0.2-0.8-0.5-1.1
	s-0.7-0.4-1.1-0.4s-0.8,0.2-1.1,0.4c-0.1,0.1-0.3,0.3-0.4,0.5s-0.1,0.4-0.2,0.6H266z"/>
<path d="M272.4,251.4c-0.5,0-0.9,0.1-1.3,0.3s-0.7,0.5-0.8,0.8v3.8h-1.6V250h1.5v1.3c0.1-0.2,0.2-0.4,0.4-0.6
	c0.1-0.2,0.3-0.3,0.5-0.4c0.2-0.1,0.3-0.2,0.5-0.3s0.3-0.1,0.5-0.1h0.3V251.4z"/>
<path d="M274.9,256.4c-0.3,0-0.6,0-0.9-0.1s-0.5-0.2-0.7-0.4c-0.2-0.2-0.3-0.4-0.4-0.6c-0.1-0.2-0.2-0.5-0.2-0.8s0.1-0.6,0.2-0.8
	c0.1-0.3,0.3-0.5,0.5-0.6c0.3-0.2,0.5-0.3,0.9-0.4c0.4-0.1,0.7-0.2,1.1-0.1c0.3,0,0.5,0,0.8,0.1c0.2,0,0.5,0.1,0.7,0.2v-0.4
	c0-0.4-0.1-0.7-0.4-1c-0.3-0.2-0.7-0.4-1.1-0.3c-0.3,0-0.7,0.1-1,0.2c-0.4,0.1-0.7,0.3-1,0.5l-0.5-1c0.8-0.5,1.7-0.8,2.6-0.8
	c0.8,0,1.5,0.2,2.1,0.7c0.5,0.5,0.8,1.2,0.8,1.9v2c0,0.1,0,0.3,0.1,0.4c0.1,0.1,0.2,0.1,0.3,0.1v1.4c-0.2,0.1-0.5,0.1-0.7,0.1
	c-0.3,0-0.5-0.1-0.7-0.2s-0.3-0.3-0.3-0.5v-0.3C276.7,256.1,275.8,256.5,274.9,256.4L274.9,256.4z M275.4,255.3c0.3,0,0.5,0,0.8-0.1
	c0.2-0.1,0.4-0.2,0.6-0.4c0.2-0.1,0.3-0.3,0.3-0.5v-0.7c-0.2-0.1-0.4-0.1-0.6-0.2c-0.2,0-0.4-0.1-0.6-0.1c-0.4,0-0.7,0.1-1,0.3
	c-0.2,0.2-0.4,0.4-0.4,0.7s0.1,0.5,0.3,0.7C274.8,255.2,275.1,255.3,275.4,255.3L275.4,255.3z"/>
<path d="M66.6,270.4c-0.3,0.1-0.5,0.2-0.8,0.3c-0.3,0.1-0.7,0.1-1,0.1c-0.2,0-0.4,0-0.6-0.1c-0.2-0.1-0.4-0.1-0.5-0.3
	c-0.1-0.1-0.3-0.3-0.4-0.5c-0.1-0.2-0.1-0.5-0.1-0.7v-3.6h-0.8v-1.2h0.8v-2h1.6v2h1.3v1.2h-1.3v3.1c0,0.2,0,0.4,0.2,0.5
	c0.1,0.1,0.3,0.1,0.4,0.1c0.2,0,0.3,0,0.5-0.1l0.4-0.1L66.6,270.4z"/>
<path d="M70.2,270.8c-0.5,0-0.9-0.1-1.4-0.3c-0.4-0.2-0.7-0.4-1-0.7c-0.3-0.3-0.5-0.6-0.7-1s-0.2-0.8-0.2-1.2c0-0.4,0.1-0.9,0.2-1.2
	c0.2-0.4,0.4-0.7,0.7-1c0.3-0.3,0.6-0.5,1-0.7s0.9-0.3,1.4-0.3s0.9,0.1,1.4,0.3c0.4,0.2,0.7,0.4,1,0.7c0.3,0.3,0.5,0.6,0.7,1
	s0.2,0.8,0.2,1.2c0,0.4-0.1,0.8-0.2,1.2c-0.2,0.4-0.4,0.7-0.7,1c-0.3,0.3-0.6,0.5-1,0.7C71.2,270.8,70.7,270.9,70.2,270.8z
	 M68.6,267.6c0,0.3,0,0.5,0.1,0.8c0.1,0.2,0.2,0.4,0.3,0.6c0.1,0.2,0.3,0.3,0.5,0.4s0.4,0.1,0.6,0.1s0.4,0,0.7-0.1
	c0.2-0.1,0.4-0.2,0.5-0.4c0.2-0.2,0.3-0.4,0.4-0.6s0.1-0.5,0.1-0.8s0-0.5-0.1-0.8c-0.1-0.2-0.2-0.4-0.4-0.6
	c-0.1-0.2-0.3-0.3-0.5-0.4s-0.4-0.1-0.7-0.1c-0.2,0-0.4,0-0.6,0.1s-0.4,0.2-0.5,0.4c-0.2,0.2-0.3,0.4-0.3,0.6
	C68.6,267.1,68.6,267.3,68.6,267.6z"/>
<path d="M80.1,270.8c-0.4,0-0.8-0.1-1.2-0.2c-0.4-0.2-0.7-0.4-0.9-0.7c-0.3-0.3-0.5-0.6-0.6-1c-0.2-0.4-0.2-0.8-0.2-1.3
	c0-0.4,0.1-0.9,0.2-1.3s0.3-0.7,0.6-1c0.2-0.3,0.5-0.5,0.9-0.7c0.3-0.2,0.7-0.3,1.1-0.2c0.4,0,0.9,0.1,1.3,0.3
	c0.4,0.2,0.7,0.5,0.9,0.9V262h1.6v6.9c0,0.1,0,0.3,0.1,0.4s0.2,0.1,0.3,0.1v1.4c-0.2,0.1-0.5,0.1-0.7,0.1c-0.3,0-0.5-0.1-0.7-0.2
	s-0.3-0.3-0.3-0.6v-0.4c-0.2,0.4-0.5,0.7-0.9,0.9C80.9,270.8,80.5,270.9,80.1,270.8z M80.5,269.5c0.2,0,0.3,0,0.5-0.1
	s0.3-0.1,0.5-0.2c0.1-0.1,0.3-0.2,0.4-0.3c0.1-0.1,0.2-0.3,0.2-0.4V267c-0.1-0.2-0.2-0.3-0.3-0.5c-0.1-0.1-0.3-0.3-0.4-0.4
	s-0.3-0.2-0.5-0.3c-0.2-0.1-0.3-0.1-0.5-0.1s-0.5,0-0.7,0.1s-0.4,0.3-0.5,0.4c-0.1,0.2-0.3,0.4-0.3,0.6c-0.1,0.2-0.1,0.5-0.1,0.7
	s0,0.5,0.1,0.7s0.2,0.4,0.4,0.6c0.2,0.2,0.3,0.3,0.5,0.4C80,269.4,80.2,269.5,80.5,269.5z"/>
<path d="M88.1,270.8c-0.5,0-0.9-0.1-1.4-0.3c-0.4-0.2-0.7-0.4-1-0.7c-0.3-0.3-0.5-0.6-0.7-1s-0.2-0.8-0.2-1.2c0-0.4,0.1-0.9,0.2-1.2
	c0.2-0.4,0.4-0.7,0.7-1c0.3-0.3,0.6-0.5,1-0.7s0.9-0.3,1.4-0.3s0.9,0.1,1.4,0.3c0.8,0.3,1.4,1,1.7,1.8c0.1,0.4,0.2,0.8,0.2,1.2
	c0,0.4-0.1,0.8-0.2,1.2c-0.1,0.4-0.4,0.7-0.6,1c-0.3,0.3-0.6,0.5-1,0.7C89.1,270.7,88.6,270.8,88.1,270.8z M86.5,267.6
	c0,0.3,0,0.5,0.1,0.8c0.1,0.2,0.2,0.4,0.3,0.6c0.1,0.2,0.3,0.3,0.5,0.4c0.4,0.2,0.9,0.2,1.3,0c0.2-0.1,0.4-0.2,0.5-0.4
	c0.2-0.2,0.3-0.4,0.3-0.6c0.1-0.2,0.1-0.5,0.1-0.8s0-0.5-0.1-0.8c-0.1-0.2-0.2-0.4-0.3-0.6c-0.1-0.2-0.3-0.3-0.5-0.4
	s-0.4-0.1-0.7-0.1c-0.2,0-0.4,0-0.6,0.1s-0.4,0.2-0.5,0.4c-0.2,0.2-0.3,0.4-0.3,0.6C86.5,267.1,86.5,267.3,86.5,267.6z"/>
<path d="M100.1,264.4h1.5l-2.6,6.3h-1.3l-1.1-2.8l-1.1,2.8h-1.3l-2.6-6.3h1.5l1.9,4.8l0.8-2l-1.1-2.8H96l0.7,1.9l0.7-1.9h1.3
	l-1.1,2.7l0.8,2L100.1,264.4z"/>
<path d="M108.2,270.7h-1.6v-3.5c0-0.4-0.1-0.8-0.3-1.1c-0.2-0.2-0.4-0.4-0.7-0.4c-0.4,0-0.7,0.1-1,0.4c-0.2,0.1-0.3,0.3-0.4,0.4
	c-0.1,0.2-0.2,0.3-0.3,0.5v3.7h-1.5v-6.3h1.4v1.2c0.2-0.4,0.6-0.7,1-0.9c0.5-0.2,1-0.3,1.5-0.3c0.3,0,0.7,0.1,1,0.2
	c0.2,0.1,0.4,0.3,0.6,0.6c0.1,0.2,0.2,0.5,0.3,0.8c0.1,0.3,0.1,0.6,0.1,0.9L108.2,270.7z"/>
<path d="M109.6,262h1.6v6.8c0,0.2,0,0.4,0.2,0.5c0.1,0.1,0.3,0.2,0.5,0.2c0.1,0,0.2,0,0.3,0c0.1,0,0.2-0.1,0.3-0.1l0.2,1.2
	c-0.2,0.1-0.5,0.2-0.8,0.2s-0.5,0.1-0.8,0.1c-0.4,0-0.8-0.1-1.2-0.4c-0.3-0.3-0.4-0.7-0.4-1.1V262H109.6z"/>
<path d="M116.3,270.8c-0.5,0-0.9-0.1-1.4-0.3c-0.4-0.2-0.7-0.4-1-0.7c-0.3-0.3-0.5-0.6-0.7-1s-0.2-0.8-0.2-1.2
	c0-0.4,0.1-0.9,0.2-1.2c0.2-0.4,0.4-0.7,0.7-1c0.3-0.3,0.6-0.5,1-0.7s0.9-0.3,1.4-0.3s0.9,0.1,1.4,0.3c0.4,0.2,0.7,0.4,1,0.7
	c0.3,0.3,0.5,0.6,0.7,1c0.1,0.4,0.2,0.8,0.2,1.2c0,0.4-0.1,0.8-0.2,1.2c-0.2,0.4-0.4,0.7-0.6,1c-0.3,0.3-0.6,0.5-1,0.7
	C117.2,270.8,116.8,270.9,116.3,270.8z M114.6,267.6c0,0.3,0,0.5,0.1,0.8c0.1,0.2,0.2,0.4,0.3,0.6c0.1,0.2,0.3,0.3,0.5,0.4
	s0.4,0.1,0.6,0.1s0.4,0,0.7-0.1c0.2-0.1,0.4-0.2,0.5-0.4c0.2-0.2,0.3-0.4,0.3-0.6c0.2-0.5,0.2-1,0-1.5c-0.1-0.2-0.2-0.4-0.3-0.6
	c-0.2-0.2-0.3-0.3-0.5-0.4s-0.4-0.1-0.7-0.1c-0.2,0-0.4,0-0.6,0.1s-0.4,0.2-0.5,0.4c-0.2,0.2-0.3,0.4-0.3,0.6
	S114.6,267.3,114.6,267.6z"/>
<path d="M122.4,270.8c-0.3,0-0.6,0-0.8-0.1c-0.3-0.1-0.5-0.2-0.7-0.4c-0.2-0.2-0.4-0.4-0.5-0.6s-0.2-0.5-0.2-0.8s0.1-0.6,0.2-0.8
	c0.1-0.3,0.3-0.5,0.5-0.6c0.3-0.2,0.5-0.3,0.9-0.4s0.7-0.2,1.1-0.1c0.3,0,0.5,0,0.8,0.1c0.2,0,0.5,0.1,0.7,0.2v-0.4
	c0-0.4-0.1-0.7-0.4-1c-0.3-0.2-0.7-0.4-1-0.3c-0.3,0-0.7,0.1-1,0.2c-0.4,0.1-0.7,0.3-1,0.5l-0.5-1c0.8-0.5,1.7-0.8,2.6-0.8
	c0.8,0,1.5,0.2,2.1,0.7c0.5,0.5,0.8,1.2,0.8,1.9v2c0,0.1,0,0.3,0.1,0.4s0.2,0.1,0.3,0.1v1.4c-0.2,0.1-0.5,0.1-0.7,0.1
	c-0.3,0-0.5-0.1-0.7-0.2s-0.3-0.3-0.3-0.5v-0.3c-0.3,0.4-0.6,0.6-1,0.8C123.3,270.8,122.8,270.9,122.4,270.8z M122.8,269.7
	c0.3,0,0.5,0,0.8-0.1c0.2-0.1,0.4-0.2,0.6-0.4c0.2-0.1,0.3-0.3,0.3-0.5V268c-0.2-0.1-0.4-0.1-0.6-0.2c-0.2,0-0.4-0.1-0.7-0.1
	c-0.4,0-0.7,0.1-1,0.3c-0.2,0.2-0.4,0.4-0.4,0.7c0,0.3,0.1,0.5,0.3,0.7C122.3,269.6,122.5,269.7,122.8,269.7L122.8,269.7z"/>
<path d="M130.1,270.8c-0.4,0-0.8-0.1-1.2-0.2c-0.4-0.2-0.7-0.4-1-0.7c-0.3-0.3-0.5-0.6-0.6-1c-0.2-0.4-0.2-0.8-0.2-1.3
	c0-0.4,0.1-0.9,0.2-1.3s0.3-0.7,0.6-1c0.2-0.3,0.5-0.5,0.9-0.7s0.7-0.3,1.1-0.2c0.4,0,0.9,0.1,1.2,0.3c0.4,0.2,0.7,0.5,0.9,0.9V262
	h1.6v6.9c0,0.1,0,0.2,0.1,0.4c0.1,0.1,0.2,0.1,0.3,0.1v1.4c-0.2,0.1-0.5,0.1-0.7,0.1c-0.3,0-0.5-0.1-0.7-0.2s-0.3-0.3-0.3-0.6v-0.4
	c-0.2,0.4-0.5,0.7-0.9,0.9C131,270.8,130.6,270.9,130.1,270.8z M130.6,269.5c0.2,0,0.3,0,0.5-0.1s0.3-0.1,0.5-0.2
	c0.1-0.1,0.3-0.2,0.4-0.3c0.1-0.1,0.2-0.3,0.2-0.4V267c-0.1-0.2-0.2-0.3-0.3-0.5c-0.1-0.1-0.3-0.3-0.4-0.4c-0.1-0.1-0.3-0.2-0.5-0.3
	c-0.2-0.1-0.3-0.1-0.5-0.1s-0.5,0-0.7,0.1s-0.4,0.3-0.5,0.4c-0.1,0.2-0.3,0.4-0.3,0.6c-0.1,0.2-0.1,0.5-0.1,0.7s0,0.5,0.1,0.7
	s0.2,0.4,0.4,0.6s0.3,0.3,0.5,0.4C130.1,269.4,130.3,269.5,130.6,269.5z"/>
<path d="M141.9,270.4c-0.3,0.1-0.5,0.2-0.8,0.3c-0.3,0.1-0.7,0.1-1,0.1c-0.2,0-0.4,0-0.6-0.1c-0.2-0.1-0.4-0.1-0.5-0.3
	c-0.2-0.1-0.3-0.3-0.4-0.5c-0.1-0.2-0.1-0.5-0.1-0.7v-3.6h-0.8v-1.2h0.8v-2h1.6v2h1.3v1.2h-1.3v3.1c0,0.2,0,0.4,0.2,0.5
	c0.1,0.1,0.3,0.1,0.4,0.1c0.2,0,0.3,0,0.5-0.1l0.4-0.1L141.9,270.4z"/>
<path d="M148.6,270.7H147v-3.5c0-0.4-0.1-0.8-0.3-1.1c-0.2-0.2-0.5-0.4-0.8-0.4c-0.2,0-0.3,0-0.5,0.1s-0.3,0.2-0.5,0.3
	c-0.2,0.1-0.3,0.3-0.4,0.4c-0.1,0.2-0.2,0.3-0.3,0.5v3.7h-1.6V262h1.6v3.7c0.2-0.4,0.6-0.8,1-1s0.9-0.3,1.3-0.3c0.3,0,0.7,0.1,1,0.2
	c0.2,0.1,0.5,0.3,0.6,0.6c0.1,0.2,0.2,0.5,0.3,0.8s0.1,0.6,0.1,0.9L148.6,270.7z"/>
<path d="M152.9,270.8c-0.5,0-0.9-0.1-1.4-0.2c-0.4-0.2-0.7-0.4-1-0.7c-0.3-0.3-0.5-0.6-0.7-1s-0.2-0.8-0.2-1.2
	c0-0.4,0.1-0.9,0.2-1.3c0.2-0.4,0.4-0.7,0.7-1s0.6-0.5,1-0.7s0.9-0.3,1.4-0.3s0.9,0.1,1.4,0.3c0.4,0.2,0.7,0.4,1,0.7
	c0.3,0.3,0.5,0.6,0.6,1s0.2,0.8,0.2,1.2v0.3c0,0.1,0,0.2,0,0.2h-4.8c0,0.2,0.1,0.5,0.2,0.7c0.1,0.2,0.2,0.4,0.4,0.5
	c0.1,0.1,0.3,0.2,0.5,0.3c0.5,0.2,1.1,0.1,1.5-0.1c0.3-0.1,0.5-0.3,0.6-0.6l1.4,0.4c-0.2,0.5-0.6,0.9-1.1,1.2
	C154.2,270.7,153.6,270.9,152.9,270.8z M154.6,267.1c0-0.4-0.2-0.8-0.5-1.1c-0.3-0.3-0.7-0.4-1.1-0.4c-0.4,0-0.8,0.2-1.1,0.4
	c-0.1,0.1-0.3,0.3-0.4,0.5c-0.1,0.2-0.1,0.4-0.2,0.6H154.6z"/>
<path d="M160.2,270.7v-8.5h3.1c0.6,0,1.2,0.1,1.8,0.3c0.5,0.2,0.9,0.5,1.3,0.9c0.4,0.4,0.6,0.9,0.8,1.4s0.3,1.1,0.3,1.6
	c0,0.6-0.1,1.2-0.3,1.8c-0.2,0.5-0.5,1-0.9,1.3c-0.4,0.4-0.8,0.7-1.3,0.9c-0.6,0.2-1.1,0.3-1.7,0.3L160.2,270.7L160.2,270.7z
	 M165.9,266.5c0-0.4-0.1-0.8-0.2-1.1c-0.1-0.3-0.3-0.6-0.5-0.9s-0.5-0.4-0.8-0.6c-0.3-0.1-0.7-0.2-1-0.2h-1.5v5.6h1.5
	c0.4,0,0.7-0.1,1.1-0.2c0.3-0.1,0.6-0.3,0.8-0.6c0.2-0.3,0.4-0.6,0.5-0.9C165.8,267.2,165.9,266.8,165.9,266.5z"/>
<path d="M171.6,270.8c-0.5,0-0.9-0.1-1.4-0.2c-0.4-0.2-0.7-0.4-1-0.7c-0.3-0.3-0.5-0.6-0.7-1s-0.2-0.8-0.2-1.2
	c0-0.4,0.1-0.9,0.2-1.3c0.2-0.4,0.4-0.7,0.7-1s0.6-0.5,1-0.7s0.9-0.3,1.4-0.3s0.9,0.1,1.4,0.3c0.4,0.2,0.7,0.4,1,0.7
	c0.3,0.3,0.5,0.6,0.7,1c0.1,0.4,0.2,0.8,0.2,1.2v0.3v0.2H170c0,0.2,0.1,0.5,0.2,0.7c0.1,0.2,0.2,0.4,0.4,0.5
	c0.1,0.1,0.3,0.2,0.5,0.3c0.5,0.2,1.1,0.1,1.5-0.1c0.3-0.1,0.5-0.3,0.6-0.6l1.4,0.4c-0.3,0.5-0.7,0.9-1.2,1.1
	C172.8,270.7,172.2,270.9,171.6,270.8z M173.2,267.1c0-0.4-0.2-0.8-0.5-1.1c-0.3-0.3-0.7-0.4-1.1-0.4c-0.4,0-0.8,0.2-1.1,0.4
	c-0.1,0.1-0.3,0.3-0.4,0.5c-0.1,0.2-0.1,0.4-0.2,0.6H173.2z"/>
<path d="M175.8,262h1.6v6.8c0,0.2,0.1,0.4,0.2,0.5c0.1,0.1,0.3,0.2,0.5,0.2c0.1,0,0.2,0,0.3,0l0.3-0.1l0.2,1.2
	c-0.2,0.1-0.5,0.2-0.8,0.2s-0.5,0.1-0.8,0.1c-0.4,0-0.9-0.1-1.2-0.4s-0.4-0.7-0.4-1.1L175.8,262z"/>
<path d="M179.7,263.6V262h1.6v1.6H179.7z M179.7,270.7v-6.3h1.6v6.3H179.7z"/>
<path d="M185.2,270.8c-0.4,0-0.8-0.1-1.1-0.2c-0.3-0.2-0.6-0.4-0.9-0.7c-0.3-0.3-0.4-0.6-0.6-1c-0.1-0.4-0.2-0.8-0.2-1.2
	c0-0.4,0.1-0.9,0.2-1.3c0.1-0.4,0.3-0.7,0.6-1s0.6-0.5,0.9-0.7c0.4-0.2,0.8-0.3,1.2-0.2c0.4,0,0.9,0.1,1.3,0.3
	c0.4,0.2,0.7,0.5,0.9,0.9v-1.1h1.4v6c0,0.8-0.4,1.6-1,2.2c-0.3,0.3-0.7,0.5-1.1,0.6c-0.5,0.1-0.9,0.2-1.4,0.2
	c-0.6,0-1.2-0.1-1.7-0.3c-0.5-0.2-0.9-0.6-1.2-1l0.9-0.9c0.2,0.3,0.6,0.5,0.9,0.7c0.6,0.3,1.2,0.3,1.9,0.1c0.2-0.1,0.4-0.2,0.6-0.3
	c0.2-0.1,0.3-0.3,0.4-0.5c0.1-0.3,0.2-0.5,0.2-0.8v-0.8c-0.2,0.4-0.5,0.7-0.9,0.8C186,270.7,185.6,270.8,185.2,270.8z M185.7,269.5
	c0.2,0,0.3,0,0.5-0.1s0.3-0.1,0.4-0.2c0.1-0.1,0.3-0.2,0.4-0.3c0.1-0.1,0.2-0.3,0.2-0.4V267c-0.1-0.4-0.4-0.7-0.7-0.9
	c-0.3-0.2-0.6-0.3-1-0.3c-0.2,0-0.5,0.1-0.7,0.2s-0.4,0.3-0.5,0.4c-0.2,0.2-0.3,0.4-0.3,0.6c-0.2,0.5-0.2,1,0,1.4
	c0.1,0.2,0.2,0.4,0.4,0.6s0.3,0.3,0.6,0.4C185.2,269.4,185.5,269.5,185.7,269.5z"/>
<path d="M193.2,270.8c-0.5,0-0.9-0.1-1.4-0.3c-0.8-0.3-1.4-1-1.7-1.8c-0.2-0.4-0.2-0.8-0.2-1.2c0-0.4,0.1-0.9,0.2-1.2
	c0.2-0.4,0.4-0.7,0.6-1c0.3-0.3,0.6-0.5,1-0.7c0.9-0.3,1.9-0.3,2.8,0c0.4,0.2,0.7,0.4,1,0.7c0.3,0.3,0.5,0.6,0.6,1
	c0.2,0.4,0.2,0.8,0.2,1.2c0,0.4-0.1,0.8-0.2,1.2c-0.2,0.4-0.4,0.7-0.6,1c-0.3,0.3-0.6,0.5-1,0.7
	C194.1,270.7,193.7,270.8,193.2,270.8z M191.6,267.6c0,0.3,0,0.5,0.1,0.8c0.1,0.2,0.2,0.4,0.3,0.6s0.3,0.3,0.5,0.4
	c0.4,0.2,0.9,0.2,1.3,0c0.2-0.1,0.4-0.2,0.5-0.4c0.2-0.2,0.3-0.4,0.4-0.6c0.1-0.2,0.1-0.5,0.1-0.8s0-0.5-0.1-0.8
	c-0.1-0.2-0.2-0.4-0.4-0.6c-0.1-0.2-0.3-0.3-0.5-0.4s-0.4-0.1-0.6-0.1c-0.2,0-0.4,0-0.7,0.1c-0.2,0.1-0.4,0.2-0.5,0.4
	c-0.2,0.2-0.3,0.4-0.3,0.6C191.6,267.1,191.6,267.3,191.6,267.6z"/>
<path d="M200.6,270.7v-8.5h3.7c0.4,0,0.8,0.1,1.1,0.2c0.3,0.2,0.6,0.4,0.9,0.6c0.2,0.3,0.4,0.6,0.6,0.9c0.1,0.3,0.2,0.7,0.2,1
	c0,0.5-0.1,1.1-0.4,1.5c-0.3,0.4-0.6,0.8-1.1,1l1.9,3.2h-1.8l-1.7-2.9h-1.6v2.9L200.6,270.7z M202.3,266.4h2.1c0.1,0,0.3,0,0.4-0.1
	c0.1-0.1,0.3-0.2,0.4-0.3c0.1-0.1,0.2-0.3,0.2-0.4c0.1-0.2,0.1-0.4,0.1-0.5c0-0.2,0-0.4-0.1-0.6s-0.1-0.3-0.3-0.4
	c-0.1-0.1-0.2-0.2-0.4-0.3c-0.1-0.1-0.3-0.1-0.4-0.1h-2V266.4z"/>
<path d="M208.4,263.6V262h1.6v1.6H208.4z M208.4,270.7v-6.3h1.6v6.3H208.4z"/>
<path d="M214.1,270.8c-0.4,0-0.8-0.1-1.2-0.2c-0.4-0.2-0.7-0.4-0.9-0.7c-0.3-0.3-0.5-0.6-0.6-1c-0.2-0.4-0.2-0.8-0.2-1.3
	c0-0.4,0.1-0.9,0.2-1.3c0.1-0.4,0.3-0.7,0.6-1c0.2-0.3,0.5-0.5,0.9-0.7c0.3-0.2,0.7-0.3,1.1-0.2c0.4,0,0.9,0.1,1.3,0.3
	c0.4,0.2,0.7,0.5,0.9,0.9V262h1.6v6.9c0,0.1,0,0.3,0.1,0.4s0.2,0.1,0.3,0.1v1.4c-0.2,0.1-0.5,0.1-0.7,0.1c-0.3,0-0.5-0.1-0.7-0.2
	s-0.3-0.3-0.3-0.6v-0.4c-0.2,0.4-0.5,0.7-0.9,0.9C214.9,270.8,214.5,270.9,214.1,270.8z M214.5,269.5c0.2,0,0.3,0,0.5-0.1
	s0.3-0.1,0.4-0.2c0.1-0.1,0.3-0.2,0.4-0.3c0.1-0.1,0.2-0.3,0.2-0.4V267c-0.1-0.2-0.2-0.3-0.3-0.5c-0.1-0.1-0.3-0.3-0.4-0.4
	c-0.1-0.1-0.3-0.2-0.5-0.3c-0.2-0.1-0.3-0.1-0.5-0.1s-0.5,0-0.7,0.1s-0.4,0.3-0.5,0.4c-0.1,0.2-0.3,0.4-0.3,0.6
	c-0.1,0.2-0.1,0.5-0.1,0.7s0,0.5,0.1,0.7s0.2,0.4,0.4,0.6C213.6,269.3,214,269.5,214.5,269.5L214.5,269.5z"/>
<path d="M222.1,270.8c-0.5,0-0.9-0.1-1.4-0.2c-0.4-0.2-0.7-0.4-1-0.7c-0.3-0.3-0.5-0.6-0.7-1s-0.2-0.8-0.2-1.2
	c0-0.4,0.1-0.9,0.2-1.3c0.2-0.4,0.4-0.7,0.7-1s0.6-0.5,1-0.7s0.9-0.3,1.4-0.3s0.9,0.1,1.4,0.3c0.4,0.2,0.7,0.4,1,0.7
	c0.3,0.3,0.5,0.6,0.6,1s0.2,0.8,0.2,1.2v0.3c0,0.1,0,0.2,0,0.2h-4.9c0,0.2,0.1,0.5,0.2,0.7c0.1,0.2,0.2,0.4,0.4,0.5s0.3,0.2,0.5,0.3
	c0.2,0.1,0.4,0.1,0.6,0.1c0.3,0,0.6-0.1,0.9-0.2c0.3-0.1,0.5-0.3,0.6-0.6l1.4,0.4c-0.2,0.5-0.6,0.9-1.1,1.2
	C223.4,270.7,222.8,270.9,222.1,270.8z M223.8,267.1c0-0.4-0.2-0.8-0.5-1.1c-0.3-0.3-0.7-0.4-1.1-0.4c-0.4,0-0.8,0.2-1.1,0.4
	c-0.1,0.1-0.3,0.3-0.4,0.5c-0.1,0.2-0.2,0.4-0.2,0.6H223.8z"/>
<path d="M231,270.8c-0.3,0-0.6,0-0.9-0.1c-0.3-0.1-0.5-0.2-0.7-0.4c-0.4-0.4-0.6-0.9-0.6-1.4c0-0.3,0.1-0.6,0.2-0.8
	c0.1-0.3,0.3-0.5,0.6-0.6c0.3-0.2,0.5-0.3,0.8-0.4c0.4-0.1,0.7-0.2,1.1-0.1c0.3,0,0.5,0,0.8,0.1c0.2,0,0.5,0.1,0.7,0.2v-0.4
	c0-0.4-0.1-0.7-0.4-1c-0.3-0.2-0.7-0.4-1.1-0.3c-0.3,0-0.7,0.1-1,0.2c-0.4,0.1-0.7,0.3-1,0.5l-0.5-1c0.8-0.5,1.7-0.8,2.6-0.8
	c0.8,0,1.5,0.2,2.1,0.7c0.5,0.5,0.8,1.2,0.8,1.9v2c0,0.1,0,0.3,0.1,0.4s0.2,0.1,0.3,0.1v1.4c-0.2,0.1-0.5,0.1-0.7,0.1
	c-0.3,0-0.5-0.1-0.7-0.2s-0.3-0.3-0.3-0.5v-0.3C232.7,270.5,231.9,270.9,231,270.8L231,270.8z M231.4,269.7c0.3,0,0.5,0,0.8-0.1
	c0.2-0.1,0.4-0.2,0.6-0.4c0.2-0.1,0.3-0.3,0.3-0.5V268c-0.2-0.1-0.4-0.1-0.6-0.2c-0.2,0-0.4-0.1-0.6-0.1c-0.4,0-0.7,0.1-1,0.3
	c-0.2,0.1-0.4,0.4-0.4,0.7c0,0.3,0.1,0.5,0.3,0.7C230.9,269.6,231.2,269.7,231.4,269.7L231.4,269.7z"/>
<path d="M239.9,270.8c-0.5,0-0.9-0.1-1.3-0.3c-0.4-0.2-0.7-0.5-0.9-0.9v3.7h-1.6v-8.8h1.4v1.1c0.2-0.4,0.5-0.7,0.9-0.9
	c0.4-0.2,0.8-0.3,1.3-0.3c0.4,0,0.8,0.1,1.2,0.3c0.4,0.2,0.7,0.4,0.9,0.7c0.3,0.3,0.5,0.6,0.6,1s0.2,0.8,0.2,1.3
	c0,0.4-0.1,0.9-0.2,1.3c-0.1,0.4-0.3,0.7-0.6,1c-0.2,0.3-0.5,0.5-0.9,0.7C240.7,270.7,240.3,270.8,239.9,270.8z M239.4,269.5
	c0.5,0,0.9-0.2,1.2-0.6c0.1-0.2,0.3-0.4,0.3-0.6c0.1-0.2,0.1-0.5,0.1-0.7c0-0.3,0-0.5-0.1-0.7s-0.2-0.4-0.4-0.6s-0.3-0.3-0.6-0.4
	c-0.2-0.1-0.5-0.1-0.7-0.1s-0.3,0-0.5,0.1s-0.3,0.1-0.4,0.2c-0.1,0.1-0.3,0.2-0.4,0.3c-0.1,0.1-0.2,0.3-0.2,0.4v1.5
	c0.1,0.3,0.4,0.7,0.7,0.9C238.7,269.3,239,269.5,239.4,269.5L239.4,269.5z"/>
<path d="M247.5,270.8c-0.5,0-0.9-0.1-1.3-0.3c-0.4-0.2-0.7-0.5-0.9-0.9v3.7h-1.6v-8.8h1.4v1.1c0.2-0.4,0.5-0.7,0.9-0.9
	c0.4-0.2,0.8-0.3,1.3-0.3c0.4,0,0.8,0.1,1.2,0.3c0.4,0.2,0.7,0.4,0.9,0.7c0.3,0.3,0.5,0.6,0.6,1s0.2,0.8,0.2,1.3
	c0,0.4-0.1,0.9-0.2,1.3c-0.1,0.4-0.3,0.7-0.6,1c-0.2,0.3-0.5,0.5-0.9,0.7C248.3,270.8,247.9,270.8,247.5,270.8z M247,269.5
	c0.2,0,0.5-0.1,0.7-0.2s0.4-0.2,0.5-0.4c0.1-0.2,0.3-0.4,0.3-0.6c0.1-0.2,0.1-0.5,0.1-0.7c0-0.3,0-0.5-0.1-0.7s-0.2-0.4-0.4-0.6
	s-0.3-0.3-0.6-0.4c-0.2-0.1-0.5-0.1-0.7-0.1s-0.3,0-0.5,0.1s-0.3,0.1-0.4,0.2c-0.1,0.1-0.3,0.2-0.4,0.3c-0.1,0.1-0.2,0.3-0.2,0.4
	v1.5c0.1,0.4,0.4,0.7,0.7,0.9C246.3,269.3,246.6,269.5,247,269.5z"/>
<path d="M251.4,271.7V270h1.3v1.7H251.4z"/>
<rect x="38.8" y="36.4" class="st3" width="246.5" height="19.9"/>
<text transform="matrix(1 0 0 1 38.8146 51.6131)" class="st1 st2">Get the DeliGo Ride App</text>
</svg>
