<?xml version="1.0" encoding="utf-8"?>
<!-- Generator: Adobe Illustrator 26.0.1, SVG Export Plug-In . SVG Version: 6.00 Build 0)  -->
<svg version="1.1" id="Capa_1" xmlns="http://www.w3.org/2000/svg" xmlns:xlink="http://www.w3.org/1999/xlink" x="0px" y="0px"
	 viewBox="0 0 2823 2603.7" style="enable-background:new 0 0 2823 2603.7;" xml:space="preserve">
<style type="text/css">
	.st0{fill:#0091D1;}
	.st1{fill:#007EC3;}
	.st2{fill:#F6F6F6;}
	.st3{fill:#6FB5E5;}
	.st4{fill:#FAFAFA;}
	.st5{fill:#B0D4F2;}
</style>
<g>
	<path class="st0" d="M2260.6,160.7C1695.4,57.9,1411.5,615,1411.5,615S1127.6,57.9,562.4,160.7C70.9,250-135.8,770.9,93.2,1277.9
		c208.5,461.8,1318.3,1298.5,1318.3,1298.5s1109.8-836.7,1318.3-1298.5C2958.8,770.9,2752.2,250,2260.6,160.7"/>
	<path class="st1" d="M845.5,1695C435.1,1404.3,195,989.3,69.7,535.2c-96.8,209-96.2,477.7,23.5,742.7
		c208.5,461.8,1318.3,1298.5,1318.3,1298.5s417.7-314.9,788.7-665C1737.8,2010.2,1258.7,1982.1,845.5,1695z"/>
	<path class="st2" d="M1678.3,1255.7h-197.5v-197.5c0-39.2-31.8-71-71-71h-71c-39.2,0-71,31.8-71,71v197.5h-197.5
		c-39.2,0-71,31.8-71,71v71c0,39.2,31.8,71,71,71h197.5v197.5c0,39.2,31.8,71,71,71h71c39.2,0,71-31.8,71-71v-197.5h197.5
		c39.2,0,71-31.8,71-71v-71C1749.3,1287.5,1717.5,1255.7,1678.3,1255.7"/>
	<path class="st3" d="M2260.6,160.7c-47.7-8.7-93.5-12.7-137.2-12.7c-474,0-711.9,467-711.9,467s0,0,0,0
		c-1.8-3.5-230-447.9-682.9-466.3c20.4,435,174.8,875.5,531.1,1107h8.1v-197.5c0-39.2,31.8-71,71-71h71c39.2,0,71,31.8,71,71v197.5
		h197.5c39.2,0,71,31.8,71,71v71c0,13.6-3.8,26.4-10.5,37.2c81.7,13.8,164.2,20.3,247,20.3c243.9,0,490.7-55.9,728.5-145.4
		c5.4-10.4,10.5-20.7,15.1-30.9c0,0,0,0,0,0c0.1-0.3,0.3-0.6,0.4-1c63.3-140.1,93.3-281.3,93.2-414.1
		C2822.8,516,2616.3,225.3,2260.6,160.7z"/>
	<path class="st4" d="M1409.8,987.2h-71c-39.2,0-71,31.8-71,71v197.5h-8.1c48.1,31.3,99.9,58.7,155.6,81.8
		c105.6,47.1,213.9,78.9,323.5,97.4c6.7-10.8,10.5-23.6,10.5-37.2v-71c0-39.2-31.8-71-71-71h-197.5v-197.5
		C1480.8,1019,1449,987.2,1409.8,987.2"/>
	<path class="st5" d="M2115.7,276.7c-7.7,0-15.3,0.2-23,0.5c-190.2,7.6-462.2,145.3-484.2,264c-19.6,106,97.7,156.4,180.8,156.4
		c10,0,19.4-0.7,28.1-2.2c81.1-13.5,158.8-48.2,240.9-49.9c1.9,0,3.8-0.1,5.7-0.1c117.8,0,232.5,75.2,278.9,183.5
		c20.3,47.4,28.2,99.1,40.3,149.2c12.1,50.2,29.6,101,64.9,138.6c26.2,27.8,64.2,46.7,101.6,46.7c13.1,0,26.1-2.3,38.5-7.4
		c43.3-17.6,68.6-62.6,85-106.4c66.5-178.3,32.9-389.5-82.6-540.8C2480,363.6,2298.2,276.7,2115.7,276.7"/>
	<path class="st5" d="M2178.7,957.6c-87.8,0-158.9,71.1-158.9,158.9s71.1,158.9,158.9,158.9c87.8,0,158.9-71.1,158.9-158.9
		C2337.6,1028.8,2266.4,957.6,2178.7,957.6"/>
</g>
</svg>
