<?xml version="1.0" encoding="utf-8"?>
<!-- Generator: Adobe Illustrator 26.0.1, SVG Export Plug-In . SVG Version: 6.00 Build 0)  -->
<svg version="1.1" id="Layer_1" xmlns="http://www.w3.org/2000/svg" xmlns:xlink="http://www.w3.org/1999/xlink" x="0px" y="0px"
	 viewBox="0 0 4844.6 6139.9" style="enable-background:new 0 0 4844.6 6139.9;" xml:space="preserve">
<style type="text/css">
	.st0{fill-rule:evenodd;clip-rule:evenodd;}
	.st1{fill-rule:evenodd;clip-rule:evenodd;fill:#6CA3AA;}
	.st2{fill-rule:evenodd;clip-rule:evenodd;fill:#70D9E6;}
	.st3{fill-rule:evenodd;clip-rule:evenodd;fill:#D3EFFD;}
	.st4{fill-rule:evenodd;clip-rule:evenodd;fill:#90D7F4;}
	.st5{fill-rule:evenodd;clip-rule:evenodd;fill:#FFE600;}
	.st6{fill-rule:evenodd;clip-rule:evenodd;fill:#59DF5C;}
	.st7{fill-rule:evenodd;clip-rule:evenodd;fill:#32D736;}
</style>
<g id="Layer_x5F_1">
	<g id="_297107808">
		<g>
			<path id="_296606672" class="st0" d="M1206.2,4898.6V233.2h-496c-247.8,0-449.4,201.6-449.4,449.4v4422.9
				c104.1-126.3,261.7-206.9,437.8-206.9H1206.2L1206.2,4898.6z M4315.8,103.6c160.7,0,291.3,130.7,291.3,291.3v4568.4v1.9
				l-0.2,196.5c0,89.2-72.4,161.7-161.6,161.9l-3730.6,3.6c-83.9,0-154.9,63.5-154.9,138.6s70.9,138.6,154.9,138.6l3730.6,2.7
				c89.3,0,161.7,72.7,161.7,161.9v102.2c0.2,43.1-16.8,83.9-47.4,114.3c-30.6,30.6-71.2,47.4-114.3,47.4H698.7
				c-312.7,0-567.2-254.3-567.2-567.2V682.6c0-319.2,259.6-578.8,578.8-578.8C1912,103.6,3113.9,103.6,4315.8,103.6L4315.8,103.6z
				 M1335.6,233.2v4665.4h3141.9V394.9c0-89.2-72.7-161.7-162.1-161.7H1335.6L1335.6,233.2z M260.9,5465v0.9
				c0.2,241.1,196.5,437.4,437.8,437.4h3746.7c11.5,0,19.2-6,22.8-9.6c3.6-3.6,9.4-11.3,9.4-22.8v-102.2c0-17.8-14.4-32.3-32.2-32.3
				l-3730.6-2.7c-156.6,0-284.3-120.1-284.3-268c0-147.9,127.5-268,284.3-268l3730.6-3.8c17.8,0,32.2-14.5,32.2-32.3V5028H698.7
				C457.3,5028,261.2,5224.1,260.9,5465L260.9,5465z"/>
			<path id="_296607224" class="st0" d="M2890.6,2053.4c-142,0-270.9-61.3-336.1-159.8c-19.7-29.8-11.5-70,18.3-89.7
				c29.8-19.7,70-11.5,89.7,18.3c40.9,61.8,130.4,101.8,228.1,101.8c135.2,0,249.5-77.5,249.5-169.4c0-84.7-97.4-158.6-221.6-168.4
				c-231.2-17.8-374.8-132.1-374.8-298.8c0-164.8,170.1-298.8,379.1-298.8c142,0,270.9,61.3,335.9,159.8
				c19.9,29.8,11.6,70-18.1,89.7c-29.8,19.7-70,11.6-89.7-18.3C3110,1158,3020.3,1118,2922.8,1118c-135.4,0-249.5,77.5-249.5,169.4
				c0,139.3,195.4,165.1,255.3,169.8c194.4,15.1,341.1,142.9,341.1,297.4C3269.7,1919.2,3099.5,2053.4,2890.6,2053.4z"/>
			<path id="_296607200" class="st0" d="M2906.7,2215.5c-35.6,0-64.7-28.9-64.7-64.7V891.2c0-35.8,28.9-64.7,64.7-64.7
				c35.8,0,64.7,28.9,64.7,64.7v1259.4C2971.4,2186.4,2942.4,2215.5,2906.7,2215.5L2906.7,2215.5z"/>
			<path id="_296607176" class="st0" d="M2906.7,672.2c-467.9,0-848.7,380.8-848.7,848.8s380.8,848.8,848.7,848.8
				c468.1,0,848.8-380.8,848.8-848.8S3374.7,672.2,2906.7,672.2z M2906.7,2499.2c-539.3,0-978.2-438.8-978.2-978.2
				s438.8-978.2,978.2-978.2s978.2,438.8,978.2,978.2C3884.9,2060.3,3446.1,2499.2,2906.7,2499.2z"/>
			<path id="_296607296" class="st0" d="M2001.7,4459.6H2128v-509.5h-126.3V4459.6z M2192.9,4589H1937c-35.8,0-64.7-28.9-64.7-64.7
				v-638.9c0-35.8,28.9-64.7,64.7-64.7h255.9c35.8,0,64.7,28.9,64.7,64.7v638.9C2257.5,4560.1,2228.5,4589,2192.9,4589z"/>
			<path id="_296606984" class="st0" d="M2540.3,4459.6h126.3v-954.4h-126.3L2540.3,4459.6L2540.3,4459.6z M2731.4,4589h-255.9
				c-35.8,0-64.7-28.9-64.7-64.7V3440.5c0-35.8,28.9-64.7,64.7-64.7h255.9c35.6,0,64.7,29.1,64.7,64.7v1083.8
				C2796.1,4560.1,2767,4589,2731.4,4589z"/>
			<path id="_296606936" class="st0" d="M3112.7,4459.6H3239v-760.5h-126.3V4459.6z M3303.9,4589h-255.7
				c-35.8,0-64.9-28.9-64.9-64.7v-889.9c0-35.8,28.9-64.7,64.7-64.7h255.9c35.8,0,64.7,28.9,64.7,64.7v889.9
				C3368.6,4560.1,3339.7,4589,3303.9,4589L3303.9,4589z"/>
			<path id="_296606816" class="st0" d="M3685.4,4459.6h126.3V3296.2h-126.3V4459.6z M3876.5,4589h-255.9
				c-35.8,0-64.7-28.9-64.7-64.7V3231.3c0-35.8,28.9-64.7,64.7-64.7h255.9c35.8,0,64.5,28.9,64.5,64.7v1292.9
				C3941,4560.1,3912.1,4589,3876.5,4589L3876.5,4589z"/>
			<path id="_296607128" class="st0" d="M3298.4,3103.2c-20.4,0-40.4-9.6-53.1-27.4c-20.5-29.3-13.5-69.7,15.7-90.2l327.7-230.7
				c29.3-20.5,69.7-13.5,90.2,15.7c20.7,29.3,13.7,69.7-15.6,90.2l-327.9,230.5C3324.3,3099.4,3311.2,3103.2,3298.4,3103.2
				L3298.4,3103.2z M3034.2,3141.3c-6.8,0-13.9-1-20.9-3.4l-288.9-97.9c-33.9-11.5-52-48.3-40.6-82.1c11.5-33.9,48.3-52,82.1-40.6
				l289.1,97.9c33.9,11.5,52,48.3,40.6,82.1C3086.4,3124.2,3061.2,3141.3,3034.2,3141.3L3034.2,3141.3L3034.2,3141.3z
				 M2172.7,3409.5c-16.9,0-33.9-6.7-46.7-19.9c-24.6-25.8-23.8-66.7,1.9-91.6l322.8-310.4c25.8-24.8,66.7-24,91.6,1.9
				c24.8,25.8,24,66.7-1.9,91.6l-322.8,310.4C2205,3403.5,2188.9,3409.5,2172.7,3409.5L2172.7,3409.5z"/>
			<path id="_296607152" class="st0" d="M2065,3363.6c-46.9,0-84.9,38.2-84.9,84.9s38,84.9,84.9,84.9c46.7,0,84.9-38.2,84.9-84.9
				C2149.7,3401.6,2111.7,3363.6,2065,3363.6z M2065,3663c-118.3,0-214.4-96.2-214.4-214.4c0-118.3,96.2-214.3,214.4-214.3
				c118.1,0,214.3,96.2,214.3,214.3C2279.3,3566.8,2183.1,3663,2065,3663z"/>
			<path id="_296605832" class="st0" d="M2603.6,2845.8c-46.9,0-85.1,38.2-85.1,84.9c0,46.9,38,84.9,84.9,84.9
				c46.9,0,84.9-38.2,84.9-84.9C2688.3,2883.8,2650.3,2845.8,2603.6,2845.8L2603.6,2845.8z M2603.6,3144.9
				c-118.3,0-214.4-96.2-214.4-214.4c0-118.3,96.2-214.3,214.4-214.3c118.3,0,214.3,96.2,214.3,214.3
				C2817.9,3048.9,2721.7,3144.9,2603.6,3144.9z"/>
			<path id="_296606528" class="st0" d="M3175.9,3039.7c-46.7,0-84.9,38.2-84.9,84.9s38,84.9,84.9,84.9c47.1,0,84.9-38.2,84.9-84.9
				C3260.9,3077.7,3222.8,3039.7,3175.9,3039.7L3175.9,3039.7z M3175.9,3339c-118.1,0-214.3-96.2-214.3-214.3
				c0-118.3,96.2-214.4,214.3-214.4c118.3,0,214.4,96.2,214.4,214.4C3390.3,3242.8,3294.1,3339,3175.9,3339z"/>
			<path id="_296606288" class="st0" d="M3748.5,2636.6c-46.7,0-85.1,38.2-85.1,84.9c0,46.7,38.2,84.9,84.9,84.9
				c46.9,0,84.9-38.2,84.9-84.9C3833.4,2674.8,3795.2,2636.6,3748.5,2636.6L3748.5,2636.6z M3748.5,2936
				c-118.1,0-214.4-96.2-214.4-214.4c0-118.3,96.4-214.3,214.4-214.3c118.3,0,214.4,96.2,214.4,214.3
				C3962.8,2839.8,3866.8,2936,3748.5,2936z"/>
			<path id="_296606168" class="st0" d="M4396.8,5736.5c-23.6,0-46.4-13-57.7-35.4c-79.2-156.4-79.2-315.1,0-471.5
				c16.1-31.8,55.1-44.7,86.9-28.6c31.8,16.1,44.7,55.1,28.4,86.9c-60.4,119.3-60.4,235.3,0,354.4c16.3,31.8,3.4,70.9-28.4,86.9
				C4416.6,5734.2,4406.5,5736.5,4396.8,5736.5z"/>
		</g>
		<path id="_296605952" class="st1" d="M1206.2,4898.6V233.2h-496c-247.8,0-449.4,201.6-449.4,449.4v4422.9
			c104.1-126.3,261.7-206.9,437.8-206.9H1206.2L1206.2,4898.6z"/>
		<path id="_296606120" class="st2" d="M2906.7,2499.2c-539.3,0-978.2-438.8-978.2-978.2s438.8-978.2,978.2-978.2
			s978.2,438.8,978.2,978.2S3445.9,2499.2,2906.7,2499.2L2906.7,2499.2z M4315.7,233.2h-2980v4665.4h3141.9V394.9
			C4477.7,305.7,4405,233.2,4315.7,233.2L4315.7,233.2z M3534.1,2721.5c0-118.3,96.4-214.3,214.4-214.3
			c118.3,0,214.4,96.2,214.4,214.3c0,118.3-96.2,214.4-214.4,214.4c-48.8,0-93.8-16.4-129.7-43.8l-238.4,167.7
			c6.5,20.4,9.9,42.1,9.9,64.7c0,118.3-96.2,214.4-214.4,214.4c-118.1,0-214.3-96.2-214.3-214.4c0-1.4,0-2.9,0-4.3l-185.5-62.8
			c-39,53.1-101.8,87.5-172.7,87.5c-37.1,0-72-9.4-102.5-26.2l-244,234.6c14.2,28.6,22.2,60.9,22.2,95
			c0,118.3-96.2,214.4-214.3,214.4c-118.3,0-214.4-96.2-214.4-214.4c0-118.3,96.2-214.3,214.4-214.3c37.1,0,71.9,9.4,102.3,26
			l244-234.6c-14.2-28.6-22.2-60.9-22.2-95c0-118.3,96.2-214.3,214.4-214.3s214.3,96.2,214.3,214.3c0,1.4,0,2.9,0,4.3l185.5,62.8
			c39-53.1,101.8-87.5,172.7-87.5c48.8,0,93.8,16.4,129.9,43.8l238.2-167.7C3537.5,2765.9,3534.1,2744.1,3534.1,2721.5
			L3534.1,2721.5z M2410.7,4524.3V3440.5c0-35.8,28.9-64.7,64.7-64.7h255.9c35.6,0,64.7,29.1,64.7,64.7v1083.8
			c0,35.8-28.9,64.7-64.7,64.7h-255.9C2439.8,4589,2410.7,4560.1,2410.7,4524.3L2410.7,4524.3z M1937,3820.7h255.9
			c35.8,0,64.7,28.9,64.7,64.7v638.9c0,35.8-29.1,64.7-64.7,64.7H1937c-35.8,0-64.7-28.9-64.7-64.7v-638.9
			C1872.3,3849.7,1901.2,3820.7,1937,3820.7z M2983.3,3634.4c0-35.8,28.9-64.7,64.7-64.7h255.9c35.8,0,64.7,28.9,64.7,64.7v889.9
			c0,35.8-29.1,64.7-64.7,64.7h-255.7c-35.8,0-64.9-28.9-64.9-64.7L2983.3,3634.4L2983.3,3634.4z M3555.8,4524.3V3231.3
			c0-35.8,28.9-64.7,64.7-64.7h255.9c35.8,0,64.5,28.9,64.5,64.7v1292.9c0,35.8-28.9,64.7-64.5,64.7h-255.9
			C3584.9,4589,3555.8,4560.1,3555.8,4524.3L3555.8,4524.3z"/>
		<path id="_296606192" class="st3" d="M4300.9,5323.5l-3586.2,3.6c-83.9,0-154.9,63.5-154.9,138.6s70.9,138.6,154.9,138.6
			l3586.4,2.6C4272.5,5512.6,4272.5,5417.8,4300.9,5323.5L4300.9,5323.5z"/>
		<path id="_296606072" class="st4" d="M4477.5,5028H698.7c-241.1,0-437.4,196-437.8,437.1v0.9c0.2,241.1,196.5,437.4,437.8,437.4
			h3746.7c11.5,0,19.2-6,22.8-9.6c3.6-3.6,9.4-11.3,9.4-22.8v-102.2c0-17.8-14.4-32.3-32.2-32.3H4399c-0.7,0-1.4,0-2.1,0
			c-0.7,0-1.4,0-2.1,0l-3680.1-2.7c-156.6,0-284.3-120.1-284.3-268c0-147.9,127.5-268,284.3-268l3679.3-3.6c1.7,0,3.6,0,5.3,0h45.9
			c17.8,0,32.2-14.5,32.2-32.3L4477.5,5028L4477.5,5028z"/>
		<path id="_297108552" class="st5" d="M2841.8,2051c-122.4-12.3-229.8-70.2-287.5-157.4c-19.7-29.8-11.5-70,18.3-89.7
			c29.8-19.7,70-11.5,89.7,18.3c33.9,51.3,101.5,87.6,179.5,98.4v-344.5c-185.9-34.9-298.1-141.5-298.1-288.7
			c0-142.9,127.8-262.7,298.1-292V891.2c0-35.8,28.9-64.7,64.7-64.7c35.8,0,64.7,28.9,64.7,64.7V991
			c122.4,12.2,229.8,70.2,287.5,157.4c19.9,29.8,11.6,70-18.1,89.7c-29.8,19.7-70,11.6-89.7-18.3c-34.1-51.3-101.7-87.6-179.7-98.4
			v341.1c172.8,29.1,298.3,149.2,298.3,292.1s-128,262.9-298.3,292v104.1c0,35.8-29.1,64.7-64.7,64.7c-35.6,0-64.7-28.9-64.7-64.7
			L2841.8,2051L2841.8,2051z M3755.5,1521c0-468.1-380.8-848.8-848.8-848.8c-467.9,0-848.7,380.8-848.7,848.8
			s380.8,848.8,848.7,848.8C3374.7,2369.7,3755.5,1989.1,3755.5,1521z"/>
		<path id="_297108192" class="st5" d="M3140.1,1754.6c0-72.4-70.9-136.7-168.7-160.2v320C3068.4,1891,3140.1,1827.3,3140.1,1754.6
			L3140.1,1754.6z"/>
		<path id="_297108648" class="st5" d="M2842,1443.5v-316.1c-97,23.4-168.7,87.3-168.7,160C2673.2,1382.9,2765,1425,2842,1443.5z"/>
		<polygon id="_297108816" class="st6" points="2128,4459.6 2128,3950.1 2001.7,3950.1 2001.7,4459.6 		"/>
		<path id="_297108216" class="st7" d="M2125.4,3389.1c-15.4-15.7-36.8-25.5-60.6-25.5c-46.9,0-84.9,38.2-84.9,84.9
			s38,84.9,84.9,84.9c46.7,0,84.9-38.2,84.9-84.9c0-22.6-8.9-43.1-23.3-58.4c-0.2-0.2-0.3-0.3-0.5-0.5
			C2125.8,3389.5,2125.6,3389.3,2125.4,3389.1L2125.4,3389.1z"/>
		<path id="_297108576" class="st5" d="M2688.3,2930.7c0-46.9-38-84.9-84.7-84.9c-46.9,0-85.1,38.2-85.1,84.9
			c0,22.8,9.1,43.6,23.8,58.9c15.4,16.1,37.1,26,61.3,26c37.3,0,69-24.1,80.3-57.7C2686.8,2949.3,2688.3,2940.1,2688.3,2930.7
			L2688.3,2930.7z"/>
		<polygon id="_297108840" class="st5" points="2666.6,4459.6 2666.6,3505.2 2540.3,3505.2 2540.3,4459.6 		"/>
		<polygon id="_297108336" class="st7" points="3239.2,4459.6 3239.2,3699.1 3112.7,3699.1 3112.7,4459.6 		"/>
		<path id="_297107544" class="st7" d="M3244.7,3074.6c-15.4-21.2-40.4-34.9-68.6-34.9c-37.3,0-69,24.1-80.4,57.7
			c-2.9,8.6-4.4,17.8-4.4,27.2c0,46.9,38,84.9,84.9,84.9c47.1,0,84.9-38.2,84.9-84.9c0-17.6-5.5-34.1-14.7-47.7
			c-0.3-0.3-0.5-0.9-0.9-1.2C3245,3075.3,3244.8,3074.9,3244.7,3074.6L3244.7,3074.6z"/>
		<path id="_297108024" class="st5" d="M3833.4,2721.5c0-46.9-38.2-84.9-84.9-84.9c-46.7,0-85.1,38.2-85.1,84.9
			c0,46.7,38.2,84.9,84.9,84.9C3795.2,2806.6,3833.4,2768.4,3833.4,2721.5L3833.4,2721.5z"/>
		<polygon id="_297107952" class="st5" points="3811.7,4459.6 3811.7,3296 3685.4,3296 3685.4,4459.6 		"/>
	</g>
</g>
</svg>
