<?xml version="1.0" encoding="utf-8"?>
<!-- Generator: Adobe Illustrator 26.0.1, SVG Export Plug-In . SVG Version: 6.00 Build 0)  -->
<svg version="1.1" id="Layer_1" xmlns="http://www.w3.org/2000/svg" xmlns:xlink="http://www.w3.org/1999/xlink" x="0px" y="0px"
	 viewBox="0 0 4549.3 5420.5" style="enable-background:new 0 0 4549.3 5420.5;" xml:space="preserve">
<style type="text/css">
	.st0{fill:#FDE500;}
	.st1{fill:#FFFFFF;}
	.st2{fill:#1E1E1E;}
</style>
<rect class="st0" width="4549.3" height="5420.5"/>
<rect x="2320.1" y="825.4" class="st1" width="1029.2" height="1589.9"/>
<rect x="3399.9" y="825.4" class="st1" width="1029.2" height="1589.9"/>
<path class="st2" d="M3368.9,2434.8H2320.1V825.4h1048.8V2434.8z M2339.7,2415.3h1009.8V844.9H2339.7L2339.7,2415.3L2339.7,2415.3z"
	/>
<path class="st2" d="M4439.1,2436H3390.3V826.6h1048.8V2436z M3409.7,2416.5h1009.8V846H3409.7V2416.5z"/>
<rect x="2761.5" y="1227.9" transform="matrix(0.7071 -0.7071 0.7071 0.7071 -173.6155 2367.6953)" class="st2" width="19.4" height="331.1"/>
<rect x="2878.6" y="1227.9" transform="matrix(0.7071 -0.7071 0.7071 0.7071 -139.3588 2450.4587)" class="st2" width="19.4" height="331.1"/>
<rect x="3846.3" y="1564.6" transform="matrix(0.7071 -0.7071 0.7071 0.7071 -94.0429 3233.3647)" class="st2" width="19.4" height="331.1"/>
<rect x="3963.3" y="1564.7" transform="matrix(0.7071 -0.7071 0.7071 0.7071 -59.7869 3316.1282)" class="st2" width="19.4" height="331.1"/>
<path class="st1" d="M793.5,3354.6c0,0-671,2176.2-542.8,2079.3s762.4-2047,762.4-2047L793.5,3354.6z"/>
<path class="st2" d="M781.7,3351.4l-16.2,53.1l-44,144.6c-21.6,71.6-43.2,143.2-64.6,214.8c-26.4,88.1-52.5,176.2-78.6,264.3
	c-28.6,96.8-56.8,193.6-84.7,290.4c-28.3,98.6-56.3,197.2-84,295.8c-25.9,93.1-51.3,186.3-76.1,279.6
	c-21.2,80.4-41.9,161-61.2,241.9c-14.3,60.5-28.2,121.3-39,182.6c-5.9,33.5-14.3,70.4-10.3,104.7c1.2,10.4,4.6,22.7,16.2,25.6
	c11.6,3,21.9-6.6,28.8-14.7c26.8-31,44.4-71.1,61.8-107.7c30.4-64.3,57.7-129.9,84.2-195.7c34.4-85.3,67.2-171.3,99.3-257.4
	c36.7-98.2,72.7-196.8,107.8-295.8c36.7-102.8,72.9-205.8,108.4-309.1c34.3-98.9,68.2-197.9,101.7-297
	c29.4-86.5,58.5-173.2,87.4-259.9c21.9-65.7,43.7-131.5,65.4-197.4c12.1-36.6,24.1-73.1,36.1-109.7l4.6-14.2
	c1.9-5.7-2.2-14-8.5-14.9L824,3346.9l-27.3-4c-15.3-2.2-22,21.2-6.4,23.6l192.1,28.2l27.4,4l-8.6-14.9
	c-6.2,19.2-12.5,38.4-18.8,57.6c-17.2,52.2-34.3,104.3-51.5,156.3c-25.5,76.8-51.1,153.5-76.9,230.3c-31.4,93.2-63,186.4-94.8,279.5
	c-34.7,101.1-69.7,202.1-105,303c-35.3,100.9-71.4,202.2-108.4,303.9c-33.7,93-68.3,185.7-103.7,278.2
	c-29.4,76.4-59.9,153.6-91.7,228.2c-22.4,52.4-45.3,105.1-73.1,154.9c-4.5,8.2-9.3,16.4-14.4,24.2c-2.1,3.3-4.2,6.6-6.4,9.7l-3,4
	c1.8-2.4-0.1,0.3-1.5,1.9c-1.4,1.7-3.6,4.2-5.7,6.2l-2.4,2.2c-2.7,2.7,1.5-1.8-0.3,0.3s-1.4,0.8-2.1,1.3c-0.6,0.5,3.5-1,0.8-0.4
	c-2.7,0.6,2.8,0.3,2.8,0.1s4.1,2.4,2.4,1.2c0.5,0.4,2.2,3.1,0.8,0.9c-1.4-2.2,0.6,2.6,0.1,0.5c-0.5-2.1-0.9-3.6-1.3-5.4
	c-1-3.7,0.1,2.6-0.1-0.3s-0.3-2.6-0.3-3.9c-1-14.4,0.6-29,2.3-43.3l0.8-6.6l0.4-3.5c-0.3,2.2,0,0.1,0.3-1.8
	c0.8-5.3,1.5-10.6,2.4-15.8c1.8-11.8,3.9-23.7,6.1-35.4c5.3-28.6,11.2-56.9,17.4-85.3c16-72.8,33.9-145.1,52.3-217.4
	c22.4-88.3,46-176.4,70.1-264.4c26.4-96.3,53.3-192.5,80.6-288.5c28-98,56.2-195.8,84.7-293.6c27-92.2,54.1-184.3,81.5-276.4
	c23.5-79.6,47.3-159,71.3-238.4c18-59.7,36.1-119.3,54.2-179l30.1-98.3l3.9-12.6C809.9,3342.9,786.3,3336.4,781.7,3351.4z"/>
<rect x="2555.4" y="3920.5" class="st1" width="102.8" height="1524.3"/>
<path class="st2" d="M2658.1,5432.5h-102.6l12.1,12.2V3982.4c0-19.7,1-39.7,0-59.4v-2.6l-12.1,12.2h102.6l-12.1-12.2v1462.5
	c0,19.7-0.4,39.5,0,59.2v2.6c0,15.7,24.3,15.7,24.3,0V3982.4c0-19.8,0.4-39.5,0-59.4v-2.6c-0.1-6.7-5.5-12.2-12.2-12.2h-102.6
	c-6.7,0.1-12.2,5.5-12.2,12.2v1462.5c0,19.7-0.4,39.5,0,59.2v2.6c0.1,6.7,5.5,12.2,12.2,12.2h102.6
	C2673.9,5457,2674,5432.5,2658.1,5432.5z"/>
<rect x="2127.7" y="3854.1" class="st1" width="876.9" height="201.9"/>
<path class="st2" d="M3004.6,3841.9h-841.2c-11.5,0-22.8-0.3-34.1,0h-1.5c-6.7,0.1-12.2,5.5-12.2,12.2v201.9
	c0.1,6.7,5.6,12,12.2,12.1H2969c11.3,0,22.7,0.3,34.1,0h1.4c3.1,0.1,6.1-1.1,8.2-3.2l0.5-0.4c0-0.1,0.1-0.1,0.1-0.3
	c2.2-2.1,3.5-5.1,3.3-8.2v-201.9C3016.7,3847.4,3011.3,3842,3004.6,3841.9z M2981.1,4043.8h-817.8l-23.4-0.3v-177.3H2969
	c7.7,0,15.6,0.4,23.4,0.3v177.3L2981.1,4043.8z"/>
<polygon class="st1" points="2146.5,4795 2098.1,4501.5 2268.8,4495.9 2317.5,4789.4 "/>
<path class="st2" d="M2329.2,4786.1c-5.4-33.1-10.9-66.3-16.5-99.4c-8.7-52.5-17.4-105.1-26.1-157.8c-1.9-12.1-4-24.2-5.9-36.3
	c-0.9-5.2-6.8-9.1-11.8-9l-149.5,5l-21.1,0.6c-8.6,0.3-13.1,7.6-11.8,15.5c5.5,33.1,10.9,66.3,16.4,99.4
	c8.8,52.5,17.4,105.1,26,157.8c2.1,12.1,4,24.2,6.1,36.3c0.3,1.8,1.1,3.5,2.4,4.8c2.2,2.9,5.7,4.5,9.3,4.2l149.8-5l21.2-0.6
	C2326,4801.3,2330.6,4794,2329.2,4786.1z M2167.7,4782.2l-11.1,0.4c-4.9-30-9.8-60.1-14.8-90.1c-8.7-52.5-17.3-105.1-26-157.8
	l-3.5-21.4l135.2-4.5l11.1-0.4c5,30,9.9,60.1,14.9,90.1c8.8,52.5,17.5,105.1,26.1,157.8c1.2,7.1,2.3,14.3,3.6,21.4L2167.7,4782.2z"
	/>
<path class="st1" d="M2133.5,4795.4l-209.8,101.9l-119.4,23.3c-54.7,10.8-94.9,49.3-98.4,94.8l-1.7,21.2l666.8-22.2l-27-226
	L2133.5,4795.4z"/>
<path class="st2" d="M2127.3,4785l-67.4,32.6l-111.1,54c-9.8,4.8-19.6,9.4-29.4,14.3c-0.7,0.2-1.3,0.5-1.9,0.9
	c2.3-1.9,3.9-1.3,0.5-0.8c-6.1,0.9-12,2.3-18,3.6c-33,6.4-65.9,12.6-98.8,19.3c-30.4,6.1-60.1,21-80.6,44.6
	c-10.3,11.5-18,25.1-22.8,39.8c-3.3,10.7-4,21.8-4.9,32.8c-0.3,3.5-0.5,7.1-0.9,10.6c-0.4,6.4,6.1,12.5,12.2,12.2l66.5-2.2
	l159.7-5.3l192.3-6.4l166.3-5.5c26.9-0.9,54.1-1,81-2.7h1.2c5.9-0.1,13-5.4,12.1-12.2c-3-25.4-6.1-50.7-9-76.1
	c-4.9-40.6-9.7-81.1-14.6-121.7c-1.2-9.4-2.2-18.8-3.3-28.2c-0.8-6.3-4.9-12.4-12.2-12.1l-71.2,2.3l-113.1,3.7l-26.3,0.9
	c-15.7,0.5-15.7,24.9,0,24.3l71.2-2.3l113.1-3.7l26.3-0.9l-12.1-12.2c3,25.5,6.1,50.9,9,76.2c4.9,40.6,9.7,81.1,14.6,121.7
	c1.2,9.4,2.2,18.8,3.3,28.1l12.2-12.1l-66.6,2.2l-159.6,5.3l-192.3,6.4l-166.3,5.5l-54.9,1.8c-8.6,0.3-17.5-0.1-26.1,0.8h-1.2
	l12.2,12.1c1.5-20.5,2.7-38.5,14.2-56.4c15.8-24.7,43.3-40.1,71.3-46.6c32.5-7.6,65.6-13,98.1-19.3c9.7-1.9,21-2.6,30-6.7
	s15.6-7.5,23.3-11.3l106.8-51.8c26-12.5,52.7-24.2,78-37.9l1.3-0.6c5.9-2.8,7.6-11.3,4.4-16.6C2140.7,4784,2133.2,4782,2127.3,4785z
	"/>
<polygon class="st2" points="2372.2,4971.3 1700.3,4993.7 1701.7,5040.2 2373.8,5018 "/>
<path class="st2" d="M2895.2,3346.9l-905.7,76.9c-75.2,8.5-140.9,78.7-153.6,172.2c-5.9,43.3-0.4,84.6,13.4,119.8l234.1,961.2
	l257.8-9.1l-95.8-842.8l608.2,6.1c103,1.3,235.7-64.4,248.2-221.6C3113.8,3460.7,3014.2,3333.4,2895.2,3346.9z"/>
<path class="st1" d="M3084.2,3452.3c-28.2-56.1-79.1-105.1-142.7-116c-15.3-2.7-30.8-3.3-46.2-1.7l-31,2.7l-83.3,7.1l-121.1,10.2
	l-142.9,12.1l-150.3,12.7l-142.8,12.2l-120.4,10.2l-83.3,7.1c-10.7,0.9-21.5,1.5-32.2,2.7c-71.5,8.5-126.3,65.3-150.9,130.3
	c-15.2,40.2-18.8,84.6-12.6,127.1c2.6,17.4,8.1,33.2,13.3,50c0.3,0.9,0.4,1.7,0.6,2.6c3.5,14.6,7.1,29.1,10.6,43.7
	c7.1,29.2,14.3,58.5,21.4,87.8c9.8,39.9,19.4,79.8,29.2,119.6c11.3,46.8,22.7,93.5,34.1,140.1l35.7,146.7
	c11.5,47.2,23,94.4,34.5,141.7c10,41.5,20.1,82.9,30.3,124.4c7.7,31.7,15.4,63.3,23.1,94.8c4.4,17.6,8.6,35.4,13,53.1
	c0.5,2.2,1,4.5,1.7,6.7c1.4,5.3,6.2,9,11.7,9l87.1-3.1l138.8-5l31.9-1.2c6.1-0.1,13-5.4,12.2-12.1c-3.2-28.1-6.3-56-9.5-84
	c-7.6-67.2-15.2-134.4-22.9-201.5c-9.3-81.3-18.5-162.6-27.7-243.8l-24-209.5c-2.6-23.2-5.3-46.5-7.9-69.8
	c-0.8-7.1-1.3-14.4-2.2-21.8l29.5,0.3l108.2,1.2l142.6,1.4l144.1,1.4l115.1,1.2l54,0.5c48.1,0.4,95.5-11.7,137.5-35.2
	c54.6-30.4,95.3-80.9,113.3-140.8C3124.6,3597.2,3116.9,3517.6,3084.2,3452.3z M3087.5,3628c-9.5,59.9-41.1,113.6-91.3,147.8
	c-42.1,28.5-91.8,43.5-142.6,43.1l-43.3-0.5l-106-1l-139-1.4l-142-1.4l-115.8-1l-59.5-0.6h-2.7c-6.1-0.1-12.9,5.7-12.2,12.1
	c3.3,28.1,6.4,56.1,9.5,84c7.7,67.2,15.4,134.4,22.9,201.5l27.8,243.8c7.8,69.8,15.8,139.6,23.8,209.5c2.6,23.2,5.3,46.5,7.9,69.8
	c0.9,7.3,1.4,14.9,2.3,22.4l-73.3,2.6l-138.8,5l-22.4,0.8c-1.5-6.2-3.1-12.4-4.5-18.5c-6.2-25.1-12.2-50.2-18.4-75.3
	c-8.9-36.7-17.9-73.4-26.8-110.1c-10.9-44.7-21.8-89.4-32.6-133.9c-11.8-48.3-23.7-96.6-35.4-145c-11.8-48.4-23.4-96.5-35-144.1
	c-10.7-43.7-21.4-87.4-31.9-131c-8.5-35.2-17.1-70.3-25.6-105.3c-5.7-22.9-11.2-45.7-16.7-68.6c-1.3-5.5-2.7-11.1-4-16.6l-0.8-3.1
	c-4-13-8.6-25.4-11.3-38.8c-14.6-74.2,8.6-157.6,68-206.3c23.6-19.4,51.8-30.1,81.9-32.6l61.4-5.3l105.1-8.9l134.1-11.3l148.1-12.6
	l147.6-12.5l131.6-11.2l102.4-8.6l57.8-4.9l7.5-0.6c59.6-6.6,114,24.9,148.1,72.8C3083.3,3487.6,3098.2,3560.5,3087.5,3628z"/>
<polygon class="st1" points="1494.7,4377.9 1623.6,4109.8 1766.7,4203.3 1637.9,4471.4 "/>
<path class="st2" d="M1772.9,4192.7l-125.2-81.8l-17.8-11.7c-5.3-3.3-14-1.3-16.7,4.4l-43.7,90.8l-69.4,144.1l-16,33.2
	c-2.8,5.9-1.7,13.1,4.4,16.6l125.4,82l17.9,11.6c5.2,3.5,13.9,1.4,16.6-4.4l43.7-90.8l69.2-144.2l16-33.2
	C1780.2,4203.1,1778.8,4196.6,1772.9,4192.7z M1643.3,4432.1c-3.3,7.2-6.8,14.3-10.3,21.5l-114.4-74.7l-8.4-5.4l38.6-80.4
	c23.1-47.9,46.2-95.9,69.3-144l10.4-21.6l114.1,74.6c2.8,1.8,5.7,3.6,8.4,5.5c-12.9,26.7-25.6,53.4-38.5,80.2
	C1689.6,4336,1666.5,4384,1643.3,4432.1L1643.3,4432.1z"/>
<path class="st1" d="M1483.8,4370.7l-230.1-37.1l-111.1-49.5c-51-22.7-106-14.2-135,21.1l-13.7,16.4l558.5,364.8l107.8-200.5
	L1483.8,4370.7z"/>
<path class="st2" d="M1487,4359l-72.1-11.7l-121.4-19.6l-33.7-5.4c-0.6-0.1-1.8-0.6-2.6-0.4s4.4,1.9,1.7,0.6l-14.7-6.4l-94.7-42.1
	c-28.5-12.6-59.5-18-90.3-12c-15.7,3-30.5,9.4-43.4,18.8c-9.3,7-16.4,15.2-23.7,24.1l-6.8,8.2c-5.2,6.2-4.5,14.6,2.4,19.1l55.8,36.4
	l133.7,87.3l161.1,105.2l139.3,90.9c22.5,14.8,44.6,30.7,67.7,44.3l1,0.6c5.3,3.5,13.7,1.3,16.6-4.4l36.3-67.6l58.1-107.9
	c4.4-8.4,8.9-16.6,13.4-25c3.3-5.8,1.3-13.2-4.4-16.6l-59.6-39l-94.8-61.9l-22-14.4c-13.3-8.5-25.5,12.5-12.4,21.1l59.8,39
	l94.7,61.8l22,14.4c-1.4-5.5-2.8-11.1-4.4-16.6l-36.3,67.6l-58,107.9c-4.5,8.2-9,16.6-13.4,25l16.6-4.4l-55.6-36.4l-133.7-87.3
	l-161.1-105.2l-139.3-90.9l-46-30c-7.2-4.8-14.3-10.2-21.8-14.3l-1-0.6c0.8,6.3,1.7,12.7,2.4,19.1c13.4-16.2,25.9-32.3,46.4-40.1
	c28.3-10.6,60.1-7.3,87.6,4.5c30,13,59.9,26.7,89.8,39.9c7.9,3.5,16.5,8.8,25,10.8c8.5,2.1,18.2,3,27.2,4.4l116.8,18.8
	c28.1,4.6,56,9.3,84,13.7h1.4c6.4,1.2,13.1-1.7,14.9-8.5C1497.3,4367,1493.6,4360,1487,4359z"/>
<polygon class="st2" points="1015.3,4284.3 989.8,4323.2 1552.7,4690.8 1578.3,4652 "/>
<path class="st2" d="M2957,3362.3l-893.6-166.8c-12.6-2-25.4-2.3-38.1-0.8c-61.7,0.8-115.8,31-137.4,86.3l-5.5,14.2
	c-4.8,8.2-9.1,16.7-12.7,25.5c-6,14-10.8,28.5-14.2,43.4L1510.8,4245l216.5,140.5l410.3-753.9l650.5,186.5
	c99,28.5,244.3,0.5,298.3-147.7C3137.3,3530.1,3075.4,3380.9,2957,3362.3z"/>
<path class="st1" d="M3113.8,3530.5c-9.1-66.6-44.6-134.2-106.9-165c-14.7-7.2-30.4-12.3-46.6-15.1l-106.5-19.8l-247.3-46.1
	l-282.5-52.8l-209.8-39.1l-44.7-8.2c-17.8-3.2-35.5-2.4-53.4-1.4c-35.5,2.2-70.1,13.8-97.7,36.3c-12.9,10.5-23.9,23.3-32.3,37.7
	c-6.3,10.9-9.4,23.2-15.1,34.4c-8.9,17.4-18,36.2-23.7,55.9c-1.4,4.9-2.3,9.9-4,14.8c-4.2,12.2-9.5,24.2-14.2,36.3l-73.5,187.8
	c-34.3,88.1-68.8,176.1-103.3,264.1c-32.4,82.5-64.6,165-96.8,247.4c-17.9,46-35.8,91.9-53.8,137.7c-0.8,2.2-1.7,4.2-2.4,6.3
	c-2.1,5.2,1.4,11.1,5.5,13.8l189.7,123.2l26.8,17.4c5.4,3.5,13.7,1.2,16.6-4.4l41-75.2c32.7-60,65.4-120,98-180l118.5-217.5
	l102.6-188.7l33.6-61.7c4-7.3,8.8-14.8,12.6-22.4l33.2,9.5l109.2,31.3l144.5,41.5l150.8,43.1l125.6,36.1l71.2,20.3
	c36.7,10.6,74.8,14.9,112.8,10.4c64-7.6,124.4-37.5,164.7-88.5C3104.1,3689.2,3124.2,3606.9,3113.8,3530.5z M3053.5,3711.1
	c-32.5,53.7-85.9,88.9-147.1,100.6c-39.5,7.5-80.1,4.6-118.6-6.3l-178.6-51.3l-290.1-83.2c-58.5-16.7-116.8-34.6-175.5-50.2
	l-2.7-0.8c-5.3-1.4-10.9,0.9-13.7,5.7c-13.7,25-27.4,50.1-41.1,75.2l-97.9,179.9l-118.5,217.5l-102.6,188.7l-33.6,61.7
	c-3.5,6.4-7.5,12.7-11.1,19.3l-178.8-116l-17.9-11.7c11.5-29.4,23-58.7,34.5-88.1c29.6-75.9,59.3-151.7,89-227.4l104.4-267.4
	c28.2-71.9,56.4-143.7,84.4-215.6c7.9-19.8,15.7-39.7,23.3-59.6c1.8-4.4,3.6-8.8,5.2-13.1c0.6-1.4,1-2.8,1.3-4.2
	c5.5-21.1,13.5-41.5,23.7-60.8c5.2-9.9,8.1-20.9,13.4-30.8c7.6-14.1,18-26.6,30.5-36.6c27.2-21.5,59.4-27.6,92.9-29.9
	c19.6-1.3,35.8,1.4,54.5,4.9L2262,3245l272.8,50.9l263.4,49.2l148.6,27.7l7,1.3c64.9,10.6,109.9,62.3,128,123.2
	C3102.8,3567.7,3091.5,3648.4,3053.5,3711.1z"/>
<path class="st0" d="M3100.3,2883c-3.1-22.7-6.1-44.7-11.6-75c-9.3-51.8-18.4-84.7-26.9-133.8c-5.9-34.4-9.3-58.2-11.6-78.7l0,0
	c-1.9-19.8-3.2-34.8-3.2-35.4c-1.9-23.6,75.9-111.5,95.3-188.4c4.1-16.1,14.3-56.5-2.4-96.7c-5.7-13.4-29.5-52.3-176.3-107
	c-88.1-32.8-160.6-40.6-204.9-45.1c-138.4-14.2-243.9,5.5-286,15.2c-69,15.8-125.7,28.8-159.8,51.3c-12.2,4.2-22.8,12-30.5,22.3
	l-350.2,501c-2.6,3.7-4.9,7.7-6.7,11.8l184.4,213.4c6.9-4.4,12.8-10.1,17.5-16.7c41.9-59,103-144.8,165.2-230.4l-1.8,3.2
	c-16.9,106.2-37.6,217.1-63,331.7c-13.1,59.5-27,117.5-41.5,174.1c142.9,24.7,261.3,46.6,349,63.4c17.8,3.3,63.2,12.1,154.2,29.9
	c231.7,45.2,259.9,51.9,293.5,75.6c33.6,23.7,94.8,81.9,120.4,219.8c12.6-110.6,19.1-221.7,19.6-333
	C3122.9,3255.4,3123.7,3052.9,3100.3,2883z"/>
<g>
	<path class="st2" d="M3059,2559.1c0.1-0.1,0.1-0.4,0-0.5l0,0V2559.1z"/>
	<path class="st2" d="M3060.3,2554.5c0.2-0.6,0.4-1.2,0.6-1.8c0.1-0.1,0.1-0.2,0.1-0.3l0.3-0.6c3.5-7.2,7.3-14.2,11.5-21
		c11.6-19.2,24.1-38,35.7-57.2c24.5-40.7,46.2-83.7,51.6-131.4c3.6-31.2-0.5-66.2-21.4-90.8c-16.7-20.1-40.7-34.5-63.2-47
		c-93.9-51.6-198.6-81.1-304.7-92.5c-96.2-10.3-194.2-8.2-289.1,11.7c-49.3,10.2-100.3,20.7-146.8,40.4c-9.5,4-18.2,9.1-27.2,14
		c-5.7,3.1-11.5,5-16.9,8.6c-5.9,4.1-11.1,8.9-15.7,14.4c-2.2,2.7-4.4,5.6-6.3,8.5l-63.6,90.9L2094.5,2459l-109.9,157.1l-61,87.3
		c-3.4,4.7-6.3,9.6-8.8,14.8c-2.6,4.8-1.8,10.8,1.9,14.8l62.6,72.4l99,114.6l22.8,26.4c3.3,3.9,10.6,4.6,14.8,1.8
		c19.2-12.6,30.9-33.9,44-52.3s29-40.7,43.5-60.9c22.3-31.2,44.6-62.2,67-93.1c-2.1,12.6-4.2,25.4-6.4,38
		c-5.8,33.2-11.9,66.4-18.4,99.5c-13.2,68.5-27.8,136.8-43.7,204.8c-8.8,37.5-17.9,75-27.4,112.3c-1.5,5.9,1.8,13.8,8.5,14.9
		c100.8,17.5,201.6,35.7,302.4,54.6c71.2,13.4,142.3,27.3,213.4,41.2c71.1,13.9,144.8,26.3,215.6,45.2c8.2,2.2,16.5,4.6,24.5,7.3
		c3.3,1.2,6.6,2.3,9.7,3.6l1.8,0.6l0,0l4.1,1.9c4.9,2.3,9.6,4.9,14.2,7.7l6.4,4.2l4,3l2.6,1.8l0.9,0.6l0.6,0.5
		c52.7,42,82.8,104.1,99.7,168.6c3.3,12.9,6.2,26,8.6,39.1c1.2,5.9,7.9,9.7,13.4,8.8s9.9-5.8,10.6-12
		c12.6-110.6,19.2-221.7,19.6-333c0.3-63-2.1-126.1-5.7-188.9c-3.6-62.8-8.9-124.8-17.3-186.7c-8-57.6-19.7-114-31.3-170.9
		c-5.9-28.7-10.9-57.7-15.1-86.7c-3-20.5-4-41.1-6.6-61.6c-0.1-0.5-0.1-1,0-1.5c-0.1,0.8-0.4,0.9-0.1-0.5l0,0
		c0.1-0.3,0.1-0.5,0.3-0.8L3060.3,2554.5z M3044.7,2530.6c-5.8,10.8-10.8,21.4-9.7,33.9c2.1,23.3,4.5,46.4,7.9,69.4
		c8.5,57.8,22.4,114.4,33,171.7c4.9,26.8,8.9,53.7,12.6,80.7c13.8,100.1,19.1,201.5,21.4,302.6c1.4,66.2,0.5,132.4-2.7,198.7
		c-2.1,43.5-5.2,87.1-9,130.5c-17-52.4-43.4-102-84-139.6c-22.7-20.9-47.3-35.5-76.6-44.7c-21.5-6.7-43.7-11.7-65.7-16.5
		c-39.4-8.6-78.9-16.4-118.5-24.2c-76.4-15.1-152.8-30-229.2-44.6c-96.8-18.3-193.8-35.9-290.9-52.9l-32.1-5.7
		c32.4-127.7,60.1-256.3,83.2-386c3.2-17.9,6.3-35.9,9.4-53.8l4.6-27.9c0.6-4.4,1.4-8.9,2.2-13.3c0.8-4.4,0.5-8.8,2.3-12.1
		c7.7-14.2-12-24.9-21-12.4c-32.3,44.6-64.4,89.2-96.5,133.9l-41.9,58.7l-18.7,26.1c-4.4,6.1-8.5,12.2-13.7,17.5
		c-18.5-21.2-37-42.5-55.4-64c-33.1-38.2-66.2-76.4-99.2-114.6c-5.5-6.6-11.2-13-16.7-19.4c3.9-6.4,8.4-12.5,12.7-18.7l30.8-44
		c33.7-48.1,67.2-96.1,100.7-144l113.7-162.7l80.9-115.8c4.5-6.4,8.8-13,13.5-19.3l1.4-1.7l3.2-3.5c4.7-4.7,10.3-8.4,16.4-11.1
		c9.8-4.2,18.8-10.3,28.6-14.7c22.5-10,46.7-16.5,70.4-22.5c39.8-10.2,79.8-19.7,120.4-25.8c49.3-7,99.2-10,149-8.8
		c49.3,1,98.4,5.6,146.9,13.9c58.3,10,114.6,27.7,169.3,50.4c22.2,9.1,43.9,19.4,65,30.8c7.7,4.4,15.5,8.9,22.8,13.7l9.1,6.1
		c1.3,0.9,2.5,1.8,3.7,2.8l3.2,2.3c7.4,5.8,14.2,12.3,20.3,19.3l0.5,0.6l0.6,0.9l2.3,3.5c1,1.8,2.1,3.7,3,5.7
		c18.4,42.5,3.7,94-15.5,133.7S3066.4,2490.9,3044.7,2530.6L3044.7,2530.6z"/>
</g>
<path class="st1" d="M2678.4,2290L2678.4,2290c72.6-17.4,119.6-81.1,105-142.4l-56.5-236.3l-263,63l56.5,236.2
	C2535,2271.7,2605.9,2307.3,2678.4,2290z"/>
<path class="st2" d="M2753.7,2023.8c0,0-27,167.4-126.9,190.1c-10.2,2.3-37.6,9.3-63.6-3.6c-28.6-14.3-41.5-45.6-54.5-77.3
	c0,0-2.7-6.8-20.6-63.2l0,0c0,0,74.8,93.9,153.3,75.2C2728.8,2124.1,2753.7,2023.8,2753.7,2023.8z"/>
<path class="st2" d="M2795.4,2145.8c-0.9-4.6-2.1-9.1-3.2-13.7l-40.6-169.9c-4.4-18.2-8.8-36.2-13-54.3c-1.7-6.6-8.8-10-15.1-8.5
	l-89,21.2l-141.7,33.9l-32.3,7.9c-6.6,1.5-10,8.8-8.5,14.9c10.8,45.5,21.7,91,32.6,136.4c6.4,27,12.9,54,19.4,80.9l4.2,18
	c4.1,16.7,11.9,32.3,22.8,45.6c35.4,43.8,97.7,55.8,150.5,43.4c47.6-11.7,90.3-43.8,108.7-90.1
	C2798.6,2190.6,2800.4,2167.7,2795.4,2145.8z M2773.1,2182c-7,49.7-51.5,84.7-98,96.2c-42.4,9.8-90.9,1.3-121.6-31.3
	c-10.6-11.4-18-25.3-21.6-40.4l-3.9-16.2l-40.2-168.1c-3.1-13-6.3-26-9.4-39l77.5-18.5l141.7-33.9l20.1-4.9
	c9.7,40.2,19.2,80.2,28.8,120.3c6.4,27.2,12.9,54.2,19.4,81.4C2770.4,2145.8,2775.7,2163.6,2773.1,2182L2773.1,2182z"/>
<path class="st1" d="M2413.7,1938.9c0,0-24.6-24.1-58-1.4c-33.4,22.7,4.6,107.8,62.3,106c0,0,20.7-0.4,33-17.6
	C2451.1,2025.8,2421.8,1963.4,2413.7,1938.9z"/>
<path class="st2" d="M2414.7,1939.7c-13.3-12.9-33.7-17.3-51.4-13c-12.2,3.1-24.6,9.8-32.1,20.2c-5,7.1-7.2,16-7.6,24.6
	c-1.2,19.1,6.6,38.9,17.4,54.2c12.1,17.4,29.2,31.9,50.1,37.2c23.8,5.9,47.9-1.4,62.8-21.5c2.6-3.6,1.7-8.6,0-12.4
	c-5.3-11.2-10.4-22.4-15.5-33.7l-6.2-14l-3.1-7.1l-1.5-3.6c-0.3-0.8-0.3-0.8,0.1,0l-0.8-1.7c-3.2-7.9-6.6-15.8-9.3-23.8
	s-8.4-10.4-14.9-8.6c-6.6,1.8-10.7,8.8-8.6,15.1c10.4,30.8,24.9,60.5,38.6,89.9V2029c-2.5,3.4-5.8,6.1-9.7,7.9
	c0.4-0.1-3.3,1.7-1.8,1s-1.9,0.6-1.8,0.6c-1.9,0.7-3.8,1.2-5.8,1.5l-2.3,0.5c-2.2,0.5,1.8,0.4,1-0.1c-0.8-0.5-1.5,0.1-1.9,0.1
	c-1.2,0.1-2.5,0.1-3.7,0h-3.5c-2.6-0.3,1.5,0.3-1.3-0.3c-9.1-1.7-13.4-3.3-21-8.2l-4.6-3.3c1.9,1.5-0.9-0.8-1-0.9l-2.2-1.8
	c-3.2-3-6.2-6.1-8.9-9.5c-2.3-2.8,0.8,1-0.6-0.6l-1.5-2.3c-1.1-1.5-2.2-3.1-3.1-4.8c-2.4-3.7-4.5-7.6-6.2-11.7
	c0.9,2.2-1-2.4-1.2-3.1s-1.2-3.3-1.7-5c-0.5-1.7-1-3.9-1.4-5.9c-0.4-2.1-0.1-1.3-0.3-1.9s-0.3-1.3,0,0.3c-0.1-0.6-0.1-1.3-0.3-1.9
	c-0.1-3.1,0-6.1,0-9.1c0-3.1-0.6,2.6,0-0.3l0.4-2.2c0.4-1.7,1-3.5,1.5-5.2c-1,3,0.4-0.4,1-1.4l1-1.7c0.9-1.3-2.1,1.9-0.1,0.3
	l2.8-2.7c-2.7,2.6,0.8-0.5,1.2-0.8l5.8-3.2c4.8-2.4,10-3.7,15.3-3.7h3.1l2.3,0.4c2.2,0.5,4.3,1.2,6.4,1.9c3.1,0.9-2.1-1.3,0.6,0.3
	l2.4,1.3c1.4,0.7,2.7,1.5,4,2.3c3.2,2.2-1.2-1.2,0.4,0.4l1,0.9C2408.8,1967.7,2426.1,1950.6,2414.7,1939.7z"/>
<path class="st1" d="M2756.1,1855.8c0,0,15.1-32.8,53.3-26.9s44.8,98.3-7.5,122.7c0,0-18.7,9-37.3-0.8
	C2764.5,1950.9,2760,1881.3,2756.1,1855.8z"/>
<path class="st2" d="M2766.7,1862l1.2-2.2l1.4-2.2c0.4-0.6,3.1-4.2,0.9-1.4c1.7-2.3,3.7-4.4,5.8-6.3c0.8-0.8,1.6-1.5,2.4-2.2
	c-0.4,0.4-1.8,1.2,0.3-0.1c1.8-1.3,3.7-2.5,5.7-3.5c3.3-1.7,6.8-2.8,10.4-3.3c4.1-0.5,8.3-0.5,12.4,0.1c1.5,0.3,3,0.7,4.4,1.3
	c-3-1.2,1,0.6,1.9,1l1.4,1c-2.1-1.4-0.8-0.6-0.3-0.3c1.4,1.2,2.7,2.6,3.9,4c1.5,1.7,0.1,0.1-0.1-0.1l1.4,1.9c0.9,1.3,1.7,2.6,2.3,4
	l1.4,2.7c-0.3-0.4-0.9-2.2,0,0.1l1.9,5.7c0.9,3.5,1.6,7,2.2,10.6c-0.3-2.1,0.3,3.1,0.3,4c0,0.9,0.3,4,0.3,6.1
	c0.1,7.6-1,15.3-3.3,22.5c-2.1,7.3-5.4,14.1-9.9,20.2c-2.4,3.1-5.1,6-8.1,8.6l-1,0.9c-0.9,0.8-2.1,1.4-3.1,2.2s-4.2,2.2-6.2,3.5
	c-1.9,1.3,3.1-0.9-0.5,0.1c-2.2,0.7-4.3,1.3-6.6,1.8c-6.3,1.1-12.9,0.3-18.7-2.4c2.1,3.5,4.1,7,6.1,10.6c-2.1-32.8-4-65.8-8.8-98.3
	c-1-6.6-9.3-10.2-15.1-8.5s-9.4,8.4-8.5,14.9l0.4,2.8c-0.3-1.8,0-0.8,0.1,0.4s0.5,4.4,0.6,6.4c0.5,4.5,1,9,1.4,13.4
	c1,10.6,1.9,21,2.7,31.6c0.8,10.6,1.9,24.7,2.7,37.2c0.3,4.1,2.1,8.5,6.1,10.4c23.8,11.7,50.4,5.7,68.8-12.7
	c15.2-15.2,22.8-36.1,24.9-57.1c1.7-18.2-1.2-39-11.5-54.5c-12.7-18.9-34.8-24.9-56.5-18.8c-15.7,4.2-31.4,16.4-38.4,31.4
	c-2.8,6.1-1.7,13.1,4.4,16.7C2756.1,1870,2764,1868.1,2766.7,1862z"/>
<path class="st2" d="M2789.4,1871.5l0.9,0.6l0.4,0.4c1,0.6-1-0.9-0.5-0.5l1.4,1.2c2.4,2,4.6,4.1,6.7,6.4l1.8,1.9
	c0.9,1.2-0.6-0.8,0,0.1c0.3,0.4,0.6,0.8,0.9,1.3c0.5,0.7,1,1.5,1.4,2.3c0.2,0.3,0.5,0.7,0.6,1l0.3,0.5c0.3,0.5,0.8,0.9-0.1-0.3
	c0.4,0.7,0.7,1.5,0.8,2.3l0.4,1.3c0.3,1.5,0-0.8,0,0.1v1.7c0,0,0,0.6-0.1,0.6l-0.4,1.4c-0.1,1,0.3-0.5,0.3-0.5s-0.4,0.8-0.4,0.9
	l-0.9,1.4l0,0l-0.3,0.4l-1.4,1.4c-0.3,0.3-1.5,1.3-1,1c0.5-0.3-0.4,0.1-0.5,0.3l-1,0.8c-1.6,1-3.2,1.8-4.9,2.6
	c-3,1.4-3.7,5.7-2.2,8.4c1.7,2.9,5.4,3.9,8.4,2.2c5.5-2.7,11.3-6.6,14.3-12.1c2.4-4.6,3-9.9,1.7-14.9c-2.2-8.1-8.4-15.1-14.6-20.3
	l-5.7-4.5c-2.9-1.7-6.6-0.7-8.4,2.2C2785.4,1866.3,2786.7,1869.6,2789.4,1871.5L2789.4,1871.5z"/>
<path class="st1" d="M2359.4,1862.5c12.7,53.7,44.9,164.7,93.9,223.4c46,55.2,105.2,76.6,173,62.6c67.7-14,111.5-51.9,132.1-142.8
	s-15.6-233.9-15.6-233.9s-45.8-191.8-235.4-146.4C2307.7,1673.2,2359.4,1862.5,2359.4,1862.5z"/>
<path class="st2" d="M2771,1857.9c-4.2-31.3-8.8-63.4-17.6-93.8c-8.4-28.6-21.7-55.5-39.4-79.5c-28.8-38.8-69.5-67.6-117.8-75.6
	c-32.8-5.3-66.1-2.2-98,6.2c-31.9,8.4-61.8,21.4-87.6,41.6c-36.8,28.7-59.9,71.2-66.6,117.2c-4.4,29.1-3.5,58.7,2.6,87.4
	c0.4,1.4,0.6,2.8,1,4.2c15.7,65.6,36.8,132.5,70.8,191c18.9,32.5,43.9,61.7,76,81.8c31.7,19.7,68.8,28.8,106,25.9
	c31.6-2.3,64.1-10.9,91-27.9s45.6-40.4,58.7-68C2781.4,2002.4,2780.4,1928.8,2771,1857.9z M2746.7,2001.7
	c-6.8,30.7-18.2,63.2-37.7,86.9c-16.7,20.3-38.1,33.9-62.5,41.9c-31.2,10.2-65,13.7-97,5.5c-34.6-8.9-63.6-30.1-86.4-57.2
	c-22.8-27-36.6-56-49.3-86.4c-13.1-31.4-24.2-63.6-33.2-96.3c-3.3-12.2-6.6-24.5-9.5-36.8c-1.4-5.3-2.3-10.6-3.2-16l-0.4-3.2l0,0
	c-0.2-0.8-0.2-1.6-0.3-2.4c-0.4-3.2-0.8-6.4-1-9.7c-0.5-7.6-0.8-15.2-0.6-22.8c0.1-4.2,0.3-8.5,0.6-12.7c0.1-2.1,0.3-4.1,0.5-6.2
	l0.4-3.1c0-0.6,0.1-1.2,0.3-1.8l0,0c1.2-9.5,3.3-18.9,6.1-28.1c1.4-4.9,3-9.7,4.9-14.4c0.1-0.3,0.6-1.8,0.9-2.3
	c0.3-0.5,0.9-1.9,1-2.4c0.1-0.5,2.2-4.8,3.3-7.1c2.5-4.9,5.2-9.6,8.1-14.2l4.6-7l2.4-3.1v-0.3l1.5-1.8c35.4-43.7,95-66.7,151.2-69.8
	c26.1-1.4,50,1.7,74.4,12l2.8,1.3l3.7,1.8l7.5,4c4.9,2.7,9.6,5.7,14.2,8.9l3.5,2.4l1.3,1c0.1,0,0.1,0,0.1,0.1c2.2,1.5,4.2,3.2,6.2,5
	c4,3.3,7.7,7,11.5,10.7c3.7,3.7,7,7.3,10.2,11.3c1.5,1.8,3.1,3.6,4.5,5.5l0.9,1.2l2.3,3.1c5.3,7.4,10.2,15.1,14.7,23.1
	c3.9,6.8,7.3,14,10.6,21.2l1.5,3.5l1.4,3.6c1.2,2.7,2.2,5.4,3.1,8.1c6.4,17.9,9.9,36.7,13.5,55.2c5.6,29.5,9.6,59.3,11.8,89.2
	C2753.4,1936.1,2753.8,1969.8,2746.7,2001.7L2746.7,2001.7z"/>
<path class="st2" d="M2509.1,1949.8l5,21.4c1.9,7.5,7.5,13.7,15.1,15.2c4.1,0.9,8.4,0.6,12.4-0.8l5.2-2.6l11.6-6.2
	c2.8-1.8,3.8-5.4,2.2-8.4c-1.7-2.9-5.4-3.9-8.4-2.2l-9.1,4.9l-4.4,2.3l-0.3,0.3l-0.5,0.3h-0.3l-2.4,0.5h-2.7c1.3,0.1,0.4,0.1,0.1,0
	l-1-0.3l-0.8-0.3l-0.5-0.3l-1.2-0.6l0,0c-0.4-0.4-0.8-0.7-1.2-1.2c-0.3-0.1-0.8-0.9-0.1,0c-0.3-0.3-0.5-0.7-0.6-1
	c-0.3-0.4-0.5-0.7-0.6-1.2c0.4,0.8,0-0.1-0.1-0.3l-0.4-1.8l-2.7-10.9c-0.8-3.5-1.7-6.8-2.4-10.3c-0.9-3.2-4.2-5.1-7.5-4.2
	c-3.2,0.9-5.1,4.2-4.2,7.5L2509.1,1949.8z"/>
<path class="st2" d="M2590.1,1886.5c2.2,9.9,12.1,16.2,22,14c9.9-2.2,16.2-12.1,14-22c0-0.2-0.1-0.4-0.1-0.6
	c-2.6-9.8-12.6-15.8-22.4-13.2C2593.9,1867.1,2588,1876.8,2590.1,1886.5z"/>
<path class="st2" d="M2562.7,1851.3l-6.6-24.6c10.7-4.6,43.8-17.5,82.8-13.5c15.8,1.5,31.2,6.1,45.3,13.5
	c-21.2,0.5-42.3,2.9-63.1,7.2C2601.2,1838.1,2581.7,1843.9,2562.7,1851.3z"/>
<path class="st2" d="M2478,1874.5l-7.9-24.2c-8.8,0.4-34.9,2.3-56.5,21.6c-9.2,8.3-16.4,18.7-20.9,30.3c13-8.1,26.9-14.6,41.5-19.2
	C2448.4,1878.4,2463.1,1875.6,2478,1874.5z"/>
<path class="st2" d="M2472.2,1914.7c2.4,9.8-3.6,19.7-13.4,22.1c0,0-0.1,0-0.1,0c-9.9,2.4-19.8-3.7-22.2-13.5
	c-2.4-9.9,3.7-19.8,13.5-22.2c9.7-2.5,19.6,3.4,22.1,13.1C2472.1,1914.4,2472.2,1914.6,2472.2,1914.7z"/>
<path class="st2" d="M2595.8,2018l-75.7,18.2l-10.7,2.6c-7.6,1.8-4.4,13.5,3.2,11.7l75.9-18.2l10.7-2.6
	C2606.8,2027.9,2603.5,2016.2,2595.8,2018z"/>
<path class="st2" d="M2580.2,2053.1c-0.9,0.6-1.9,1.2-3,1.7l-3.3,1.7l0,0l-1.2,0.4l-2.7,1c-9.9,3.5-20.3,5.2-30.8,5
	c-3.3-0.1-6.1,2.6-6.2,5.9c0,0,0,0.1,0,0.1c0.1,3.4,2.8,6.1,6.2,6.1c11.6,0.2,23-1.6,34-5.3c4.6-1.6,9-3.6,13.1-6.1
	c2.8-1.8,3.8-5.4,2.2-8.4C2586.9,2052.4,2583.1,2051.5,2580.2,2053.1L2580.2,2053.1z"/>
<path class="st2" d="M2309.9,1736.3c1.2-41.5,12.7-102.5,91.2-164.7c129.6-102.8,240.8,23.1,240.8,23.1c38.4-13.7,74.3-7.7,102,25.6
	c26,31.2,24.9,101.9,25,126.3c-3.2,38.1-6.4,76.2-9.8,114.4c-12.6-37.9-25.4-75.6-38-113.5c-62.6-16.7-74.1-59.8-90.8-92
	c-17.3,33.7-56.3,98.5-128.3,141.8c0,0-51.6,30.9-120.3,35.7c-3.9,0.3-7.8,0.3-11.7,0.1c-4.9,34-2.1,68.6,8.4,101.4
	c-15.6-36.3-31.3-72.6-46.9-108.8c-8.3-19.2-14.5-39.2-18.3-59.8C2311.1,1754,2309.8,1743.5,2309.9,1736.3z"/>
<path class="st1" d="M2709.7,3114.9l-173.2,35.9l-149.6,32.5c-61.2,16.2-225.8,62.2-242.2,22.9c-17.5-41.5,25.1-126.9,162.4-172.8
	c106.2-35.5,199-27.3,199-27.3l1.8-0.4c3.2-0.5,6.3-0.8,9.5-0.9l161.8-33.6c39.4-10,79.4,13.7,89.4,53.1
	c10,39.4-13.7,79.4-53.1,89.4C2713.5,3114.2,2711.6,3114.6,2709.7,3114.9L2709.7,3114.9z"/>
<g>
	<path class="st2" d="M2153.3,3192.7L2153.3,3192.7L2153.3,3192.7z"/>
	<path class="st2" d="M2735.5,2968.1c-15.1-8.4-32.5-11.9-49.7-10.2c-5.7,0.6-11.1,1.8-16.5,3l-52.2,10.7l-67.5,14
		c-11.7,2.4-23.7,5.8-35.5,7.3c-0.6,0.1,0.8-0.3,0.6-0.3l-9.1,1.2h-0.3c-1.7-0.3-3.3-0.4-5-0.3c-8.9-0.5-17.8-0.6-26.7-0.5
		c-34,0.6-67.9,4.1-101.4,10.6c-71.9,13.9-148.1,41.2-200.4,94.7c-16.6,17-30.9,37.1-38.5,59.8c-5.4,16.1-7.2,34.8-0.9,50.9
		c7.6,19.6,29.5,23.8,48.4,24.7c26.4,1.4,53.3-3.1,79.2-7.7c28.1-5.2,55.9-11.7,83.7-18.7l34.8-9.1c17.1-4.6,34.5-8.1,51.8-11.8
		c51.1-11.1,102.3-22.2,153.4-32.8l120.9-25l8.1-1.7c34-7.7,61-36.1,66.1-70.6C2784,3021.7,2767.1,2985.1,2735.5,2968.1z
		 M2742.1,3081.6c-9.1,11.3-21.6,18.4-35.7,21.6l-91.4,18.9c-33.6,7-67.2,13.9-100.8,21.1l-66.5,14.4c-21.6,4.6-43.5,8.6-65,14
		c-21.5,5.4-44.6,12-67.1,17.4c-27.2,6.6-54.5,12.5-82,16.6c-11.7,1.8-23.5,3.1-35.3,3.6c-5.5,0.3-11.2,0.3-16.7,0l-6.7-0.5h-1.5
		l-3.2-0.5l-5.4-1.3l-2.7-0.9l-0.6-0.3c-1.2-0.8-2.4-1.5-3.7-2.1c-0.4-0.5-0.9-1-1.4-1.4l0,0c-0.1-0.3-0.2-0.5-0.4-0.8
		c-0.3-0.9-1-3-1.3-3.6c-0.3-0.6-0.8-3.1-1-4.6c0-0.2,0-0.4-0.1-0.5c0,0.1,0.1,0.3,0.1,0.5s-0.1-0.4-0.1-0.5c0-0.1-0.1-1,0-0.6
		c-0.1-0.6-0.1-1.2-0.1-1.8c-0.2-3.7-0.1-7.5,0.3-11.2l0,0v-0.4l0.4-2.6c0.4-2.2,0.9-4.3,1.5-6.4l1.9-6.3c0.4-0.9,0.7-1.8,1-2.7
		c0.3-0.8,0.6-1.6,1-2.3c1.9-4.3,4-8.5,6.4-12.6c5.4-9.5,12-18.3,19.6-26.1c8.8-9.5,18.4-18.2,28.8-25.9
		c27.7-20.6,59.1-35.8,91.7-47c60.7-21,126.3-31.3,190.6-28.7c26,1,52.4-7.2,77.8-12.5l106-21.9c22.8-4.8,45.8,2.6,61,20.5
		C2760,3025.7,2760.1,3059.4,2742.1,3081.6L2742.1,3081.6z"/>
</g>
<path class="st0" d="M3146.7,2296.1l-282,92.3c22.9,105.9,58,307.7,86.7,478.2l-405.3,56.1v290.4l575-81.1c52,3.5,102.4-38,121.7-97
	c3.3-20.2,6.7-40.4,10.2-60.5L3146.7,2296.1z"/>
<path class="st2" d="M3264.6,2970.4l-0.8-5.2c-1.3-7.7-2.4-15.5-3.6-23.1l-13.9-88.7c-6.6-42.1-13.3-84.1-19.8-126.2
	c-7.4-47.1-14.8-94.3-22.2-141.4l-20.9-133.7c-5.5-34.8-10.9-69.7-16.5-104.6c-2.7-17.4-5-35-8.1-52.4l-0.4-2.3
	c-1-6.6-9.1-10.2-15.1-8.5s-9.5,8.5-8.5,14.9c3.6,22.6,7.1,45.1,10.6,67.5c8.5,54.1,17,108.1,25.4,162.1
	c10.3,65.2,20.6,130.6,30.8,196c8.8,56.6,17.7,113.1,26.5,169.5c4.1,26.7,7.3,53.6,12.5,80.1c-2.1,12.5-4.1,25-6.3,37.5
	c-2.2,12.5-3.9,23.4-9,34.5c-8.4,18.8-20.9,35.6-36.4,49.1c-13.8,12.1-30.6,20.2-48.7,23.4c-3.7,0.6-7.4,1-11.1,1
	c-6.2,0-12.4,0.5-18.5,1.3l-43.3,6.1l-334.3,47.3l-174.6,24.6v-265.9l307-42.6l89.2-12.4c7-0.9,9.5-9.3,8.5-14.9
	c-22.2-132.4-44.7-264.8-70.1-396.5c-5.3-27.3-10.7-54.5-16.5-81.6c-3.3-15.3-26.9-8.9-23.6,6.4c25.9,120.4,46.2,242.1,67.1,363.4
	c5.8,33.7,11.6,67.5,17.3,101.2l-305.2,42.4l-89.2,12.4c-5.2,0.8-9,7-9,11.7v290.4c0,8.8,7.9,12.9,15.5,11.8l285.1-40.3l141.9-20
	l71-10c24-3.3,48-7.6,72.1-10.2c8.2-0.9,16.5-0.3,24.9-1.5c8-1.2,15.8-3.3,23.2-6.4c16.3-6.6,31.1-16.2,43.8-28.3
	c13.1-12.5,24.1-27.2,32.3-43.4c4.4-8.6,9-18.2,11.2-27.7c2.2-9.5,3.7-22.5,5.7-33.7C3262.4,2992.2,3266.1,2980.9,3264.6,2970.4z"/>
<path class="st1" d="M2735.2,3362.3c0,0,670.8,2176.2,542.8,2079.3c-128-96.8-762.4-2047-762.4-2047L2735.2,3362.3z"/>
<path class="st2" d="M2723.3,3365.5c5.4,17.5,10.8,34.9,16.1,52.4c14.5,47.6,29,95.3,43.5,142.9c21.5,70.8,42.9,141.7,64,212.5
	c26,86.8,51.9,173.7,77.5,260.8c28.2,95.6,56.1,191.2,83.8,286.9c28.2,98,56.1,196.1,83.6,294.1c25.8,92.6,51.1,185.3,75.9,278.2
	c21.5,80.7,42.4,161.8,61.8,243c14.8,61.7,29.1,123.5,40.6,186c2.1,11.6,4.1,23.3,5.9,35l2.3,15.6c0.1,1.4-0.4-2.4,0.1,1l0.4,3.3
	c0.3,2.4,0.6,4.9,0.9,7.3c1.5,14,2.8,28.2,1.9,42.2l-0.4,3.5c0.3-1.9,0.6-2.3-0.1,0.5c-0.8,2.8-0.9,3.3-1.4,5c1.3-4.4,1-2.2,0.3-0.9
	c-0.8,1.3,2.3-2.4,0.6-0.8c-1.7,1.7,3.5-1.8,2.3-1.4c-1.2,0.4,6.2,0.1,2.7-0.4c3.6,0.6,1,0.6-1.4-1.3c3.9,3.2-1.4-1.4-2.8-2.8
	c-1.4-1.4-3.9-4.2-5.8-6.4c-1.9-2.2,0.6,1-1.2-1.7c-1.8-2.7-2.3-3-3.3-4.5c-1-1.5-4.5-6.6-6.6-9.9c-5.2-8.1-9.9-16.4-14.6-24.7
	c-12.2-22-23.3-44.8-34-67.6c-30.1-64.4-56.7-128.7-83.1-194.5c-34.4-85.6-67.1-171.9-99.3-258.5c-36.5-97.7-72.1-195.7-106.9-294
	c-36.5-102.1-72.4-204.4-107.7-307c-34-98-67.6-196.2-100.8-294.4c-28.9-85.6-57.7-171.3-86.4-257.1
	c-21.6-64.9-43.2-129.9-64.6-194.8c-11.8-36-23.7-71.9-35.4-107.9c-1.5-4.6-3-9.3-4.5-13.9l-8.5,14.9l192.3-28.2l27.3-4.1
	c15.5-2.2,8.9-25.8-6.6-23.4l-192.1,28.2l-27.4,4.1c-6.3,0.9-10.3,9.3-8.5,14.9c6.3,19.4,12.7,38.9,19.1,58.3
	c17.4,52.7,34.9,105.4,52.3,158.1c25.8,77.6,51.6,155.2,77.7,232.7c31.9,94.5,63.9,188.9,96.1,283.2
	c35,102.3,70.4,204.4,106.2,306.5c35.8,102.1,72.2,203.9,109.1,305.3c33.8,93.2,68.6,186.2,104.3,278.9
	c29.6,76.9,60.1,153.5,92.7,229.1c22,51.3,44.6,102.9,72.4,151.4c8.1,14.3,16.9,28.8,27.9,41.2c7,7.9,17.1,16.6,28.5,13.5
	c24-6.6,16.5-50.4,14.7-67.5c-5.3-50.1-15.7-99.7-26.3-148.9c-15.7-72.4-33.2-144.4-51.5-216.1c-22.4-88.3-45.7-176.4-69.8-264.1
	c-26.4-97.1-53.4-194-81-290.7c-28.1-98.7-56.5-197.3-85.3-295.7c-27.2-93.2-54.6-186.2-82.3-279.2c-24-80.4-48-160.7-72.1-241
	c-18.3-60.4-36.6-120.9-55-181.3l-30.5-99.9c-1.4-4.4-2.7-8.6-4-12.9C2742.2,3344.2,2718.7,3350.5,2723.3,3365.5z"/>
<rect x="140.8" y="3254" class="st1" width="3226.5" height="168.3"/>
<path class="st2" d="M3367.3,3410.1H189.5c-14.3,0-29-1.2-43.1,0c-1.8,0.1-3.7,0.1-5.5,0l12.2,12.2V3254c-4.1,4-8.1,8.1-12.2,12.2
	h3178c14.2,0,29,1.2,43.1,0c1.8-0.1,3.6-0.1,5.4,0l-12.1-12.2v168.3c0,15.7,24.3,15.7,24.3,0V3254c-0.1-6.7-5.5-12.2-12.2-12.2
	H271.8c-41.9,0-83.7-0.8-125.4,0h-5.5c-6.7,0.1-12.1,5.5-12.2,12.2v168.3c0.1,6.7,5.5,12.1,12.2,12.2h3095.5
	c41.9,0,83.7,0.8,125.6,0h5.4C3383.1,3434.6,3383.1,3410.1,3367.3,3410.1z"/>
<polygon class="st2" points="1545.1,3220.9 1545.1,3256.2 2566.7,3256.2 2566.7,3201.9 "/>
<path class="st2" d="M2566.7,3189.8l-27.4,0.5l-74.2,1.3l-109.7,2.1l-134.4,2.6l-146.7,2.7l-148.1,2.7l-138.6,2.6l-116.7,2.2
	l-84.2,1.5c-13.3,0.3-26.5,0.3-39.8,0.8h-1.7c-2.8,0-5.6,1-7.7,2.8c-2.9,2.2-4.6,5.7-4.5,9.4v35.3c0.1,6.7,5.5,12.2,12.2,12.2h980
	c13.3,0,26.5,0.3,39.8,0h1.7c6.7-0.1,12.2-5.5,12.2-12.2v-54.3C2578.9,3195.2,2573.4,3189.8,2566.7,3189.8z M2539.3,3244.1h-952.6
	l-29.4-0.4v-10.8l15.3-0.3l74.2-1.4l109.7-2.1l134.4-2.4l146.7-2.8l148.1-2.7l138.6-2.6l116.7-2.2l84.2-1.5c9.8-0.1,19.6,0,29.4-0.3
	v29.4L2539.3,3244.1z"/>
<polygon class="st1" points="1338.6,2701.9 2072.2,2701.9 2273.2,3220.9 1545.1,3220.9 "/>
<path class="st2" d="M2285.1,3217.7l-20.1-51.9l-47.9-123.8c-19.3-49.9-38.7-99.8-58.1-149.6l-50.2-129.9c-8.1-21-16.1-42-24.5-62.8
	c0-0.3-0.1-0.6-0.3-0.9c-1.9-5-6.1-8.9-11.7-8.9H1429c-29.6,0-59.5-0.9-89.1,0h-2.8c-3.1,0.2-5.9,1.8-7.7,4.2
	c-2.6,3.1-4,7.2-2.4,10.9c6.8,17.3,13.7,34.5,20.6,51.8c16.3,41.2,32.7,82.5,49.2,123.8c19.8,50,39.8,100,59.8,150.2l51.4,129.3
	c8.4,21,16.6,42.1,25.2,63.1c0,0.3,0.1,0.6,0.3,0.9c2.1,5,6.1,9,11.8,9H2184c29.4,0,58.9,0.9,88.1,0h1.3
	C2280.6,3233.2,2288,3225.2,2285.1,3217.7z M2200.8,3208.7h-626c-7.1,0-14.4-0.4-21.6-0.3c-5.5-14.2-11.2-28.3-16.9-42.5
	l-49.2-123.6c-19.9-50.1-39.8-100.1-59.8-150.2c-17.2-43.1-34.3-86.2-51.5-129.4c-6.4-16.1-12.7-32.3-19.3-48.6h685.8
	c7.2,0,14.6,0.4,21.8,0.3c5.5,14.2,10.9,28.5,16.5,42.6c16,41.2,32,82.5,48,123.8l58,149.6c16.7,43.4,33.5,86.7,50.4,129.9
	c5.4,14.2,10.9,28.3,16.5,42.5l2.1,5.8H2200.8z"/>
<path class="st2" d="M1813.2,2928.1c0-3.3,0.4-6.6,1.2-9.8c-2.1-0.3-4.2-0.5-6.3-0.5c-22.8-0.1-41.4,18.4-41.5,41.2
	c-0.1,22.8,18.4,41.4,41.2,41.5c19.1,0.1,35.8-13,40.3-31.6C1828,2965.7,1813.2,2948.4,1813.2,2928.1z"/>
<path class="st2" d="M2308.4,2691.4l85-154.4l12-21.5c7.5-13.8-13.5-26-21.1-12.4l-85,154.4c-4,7.1-8,14.3-11.8,21.5
	C2279.8,2692.8,2300.8,2705,2308.4,2691.4L2308.4,2691.4z"/>
<path class="st1" d="M733.2,3142.5c77.3-152.5,90-250.4,85.9-313.2c-1.8-27.8-7.7-57.8-3.9-108.8c6.6-86.4,33-129.8,11.6-149.9
	s-53.6,15.3-92.3-3.9c-45.1-22.4-29.6-84.2-87.3-120.5c-19.3-12.1-46.7-21.2-52.7-13.4c-5.9,7.9-2.2,19.7,12.7,36.3
	c34.6,38.5,48.2,83.5,12.2,119.6c-35.9,36.2-18.3,75.5,18.4,82c36.7,6.6,100.8,33,78.8,114c-22,81-94.9,127.8-47,196.4
	c47.9,68.6-5,165-5,165L733.2,3142.5z"/>
<path class="st2" d="M740.8,3146.9c32.8-64.8,61.6-132.9,77-204.1c5.3-23.9,8.7-48.2,10.2-72.6c1.2-20.9,0-41.6-2.1-62.3
	c-3.6-36.2-4.1-71.9,0.1-108c2.1-17.4,5.2-34.8,8.8-52c2.6-12.6,5.5-25.1,7.3-37.7c1.5-9.9,2.7-20.3,0-30.3
	c-2.9-10.4-10.7-18.8-20.9-22.5c-12.9-4.4-26.9,0.5-39.5,3.5c-12.6,3-29.5,5.3-43.3-1.8c-10.9-5.4-17.8-13.4-23.4-24.1
	c-5.7-10.7-9.7-22.7-14.8-34.9s-12.6-26.8-22.3-38.4c-9.7-11.6-26-24-41.9-31.2c-7.9-3.6-16.1-6.8-24.6-8.2c-6.4-1.2-14-1.9-20,1.8
	c-13.8,8.6-7.3,27.9-0.4,38.8c5.5,8.6,13.1,15.7,19.2,24c5.8,7.6,10.8,15.8,14.8,24.5c6.4,14.2,9,30.3,4.5,45.3
	c-2.6,8-6.7,15.4-12.2,21.8c-6.8,7.7-14,14.7-18.9,23.8c-7.5,13.9-10,30.7-3.9,45.6c6.2,14.9,18.9,25.2,34.1,30
	c9.8,3,20,4.2,29.7,7.6c4.4,1.5,8.7,3.3,12.7,5.5c4.9,2.5,9.6,5.4,14,8.6c1.9,1.3,3.7,2.8,5.4,4.4c2.1,1.9,4.1,3.9,5.9,5.9
	c1.6,1.7,3,3.5,4.2,5.4c1.7,2.5,3.3,5.1,4.8,7.9c1,2,2,4.1,2.7,6.3c1.2,3.1,2.1,6.4,2.7,9.7c1.3,6.4,1.7,12.8,1.3,19.3
	c-0.8,16.9-6.2,33.6-12.6,49.1c-12.1,28.6-30.5,54-43.3,82.2c-5.8,13-10.3,26.4-11.3,40.7c-0.7,14.7,2.5,29.4,9.3,42.5
	c3.9,7.6,9.1,14.3,13.4,21.8c3.8,7,6.9,14.4,9,22.2c3.8,14.6,5.1,29.8,3.7,44.8c-1.1,13.9-3.7,27.6-7.9,41
	c-1.7,5.8-3.6,11.5-5.7,17.1c-0.8,2.2-1.7,4.2-2.6,6.4c-0.2,0.6-0.4,1.1-0.6,1.7c-0.5,1.3,0.9-1.9,0,0s-0.9,2.2-1.4,3.2
	c-1.7,3.7-3.3,7.3-5.3,10.9s0.6,13.5,7.6,13.1l68.6-3.6c11.2-0.6,11.2-18.2,0-17.5l-68.6,3.6c2.4,4.5,5,8.9,7.5,13.3
	c7.1-13.3,12.7-27.3,16.9-41.7c8.8-28.6,12.5-59.2,6.6-88.7c-3.3-16.6-10.4-31.6-19.8-45.6c-7.7-11.6-12.9-24.9-13.3-38
	s3.1-24.2,7.9-35.4c5.7-13.4,13.1-26,20.3-38.6c27.8-48.7,63.4-119.1,16-167.7c-15.1-15.5-35.8-25.2-56.7-30.4
	c-11.3-2.8-22.9-4.1-31.4-12.2c-8.5-8.1-12.1-20.6-8.4-33.1c5.3-17.8,21.9-28.2,30.5-44.2c8.6-16,10.4-33.2,7-50.6
	c-3.5-17.4-13-34.6-24-49.1c-6.2-8-13.7-15.1-18.8-23.7c-1.6-2.5-2.8-5.3-3.6-8.1l-0.4-1.8c0.4,1.8,0-0.8,0-0.9v-1.5
	c-0.1,1.9,0,0,0.3-0.5c0-0.2,0.1-0.4,0.1-0.6c-0.4,0.9-0.4,1.2-0.1,0.5c0.3-0.6,0.9-2.7-0.1,0c0.4-0.9,0-0.1-0.4,0.3s-1,0.6,0,0
	c1-0.6,2.1-0.4,0.3-0.1h1.5c1.5,0,2.9,0.2,4.4,0.4c7.5,1.3,14.8,3.7,21.6,7.1c14.9,7,28.5,16.5,38.6,29.6
	c16.5,21.2,20.9,47.1,34.1,70.3c6.4,11.3,15.5,21.1,27,27.3c15.5,8.4,32.5,9.4,49.5,6.2c7.1-1.3,13.9-3.3,21-4.9l3.9-0.8
	c1-0.3,2.1-0.5,3.2-0.5l4.5-0.3h2.7c2.2,0.2,4.3,1,6.1,2.3l1.9,1.7c0.5,0.5,2.7,3.3,1.2,1.2c0.9,1.3,1.7,2.7,2.4,4.1
	c0.6,1.3-0.3-0.4-0.3-0.6s0.4,1,0.5,1.5l0.8,2.7c0.1,0.6,0.5,3.9,0.3,1.2c0.1,1,0.1,1.9,0.3,2.8c0.1,2.3,0.1,4.6,0,7
	c-0.1,2.3-0.4,4.5-0.6,6.7c-0.3,2.2-0.1,1-0.1,1.5c0.3-2.1-0.1,0.6-0.1,0.9l-0.8,4.1c-2.2,13.4-5.4,26.5-8,39.8
	c-7.6,37.7-12.1,76.2-11.1,114.7c0.6,25.9,4.8,51.4,5.5,77.3c0.3,9.5,0,19.2-0.5,28.8c-0.3,5.3-0.8,10.7-1.3,16
	c-0.5,5.3-1.3,12-1.8,15.7c-8.8,61.8-29.6,121.8-54.7,178.9c-8.5,19.2-17.5,38-26.9,56.7C720.6,3148.2,735.8,3156.9,740.8,3146.9z"
	/>
<path class="st2" d="M700.8,3035.5c-0.8-0.5-1.1-1.6-0.6-2.4c78.9-158.5,55.1-306.2,21.1-402.2c-36.8-104.1-92.9-171.3-93.5-171.9
	c-0.7-0.8-0.6-2,0.3-2.7c0.7-0.7,1.8-0.7,2.5,0c0.1,0.1,0.1,0.1,0.2,0.2c0.5,0.8,57.2,68.5,94.1,173.2
	c34.3,96.7,58.2,245.5-21.2,405.2c-0.4,0.9-1.4,1.4-2.3,1c-0.1,0-0.2-0.1-0.2-0.1L700.8,3035.5z"/>
<path class="st1" d="M888.2,2996.5l-7.7,62.5L857,3248.4H622l-31.2-251.9l0,0c0-5.2,66.3-9.3,148.1-9.3c21.1,0,41.2,0.3,59.4,0.8
	h0.5c52,1.4,88.2,4.5,88.2,8.4L888.2,2996.5z"/>
<path class="st2" d="M879.4,2996.5c-3.3,26.6-6.7,53.4-9.9,80.2c-5.5,44.2-10.9,88.3-16.5,132.5c-1.5,13.1-3.2,26.1-4.8,39.1
	l8.8-8.6H622l8.8,8.6c-3.5-28.3-7.1-56.7-10.6-85c-5.5-45.2-11.2-90.4-16.7-135.7l-3.9-31.2l-8.8,8.8l0,0c5,0,8.4-4.1,8.8-8.8
	c-0.3,3-2.3,5.9-3.3,6.4c-1,0.5-2.4,0.6-0.1,0.1l5.5-1.3l3.6-0.5c1.7-0.3-1.3,0.1,0.4-0.1l2.7-0.3l10.7-1
	c20.9-1.8,41.7-2.6,62.6-3.1c53.2-1.4,106.6-1.3,159.8,1.8c10.3,0.6,20.5,1.3,30.8,2.6h-0.4l1.5,0.3l2.3,0.4c1.4,0.1,2.7,0.4,4,0.8
	c0.9,0.1,2.2,0.9,3,0.8c0.8-0.1-2.2-1-0.9-0.3c-2-1.6-3.3-4-3.5-6.6c0.5,4.6,3.6,8.8,8.8,8.8h1.2c11.2,0,11.2-17.5,0-17.5H887
	l8.8,8.8c-0.8-7.3-6.6-9.9-13-11.2c-8.2-1.5-16.4-2.5-24.7-3.1c-26.1-2.2-52.5-2.8-78.8-3.3c-53.3-0.9-107-1-160.2,3.5
	c-8.1,0.5-16.1,1.5-24.1,3c-6.3,1.3-12.1,3.9-12.9,11.2l8.8-8.8l0,0c-4.2,0-9.4,4-8.8,8.8c3.4,28.3,7,56.7,10.6,85
	c5.5,45.2,11.1,90.5,16.7,135.7l3.9,31.3c0.5,4.6,3.5,8.6,8.8,8.6h235c5.2,0,8.1-4,8.8-8.6l12.4-100.8c3.9-30.4,7.6-60.8,11.3-91.2
	c2.4-20,4.9-40.1,7.5-60c0.5-4.8-4.5-8.8-8.8-8.8S879.9,2991.7,879.4,2996.5z"/>
<path class="st2" d="M1344.6,204.6v976c0,13.1-0.4,26.4,0,39.5v1.7c0,11.1,24.3,11.1,24.3,0V245.9c0-13.3,0.4-26.4,0-39.7v-1.7
	C1368.9,193.6,1344.6,193.6,1344.6,204.6L1344.6,204.6z"/>
<path class="st1" d="M1330.3,1239.2l-540.9,426c-31.8,25.1-14.2,76.2,26.4,76.2h1081.9c40.4,0,58.2-51.1,26.4-76.2l-541-426
	C1367.6,1227,1345.7,1227,1330.3,1239.2z"/>
<path class="st2" d="M1893.4,1625.7c-16.7-13.4-33.7-26.5-50.6-39.8l-116.2-91.6l-140.4-110.5l-121.8-95.9l-60.7-47.9
	c-7.3-6-15.6-10.6-24.5-13.8c-22.4-7.4-47.1-3.4-65.9,10.8l-1.2,1l-1.3,0.9l-47.8,37.7l-115.4,90.8l-139.7,110.1l-123.4,97.1
	l-62.8,49.6c-18.7,14.8-30.1,37.5-28.2,61.6c3,37.3,32.7,66.8,70.6,67.9c14,0.3,28.1,0,42.1,0h940.4c26.4-0.1,51-13.4,63.9-36.7
	C1927.4,1686.6,1920.7,1647.7,1893.4,1625.7z M1893.4,1695.5c-1.9,6.3-5.1,12.1-9.3,17.1c-10.4,12.1-23.3,16.6-39.3,16.6H865.7
	c-29.7-0.3-50.7-25.5-47.6-54.5c0.1-0.1,0.5-2.8,0.6-3.3c0.4-1.9,0.9-3.8,1.5-5.7c1.1-3.4,2.7-6.6,4.6-9.5
	c3.3-5.1,7.5-9.6,12.4-13.3l4-3.2l25.1-19.7l101.2-79.8l135.7-106.8l129.7-102.3l83.6-65.8l9.7-7.6c16.9-12.6,38.8-14.6,56.8-3
	c0.9,0.7,1.9,1.3,2.8,1.9l2.1,1.7l23.2,18.2l98.9,78l135,106.2l131.2,103.4l86.2,67.9l13.8,10.8c4.8,3.8,8.9,8.2,12.4,13.3
	c1.8,2.8,3.3,5.9,4.4,9c0.5,1.5,1,3.2,1.4,4.9c0.3,1,0.5,2,0.6,3.1c0.1,0.6,0.2,1.2,0.3,1.8
	C1896.2,1681.9,1895.6,1688.9,1893.4,1695.5L1893.4,1695.5z"/>
<path class="st2" d="M1857.4,1741.5h-1005c-21.1,0-38.2-17.1-38.2-38.2v-17h1081.6v17C1895.7,1724.4,1878.5,1741.5,1857.4,1741.5z"
	/>
<path class="st2" d="M1477.3,1329.4h-241.9v-197.6c-0.1-18.6,15-33.8,33.6-33.9c0,0,0.1,0,0.1,0h174.4c18.6,0,33.7,15.1,33.7,33.7
	c0,0,0,0.1,0,0.1L1477.3,1329.4L1477.3,1329.4z"/>
</svg>
