<?xml version="1.0" encoding="utf-8"?>
<!-- Generator: Adobe Illustrator 26.0.1, SVG Export Plug-In . SVG Version: 6.00 Build 0)  -->
<svg version="1.1" id="Layer_1" xmlns="http://www.w3.org/2000/svg" xmlns:xlink="http://www.w3.org/1999/xlink" x="0px" y="0px"
	 viewBox="0 0 595.7 521.9" style="enable-background:new 0 0 595.7 521.9;" xml:space="preserve">
<style type="text/css">
	.st0{fill:#1B3342;}
	.st1{fill:#0C263A;}
	.st2{fill:#347ABD;}
</style>
<g>
	<rect x="383.6" y="228.7" class="st0" width="0.1" height="0.1"/>
	<ellipse class="st1" cx="186.3" cy="116.4" rx="29.6" ry="29.6"/>
	<path class="st1" d="M381.2,37.5v264h-33.3c-3.4,0-6.1,2.8-6.1,6.1v38.3h-62.9c-3.4,0-6.1,2.8-6.1,6.1v32.5c0,1.8-1.5,3.3-3.3,3.3
		h-14.7c0.5-1.5,0.8-3.1,0.8-4.8v-47.2c0-4.5-1.8-8.8-5-12l-36.5-36.4c-2-2-3.1-4.7-3.1-7.5v-49.3c0-1.7,1.4-3.1,3.1-3.1h38.8
		c4.1,0,7.8-1.7,10.5-4.3c2.9-2.9,4.6-7,4.3-11.5c-0.5-7.9-7.5-13.8-15.4-13.8h-38.2c-1.7,0-3.1-1.4-3.1-3.1v-4.3
		c0-8.9-3.6-16.9-9.4-22.7c-5.5-5.6-13.1-9.1-21.5-9.4h-0.2c-0.3,0-0.6,0-1,0c-0.2,0-0.4,0-0.6,0c-0.3,0-0.7,0-1,0
		c-0.4,0-0.8,0.1-1.2,0.1c-0.3,0-0.7,0.1-1,0.1c-0.4,0.1-0.8,0.1-1.2,0.2c-0.3,0.1-0.6,0.1-1,0.1c-0.4,0.1-0.8,0.2-1.2,0.3
		c-0.3,0.1-0.6,0.1-0.9,0.2c-0.4,0.1-0.8,0.2-1.2,0.3c-0.3,0.1-0.6,0.2-0.9,0.3c-0.4,0.1-0.8,0.3-1.2,0.4c-0.3,0.1-0.5,0.2-0.8,0.3
		c-0.4,0.2-0.9,0.4-1.3,0.6c-0.2,0.1-0.4,0.2-0.6,0.3c-0.6,0.3-1.3,0.6-1.9,1c-4.9,2.7-9,6.7-11.7,11.6c-1.7,3-3.5,5.9-5.7,8.5
		l-39.9,46.1c-2,2.3-3.1,5.3-3.1,8.3v46.3c0,7.7,5.6,14.6,13.3,15.4c8.8,0.9,16.3-6.1,16.3-14.7v-38.8c0-1.2,0.4-2.4,1.3-3.3
		l13.5-15.7v99.7l-17.3,78.4c0,7.5,5.4,14.2,12.9,15.2c9,1.2,16.8-5.9,16.8-14.7l17.3-78.9v-18.4c0-6,7.2-8.9,11.4-4.7l23.1,23.1v0
		l13.4,13.4c1,1,1.5,2.3,1.5,3.6v39.2c0,1.9,0.3,3.7,1,5.4h-17.2c-3.4,0-6.1,2.8-6.1,6.1v35c0,1.8-1.5,3.3-3.3,3.3h-67.1
		c-3.4,0-6.1,2.8-6.1,6.1v35c0,1.8-1.5,3.3-3.3,3.3H79.8c-8.5,0-13,10-7.4,16.4l0,0c1.9,2.1,4.6,3.4,7.4,3.4h58.4
		c3.4,0,6.1-2.8,6.1-6.1v-35c0-1.8,1.5-3.3,3.3-3.3h67.1c3.4,0,6.1-2.8,6.1-6.1v-35c0-1.8,1.5-3.3,3.3-3.3h59.7
		c3.4,0,6.1-2.8,6.1-6.1v-32.5c0-1.8,1.5-3.3,3.3-3.3h59.7c3.4,0,6.1-2.8,6.1-6.1v-35c0-1.8,1.5-3.3,3.3-3.3h18.9h16.1
		c3.4,0,6.1-2.8,6.1-6.1v-13.6v-264l-0.2-0.4C398.7,27.6,385.3,27.9,381.2,37.5L381.2,37.5z"/>
	<path class="st2" d="M479.9,64v69.7h-66.6V57.2h59.8C476.8,57.2,479.9,60.3,479.9,64z"/>
	<path class="st2" d="M536.6,94.4v56.4c0,4.2-3.4,7.6-7.6,7.6h-76.3v-14.8h37V86.8h39.3C533.2,86.8,536.6,90.2,536.6,94.4z"/>
</g>
</svg>
