<?xml version="1.0" encoding="utf-8"?>
<!-- Generator: Adobe Illustrator 27.5.0, SVG Export Plug-In . SVG Version: 6.00 Build 0)  -->
<svg version="1.1" id="Capa_2_00000174583160797886262930000000574717726575293078_"
	 xmlns="http://www.w3.org/2000/svg" xmlns:xlink="http://www.w3.org/1999/xlink" x="0px" y="0px" viewBox="0 0 2122 2122"
	 style="enable-background:new 0 0 2122 2122;" xml:space="preserve">
<g>
	<path style="fill:#393E92;" d="M1874.806,338.916H246.513c-17.343,0-31.403,14.06-31.403,31.402v1043.994
		c0,17.343,14.059,31.402,31.403,31.402H926.19v232.768c-87.255,9.387-146.443,27.628-146.443,48.591
		c0,30.558,125.769,55.331,280.913,55.331c155.144,0,280.913-24.773,280.913-55.331c0-20.963-59.188-39.204-146.444-48.591v-232.768
		h679.677c17.343,0,31.403-14.059,31.403-31.402V370.318C1906.209,352.975,1892.15,338.916,1874.806,338.916z"/>
</g>
<path style="fill:#EF7EB0;" d="M1851.951,395.275c-0.27-0.952-0.589-1.893-0.942-2.792c-0.534-1.35-1.172-2.672-1.895-3.936
	c-0.592-1.028-1.26-2.044-1.988-3.018c-2.173-2.906-4.823-5.372-7.878-7.33c-1.625-1.045-3.367-1.937-5.177-2.651l-0.684-0.258
	c-3.303-1.211-6.777-1.825-10.324-1.825h-211.873l-0.624,0.602c-0.626,17.735-2.487,36.307-5.527,55.201l0.141,0.504l0.475,0.219
	h196.171V608.41H1547.63l-0.565,0.358c-4.794,10.238-9.883,20.592-15.128,30.775l0.022,0.609l0.533,0.3h269.332v178.421h-298.199
	V692.899l-0.458-0.602l-0.702,0.282c-2.769,4.633-5.537,9.179-8.229,13.513c-18.173,29.303-38.302,58.209-59.822,85.912
	l-0.132,0.383v249.474H1155.73l-0.326,0.092c-61.479,37.861-126.168,68.843-192.275,92.083l-0.407,0.697l0.614,0.516h321.262
	c11.832,0,21.457,9.622,21.457,21.452c0,11.83-9.625,21.457-21.457,21.457H849.596c-6.665,0-12.848-3.045-16.962-8.356l-0.609-0.234
	c-65.245,12.511-130.899,17.389-195.161,14.49c-22.612-1.013-45.537-2.996-68.22-5.9H349.419c-11.829,0-21.454-9.627-21.454-21.457
	c0-11.829,9.625-21.452,21.454-21.452h36.86l0.614-0.516l-0.402-0.692c-39.754-14.3-79.237-31.717-117.349-51.771l-0.612,0.015
	l-0.302,0.536v298.314c0,5.759,1.637,11.357,4.733,16.185c0.648,1.014,1.365,1.993,2.127,2.919l0.943,1.087
	c1.944,2.139,4.182,3.985,6.657,5.495l1.257,0.716c4.365,2.373,9.316,3.625,14.314,3.625h1524.802c3.552,0,7.026-0.614,10.326-1.822
	l0.684-0.258c1.793-0.707,3.535-1.598,5.174-2.645c2.222-1.428,4.256-3.143,6.042-5.111l0.942-1.087l0.894-1.14
	c0.728-0.974,1.396-1.988,1.988-3.016c0.672-1.175,1.272-2.402,1.781-3.659l0.215-0.541c0.29-0.76,0.55-1.53,0.794-2.363
	l0.102-0.361c0.721-2.607,1.086-5.306,1.086-8.024V403.494C1853.091,400.705,1852.708,397.94,1851.951,395.275z"/>
<path style="fill:#F4A9CB;" d="M1611.637,373.655l-0.448-0.19H298.26c-16.56,0-30.031,13.471-30.031,30.029v679.326l0.334,0.551
	c38.163,20.083,77.698,37.525,117.505,51.839l0.212,0.039h341.883c11.829,0,21.454,9.622,21.454,21.452
	c0,11.83-9.625,21.457-21.454,21.457H568.644l-0.624,0.585l0.543,0.658c22.638,2.904,45.598,4.887,68.246,5.905
	c12.015,0.541,24.068,0.809,36.17,0.809c52.711,0,106.139-5.13,159.279-15.318l0.467-0.395l-0.092-0.599
	c-2.94-3.795-4.495-8.326-4.495-13.101c0-11.829,9.625-21.452,21.457-21.452h113.739l0.208-0.034
	c66.189-23.269,130.962-54.29,192.514-92.2l0.272-0.701l-0.599-0.453H319.685V427.867h1114.597v364.521l0.422,0.589l0.695-0.207
	c21.549-27.737,41.7-56.679,59.9-86.019c2.692-4.339,5.464-8.892,8.239-13.532l0.088-0.319v-52.448h28.867l0.555-0.339
	c5.25-10.195,10.346-20.563,15.148-30.814l-0.039-0.599l-0.526-0.29h-44.005V429.991h102.029l0.617-0.524
	c3.047-18.947,4.913-37.571,5.542-55.357L1611.637,373.655z"/>
<path style="fill:#951B81;" d="M1435.32,426.778l-0.487-0.154L438.725,543.816l-0.533,0.473l-43.009,178.967v241.636l0.624,0.624
	h88.277l0.624-0.624V650.154h87.966v314.737l0.624,0.624h28.385l0.624-0.624V585.272H714.6v379.619l0.624,0.624h31.201l0.624-0.624
	v-210.66h87.966v210.66l0.624,0.624h78.285c2.407,0,4.365,1.959,4.365,4.365c0,2.407-1.959,4.365-4.365,4.365H390.818
	c-2.407,0-4.365-1.958-4.365-4.365V764.76l-0.551-0.619l-0.68,0.472l-66.767,277.724l0.117,0.531l0.49,0.239h1115.844l0.624-0.624
	V427.243L1435.32,426.778z"/>
<path style="fill:#FFFFFF;" d="M728.162,1211.279H349.419c-12.519,0-22.702,10.183-22.702,22.704
	c0,12.516,10.183,22.699,22.702,22.699h378.743c12.518,0,22.701-10.183,22.701-22.699
	C750.864,1221.461,740.68,1211.279,728.162,1211.279z"/>
<path style="fill:#FFFFFF;" d="M1284.597,1211.279H849.596c-12.519,0-22.704,10.183-22.704,22.704
	c0,12.516,10.185,22.699,22.704,22.699h435.001c12.519,0,22.704-10.183,22.704-22.699
	C1307.301,1221.461,1297.116,1211.279,1284.597,1211.279z"/>
<polygon style="fill:#951B81;" points="1802.845,428.888 1802.331,428.756 1557.072,475.463 1556.611,475.838 1502.424,608.797 
	1502.485,609.382 1503.001,609.657 1802.448,609.657 1803.072,609.033 1803.072,429.367 "/>
<polygon style="fill:#951B81;" points="1802.847,639.35 1802.338,639.214 1553.259,683.937 1552.784,684.332 1502.417,819.277 
	1502.49,819.852 1503.001,820.12 1802.448,820.12 1803.072,819.496 1803.072,639.828 "/>
<polygon style="fill:#951B81;" points="1802.845,857.243 1802.328,857.114 1553.249,905.579 1552.787,905.966 1502.419,1037.17 
	1502.487,1037.744 1503.001,1038.017 1802.448,1038.017 1803.072,1037.394 1803.072,857.725 "/>
<polygon style="fill:#73216B;" points="1802.448,428.744 1503.001,428.744 1502.378,429.367 1502.378,609.033 1502.882,609.645 
	1503.001,609.657 1503.579,609.27 1557.639,476.622 1802.565,429.979 1803.069,429.309 "/>
<polygon style="fill:#73216B;" points="1802.448,639.204 1503.001,639.204 1502.378,639.828 1502.378,819.496 1502.892,820.11 
	1503.001,820.12 1503.586,819.715 1553.829,685.102 1802.557,640.441 1803.069,639.772 "/>
<polygon style="fill:#73216B;" points="1802.448,857.102 1503.001,857.102 1502.378,857.725 1502.378,1037.394 1502.887,1038.007 
	1503.001,1038.017 1503.584,1037.618 1553.827,906.736 1802.567,858.336 1803.069,857.664 "/>
<path style="fill:#FFFFFF;" d="M1779.466,1134.002h-378.742c-12.519,0-22.702,10.183-22.702,22.699
	c0,12.521,10.183,22.704,22.702,22.704h378.742c12.519,0,22.704-10.183,22.704-22.704
	C1802.17,1144.185,1791.985,1134.002,1779.466,1134.002z"/>
<path style="fill:#FFFFFF;" d="M1779.466,1211.279h-378.742c-12.519,0-22.702,10.183-22.702,22.704
	c0,12.516,10.183,22.699,22.702,22.699h378.742c12.519,0,22.704-10.183,22.704-22.699
	C1802.17,1221.461,1791.985,1211.279,1779.466,1211.279z"/>
<path style="fill:#FFFFFF;" d="M1791.568,1319.707H341.99c-4.47,0-8.107,3.635-8.107,8.107s3.637,8.107,8.107,8.107h1449.579
	c4.47,0,8.107-3.635,8.107-8.107S1796.039,1319.707,1791.568,1319.707z"/>
<path style="fill:#73216B;" d="M1434.906,426.62H319.062l-0.624,0.624v615.242l0.55,0.619l0.073,0.005l0.606-0.477l66.785-277.871
	V519.767c0-2.407,1.959-4.365,4.365-4.365c2.407,0,4.365,1.959,4.365,4.365v203.489l0.55,0.619l0.68-0.473l42.889-178.399
	l995.677-117.139l0.55-0.656L1434.906,426.62z"/>
<path style="fill:#FFFFFF;" d="M913.923,964.268h-77.662v-210.66l-0.624-0.624h-89.213l-0.624,0.624v210.66h-29.954V584.648
	l-0.624-0.624H601.682l-0.624,0.624v379.619h-27.138V649.53l-0.624-0.624h-89.213l-0.624,0.624v314.737h-87.03V519.767
	c0-3.094-2.519-5.613-5.613-5.613s-5.613,2.519-5.613,5.613V969.88c0,3.094,2.519,5.613,5.613,5.613h523.105
	c3.094,0,5.613-2.519,5.613-5.613C919.536,966.787,917.017,964.268,913.923,964.268z"/>
<g>
	<path style="fill:#FFFDFE;" d="M1100.291,620.989c0.216-2.633,0.327-5.295,0.327-7.983c0-2.689-0.111-5.35-0.327-7.983
		c-5.9-5.956-16.243-11.111-18.281-17.387c-2.112-6.504,3.153-16.811,4.462-25.005c-2.721-4.449-5.792-8.661-9.175-12.599
		c-8.227-1.298-19.657,0.55-25.125-3.429c-5.415-3.941-7.154-15.39-10.955-22.827c-4.749-1.987-9.691-3.605-14.788-4.819
		c-7.343,3.794-15.536,11.983-22.49,11.983c-6.955,0-15.148-8.189-22.492-11.983c-5.097,1.214-10.038,2.832-14.788,4.819
		c-3.801,7.438-5.54,18.887-10.954,22.826c-5.468,3.98-16.897,2.131-25.125,3.43c-3.382,3.937-6.453,8.149-9.175,12.599
		c1.309,8.194,6.574,18.501,4.462,25.005c-2.038,6.276-12.382,11.43-18.281,17.387c-0.216,2.633-0.327,5.294-0.327,7.983
		c0,2.688,0.112,5.35,0.327,7.983c5.899,5.956,16.243,11.111,18.281,17.386c2.112,6.504-3.153,16.811-4.462,25.005
		c2.721,4.45,5.793,8.661,9.176,12.599c8.227,1.298,19.656-0.55,25.124,3.43c5.415,3.94,7.154,15.389,10.955,22.826
		c4.749,1.987,9.69,3.605,14.788,4.819c7.343-3.793,15.536-11.983,22.492-11.983c6.954,0,15.147,8.19,22.49,11.983
		c5.098-1.214,10.039-2.832,14.788-4.819c3.801-7.437,5.54-18.885,10.954-22.826c5.468-3.979,16.898-2.13,25.125-3.43
		c3.382-3.937,6.454-8.149,9.175-12.599c-1.31-8.194-6.573-18.501-4.462-25.005C1084.047,632.099,1094.391,626.945,1100.291,620.989
		z M1003.938,655.447c-23.44,0-42.442-19.002-42.442-42.442s19.002-42.442,42.442-42.442c23.44,0,42.441,19.002,42.441,42.442
		S1027.378,655.447,1003.938,655.447z"/>
</g>
<g>
	<path style="fill:#FFFDFE;" d="M1327.673,851.759c0.295-3.614,0.448-7.268,0.448-10.957c0-3.689-0.153-7.343-0.448-10.956
		c-8.098-8.175-22.294-15.249-25.091-23.862c-2.899-8.926,4.326-23.072,6.124-34.318c-3.735-6.107-7.95-11.887-12.593-17.291
		c-11.291-1.783-26.978,0.755-34.483-4.708c-7.431-5.408-9.819-21.121-15.036-31.328c-6.518-2.727-13.299-4.948-20.296-6.615
		c-10.078,5.207-21.322,16.446-30.868,16.446c-9.546,0-20.79-11.239-30.868-16.446c-6.996,1.667-13.778,3.888-20.296,6.615
		c-5.216,10.207-7.604,25.919-15.034,31.328c-7.504,5.461-23.191,2.925-34.483,4.707c-4.642,5.403-8.857,11.184-12.592,17.291
		c1.797,11.247,9.022,25.392,6.124,34.319c-2.796,8.613-16.994,15.688-25.09,23.862c-0.296,3.613-0.449,7.267-0.449,10.956
		c0,3.689,0.153,7.343,0.449,10.957c8.097,8.174,22.294,15.249,25.09,23.863c2.898,8.925-4.327,23.071-6.125,34.317
		c3.735,6.107,7.95,11.888,12.593,17.291c11.292,1.783,26.978-0.754,34.482,4.707c7.431,5.409,9.819,21.122,15.035,31.329
		c6.518,2.727,13.3,4.947,20.296,6.614c10.078-5.206,21.322-16.446,30.868-16.446c9.545,0,20.789,11.239,30.868,16.446
		c6.997-1.667,13.778-3.887,20.296-6.614c5.216-10.207,7.603-25.919,15.035-31.328c7.505-5.461,23.191-2.924,34.483-4.706
		c4.643-5.404,8.858-11.184,12.593-17.292c-1.798-11.246-9.022-25.392-6.124-34.319
		C1305.379,867.008,1319.575,859.934,1327.673,851.759z M1195.432,899.053c-32.171,0-58.249-26.08-58.249-58.25
		c0-32.17,26.079-58.249,58.249-58.249c32.17,0,58.25,26.08,58.25,58.249C1253.681,872.973,1227.602,899.053,1195.432,899.053z"/>
</g>
<path style="fill:#FFFFFF;" d="M728.162,1134.002H349.419c-12.519,0-22.702,10.183-22.702,22.699
	c0,12.521,10.183,22.704,22.702,22.704h378.743c12.518,0,22.701-10.183,22.701-22.704
	C750.864,1144.185,740.68,1134.002,728.162,1134.002z"/>
<path style="fill:#FFFFFF;" d="M1284.597,1134.002H849.596c-12.519,0-22.704,10.183-22.704,22.699c0,5.052,1.644,9.847,4.758,13.862
	c4.351,5.622,10.894,8.843,17.946,8.843h435.001c12.519,0,22.704-10.183,22.704-22.704
	C1307.301,1144.185,1297.116,1134.002,1284.597,1134.002z"/>
</svg>
