<?xml version="1.0" encoding="utf-8"?>
<!-- Generator: Adobe Illustrator 27.5.0, SVG Export Plug-In . SVG Version: 6.00 Build 0)  -->
<svg version="1.1" id="Ñëîé_1" xmlns="http://www.w3.org/2000/svg" xmlns:xlink="http://www.w3.org/1999/xlink" x="0px" y="0px"
	 viewBox="0 0 4000 4000" style="enable-background:new 0 0 4000 4000;" xml:space="preserve">
<g>
	<polygon style="fill:#937BEC;" points="2287.279,960.08 2214.5,1152.781 1967.995,1159.515 1961.798,1449.325 2219.038,1467.61 
		2294.893,1643.01 2128.524,1828.234 2321.945,2026.711 2508.552,1860.536 2707.345,1957.246 2717.816,2188.858 2995.039,2188.858 
		3026.632,1950.135 3195.667,1875.18 3380.4,2035.251 3585.878,1841.803 3433.698,1655.307 3518.299,1460.111 3751.158,1455.411 
		3747.737,1162.87 3509.838,1159.332 3440.917,961.785 3605.014,796.824 3396.398,579.764 3214.047,744.478 3022.784,669.74 
		2991.509,433.164 2715.83,424.768 2698.542,663.427 2514.798,751.367 2333.469,586.486 2133.6,787.307 	"/>
	<polygon style="fill:#F4F0FF;" points="1363.63,802.535 1467.372,802.535 1467.372,1206.079 1655.819,1206.079 1652.012,809.133 
		1745.109,802.535 1554.37,496.058 	"/>
	<path style="fill:#937BEC;" d="M591.44,1749.531l-58.472,631.966c0,0-10.27,47.819,79.243,86.863s409.422,184.705,409.422,184.705
		l-5.711,361.667l226.837-2.538v-513.908l-302.343-164.376l39.339-346.695l238.494,219.534l363.582-113.617
		c0,0,48.865-50.886,13.997-108.73c-34.868-57.844-111.009-48.961-111.009-48.961l-256.974,70.43l-290.603-279.816l-268.395-23.271
		C668.849,1702.784,617.454,1703.847,591.44,1749.531z"/>
	<g>
		
			<ellipse transform="matrix(0.7071 -0.7071 0.7071 0.7071 -700.5764 1059.0623)" style="fill:#937BEC;" cx="928.113" cy="1375.202" rx="227.373" ry="227.373"/>
		<path style="fill:#6854B0;" d="M928.124,1632.399c-141.828,0-257.212-115.384-257.212-257.183
			c0-141.828,115.384-257.212,257.212-257.212c141.798,0,257.183,115.384,257.183,257.212
			C1185.307,1517.014,1069.922,1632.399,928.124,1632.399z M928.124,1177.647c-108.948,0-197.568,88.62-197.568,197.569
			c0,108.919,88.62,197.539,197.568,197.539c108.919,0,197.539-88.621,197.539-197.539
			C1125.663,1266.268,1037.043,1177.647,928.124,1177.647z"/>
	</g>
	<g>
		<polygon style="fill:#937BEC;" points="443.661,3240.414 530.049,2561.649 766.579,2656.717 696.913,3242.413 		"/>
		<path style="fill:#6854B0;" d="M696.918,3272.24c-0.087,0-0.146,0-0.233,0l-253.251-2.01c-8.533-0.058-16.629-3.786-22.221-10.193
			c-5.621-6.436-8.213-14.94-7.135-23.385l86.378-678.763c1.165-9.174,6.523-17.27,14.474-21.958
			c8.009-4.66,17.677-5.388,26.24-1.951l236.535,95.057c12.494,5.009,20.066,17.794,18.493,31.19l-69.662,585.716
			C724.76,3260.941,712.004,3272.24,696.918,3272.24z M477.479,3210.85l192.967,1.543l63.837-536.528l-179.542-72.137
			L477.479,3210.85z"/>
	</g>
	<path style="fill:#6854B0;" d="M1629.981,1987.812c-26.21-75.544-114.103-80.699-117.831-80.874
		c-2.97-0.233-5.97,0.175-8.882,0.903l-256.164,65.963l-244.077-232.195c-0.109-0.102-0.255-0.127-0.364-0.229
		c-15.169-15.621-47.816-41.245-81.209-44.707l-225.585-23.094c-32.414-3.203-63.575,6.116-88.591,26.531
		c-25.046,20.386-40.626,49.305-43.917,81.427l-59.585,581.959c-4.296,42.006,14.063,82.323,47.324,107.791
		c0.491,0.542,1.092,0.947,1.627,1.456c1.34,0.99,2.286,2.344,3.673,3.284c0.561,0.375,1.249,0.222,1.824,0.557
		c1.052,0.622,1.806,1.565,2.952,2.064l419.804,183.094v357.132c0,16.483,13.338,29.822,29.822,29.822h229.574
		c16.425,0,29.734-13.28,29.822-29.676l2.388-520.598c0.058-11.3-6.291-21.667-16.367-26.764L978.029,2331.02l27.812-271.762
		l177.019,173.244c5.65,5.533,13.163,8.504,20.852,8.504c2.912,0,5.854-0.437,8.737-1.311l375.13-114.831
		c4.485-1.369,8.591-3.786,11.969-7.048C1601.849,2115.603,1655.842,2062.425,1629.981,1987.812z M1562.067,2070.317
		l-350.142,107.171l-208.606-204.15c-0.943-0.921-2.155-1.289-3.182-2.061c-1.66-1.26-3.262-2.454-5.177-3.353
		c-1.849-0.863-3.728-1.307-5.686-1.769c-1.3-0.317-2.41-1.034-3.779-1.176c-0.561-0.04-1.07,0.2-1.627,0.189
		c-2.552-0.12-4.995,0.346-7.503,0.877c-1.07,0.247-2.152,0.298-3.182,0.655c-2.617,0.859-4.94,2.282-7.281,3.881
		c-0.936,0.633-1.9,1.136-2.759,1.871c-0.622,0.539-1.409,0.754-1.995,1.351c-1.179,1.205-1.704,2.73-2.636,4.07
		c-0.968,1.336-1.915,2.592-2.65,4.088c-0.946,1.988-1.463,4.008-1.944,6.119c-0.291,1.227-0.994,2.253-1.129,3.546l-36.199,353.725
		c-0.018,0.175,0.062,0.328,0.047,0.499c-0.207,2.464,0.32,4.827,0.714,7.233c0.237,1.434,0.106,2.952,0.542,4.318
		c0.615,1.937,1.864,3.571,2.865,5.351c0.874,1.547,1.449,3.254,2.581,4.62c0.968,1.172,2.384,1.929,3.538,2.952
		c1.773,1.569,3.422,3.251,5.544,4.368c0.153,0.08,0.237,0.229,0.39,0.306l280.044,141.565l-2.155,472.487h-170.077V2642.2
		c0-11.853-7.018-22.599-17.91-27.346L588.6,2425.523c-17.918-12.789-27.747-33.964-25.471-55.941l59.585-581.988
		c1.66-16.28,9.552-30.899,22.221-41.238c12.698-10.339,28.395-15.231,44.878-13.426l225.555,23.094
		c11.562,1.194,32.355,13.862,45.432,27.667c0.178,0.189,0.433,0.248,0.615,0.433c0.208,0.211,0.277,0.499,0.491,0.703
		l256.076,243.582c7.484,7.077,18.085,9.785,27.987,7.281l267.026-68.759c12.261,1.66,49.829,9.232,60.634,40.422
		C1583.88,2036.942,1569.464,2060.706,1562.067,2070.317z"/>
	<path style="fill:#6854B0;" d="M3756.493,2401.063h-771.199c-16.484,0-29.822,13.338-29.822,29.822v205.781h-656.077
		c-16.483,0-29.822,13.338-29.822,29.822v199.811h-654.883c-16.484,0-29.822,13.338-29.822,29.822v201.587H928.211
		c-16.484,0-29.822,13.338-29.822,29.822v199.811H243.507c-16.483,0-29.822,13.338-29.822,29.822v226.633
		c0,16.483,13.338,29.822,29.822,29.822c16.483,0,29.822-13.338,29.822-29.822v-196.812h654.883
		c16.483,0,29.822-13.338,29.822-29.822v-199.811h656.659c16.483,0,29.822-13.338,29.822-29.822v-201.587h654.882
		c16.484,0,29.822-13.338,29.822-29.822V2696.31h656.077c16.483,0,29.822-13.338,29.822-29.822v-205.781h741.377
		c16.483,0,29.822-13.338,29.822-29.822C3786.315,2414.402,3772.977,2401.063,3756.493,2401.063z"/>
	<g>
		<path style="fill:#F4F0FF;" d="M3332.388,1313.237c0,55.714-9.933,109.27-27.64,158.507
			c-6.047,17.707-13.391,34.552-22.027,50.964c-47.079,94.587-125.685,170.602-221.566,215.086
			c-15.548,7.344-31.098,13.389-47.511,18.572c-46.644,15.983-96.746,24.619-149.004,24.619c-56.149,0-110.137-9.933-159.804-28.072
			c-16.845-6.047-32.825-12.956-48.805-21.163c-94.587-47.079-171.034-125.253-215.519-221.134
			c-6.047-12.527-11.23-25.483-15.98-38.872c-17.709-49.237-27.642-102.793-27.642-158.507c0-52.261,8.639-102.793,25.051-149.871
			c4.75-15.98,11.227-31.528,18.139-46.646c44.485-95.881,120.5-174.488,214.654-221.563c16.412-8.206,32.825-15.55,50.102-21.595
			c49.667-18.142,103.655-28.075,159.804-28.075c52.259,0,102.361,8.639,149.004,24.619c20.301,6.477,39.737,14.253,58.308,23.754
			c94.586,46.646,171.464,124.82,216.383,220.701c7.342,15.98,13.818,31.96,19.433,48.805
			C3323.749,1210.444,3332.388,1260.976,3332.388,1313.237z"/>
		<path style="fill:#6854B0;" d="M2864.639,1810.804c-58.566,0-115.763-10.047-170.018-29.88
			c-17.94-6.436-35.064-13.863-52.217-22.658c-100.386-49.945-181.813-133.499-228.934-235.108
			c-6.32-13.047-11.911-27.026-17.037-41.412c-19.454-54.139-29.356-110.87-29.356-168.504c0-55.188,8.999-108.919,26.705-159.68
			c4.718-16.017,11.678-32.88,19.192-49.276c47.383-102.163,128.49-185.861,228.41-235.807c17.561-8.766,35.122-16.6,53.586-23.065
			c104.288-38.092,223.022-39.607,328.33-3.524c22.133,7.048,42.694,15.406,62.235,25.395
			c100.415,49.538,182.163,132.945,229.807,234.642c7.892,17.124,14.736,34.103,20.706,52.013
			c17.328,50.994,26.152,104.667,26.152,159.301c0,57.634-9.902,114.365-29.385,168.591c-6.232,18.289-14.037,36.345-23.677,54.751
			c-49.625,99.629-133.324,180.91-235.428,228.264c-16.6,7.834-33.375,14.357-51.11,19.978
			C2972.568,1801.98,2919.186,1810.804,2864.639,1810.804z M2864.639,875.295c-51.46,0-101.784,8.824-149.574,26.269
			c-16.425,5.766-31.715,12.61-47.004,20.269c-87.892,43.917-159.243,117.597-200.917,207.441
			c-6.291,13.717-12.261,27.958-16.6,42.577c-15.959,45.81-23.822,92.931-23.822,141.391c0,50.732,8.708,100.677,25.89,148.439
			c4.398,12.435,9.174,24.376,14.765,35.937c41.646,89.814,113.287,163.32,201.937,207.412
			c15.173,7.805,29.967,14.183,45.606,19.803c92.377,33.812,196.724,35.035,289.043,3.32c15.814-4.98,30.142-10.572,44.47-17.328
			c90.048-41.762,163.699-113.258,207.587-201.384c8.504-16.221,15.115-31.511,20.502-47.295
			c17.328-48.227,26.036-98.173,26.036-148.905c0-48.111-7.747-95.289-23.036-140.284c-5.3-15.959-11.387-30.958-18.26-45.927
			c-41.849-89.29-113.782-162.68-202.49-206.451c-16.979-8.649-34.569-15.814-54.168-22.046
			C2959.404,883.042,2912.517,875.295,2864.639,875.295z"/>
	</g>
	<path style="fill:#6854B0;" d="M3710.508,1129.507l-181.781,0.156c-14.219-52.723-34.769-103.644-61.365-152.05L3597.6,849.842
		c14.299-13.95,22.308-32.617,22.541-52.596c0.233-19.978-7.339-38.821-21.26-53.12l-152.981-156.593
		c-28.802-29.501-76.243-30.113-105.687-1.252L3209.35,713.879c-52.272-30.499-107.834-53.626-165.898-69.05V482.721
		c0-53.12-43.014-96.338-95.901-96.338h-176.629c-52.887,0-95.901,43.218-95.901,96.338v164.664
		c-54.678,15.548-106.72,37.86-155.388,66.629l-126.957-127.266c-32.443-32.501-85.33-32.501-117.772,0l-142.73,142.73
		c-32.472,32.472-32.472,85.3,0,117.772l129.763,129.662c-26.829,48.369-47.55,99.531-61.853,152.752l-192.352-0.156
		c-41.762,0-75.748,33.986-75.748,75.777v216.877c0,41.762,33.986,75.748,75.777,75.748l194.729-0.182
		c13.99,49.527,33.604,97.313,58.562,142.701l-140.412,137.175c-14.27,13.95-22.25,32.617-22.483,52.567
		c-0.233,19.978,7.31,38.85,21.26,53.149l152.982,156.593c13.95,14.27,32.617,22.25,52.566,22.483c0.32,0,0.612,0,0.903,0
		c19.658,0,38.151-7.514,52.246-21.289l140.037-136.957c48.926,28.74,101.475,51.241,156.87,67.168v173.379
		c0,53.091,43.014,96.309,95.901,96.309h176.629c52.887,0,95.901-43.218,95.901-96.309v-170.699
		c53.771-14.332,105.198-35.06,153.564-61.904l128.577,128.577c16.25,16.25,37.568,24.376,58.886,24.376
		c21.347,0,42.665-8.125,58.915-24.376l142.701-142.701c32.472-32.472,32.472-85.33,0-117.801l-126.182-126.283
		c28.624-48.963,50.855-101.26,66.36-156.156l184.263,0.182c41.791,0,75.777-33.986,75.777-75.748v-216.877
		C3786.315,1163.494,3752.329,1129.507,3710.508,1129.507z M3726.671,1422.162c0,8.882-7.251,16.105-16.105,16.105l-206.684-0.204
		h-0.029c-0.845,0-1.554,0.411-2.381,0.48c-1.933,0.164-3.713,0.593-5.555,1.121c-1.98,0.561-3.855,1.14-5.646,2.075
		c-1.547,0.805-2.861,1.809-4.252,2.869c-1.635,1.256-3.16,2.497-4.503,4.059c-1.19,1.365-2.079,2.876-3.01,4.459
		c-1.03,1.762-1.933,3.495-2.588,5.457c-0.266,0.786-0.841,1.376-1.041,2.195c-15.872,64.856-41.937,126.101-77.408,182.046
		c-0.495,0.779-0.535,1.675-0.95,2.479c-0.943,1.831-1.613,3.648-2.148,5.599c-0.51,1.842-0.917,3.611-1.067,5.486
		c-0.153,1.893-0.051,3.691,0.156,5.584c0.211,1.926,0.51,3.746,1.088,5.595c0.55,1.773,1.325,3.385,2.213,5.053
		c0.958,1.798,2.013,3.444,3.342,5.035c0.579,0.695,0.815,1.558,1.471,2.213l142.352,142.468c9.232,9.232,9.232,24.23,0,33.462
		L3401.225,1998.5c-9.203,9.261-24.259,9.203-33.462,0l-144.361-144.361c-0.488-0.488-1.136-0.648-1.645-1.092
		c-1.817-1.594-3.753-2.796-5.854-3.888c-1.365-0.71-2.654-1.42-4.092-1.908c-2.159-0.735-4.31-1.056-6.574-1.281
		c-1.569-0.156-3.062-0.324-4.634-0.233c-2.104,0.124-4.084,0.611-6.149,1.194c-1.802,0.495-3.498,1.037-5.198,1.878
		c-0.732,0.368-1.543,0.382-2.257,0.815c-55.625,33.491-116.2,57.867-180.037,72.516c-0.874,0.2-1.511,0.79-2.344,1.059
		c-1.98,0.637-3.753,1.478-5.53,2.497c-1.631,0.932-3.142,1.867-4.547,3.065c-1.485,1.267-2.705,2.661-3.921,4.194
		c-1.168,1.474-2.217,2.916-3.087,4.583c-0.888,1.686-1.478,3.426-2.035,5.282c-0.579,1.918-0.994,3.782-1.172,5.81
		c-0.08,0.892-0.517,1.66-0.517,2.574v193.491c0,20.211-16.28,36.666-36.258,36.666h-176.629c-19.978,0-36.258-16.454-36.258-36.666
		v-195.676c0-0.794-0.39-1.464-0.451-2.243c-0.16-2.064-0.623-3.957-1.19-5.912c-0.528-1.827-1.041-3.571-1.893-5.231
		c-0.859-1.686-1.951-3.124-3.112-4.62c-1.194-1.536-2.355-2.985-3.823-4.259c-1.376-1.205-2.912-2.1-4.518-3.043
		c-1.773-1.045-3.52-1.973-5.508-2.636c-0.735-0.247-1.281-0.783-2.046-0.976c-65.468-16.454-126.888-42.81-182.6-78.282
		c-0.75-0.473-1.613-0.513-2.388-0.914c-1.831-0.954-3.658-1.602-5.613-2.151c-1.787-0.502-3.499-0.936-5.322-1.099
		c-1.984-0.186-3.877-0.058-5.857,0.153c-1.828,0.2-3.557,0.448-5.315,0.972c-1.846,0.55-3.524,1.362-5.257,2.275
		c-1.773,0.928-3.4,1.929-4.973,3.218c-0.673,0.553-1.507,0.768-2.144,1.391l-156.243,152.807
		c-3.786,3.698-8.184,4.281-10.572,4.281c-2.242,0.175-6.902-0.553-10.775-4.543l-152.982-156.593
		c-3.786-3.902-4.31-8.387-4.281-10.746c0-2.33,0.641-6.815,4.543-10.63l156.593-152.982c0.768-0.75,1.067-1.747,1.736-2.556
		c0.961-1.161,1.711-2.359,2.476-3.633c1.26-2.093,2.33-4.154,3.032-6.436c0.422-1.347,0.615-2.676,0.841-4.07
		c0.375-2.352,0.582-4.609,0.393-6.979c-0.113-1.525-0.466-2.963-0.819-4.474c-0.528-2.221-1.198-4.307-2.239-6.381
		c-0.346-0.703-0.353-1.482-0.761-2.166c-31.627-53.12-55.071-110.259-69.633-169.786c-0.204-0.826-0.779-1.423-1.045-2.217
		c-0.641-1.922-1.518-3.615-2.519-5.34c-0.961-1.656-1.9-3.229-3.138-4.645c-1.26-1.453-2.679-2.614-4.194-3.801
		c-1.492-1.165-2.934-2.253-4.62-3.116c-1.682-0.87-3.436-1.409-5.286-1.948c-1.929-0.568-3.797-1.012-5.835-1.176
		c-0.812-0.065-1.511-0.473-2.341-0.473h-0.029l-217.226,0.204c-8.882,0-16.105-7.222-16.105-16.105v-216.877
		c0-8.882,7.223-16.134,16.076-16.134l215.1,0.175h0.029c0.004,0,0.007-0.004,0.011-0.004c0.007,0,0.011,0.004,0.018,0.004
		c3.75,0,7.328-0.848,10.717-2.17c1.172-0.455,2.13-1.176,3.225-1.769c2.068-1.118,4.022-2.319,5.777-3.891
		c1.056-0.947,1.896-1.995,2.81-3.083c1.391-1.653,2.592-3.385,3.611-5.344c0.71-1.354,1.267-2.708,1.758-4.176
		c0.317-0.936,0.906-1.707,1.136-2.69c14.561-63.109,38.966-123.393,72.516-179.192c0.426-0.714,0.44-1.518,0.801-2.25
		c0.906-1.82,1.471-3.651,1.98-5.584c0.488-1.849,0.943-3.615,1.07-5.493c0.131-1.911-0.062-3.728-0.295-5.632
		c-0.237-1.9-0.484-3.706-1.074-5.522c-0.572-1.773-1.427-3.364-2.341-5.024c-0.979-1.798-2.006-3.473-3.36-5.053
		c-0.51-0.593-0.703-1.343-1.267-1.904L2174.343,805.08c-9.203-9.232-9.203-24.201,0-33.433l142.73-142.73
		c9.203-9.203,24.201-9.174,33.404-0.029l143.197,143.546c1.445,1.449,3.258,2.173,4.9,3.262c1.187,0.79,2.184,1.704,3.462,2.308
		c4.059,1.944,8.347,3.189,12.756,3.189c0.007,0,0.018,0.007,0.025,0.007c0.04,0,0.073-0.033,0.113-0.033
		c4.911-0.025,9.618-1.682,14.037-4.121c0.612-0.335,1.329-0.182,1.926-0.564c55.595-35.675,116.52-61.857,181.085-77.787
		c0.779-0.193,1.343-0.739,2.093-0.987c2.006-0.663,3.771-1.573,5.563-2.625c1.598-0.936,3.116-1.831,4.492-3.025
		c1.471-1.271,2.65-2.712,3.848-4.248c1.168-1.496,2.26-2.941,3.123-4.631c0.852-1.656,1.376-3.389,1.911-5.209
		c0.575-1.955,1.027-3.848,1.19-5.908c0.066-0.805,0.466-1.493,0.466-2.315V482.721c0-20.24,16.28-36.695,36.258-36.695h176.629
		c19.978,0,36.258,16.454,36.258,36.695v184.871c0,0.899,0.437,1.656,0.513,2.537c0.182,2.075,0.601,3.99,1.198,5.948
		c0.55,1.817,1.139,3.517,2.006,5.169c0.885,1.685,1.944,3.153,3.131,4.645c1.209,1.518,2.425,2.901,3.906,4.157
		c1.412,1.205,2.934,2.148,4.572,3.08c1.755,1.001,3.506,1.835,5.46,2.464c0.863,0.28,1.525,0.885,2.425,1.092
		c67.594,15.348,131.897,42.082,191.103,79.476c0.564,0.353,1.23,0.211,1.805,0.524c4.412,2.421,9.112,4.026,14.004,4.052
		c0.033,0,0.058,0.026,0.091,0.026c0.219,0,0.411-0.156,0.63-0.16c4.194-0.08,8.249-1.209,12.111-3.054
		c1.285-0.612,2.315-1.478,3.509-2.275c1.533-1.019,3.24-1.649,4.602-2.985l147.011-143.342c5.883-5.825,15.522-5.766,21.347,0.291
		l152.981,156.593c3.786,3.873,4.31,8.387,4.281,10.717c-0.029,2.33-0.67,6.815-4.602,10.659l-146.342,143.575
		c-0.594,0.582-0.805,1.361-1.34,1.977c-1.358,1.562-2.392,3.207-3.382,4.984c-0.925,1.66-1.787,3.251-2.374,5.024
		c-0.597,1.798-0.87,3.582-1.117,5.461c-0.255,1.929-0.451,3.782-0.328,5.723c0.113,1.827,0.531,3.553,0.99,5.359
		c0.502,1.998,1.092,3.888,2.02,5.766c0.357,0.724,0.364,1.522,0.783,2.228c33.316,56.149,57.605,116.345,72.166,178.959
		c0.222,0.957,0.797,1.704,1.103,2.614c0.495,1.478,1.059,2.839,1.773,4.205c1.023,1.969,2.224,3.717,3.629,5.377
		c0.896,1.07,1.726,2.1,2.767,3.032c1.769,1.587,3.735,2.796,5.821,3.921c1.085,0.586,2.035,1.3,3.2,1.751
		c3.389,1.322,6.968,2.166,10.714,2.166c0.007,0,0.011-0.004,0.018-0.004c0.003,0,0.007,0.004,0.011,0.004h0.029l204.5-0.175
		c8.883,0,16.134,7.252,16.134,16.134V1422.162z"/>
	<path style="fill:#6854B0;" d="M1774.663,793.897l-190.404-320.263c-10.717-18.114-40.539-18.114-51.256,0l-190.375,320.263
		c-5.475,9.203-5.592,20.648-0.291,29.967c5.3,9.319,15.202,15.086,25.919,15.086h62.993v363.16
		c0,16.483,13.338,29.822,29.822,29.822h201.325c16.483,0,29.822-13.338,29.822-29.822V838.95h56.818
		c10.717,0,20.619-5.766,25.919-15.086C1780.255,814.545,1780.138,803.1,1774.663,793.897z M1662.541,779.307
		c-4.146,0-8.089,0.855-11.675,2.381c-10.746,4.503-18.293,15.107-18.293,27.499v363.102h-141.682V809.187
		c0-4.135-0.848-8.067-2.366-11.649c-4.518-10.714-15.115-18.231-27.485-18.231h-40.364l137.954-232.079l137.984,232.079H1662.541z"
		/>
	<path style="fill:#6854B0;" d="M2864.639,1707.331c-217.314,0-394.089-176.775-394.089-394.089s176.775-394.089,394.089-394.089
		s394.089,176.775,394.089,394.089S3081.953,1707.331,2864.639,1707.331z M2864.639,978.797
		c-184.405,0-334.445,150.04-334.445,334.445c0,184.405,150.04,334.445,334.445,334.445s334.445-150.04,334.445-334.445
		C3199.084,1128.838,3049.044,978.797,2864.639,978.797z"/>
</g>
</svg>
