<?xml version="1.0" encoding="utf-8"?>
<!-- Generator: Adobe Illustrator 26.0.1, SVG Export Plug-In . SVG Version: 6.00 Build 0)  -->
<svg version="1.1" id="Layer_1" xmlns="http://www.w3.org/2000/svg" xmlns:xlink="http://www.w3.org/1999/xlink" x="0px" y="0px"
	 viewBox="0 0 1122 1122" style="enable-background:new 0 0 1122 1122;" xml:space="preserve">
<style type="text/css">
	.st0{fill:#F9D438;}
	.st1{fill:#E0DBC0;}
	.st2{fill:#34BFBB;}
	.st3{fill:#269612;}
</style>
<g id="XMLID_4402_">
	<ellipse id="XMLID_4403_" class="st0" cx="513.1" cy="510.7" rx="513.1" ry="513.1"/>
</g>
<path id="XMLID_4271_" class="st1" d="M760.8,789.3H278c-8.1,0-14.7-6.6-14.7-14.7V246.8c0-8.1,6.6-14.7,14.7-14.7h482.8
	c8.1,0,14.7,6.6,14.7,14.7v527.9C775.4,782.7,768.8,789.3,760.8,789.3z"/>
<path id="XMLID_4268_" class="st2" d="M732.5,817.8H306.2c-39.4,0-71.4-32-71.4-71.4V275c0-39.4,32-71.4,71.4-71.4h426.3
	c39.4,0,71.4,32,71.4,71.4v471.4C803.9,785.8,771.9,817.8,732.5,817.8z M306.2,260.6c-7.8,0-14.3,6.6-14.3,14.3v471.4
	c0,7.8,6.6,14.3,14.3,14.3h426.3c7.8,0,14.3-6.6,14.3-14.3V275c0-7.8-6.6-14.3-14.3-14.3H306.2z"/>
<g id="XMLID_4265_">
	<path id="XMLID_4266_" class="st3" d="M926.7,316.6l-25.2-22.9c-18.2-16.5-47.7-15.4-65.4,2.4L587.9,544.7l-101-90.4
		c-20-17.9-52.1-16.6-71.3,2.9l-15.4,15.6c-19.3,19.5-18.7,50.1,1.3,67.9l149.6,134l9.6,8.7c18.2,16.5,47.7,15.4,65.4-2.4l301.5-302
		C945.3,361.2,945,333.1,926.7,316.6z"/>
</g>
<g id="XMLID_4262_">
	<path id="XMLID_4263_" class="st3" d="M750.1,1018.9l-24.9-366c-1-14.4,13.5-24.8,26.8-19.3l357.9,147.2c14.1,5.8,16.4,24.8,4,33.8
		l-106.7,77.2c-8.7,6.3-10.7,18.3-4.5,27.1l95.2,134c6.2,8.8,4.2,20.9-4.6,27.1l-57.4,40.9c-9,6.4-21.6,4-27.7-5.3l-93.9-145.8
		c-5.8-9.1-18-11.7-27-5.8l-107.2,69.9C767.7,1042,751.1,1033.7,750.1,1018.9z"/>
</g>
</svg>
